<svg width="807" height="603" viewBox="0 0 807 603" fill="none" xmlns="http://www.w3.org/2000/svg">
<path d="M583.035 602.211C662.667 479.045 627.377 314.644 504.211 235.012C381.045 155.379 216.644 190.67 137.012 313.836C57.379 437.001 92.6696 601.402 215.836 681.035C339.001 760.667 503.402 725.377 583.035 602.211Z" fill="#D1D1FF"/>
<path d="M622.895 419.782C599.93 470.528 558.95 513.37 504.013 537.731C385.345 590.263 246.57 536.674 194.038 418.006C171.199 366.447 168.47 311.135 182.312 260.706C99.2707 335.462 69.5429 457.814 117.235 565.516C176.603 699.646 333.481 760.228 467.611 700.86C579.085 651.514 639.701 534.771 622.895 419.782Z" fill="#AFAFFF"/>
<path d="M692.766 739.377C714.014 714.276 677.387 645.231 604.039 560.012C602.471 564.287 600.814 568.582 598.885 572.701C598.763 573.009 598.696 573.351 598.574 573.659C631.067 614.704 646.126 645.095 636.59 656.38C615.537 681.298 482.863 603.703 340.259 483.126C197.655 362.55 99.1255 244.564 120.188 219.691C129.458 208.697 160.51 217.694 204.496 241.5C208.184 238.364 212.526 235.65 217.232 233.326C121.856 175.908 48.5211 151.696 27.3884 176.679C-7.47314 217.879 104.436 380.497 288.186 535.9C471.936 691.303 657.905 780.577 692.721 739.386L692.766 739.377Z" fill="#9191FF"/>
<g clip-path="url(#clip0_150_61)">
<path d="M323.602 303.273C294.622 303.273 271.13 298.679 271.13 293.014C271.13 287.348 294.624 282.755 323.602 282.755C352.58 282.755 376.076 287.348 376.076 293.014C376.076 298.679 352.582 303.273 323.602 303.273Z" fill="black" stroke="black" stroke-width="2" stroke-linecap="round" stroke-linejoin="round"/>
<path d="M339.444 133.907C350.221 134.85 359.452 135.921 367.803 149.442C374.381 160.09 377.542 178.386 378.858 192.368C379.887 203.312 380.292 212.811 378.729 218.948C375.848 230.261 367.452 234.863 356.144 231.25C344.837 227.638 338.69 159.723 338.69 159.723L339.444 133.909" fill="white"/>
<path d="M339.444 133.907C350.221 134.85 359.452 135.921 367.803 149.442C374.381 160.09 377.542 178.386 378.858 192.368C379.887 203.312 380.292 212.811 378.729 218.948C375.848 230.261 367.452 234.863 356.144 231.25C344.837 227.638 338.69 159.723 338.69 159.723L339.444 133.909" stroke="black" stroke-width="2" stroke-linecap="round" stroke-linejoin="round"/>
<path d="M378.731 218.946C375.846 230.261 367.452 234.859 356.146 231.246C344.835 227.636 338.69 159.721 338.69 159.721L338.948 150.967L339.444 133.911C347.678 134.63 355.016 135.426 361.741 141.796C363.818 143.765 365.837 146.259 367.803 149.444C374.381 160.09 377.544 178.388 378.86 192.366C379.887 203.312 380.292 212.809 378.731 218.948" fill="white"/>
<path d="M378.731 218.946C375.846 230.261 367.452 234.859 356.146 231.246C344.835 227.636 338.69 159.721 338.69 159.721L338.948 150.967L339.444 133.911C347.678 134.63 355.016 135.426 361.741 141.796C363.818 143.765 365.837 146.259 367.803 149.444C374.381 160.09 377.544 178.388 378.86 192.366C379.887 203.312 380.292 212.809 378.731 218.948" stroke="black" stroke-width="2" stroke-linecap="round" stroke-linejoin="round"/>
<path d="M379.762 208.301C379.333 215.743 378.082 220.389 373.825 220.389C367.448 220.389 368.794 209.386 368.794 209.386" fill="white"/>
<path d="M379.762 208.301C379.333 215.743 378.082 220.389 373.825 220.389C367.448 220.389 368.794 209.386 368.794 209.386" stroke="black" stroke-width="2" stroke-linecap="round" stroke-linejoin="round"/>
<path d="M309.245 136.455L309.402 146.485L309.483 151.592L310.871 239.694C310.871 239.694 304.859 239.446 296.822 238.469C295.251 238.278 293.601 238.06 291.904 237.808C279.26 235.949 263.984 232.332 258.492 225.47C250.284 215.205 251.511 167.422 260.398 148.949C264.468 140.481 282.886 137.729 295.903 136.85C297.358 136.75 298.748 136.675 300.04 136.619C305.488 136.377 309.245 136.455 309.245 136.455Z" fill="white" stroke="black" stroke-width="2" stroke-linecap="round" stroke-linejoin="round"/>
<path d="M309.402 146.485L309.483 151.592L310.585 221.545L310.871 239.694C310.871 239.694 310.746 239.688 310.506 239.676C310.44 239.67 310.357 239.668 310.273 239.664C310.206 239.66 310.127 239.656 310.053 239.652C309.994 239.652 309.936 239.646 309.878 239.644C309.855 239.64 309.827 239.644 309.805 239.64C309.698 239.634 309.577 239.627 309.451 239.617C309.424 239.617 309.398 239.617 309.366 239.613C309.263 239.607 309.154 239.601 309.037 239.593C308.88 239.585 308.717 239.573 308.546 239.561C308.425 239.551 308.294 239.545 308.163 239.537C308.028 239.527 307.893 239.519 307.754 239.509C307.579 239.499 307.393 239.482 307.204 239.472C306.821 239.442 306.416 239.414 305.989 239.38C305.61 239.355 305.216 239.321 304.801 239.285C304.323 239.245 303.823 239.204 303.304 239.154C301.388 238.981 299.196 238.757 296.824 238.467C296.363 238.413 295.893 238.35 295.42 238.292C295.092 238.251 294.751 238.205 294.413 238.159C293.595 238.05 292.752 237.933 291.906 237.806C279.258 235.947 263.986 232.33 258.5 225.466C251.739 217.016 251.372 183.124 256.421 161.102C254.678 180.401 256.137 201.211 261.234 207.579C263.752 210.728 274.711 200.332 274.745 194.125C274.833 178.12 278.101 157.632 293.254 145.902C293.647 145.598 302.22 146.99 309.402 146.481V146.485Z" fill="black" stroke="black" stroke-width="2" stroke-linecap="round" stroke-linejoin="round"/>
<path d="M256.522 189.251L273.752 191.069C275.289 191.232 276.526 192.408 276.756 193.937C277.596 199.538 278.863 212.576 273.314 216.702C268.709 220.127 261.42 219.488 257.249 215.737C252.585 211.54 252.5 198.789 252.768 192.485C252.851 190.525 254.569 189.044 256.52 189.249L256.522 189.251Z" fill="white" stroke="black" stroke-width="2" stroke-linecap="round" stroke-linejoin="round"/>
<path d="M347.426 214.345C336.351 219.514 281.927 228.023 283.271 218.944C284.168 212.888 276.179 201.626 295.664 129.239L354.371 137.545L363.079 152.952C373.446 183.862 375.467 204.902 362.853 219.418L347.426 214.345Z" fill="white" stroke="black" stroke-width="2" stroke-linecap="round" stroke-linejoin="round"/>
<path d="M358.263 144.436C351.22 148.91 340.02 151.804 327.406 151.804C312.023 151.804 298.746 147.504 292.539 141.283C293.325 138.136 294.167 134.868 295.063 131.475C296.367 130.822 297.803 130.216 299.29 129.754L354.369 137.549L358.263 144.438V144.436Z" fill="black" stroke="black" stroke-width="2" stroke-linecap="round" stroke-linejoin="round"/>
<path d="M371.46 193.011C376.202 192.823 379.269 201.513 370.483 204.61L371.46 193.011Z" fill="black"/>
<path d="M371.46 193.011C376.202 192.823 379.269 201.513 370.483 204.61" stroke="black" stroke-width="2" stroke-linecap="round" stroke-linejoin="round"/>
<path d="M393.098 96.1286C390.322 106.373 384.94 115.984 377.109 123.92C375.511 125.538 373.819 127.083 372.024 128.55C371.154 129.265 370.251 129.962 369.328 130.647C366.536 132.696 363.633 134.487 360.641 136.024C358.066 137.356 355.423 138.496 352.741 139.453C349.503 140.612 346.201 141.496 342.869 142.121C341.654 142.344 340.435 142.536 339.216 142.693C316.877 145.554 293.685 136.764 279.296 117.698C258.095 89.621 264.037 49.8886 292.553 28.9556C298.047 24.9282 303.983 21.8799 310.132 19.8068C310.849 19.5569 311.574 19.3273 312.305 19.1137C314.254 18.5274 316.22 18.0378 318.198 17.6409C322.774 16.7262 327.416 16.3172 332.028 16.3938C336.639 16.4663 341.235 17.0264 345.716 18.062C347.14 18.3904 348.554 18.7651 349.959 19.1923C352.062 19.8329 354.133 20.5724 356.172 21.4286C366.332 25.6656 375.517 32.5459 382.579 41.9023C394.776 58.0543 397.988 78.0605 393.096 96.1286" fill="white"/>
<path d="M393.098 96.1286C390.322 106.373 384.94 115.984 377.109 123.92C375.511 125.538 373.819 127.083 372.024 128.55C371.154 129.265 370.251 129.962 369.328 130.647C366.536 132.696 363.633 134.487 360.641 136.024C358.066 137.356 355.423 138.496 352.741 139.453C349.503 140.612 346.201 141.496 342.869 142.121C341.654 142.344 340.435 142.536 339.216 142.693C316.877 145.554 293.685 136.764 279.296 117.698C258.095 89.621 264.037 49.8886 292.553 28.9556C298.047 24.9282 303.983 21.8799 310.132 19.8068C310.849 19.5569 311.574 19.3273 312.305 19.1137C314.254 18.5274 316.22 18.0378 318.198 17.6409C322.774 16.7262 327.416 16.3172 332.028 16.3938C336.639 16.4663 341.235 17.0264 345.716 18.062C347.14 18.3904 348.554 18.7651 349.959 19.1923C352.062 19.8329 354.133 20.5724 356.172 21.4286C366.332 25.6656 375.517 32.5459 382.579 41.9023C394.776 58.0543 397.988 78.0605 393.096 96.1286" stroke="black" stroke-width="2" stroke-linecap="round" stroke-linejoin="round"/>
<path d="M284.937 119.516C263.736 91.4343 269.676 51.7019 298.192 30.7709C303.686 26.7435 309.622 23.6952 315.771 21.6221C316.488 21.3722 317.213 21.1426 317.945 20.929C319.893 20.3427 321.859 19.8531 323.838 19.4562C328.413 18.5415 333.055 18.1326 337.667 18.2091C342.278 18.2816 346.874 18.8417 351.355 19.8773C352.779 20.2057 353.596 20.5729 355 21" fill="black"/>
<path d="M284.937 119.516C263.736 91.4343 269.676 51.7019 298.192 30.7709C303.686 26.7435 309.622 23.6952 315.771 21.6221C316.488 21.3722 317.213 21.1426 317.945 20.929C319.893 20.3427 321.859 19.8531 323.838 19.4562C328.413 18.5415 333.055 18.1326 337.667 18.2091C342.278 18.2816 346.874 18.8417 351.355 19.8773C352.779 20.2057 353.596 20.5729 355 21" stroke="black" stroke-width="2" stroke-linecap="round" stroke-linejoin="round"/>
<path d="M288.564 122.135C267.363 94.0535 273.302 54.3211 301.819 33.3901C307.313 29.3626 313.248 26.3144 319.397 24.2412C320.114 23.9914 320.84 23.7617 321.571 23.5481C323.519 22.9619 325.486 22.4723 327.464 22.0754C332.04 21.1607 336.682 20.7517 341.293 20.8283C345.905 20.9008 350.501 21.4609 354.981 22.4965C356.406 22.8249 359.224 23.6267 359.224 23.6267" fill="white"/>
<path d="M288.564 122.135C267.363 94.0535 273.302 54.3211 301.819 33.3901C307.313 29.3626 313.248 26.3144 319.397 24.2412C320.114 23.9914 320.84 23.7617 321.571 23.5481C323.519 22.9619 325.486 22.4723 327.464 22.0754C332.04 21.1607 336.682 20.7517 341.293 20.8283C345.905 20.9008 350.501 21.4609 354.981 22.4965C356.406 22.8249 359.224 23.6267 359.224 23.6267" stroke="black" stroke-width="2" stroke-linecap="round" stroke-linejoin="round"/>
<path d="M386.838 111.171C356.327 145.125 302.079 138.992 288.84 96.0561C279.832 66.8446 301.909 35.562 330.944 28.7925C352.074 23.8665 374.877 28.1639 391.555 58.3848C391.555 58.3848 396.839 72.8888 395.155 83.7824C393.471 94.676 389.969 104.993 389.969 104.993L386.838 111.171Z" fill="#5555FF"/>
<path d="M386.838 111.171C356.327 145.125 302.079 138.992 288.84 96.0561C279.832 66.8446 301.909 35.562 330.944 28.7925C352.074 23.8665 374.877 28.1639 391.555 58.3848C391.555 58.3848 396.839 72.8888 395.155 83.7824C393.471 94.676 389.969 104.993 389.969 104.993L386.838 111.171" stroke="black" stroke-width="2" stroke-linecap="round" stroke-linejoin="round"/>
<path d="M288.84 96.0561C302.079 138.99 356.327 145.123 386.836 111.173L387.471 109.919C348.863 126.605 302.877 112.371 288.671 69.2058C286.239 77.8288 286.062 87.0402 288.84 96.0561Z" fill="black"/>
<path d="M288.84 96.0561C302.079 138.99 356.327 145.123 386.836 111.173L387.471 109.919C348.863 126.605 302.877 112.371 288.671 69.2058C286.239 77.8288 286.062 87.0402 288.84 96.0561" stroke="black" stroke-width="2" stroke-linecap="round" stroke-linejoin="round"/>
<path d="M260.432 99.9425C262.634 112.261 271.858 121.295 281.039 120.122C290.22 118.947 295.877 108.011 293.677 95.6934C293.665 95.6149 293.647 95.5343 293.631 95.4577C291.358 83.2606 282.185 74.3494 273.071 75.516C265.979 76.4226 260.988 83.1558 260.1 91.8493C259.84 94.4101 259.935 97.142 260.434 99.9425H260.432Z" fill="white" stroke="black" stroke-width="2" stroke-linecap="round" stroke-linejoin="round"/>
<path d="M259.358 101.665C261.194 111.7 268.306 119.161 275.246 118.329C282.187 117.495 286.327 108.686 284.492 98.651C282.659 88.6157 275.545 81.1552 268.604 81.9872C261.663 82.8213 257.525 91.6297 259.358 101.665Z" fill="black" stroke="black" stroke-width="2" stroke-linecap="round" stroke-linejoin="round"/>
<path d="M303.668 86.5103C303.553 86.5103 303.441 86.5063 303.326 86.5023C298.581 86.2887 294.947 81.6971 295.206 76.2473C295.46 70.9304 299.331 66.7599 303.926 66.7599C304.039 66.7599 304.154 66.764 304.269 66.768C309.013 66.9816 312.648 71.5731 312.388 77.023C312.134 82.3398 308.264 86.5103 303.668 86.5103Z" fill="white"/>
<path d="M290.988 172.753C290.988 172.753 253.536 165.338 251.116 137.785C249.702 121.663 262.362 107.119 271.948 99.2172C282.262 90.2375 291.268 86.2021 295.889 89.7802C295.889 89.7802 303.326 86.5022 308.369 89.6029C313.712 92.8869 316.492 101.26 312.785 109.148C310.335 114.362 303.227 124.345 292.394 133.026C295.388 134.999 301.19 137.255 306.471 138.651C310.73 151.81 304.649 166.096 292.215 172.152L290.986 172.751L290.988 172.753Z" fill="white" stroke="black" stroke-width="2" stroke-linecap="round" stroke-linejoin="round"/>
<path d="M278.428 144.279C278.428 144.279 286.801 137.58 292.394 133.026L278.428 144.279Z" fill="white"/>
<path d="M278.428 144.279C278.428 144.279 286.801 137.58 292.394 133.026" stroke="black" stroke-width="2" stroke-linecap="round" stroke-linejoin="round"/>
<path d="M443.271 293.771H436.036V15.0359H443.271V293.771Z" fill="#B3BAC5" stroke="black" stroke-width="2" stroke-linecap="round" stroke-linejoin="round"/>
<path d="M447.326 8.67946C447.326 12.9164 443.891 16.3515 439.654 16.3515C435.417 16.3515 431.982 12.9164 431.982 8.67946C431.982 4.44249 435.417 1.00739 439.654 1.00739C443.891 1.00739 447.326 4.44249 447.326 8.67946Z" fill="#B3BAC5" stroke="black" stroke-width="2" stroke-linecap="round" stroke-linejoin="round"/>
<path d="M436.036 15.0359C436.036 15.0359 442.666 13.3798 450.338 16.5711C459.677 20.4555 464.754 25.8167 478.669 24.9C491.058 24.084 501.363 22.2506 518.563 26.3244C527.734 28.4963 541.476 36.0636 541.476 36.0636L538.896 101.004C538.896 101.004 530.371 102.346 518.811 97.2609C510.778 93.7271 502.042 88.6479 484.73 92.7439C470.602 96.0843 456.999 90.9326 450.095 89.2886C443.188 87.6446 436.038 88.6318 436.038 88.6318C436.038 88.6318 434.533 84.3848 436.038 82.1101C436.038 82.1101 443.103 80.6072 448.076 81.1834C448.076 81.1834 448.579 66.6653 448.422 55.3687C448.269 44.3965 448.203 24.7851 448.203 24.7851C448.203 24.7851 445.553 21.6966 436.036 22.7986C436.036 22.7986 434.611 17.8303 436.036 15.0359Z" fill="white" stroke="black" stroke-width="2" stroke-linecap="round" stroke-linejoin="round"/>
<path d="M391 303.038C391 303.038 403.26 292.88 418.468 290.311C430.197 288.331 438.194 293.194 438.194 293.194C438.194 293.194 446.861 285.736 463.45 288.694C476.588 291.034 490 304 490 304" fill="#F7D35F"/>
<path d="M391 303.038C391 303.038 403.26 292.88 418.468 290.311C430.197 288.331 438.194 293.194 438.194 293.194C438.194 293.194 446.861 285.736 463.45 288.694C476.588 291.034 490 304 490 304" stroke="black" stroke-width="2" stroke-linecap="round" stroke-linejoin="round"/>
<path d="M365.254 204.609H345.75L332.08 204.37L330.265 203.767C330.269 203.945 330.273 204.134 330.273 204.338L282.687 203.505C282.806 208.651 282.711 223.677 282.711 239.672C282.707 259.728 282.854 281.308 283.761 286.832C284.651 292.27 297.05 294.525 310.873 294.525C320.955 294.525 323.785 292.135 324.47 289.083C326.088 281.872 322.232 278.024 322.232 278.024L324.795 227.253C324.795 227.253 324.795 227.253 324.799 227.249C326.082 225.448 328.923 226.481 328.752 228.687C326.878 252.776 324.033 285.454 326.396 289.998C327.956 292.998 333.073 293.729 347.382 293.767C358.39 293.797 361.664 292.947 363.465 288.706C364.088 287.231 364.287 285.839 364.132 284.54C363.761 281.35 361.291 278.709 357.852 276.733C358.751 273.374 359.875 250.12 362.353 229.387C362.948 224.412 365.254 204.607 365.254 204.607V204.609Z" fill="white" stroke="black" stroke-width="2" stroke-linecap="round" stroke-linejoin="round"/>
<path d="M495.928 50.5172H513.353V66.3288L495.928 50.5172Z" fill="#5555FF"/>
<path d="M504.652 53.082L491.559 67.7417L497.353 72.9168L510.447 58.2571L504.652 53.082Z" fill="#5555FF"/>
<path d="M487.498 73.0137C481.121 73.0137 479.784 70.5194 479.784 68.4261V51.5266H485.91V65.6821C485.91 67.8076 487.77 67.8076 488.662 67.8076H500.034V73.0137H487.5H487.498Z" fill="black"/>
<path d="M484.901 52.5319V65.68C484.901 67.1407 485.596 67.8942 486.18 68.269C486.928 68.7485 487.814 68.815 488.66 68.815H499.024V72.0063H487.498C485.125 72.0063 483.263 71.6174 482.115 70.88C481.198 70.2917 480.789 69.5342 480.789 68.4241V52.5319H484.901ZM486.916 50.5172H478.774V68.4241C478.774 72.0325 481.871 74.019 487.496 74.019H501.037V66.7982H488.658C487.272 66.7982 486.914 66.5685 486.914 65.68V50.5172H486.916Z" fill="black"/>
<path d="M479.784 47.745V47.4226C479.784 45.3293 481.121 42.8351 487.498 42.8351H505.618L509.047 47.747H479.781L479.784 47.745Z" fill="black"/>
<path d="M505.095 43.8424L507.118 46.7396H480.852C480.997 45.9881 481.402 45.428 482.117 44.9687C483.265 44.2313 485.127 43.8424 487.5 43.8424H505.095ZM506.145 41.8277H487.498C481.873 41.8277 478.777 43.8142 478.777 47.4226V48.7523H510.982L506.145 41.8257V41.8277Z" fill="black"/>
<path d="M503.811 66.1757C503.835 66.0226 503.847 65.8594 503.847 65.6801V58.8643H499.693L495.615 53.6219H509.974V68.4241C509.974 71.688 506.827 72.7135 503.811 72.9492V66.1757Z" fill="black"/>
<path d="M508.967 54.6293V68.4241C508.967 69.496 508.588 70.2313 507.736 70.8116C507.037 71.287 506.046 71.6275 504.819 71.8189V66.2502C504.843 66.0709 504.855 65.8815 504.855 65.6801V57.8569H500.187L497.676 54.6293H508.967ZM510.982 52.6146H493.556L499.203 59.8716H502.842V65.6801C502.842 65.8352 502.83 65.9682 502.806 66.085V74.0089C508.08 73.882 510.984 71.9136 510.984 68.4261V52.6166L510.982 52.6146Z" fill="black"/>
<path d="M438 293C438 293 434.235 296.114 432 300L438 293Z" fill="#F7D35F"/>
<path d="M438 293C438 293 434.235 296.114 432 300" stroke="black" stroke-width="2" stroke-linecap="round" stroke-linejoin="round"/>
<path d="M362.885 219.508L325.147 220.385C320.681 220.49 316.937 216.919 316.832 212.447L316.367 192.366C316.276 188.451 319.002 185.097 322.685 184.253C323.207 184.13 323.749 184.063 324.305 184.049L362.039 183.173C366.512 183.068 370.255 186.638 370.354 191.109L370.726 207.015L370.825 211.192C370.93 215.664 367.354 219.402 362.887 219.506" fill="white"/>
<path d="M362.885 219.508L325.147 220.385C320.681 220.49 316.937 216.919 316.832 212.447L316.367 192.366C316.276 188.451 319.002 185.097 322.685 184.253C323.207 184.13 323.749 184.063 324.305 184.049L362.039 183.173C366.512 183.068 370.255 186.638 370.354 191.109L370.726 207.015L370.825 211.192C370.93 215.664 367.354 219.402 362.887 219.506" stroke="black" stroke-width="2" stroke-linecap="round" stroke-linejoin="round"/>
<path d="M325.145 220.387C321.871 220.459 318.99 218.568 317.644 215.781C317.151 214.772 316.863 213.646 316.838 212.449L316.627 203.528L316.558 200.582L316.442 195.412L316.371 192.366C316.268 187.893 319.838 184.154 324.305 184.049L332.461 183.864C328.719 184.66 325.935 188.04 326.024 191.991L326.161 197.953L326.277 202.841L326.489 212.084C326.596 216.547 330.388 220.123 334.852 220.022L325.149 220.385L325.145 220.387Z" fill="black" stroke="black" stroke-width="2" stroke-linecap="round" stroke-linejoin="round"/>
<path d="M341.138 201.853C341.15 202.597 340.211 208.611 340.211 208.611C340.211 208.611 338.311 208.643 335.98 208.685C333.067 208.736 330.651 205.762 330.587 202.039C330.523 198.318 332.831 195.259 335.745 195.209C337.711 195.175 339.976 195.134 339.976 195.134C339.976 195.134 341.118 200.645 341.138 201.855" fill="#00CA20"/>
<path d="M341.138 201.853C341.15 202.597 340.211 208.611 340.211 208.611C340.211 208.611 338.311 208.643 335.98 208.685C333.067 208.736 330.651 205.762 330.587 202.039C330.523 198.318 332.831 195.259 335.745 195.209C337.711 195.175 339.976 195.134 339.976 195.134C339.976 195.134 341.118 200.645 341.138 201.855" stroke="black" stroke-width="2" stroke-linecap="round" stroke-linejoin="round"/>
<path d="M345.369 201.781C345.433 205.502 343.125 208.56 340.211 208.611C337.298 208.661 334.882 205.685 334.818 201.964C334.753 198.243 337.062 195.185 339.976 195.134C342.891 195.084 345.305 198.058 345.369 201.781Z" fill="#00CA20"/>
<path d="M345.369 201.781C345.433 205.502 343.125 208.56 340.211 208.611C337.298 208.661 334.882 205.685 334.818 201.964C334.753 198.243 337.062 195.185 339.976 195.134C342.891 195.084 345.305 198.058 345.369 201.781" stroke="black" stroke-width="2" stroke-linecap="round" stroke-linejoin="round"/>
<path d="M316.434 195.223C316.434 195.223 323.286 195.283 323.592 201.384C323.898 207.484 316.75 208.687 316.75 208.687C316.75 208.687 296.127 211.427 282.607 206.11C276.441 199.742 283.066 193.172 283.066 193.172C283.066 193.172 302.26 196.293 316.436 195.221L316.434 195.223Z" fill="white" stroke="black" stroke-width="2" stroke-linecap="round" stroke-linejoin="round"/>
<path d="M316.748 208.689C316.748 208.689 296.127 211.427 282.606 206.11C280.088 203.509 279.701 200.874 280.126 198.668C280.535 199.492 281.123 200.328 281.927 201.16C295.452 206.475 316.073 203.737 316.073 203.737C316.073 203.737 321.623 202.8 322.736 198.41C323.211 199.192 323.531 200.169 323.592 201.384C323.9 207.484 316.748 208.689 316.748 208.689Z" fill="black" stroke="black" stroke-width="2" stroke-linecap="round" stroke-linejoin="round"/>
<path d="M361.33 39.2751C361.33 39.2751 381.554 50.1969 387.471 71.4764" stroke="white" stroke-width="6" stroke-linecap="round" stroke-linejoin="round"/>
<path d="M251.87 128.129C251.87 128.129 259.04 157.002 299.377 167.142C299.377 167.142 295.507 170.958 290.988 172.755C290.988 172.755 244.609 162.429 251.872 128.131L251.87 128.129Z" fill="black" stroke="black" stroke-width="2" stroke-linecap="round" stroke-linejoin="round"/>
<path d="M325.891 229.161L325.504 280.246C325.504 280.246 322.169 294.855 335.864 293.437L351.264 293.771C351.264 293.771 333.857 290.826 333.003 284.169C332.148 277.512 328.756 228.69 328.756 228.69C328.756 228.69 327.883 224.779 324.803 227.251C324.803 227.251 326.253 227.267 325.893 229.159L325.891 229.161Z" fill="black" stroke="black" stroke-width="2" stroke-linecap="round" stroke-linejoin="round"/>
</g>
<defs>
<clipPath id="clip0_150_61">
<rect width="292.486" height="304.28" fill="white" transform="translate(250)"/>
</clipPath>
</defs>
</svg>
