<svg width="893" height="905" viewBox="0 0 893 905" fill="none" xmlns="http://www.w3.org/2000/svg">
<path d="M669.035 602.211C748.667 479.045 713.377 314.644 590.211 235.012C467.045 155.379 302.644 190.67 223.012 313.836C143.379 437.001 178.67 601.402 301.836 681.035C425.001 760.667 589.402 725.377 669.035 602.211Z" fill="#D1D1FF"/>
<path d="M708.895 419.782C685.93 470.528 644.95 513.37 590.013 537.731C471.345 590.263 332.57 536.674 280.038 418.006C257.199 366.447 254.47 311.135 268.312 260.706C185.271 335.462 155.543 457.814 203.235 565.516C262.603 699.646 419.481 760.228 553.611 700.86C665.085 651.514 725.701 534.771 708.895 419.782Z" fill="#AFAFFF"/>
<path d="M778.766 739.376C800.014 714.275 763.387 645.231 690.039 560.012C688.471 564.287 686.814 568.582 684.885 572.701C684.763 573.008 684.696 573.351 684.574 573.659C717.067 614.704 732.126 645.095 722.59 656.38C701.537 681.298 568.863 603.703 426.259 483.126C283.655 362.55 185.125 244.564 206.188 219.691C215.458 208.697 246.51 217.694 290.496 241.5C294.184 238.364 298.526 235.65 303.232 233.326C207.856 175.908 134.521 151.696 113.388 176.679C78.5269 217.879 190.436 380.497 374.186 535.9C557.936 691.303 743.905 780.577 778.721 739.386L778.766 739.376Z" fill="#9191FF"/>
<g clip-path="url(#clip0_150_61)">
<path d="M409.602 303.273C380.622 303.273 357.13 298.679 357.13 293.014C357.13 287.348 380.624 282.755 409.602 282.755C438.58 282.755 462.076 287.348 462.076 293.014C462.076 298.679 438.582 303.273 409.602 303.273Z" fill="black" stroke="black" stroke-width="2" stroke-linecap="round" stroke-linejoin="round"/>
<path d="M425.444 133.907C436.221 134.85 445.452 135.921 453.803 149.442C460.381 160.09 463.542 178.386 464.858 192.368C465.887 203.312 466.292 212.811 464.729 218.948C461.848 230.261 453.453 234.863 442.144 231.25C430.837 227.638 424.69 159.723 424.69 159.723L425.444 133.909" fill="white"/>
<path d="M425.444 133.907C436.221 134.85 445.452 135.921 453.803 149.442C460.381 160.09 463.542 178.386 464.858 192.368C465.887 203.312 466.292 212.811 464.729 218.948C461.848 230.261 453.453 234.863 442.144 231.25C430.837 227.638 424.69 159.723 424.69 159.723L425.444 133.909" stroke="black" stroke-width="2" stroke-linecap="round" stroke-linejoin="round"/>
<path d="M464.731 218.946C461.846 230.261 453.453 234.858 442.146 231.246C430.835 227.636 424.69 159.721 424.69 159.721L424.948 150.967L425.444 133.911C433.678 134.63 441.016 135.426 447.741 141.796C449.818 143.765 451.837 146.259 453.803 149.444C460.381 160.09 463.544 178.388 464.86 192.366C465.887 203.312 466.292 212.809 464.731 218.948" fill="white"/>
<path d="M464.731 218.946C461.846 230.261 453.453 234.858 442.146 231.246C430.835 227.636 424.69 159.721 424.69 159.721L424.948 150.967L425.444 133.911C433.678 134.63 441.016 135.426 447.741 141.796C449.818 143.765 451.837 146.259 453.803 149.444C460.381 160.09 463.544 178.388 464.86 192.366C465.887 203.312 466.292 212.809 464.731 218.948" stroke="black" stroke-width="2" stroke-linecap="round" stroke-linejoin="round"/>
<path d="M465.762 208.3C465.333 215.743 464.082 220.389 459.825 220.389C453.448 220.389 454.794 209.386 454.794 209.386" fill="white"/>
<path d="M465.762 208.3C465.333 215.743 464.082 220.389 459.825 220.389C453.448 220.389 454.794 209.386 454.794 209.386" stroke="black" stroke-width="2" stroke-linecap="round" stroke-linejoin="round"/>
<path d="M395.245 136.456L395.402 146.485L395.483 151.592L396.871 239.694C396.871 239.694 390.859 239.446 382.822 238.469C381.251 238.278 379.601 238.06 377.904 237.808C365.26 235.949 349.984 232.332 344.492 225.47C336.284 215.205 337.511 167.422 346.398 148.949C350.468 140.481 368.886 137.729 381.903 136.85C383.358 136.75 384.748 136.675 386.04 136.619C391.488 136.377 395.245 136.456 395.245 136.456Z" fill="white" stroke="black" stroke-width="2" stroke-linecap="round" stroke-linejoin="round"/>
<path d="M395.402 146.485L395.483 151.592L396.585 221.545L396.871 239.694C396.871 239.694 396.746 239.688 396.506 239.676C396.44 239.67 396.357 239.668 396.273 239.664C396.206 239.66 396.127 239.656 396.053 239.652C395.994 239.652 395.936 239.646 395.878 239.644C395.855 239.64 395.827 239.644 395.805 239.64C395.698 239.633 395.577 239.627 395.451 239.617C395.424 239.617 395.398 239.617 395.366 239.613C395.263 239.607 395.154 239.601 395.037 239.593C394.88 239.585 394.717 239.573 394.546 239.561C394.425 239.551 394.294 239.545 394.163 239.537C394.028 239.527 393.893 239.519 393.754 239.509C393.579 239.498 393.393 239.482 393.204 239.472C392.821 239.442 392.416 239.414 391.989 239.38C391.61 239.355 391.216 239.321 390.801 239.285C390.323 239.245 389.823 239.204 389.304 239.154C387.388 238.981 385.196 238.757 382.824 238.467C382.363 238.413 381.893 238.35 381.42 238.292C381.092 238.251 380.751 238.205 380.413 238.159C379.595 238.05 378.752 237.933 377.906 237.806C365.258 235.947 349.986 232.33 344.5 225.466C337.739 217.016 337.372 183.124 342.421 161.101C340.678 180.401 342.137 201.211 347.234 207.579C349.752 210.728 360.711 200.332 360.745 194.125C360.833 178.12 364.101 157.632 379.254 145.902C379.647 145.598 388.22 146.99 395.402 146.481V146.485Z" fill="black" stroke="black" stroke-width="2" stroke-linecap="round" stroke-linejoin="round"/>
<path d="M342.522 189.251L359.752 191.068C361.289 191.232 362.526 192.408 362.756 193.937C363.596 199.538 364.863 212.576 359.314 216.702C354.709 220.127 347.42 219.488 343.249 215.737C338.585 211.54 338.5 198.789 338.768 192.485C338.851 190.524 340.569 189.044 342.52 189.249L342.522 189.251Z" fill="white" stroke="black" stroke-width="2" stroke-linecap="round" stroke-linejoin="round"/>
<path d="M433.426 214.345C422.351 219.515 367.927 228.023 369.271 218.944C370.168 212.888 362.179 201.626 381.664 129.239L440.371 137.545L449.079 152.952C459.446 183.862 461.467 204.902 448.853 219.418L433.426 214.345Z" fill="white" stroke="black" stroke-width="2" stroke-linecap="round" stroke-linejoin="round"/>
<path d="M444.263 144.436C437.22 148.91 426.02 151.804 413.406 151.804C398.023 151.804 384.746 147.504 378.539 141.283C379.325 138.136 380.167 134.868 381.063 131.475C382.367 130.822 383.803 130.216 385.29 129.754L440.369 137.549L444.263 144.438V144.436Z" fill="black" stroke="black" stroke-width="2" stroke-linecap="round" stroke-linejoin="round"/>
<path d="M457.46 193.011C462.202 192.823 465.269 201.513 456.483 204.61L457.46 193.011Z" fill="black"/>
<path d="M457.46 193.011C462.202 192.823 465.269 201.513 456.483 204.61" stroke="black" stroke-width="2" stroke-linecap="round" stroke-linejoin="round"/>
<path d="M479.098 96.1286C476.322 106.373 470.94 115.984 463.109 123.92C461.511 125.538 459.819 127.083 458.024 128.55C457.154 129.265 456.251 129.962 455.328 130.647C452.536 132.696 449.633 134.487 446.641 136.024C444.066 137.356 441.423 138.496 438.741 139.453C435.503 140.612 432.201 141.496 428.869 142.121C427.654 142.344 426.435 142.536 425.216 142.693C402.877 145.554 379.685 136.764 365.296 117.698C344.095 89.621 350.037 49.8886 378.553 28.9556C384.047 24.9282 389.983 21.8799 396.132 19.8068C396.849 19.5569 397.574 19.3273 398.305 19.1137C400.254 18.5274 402.22 18.0378 404.198 17.6409C408.774 16.7262 413.416 16.3172 418.028 16.3938C422.639 16.4663 427.235 17.0264 431.716 18.062C433.14 18.3904 434.554 18.7651 435.959 19.1923C438.062 19.8329 440.133 20.5724 442.172 21.4286C452.332 25.6656 461.517 32.5459 468.579 41.9023C480.776 58.0543 483.988 78.0605 479.096 96.1286" fill="white"/>
<path d="M479.098 96.1286C476.322 106.373 470.94 115.984 463.109 123.92C461.511 125.538 459.819 127.083 458.024 128.55C457.154 129.265 456.251 129.962 455.328 130.647C452.536 132.696 449.633 134.487 446.641 136.024C444.066 137.356 441.423 138.496 438.741 139.453C435.503 140.612 432.201 141.496 428.869 142.121C427.654 142.344 426.435 142.536 425.216 142.693C402.877 145.554 379.685 136.764 365.296 117.698C344.095 89.621 350.037 49.8886 378.553 28.9556C384.047 24.9282 389.983 21.8799 396.132 19.8068C396.849 19.5569 397.574 19.3273 398.305 19.1137C400.254 18.5274 402.22 18.0378 404.198 17.6409C408.774 16.7262 413.416 16.3172 418.028 16.3938C422.639 16.4663 427.235 17.0264 431.716 18.062C433.14 18.3904 434.554 18.7651 435.959 19.1923C438.062 19.8329 440.133 20.5724 442.172 21.4286C452.332 25.6656 461.517 32.5459 468.579 41.9023C480.776 58.0543 483.988 78.0605 479.096 96.1286" stroke="black" stroke-width="2" stroke-linecap="round" stroke-linejoin="round"/>
<path d="M370.937 119.516C349.736 91.4345 355.676 51.702 384.192 30.7711C389.686 26.7436 395.622 23.6953 401.771 21.6222C402.488 21.3724 403.213 21.1427 403.945 20.9291C405.893 20.3428 407.859 19.8533 409.838 19.4564C414.413 18.5417 419.055 18.1327 423.667 18.2092C428.278 18.2818 432.874 18.8419 437.355 19.8774C438.779 20.2058 439.596 20.573 441 21.0001" fill="black"/>
<path d="M370.937 119.516C349.736 91.4345 355.676 51.702 384.192 30.7711C389.686 26.7436 395.622 23.6953 401.771 21.6222C402.488 21.3724 403.213 21.1427 403.945 20.9291C405.893 20.3428 407.859 19.8533 409.838 19.4564C414.413 18.5417 419.055 18.1327 423.667 18.2092C428.278 18.2818 432.874 18.8419 437.355 19.8774C438.779 20.2058 439.596 20.573 441 21.0001" stroke="black" stroke-width="2" stroke-linecap="round" stroke-linejoin="round"/>
<path d="M374.564 122.135C353.363 94.0536 359.302 54.3212 387.819 33.3902C393.313 29.3628 399.248 26.3145 405.397 24.2413C406.114 23.9915 406.84 23.7618 407.571 23.5483C409.519 22.962 411.486 22.4724 413.464 22.0755C418.04 21.1608 422.682 20.7518 427.293 20.8284C431.905 20.9009 436.501 21.461 440.981 22.4966C442.406 22.825 445.224 23.6268 445.224 23.6268" fill="white"/>
<path d="M374.564 122.135C353.363 94.0536 359.302 54.3212 387.819 33.3902C393.313 29.3628 399.248 26.3145 405.397 24.2413C406.114 23.9915 406.84 23.7618 407.571 23.5483C409.519 22.962 411.486 22.4724 413.464 22.0755C418.04 21.1608 422.682 20.7518 427.293 20.8284C431.905 20.9009 436.501 21.461 440.981 22.4966C442.406 22.825 445.224 23.6268 445.224 23.6268" stroke="black" stroke-width="2" stroke-linecap="round" stroke-linejoin="round"/>
<path d="M472.838 111.171C442.327 145.125 388.079 138.992 374.84 96.056C365.832 66.8445 387.909 35.5619 416.944 28.7924C438.074 23.8664 460.877 28.1638 477.555 58.3847C477.555 58.3847 482.839 72.8887 481.155 83.7823C479.471 94.676 475.969 104.993 475.969 104.993L472.838 111.171Z" fill="#5555FF"/>
<path d="M472.838 111.171C442.327 145.125 388.079 138.992 374.84 96.056C365.832 66.8445 387.909 35.5619 416.944 28.7924C438.074 23.8664 460.877 28.1638 477.555 58.3847C477.555 58.3847 482.839 72.8887 481.155 83.7823C479.471 94.676 475.969 104.993 475.969 104.993L472.838 111.171" stroke="black" stroke-width="2" stroke-linecap="round" stroke-linejoin="round"/>
<path d="M374.84 96.0563C388.079 138.99 442.327 145.123 472.836 111.173L473.471 109.92C434.863 126.606 388.877 112.372 374.671 69.2061C372.239 77.8291 372.062 87.0404 374.84 96.0563Z" fill="black"/>
<path d="M374.84 96.0563C388.079 138.99 442.327 145.123 472.836 111.173L473.471 109.92C434.863 126.606 388.877 112.372 374.671 69.2061C372.239 77.8291 372.062 87.0404 374.84 96.0563" stroke="black" stroke-width="2" stroke-linecap="round" stroke-linejoin="round"/>
<path d="M346.432 99.9422C348.634 112.26 357.858 121.294 367.039 120.122C376.22 118.947 381.877 108.011 379.677 95.6932C379.665 95.6146 379.647 95.534 379.631 95.4575C377.358 83.2603 368.185 74.3492 359.071 75.5157C351.979 76.4223 346.988 83.1556 346.1 91.8491C345.84 94.4098 345.935 97.1418 346.434 99.9422H346.432Z" fill="white" stroke="black" stroke-width="2" stroke-linecap="round" stroke-linejoin="round"/>
<path d="M345.358 101.665C347.194 111.7 354.306 119.161 361.246 118.329C368.187 117.495 372.327 108.686 370.492 98.651C368.659 88.6156 361.545 81.1551 354.604 81.9872C347.663 82.8213 343.525 91.6297 345.358 101.665Z" fill="black" stroke="black" stroke-width="2" stroke-linecap="round" stroke-linejoin="round"/>
<path d="M389.668 86.5101C389.553 86.5101 389.441 86.5061 389.326 86.5021C384.581 86.2885 380.947 81.6969 381.206 76.2471C381.46 70.9303 385.331 66.7598 389.926 66.7598C390.039 66.7598 390.154 66.7638 390.269 66.7678C395.013 66.9814 398.648 71.5729 398.388 77.0228C398.134 82.3396 394.264 86.5101 389.668 86.5101Z" fill="white"/>
<path d="M376.988 172.753C376.988 172.753 339.536 165.339 337.116 137.785C335.702 121.663 348.362 107.119 357.948 99.2174C368.262 90.2377 377.268 86.2022 381.889 89.7804C381.889 89.7804 389.326 86.5024 394.369 89.6031C399.712 92.8871 402.492 101.26 398.785 109.148C396.335 114.362 389.227 124.345 378.394 133.026C381.388 134.999 387.19 137.255 392.471 138.652C396.73 151.81 390.649 166.096 378.215 172.152L376.986 172.751L376.988 172.753Z" fill="white" stroke="black" stroke-width="2" stroke-linecap="round" stroke-linejoin="round"/>
<path d="M364.428 144.279C364.428 144.279 372.801 137.58 378.394 133.026L364.428 144.279Z" fill="white"/>
<path d="M364.428 144.279C364.428 144.279 372.801 137.58 378.394 133.026" stroke="black" stroke-width="2" stroke-linecap="round" stroke-linejoin="round"/>
<path d="M529.271 293.771H522.036V15.0361H529.271V293.771Z" fill="#B3BAC5" stroke="black" stroke-width="2" stroke-linecap="round" stroke-linejoin="round"/>
<path d="M533.326 8.6794C533.326 12.9164 529.891 16.3515 525.654 16.3515C521.417 16.3515 517.982 12.9164 517.982 8.6794C517.982 4.44243 521.417 1.00732 525.654 1.00732C529.891 1.00732 533.326 4.44243 533.326 8.6794Z" fill="#B3BAC5" stroke="black" stroke-width="2" stroke-linecap="round" stroke-linejoin="round"/>
<path d="M522.036 15.036C522.036 15.036 528.666 13.3799 536.338 16.5712C545.677 20.4556 550.754 25.8168 564.669 24.9001C577.058 24.0841 587.363 22.2507 604.563 26.3245C613.734 28.4964 627.476 36.0637 627.476 36.0637L624.896 101.004C624.896 101.004 616.371 102.346 604.811 97.261C596.778 93.7272 588.042 88.648 570.73 92.744C556.602 96.0844 542.999 90.9327 536.095 89.2887C529.188 87.6447 522.038 88.6319 522.038 88.6319C522.038 88.6319 520.533 84.3849 522.038 82.1103C522.038 82.1103 529.103 80.6073 534.076 81.1835C534.076 81.1835 534.579 66.6654 534.422 55.3688C534.269 44.3966 534.203 24.7853 534.203 24.7853C534.203 24.7853 531.553 21.6967 522.036 22.7987C522.036 22.7987 520.611 17.8304 522.036 15.036Z" fill="white" stroke="black" stroke-width="2" stroke-linecap="round" stroke-linejoin="round"/>
<path d="M477 303.038C477 303.038 489.26 292.88 504.468 290.311C516.197 288.331 524.194 293.194 524.194 293.194C524.194 293.194 532.861 285.736 549.45 288.694C562.588 291.034 576 304 576 304" fill="#F7D35F"/>
<path d="M477 303.038C477 303.038 489.26 292.88 504.468 290.311C516.197 288.331 524.194 293.194 524.194 293.194C524.194 293.194 532.861 285.736 549.45 288.694C562.588 291.034 576 304 576 304" stroke="black" stroke-width="2" stroke-linecap="round" stroke-linejoin="round"/>
<path d="M451.254 204.609H431.75L418.08 204.37L416.265 203.767C416.269 203.945 416.273 204.134 416.273 204.337L368.687 203.505C368.806 208.651 368.711 223.677 368.711 239.672C368.707 259.728 368.854 281.308 369.761 286.832C370.651 292.27 383.05 294.525 396.873 294.525C406.955 294.525 409.785 292.135 410.47 289.083C412.088 281.872 408.232 278.024 408.232 278.024L410.795 227.253C410.795 227.253 410.795 227.253 410.799 227.249C412.082 225.448 414.923 226.481 414.752 228.687C412.878 252.775 410.033 285.454 412.396 289.998C413.956 292.997 419.073 293.729 433.382 293.767C444.39 293.797 447.664 292.947 449.465 288.706C450.088 287.231 450.287 285.839 450.132 284.54C449.761 281.35 447.291 278.709 443.852 276.733C444.751 273.374 445.875 250.12 448.353 229.387C448.948 224.412 451.254 204.607 451.254 204.607V204.609Z" fill="white" stroke="black" stroke-width="2" stroke-linecap="round" stroke-linejoin="round"/>
<path d="M581.927 50.5171H599.353V66.3287L581.927 50.5171Z" fill="#5555FF"/>
<path d="M590.652 53.082L577.559 67.7417L583.353 72.9168L596.446 58.2571L590.652 53.082Z" fill="#5555FF"/>
<path d="M573.498 73.0134C567.121 73.0134 565.784 70.5192 565.784 68.4259V51.5264H571.91V65.6818C571.91 67.8074 573.77 67.8074 574.662 67.8074H586.034V73.0134H573.5H573.498Z" fill="black"/>
<path d="M570.901 52.5318V65.6799C570.901 67.1406 571.596 67.8941 572.18 68.2688C572.928 68.7483 573.814 68.8148 574.66 68.8148H585.024V72.0062H573.498C571.125 72.0062 569.263 71.6173 568.115 70.8799C567.198 70.2916 566.789 69.5341 566.789 68.424V52.5318H570.901ZM572.916 50.5171H564.774V68.424C564.774 72.0323 567.871 74.0189 573.496 74.0189H587.037V66.7981H574.658C573.272 66.7981 572.914 66.5684 572.914 65.6799V50.5171H572.916Z" fill="black"/>
<path d="M565.784 47.7448V47.4225C565.784 45.3292 567.121 42.835 573.498 42.835H591.618L595.047 47.7469H565.781L565.784 47.7448Z" fill="black"/>
<path d="M591.095 43.8424L593.118 46.7396H566.852C566.997 45.9881 567.402 45.428 568.117 44.9687C569.265 44.2313 571.127 43.8424 573.5 43.8424H591.095ZM592.145 41.8277H573.498C567.873 41.8277 564.777 43.8142 564.777 47.4226V48.7523H596.982L592.145 41.8257V41.8277Z" fill="black"/>
<path d="M589.811 66.1758C589.835 66.0227 589.847 65.8595 589.847 65.6802V58.8644H585.693L581.615 53.6221H595.974V68.4243C595.974 71.6881 592.827 72.7136 589.811 72.9493V66.1758Z" fill="black"/>
<path d="M594.967 54.6295V68.4243C594.967 69.4961 594.588 70.2315 593.736 70.8118C593.037 71.2872 592.045 71.6277 590.818 71.8191V66.2504C590.843 66.0711 590.855 65.8817 590.855 65.6802V57.8571H586.187L583.676 54.6295H594.967ZM596.982 52.6147H579.556L585.203 59.8718H588.842V65.6802C588.842 65.8354 588.83 65.9684 588.806 66.0852V74.0091C594.08 73.8822 596.984 71.9138 596.984 68.4263V52.6168L596.982 52.6147Z" fill="black"/>
<path d="M524 293C524 293 520.235 296.114 518 300L524 293Z" fill="#F7D35F"/>
<path d="M524 293C524 293 520.235 296.114 518 300" stroke="black" stroke-width="2" stroke-linecap="round" stroke-linejoin="round"/>
<path d="M448.885 219.508L411.147 220.385C406.681 220.489 402.937 216.919 402.832 212.447L402.367 192.366C402.276 188.451 405.002 185.097 408.685 184.253C409.207 184.13 409.749 184.063 410.305 184.049L448.039 183.173C452.512 183.068 456.255 186.638 456.354 191.109L456.726 207.015L456.825 211.191C456.93 215.664 453.354 219.401 448.887 219.506" fill="white"/>
<path d="M448.885 219.508L411.147 220.385C406.681 220.489 402.937 216.919 402.832 212.447L402.367 192.366C402.276 188.451 405.002 185.097 408.685 184.253C409.207 184.13 409.749 184.063 410.305 184.049L448.039 183.173C452.512 183.068 456.255 186.638 456.354 191.109L456.726 207.015L456.825 211.191C456.93 215.664 453.354 219.401 448.887 219.506" stroke="black" stroke-width="2" stroke-linecap="round" stroke-linejoin="round"/>
<path d="M411.145 220.387C407.871 220.459 404.99 218.567 403.644 215.781C403.151 214.772 402.863 213.645 402.838 212.449L402.627 203.528L402.558 200.582L402.442 195.412L402.371 192.366C402.268 187.893 405.838 184.154 410.305 184.049L418.461 183.864C414.719 184.66 411.935 188.04 412.024 191.991L412.161 197.953L412.277 202.84L412.489 212.084C412.596 216.547 416.388 220.123 420.852 220.022L411.149 220.385L411.145 220.387Z" fill="black" stroke="black" stroke-width="2" stroke-linecap="round" stroke-linejoin="round"/>
<path d="M427.138 201.853C427.15 202.597 426.211 208.611 426.211 208.611C426.211 208.611 424.311 208.643 421.98 208.685C419.067 208.736 416.651 205.762 416.587 202.039C416.523 198.318 418.831 195.259 421.745 195.209C423.711 195.175 425.976 195.134 425.976 195.134C425.976 195.134 427.118 200.645 427.138 201.855" fill="#00CA20"/>
<path d="M427.138 201.853C427.15 202.597 426.211 208.611 426.211 208.611C426.211 208.611 424.311 208.643 421.98 208.685C419.067 208.736 416.651 205.762 416.587 202.039C416.523 198.318 418.831 195.259 421.745 195.209C423.711 195.175 425.976 195.134 425.976 195.134C425.976 195.134 427.118 200.645 427.138 201.855" stroke="black" stroke-width="2" stroke-linecap="round" stroke-linejoin="round"/>
<path d="M431.369 201.781C431.434 205.502 429.125 208.56 426.211 208.61C423.298 208.661 420.882 205.685 420.818 201.964C420.753 198.243 423.062 195.184 425.976 195.134C428.891 195.084 431.305 198.057 431.369 201.781Z" fill="#00CA20"/>
<path d="M431.369 201.781C431.434 205.502 429.125 208.56 426.211 208.61C423.298 208.661 420.882 205.685 420.818 201.964C420.753 198.243 423.062 195.184 425.976 195.134C428.891 195.084 431.305 198.057 431.369 201.781" stroke="black" stroke-width="2" stroke-linecap="round" stroke-linejoin="round"/>
<path d="M402.434 195.223C402.434 195.223 409.286 195.283 409.592 201.384C409.898 207.484 402.75 208.687 402.75 208.687C402.75 208.687 382.127 211.427 368.607 206.11C362.441 199.742 369.066 193.172 369.066 193.172C369.066 193.172 388.26 196.293 402.436 195.221L402.434 195.223Z" fill="white" stroke="black" stroke-width="2" stroke-linecap="round" stroke-linejoin="round"/>
<path d="M402.748 208.689C402.748 208.689 382.127 211.427 368.606 206.11C366.088 203.509 365.701 200.874 366.126 198.668C366.535 199.492 367.123 200.328 367.927 201.16C381.452 206.475 402.073 203.737 402.073 203.737C402.073 203.737 407.623 202.8 408.736 198.41C409.211 199.192 409.531 200.169 409.592 201.384C409.9 207.484 402.748 208.689 402.748 208.689Z" fill="black" stroke="black" stroke-width="2" stroke-linecap="round" stroke-linejoin="round"/>
<path d="M447.33 39.2749C447.33 39.2749 467.554 50.1967 473.471 71.4763" stroke="white" stroke-width="6" stroke-linecap="round" stroke-linejoin="round"/>
<path d="M337.87 128.128C337.87 128.128 345.04 157.001 385.377 167.142C385.377 167.142 381.507 170.957 376.988 172.755C376.988 172.755 330.609 162.429 337.872 128.13L337.87 128.128Z" fill="black" stroke="black" stroke-width="2" stroke-linecap="round" stroke-linejoin="round"/>
<path d="M411.891 229.161L411.504 280.246C411.504 280.246 408.169 294.855 421.864 293.437L437.264 293.771C437.264 293.771 419.857 290.826 419.003 284.169C418.148 277.512 414.756 228.689 414.756 228.689C414.756 228.689 413.883 224.779 410.803 227.251C410.803 227.251 412.253 227.267 411.893 229.159L411.891 229.161Z" fill="black" stroke="black" stroke-width="2" stroke-linecap="round" stroke-linejoin="round"/>
</g>
<defs>
<clipPath id="clip0_150_61">
<rect width="292.486" height="304.28" fill="white" transform="translate(336)"/>
</clipPath>
</defs>
</svg>
