<svg width="110" height="47" viewBox="0 0 110 47" fill="none" xmlns="http://www.w3.org/2000/svg">
    <path d="M6.13933 1.76023V16.6438V16.9958H6.50118H20.8017H21.1612V17.3455V20.5067V20.8563H20.8017H2.16856H1.80912V20.5067V1.76023H6.13933ZM6.50118 1.4082H1.44727V20.5067V21.2084H2.16856H20.8017H21.523V20.5067V17.3455V16.6438H20.8017H6.50118V1.4082Z" fill="black"/>
    <path d="M65.1361 1.76023L56.9316 9.57281L56.7024 9.79107L56.8954 10.0375L65.2591 20.7085L65.3773 20.8587H65.1047H61.8963H61.614H60.6756L53.962 12.9382L53.7111 12.6425L53.4289 12.91L51.3204 14.9189L51.2119 15.0221V15.17V20.0631C51.2119 20.6498 50.4665 20.8587 49.7669 20.8587H47.3111C46.006 20.8587 45.4174 20.4621 44.8022 19.7299L36.8631 6.77305L36.1901 5.67473V6.95375V20.7531V20.861H35.8306H32.2169H31.8574V20.7531V2.5558C31.8574 1.96909 32.6029 1.76023 33.3024 1.76023H35.5773C36.8824 1.76023 37.471 2.15684 38.0886 2.88905L46.2086 16.0759L46.8817 17.1671V15.8952V1.86818V1.76023H47.2411H50.8524H51.2119V1.86818V9.04947V9.86382L51.8222 9.30527L60.0605 1.76023H65.1361ZM66.0214 1.4082H59.9157L51.5713 9.04947V1.86818V1.4082H50.85H47.2387H46.5174V1.86818V15.8975L38.3829 2.68957C37.705 1.87757 37.0296 1.41055 35.5749 1.41055H33.3C32.1855 1.41055 31.4932 1.84941 31.4932 2.55815V20.7531V21.2131H32.2145H35.8258H36.5471V20.7531V6.95375L44.5007 19.934C45.1785 20.746 45.854 21.2131 47.3087 21.2131H49.7645C50.879 21.2131 51.5713 20.7742 51.5713 20.0655V15.1676L53.6797 13.1588L60.5019 21.2084H61.6116H61.8939H65.1023H66.1059L65.5462 20.4926L57.1849 9.82392L66.0214 1.4082Z" fill="black"/>
    <path d="M18.2543 26.9028L20.7535 30.3831H7.58434C6.85339 30.3831 6.13933 30.4629 6.13933 31.4111V40.9603C6.13933 41.9084 6.85339 41.9882 7.58434 41.9882H15.3063C16.0373 41.9882 16.7513 41.9084 16.7513 40.9603V37.4518V37.0998H16.3895H14.3076L11.3645 33.4199H20.7245H21.084V33.5185V42.6195C21.084 45.255 17.9165 45.6469 16.03 45.6469H6.86304C4.97415 45.6469 1.80912 45.2526 1.80912 42.6195V29.9302C1.80912 27.2947 4.97656 26.9028 6.86304 26.9028H18.2543ZM18.4424 26.5508H6.86304C3.36993 26.5508 1.44727 27.7524 1.44727 29.9302V42.6195C1.44727 44.7997 3.36993 45.9989 6.86304 45.9989H16.03C19.5232 45.9989 21.4458 44.7974 21.4458 42.6195V33.5185V33.0679H20.7245H10.6239L14.1315 37.4518H16.3919V40.9603C16.3919 41.4977 16.17 41.6362 15.3088 41.6362H7.58434C6.72312 41.6362 6.50118 41.4977 6.50118 40.9603V31.4111C6.50118 30.8736 6.72312 30.7352 7.58434 30.7352H21.4458L18.4424 26.5508Z" fill="black"/>
    <path d="M54.9781 26.9028V27.2525V30.4137V30.7633H54.6187H50.286H49.9242V31.1154V45.2972V45.6469H49.5647H45.9534H45.594V45.2972V31.1154V30.7633H45.2321H40.8995H40.5401V30.4137V27.2525V26.9028H40.8995H54.6211H54.9781ZM55.3399 26.5508H54.6187H40.8971H40.1758V27.2525V30.4137V31.1154H40.8971H45.2297V45.2972V45.9989H45.951H49.5623H50.2836V45.2972V31.1154H54.6162H55.3375V30.4137V27.2525V26.5508H55.3399Z" fill="black"/>
    <path d="M101.516 26.9028C104.242 26.9028 106.31 27.3792 107.661 28.3203C108.992 29.2473 109.641 30.6014 109.641 32.4554V35.0604C109.641 37.6513 109.067 39.4114 106.201 40.1788L105.772 40.2938L105.974 40.6787L108.594 45.6469H104.013L101.538 40.8077L101.439 40.613H101.215H96.4938H96.132V40.965V45.4615V45.6469H95.7725H92.1612H91.8018V45.4615V27.0859V26.9005H92.1612H101.516M96.132 37.8273H96.4938H101.697C104.127 37.8273 105.309 36.9214 105.309 35.0604V32.4554C105.309 30.592 104.127 29.6885 101.697 29.6885H96.4938H96.132V30.0405V37.4776V37.8273ZM101.516 26.5508H92.1588H91.4375V27.0882V45.4638V46.0013H92.1588H95.7701H96.4914V45.4638V40.9673H101.212L103.789 46.0013H109.185L106.295 40.5191C109.263 39.7235 110.001 37.8906 110.001 35.0604V32.4554C110.003 28.5362 107.147 26.5508 101.516 26.5508ZM96.4938 37.4753V30.0382H101.697C103.914 30.0382 104.947 30.8056 104.947 32.453V35.058C104.947 36.7055 103.914 37.4729 101.697 37.4729H96.4938V37.4753Z" fill="black"/>
    <path d="M26.576 16.645C27.7701 16.645 28.7423 17.5908 28.7423 18.7501C28.7423 19.9094 27.7701 20.8552 26.576 20.8552C25.3819 20.8552 24.4097 19.9094 24.4097 18.7501C24.4097 17.5908 25.3819 16.645 26.576 16.645ZM26.576 16.293C25.1793 16.293 24.0479 17.3936 24.0479 18.7501C24.0479 20.1066 25.1793 21.2072 26.576 21.2072C27.9728 21.2072 29.1042 20.1066 29.1042 18.7501C29.1042 17.3936 27.9728 16.293 26.576 16.293Z" fill="black"/>
    <path d="M28.7428 1.76023V2.1099V13.1893H24.4102V2.1099V1.76023H24.7697H28.381H28.7428ZM29.1047 1.4082H28.3834H24.7721H24.0508V2.1099V13.5413H29.1071V2.1099V1.4082H29.1047Z" fill="black"/>
    <path d="M27.7614 26.9028C29.0713 26.9028 29.66 27.2947 30.2799 28.0199L42.8556 45.6469H40.6917H38.0622L29.0352 32.7581L28.3742 31.8147V32.9576V45.5507V45.6493H28.0147H24.4034H24.044V45.5507V27.6796C24.044 27.1093 24.7894 26.9052 25.489 26.9052H27.7614M27.7614 26.5508H25.4866C24.372 26.5508 23.6797 26.9826 23.6797 27.6773V45.5483V45.9989H24.401H28.0123H28.7336V45.5483V32.9553L37.8693 45.9989H40.6893H43.5432L30.5646 27.8063C29.8891 27.0084 29.2137 26.5508 27.7614 26.5508Z" fill="black"/>
    <path d="M85.7141 26.9028L88.4617 30.7633H77.512H77.1501V31.1154V33.9926V34.3446H77.512H85.8371V38.2051H77.512H77.1501V38.5571V41.4344V41.7864H77.512H88.7898V43.0701V43.5207V45.5483V45.6469H88.4304H77.4903H76.769H73.177H73.1528H72.7934V45.5483V41.4344V38.5571V38.2051H72.4315H62.466H62.1042V38.5571V45.5483V45.6469H61.7447H58.1334H57.774V45.5483V27.0014V26.9028H58.1334H61.7447H62.1042V27.0014V33.9926V34.3446H62.466H72.4315H72.7934V33.9926V31.1154V27.0014V26.9028H73.1528H76.7642H77.4854H77.869H81.1281H81.8494H85.7141ZM85.9022 26.5508H81.8518H81.1305H77.8714H77.4879H76.7666H73.1552H72.4339V27.0014V31.1154V33.9926H62.466V27.0014V26.5508H61.7447H58.1334H57.4121V27.0014V45.5483V45.9989H58.1334H61.7447H62.466V45.5483V38.5571H72.4315V41.4344V45.5483V45.9989H72.4557H73.1552H73.1794H76.7666H77.4879H88.428H89.1493V45.5483V43.5207V43.0701V41.4344H77.5096V38.5571H86.1965V33.9926H77.5096V31.1154H89.1493L85.9022 26.5508Z" fill="black"/>
    <path d="M0.180664 19.6239V0.175781H4.87273V15.4114H19.8946V19.6239H0.180664Z" fill="black"/>
    <path d="M4.69206 0.352024V15.2356V15.5876H5.05392H19.3545H19.7139V15.9373V19.0985V19.4481H19.3545H0.721299H0.361856V19.0985V0.352024H4.69206ZM5.05392 0H0V19.0985V19.8002H0.721299H19.3545H20.0758V19.0985V15.9373V15.2356H19.3545H5.05392V0Z" fill="black"/>
    <path d="M59.1455 19.6239L52.2509 11.4898L49.9471 13.6841V18.6523C49.9471 19.2508 49.3247 19.6239 48.3212 19.6239H45.8654C44.4831 19.6239 43.8631 19.2015 43.207 18.42L34.9229 4.90229V19.6239H30.2284V1.14737C30.2284 0.548927 30.8508 0.175781 31.8543 0.175781H34.1292C35.5115 0.175781 36.1315 0.59821 36.7876 1.3797L45.2502 15.1227V0.175781H49.9447V8.04704L58.54 0.175781H64.1319L55.498 8.39906L64.2983 19.6239H59.1455Z" fill="black"/>
    <path d="M63.6907 0.352024L55.4862 8.16461L55.257 8.38286L55.45 8.62928L63.8137 19.3003L63.9319 19.4505H63.6593H60.4508H60.1686H59.2302L52.5166 11.53L52.2657 11.2343L51.9834 11.5018L49.875 13.5107L49.7665 13.6139V13.7618V18.6549C49.7665 19.2416 49.021 19.4505 48.3214 19.4505H45.8656C44.5606 19.4505 43.9719 19.0539 43.3568 18.3217L35.4177 5.36484L34.7446 4.26653V5.54555V19.3449V19.4528H34.3852H30.7714H30.412V19.3449V1.1476C30.412 0.560891 31.1574 0.352024 31.857 0.352024H34.1319C35.437 0.352024 36.0256 0.748637 36.6432 1.48085L44.7632 14.6677L45.4362 15.7589V14.487V0.459978V0.352024H45.7957H49.407H49.7665V0.459978V7.64126V8.45561L50.3768 7.89707L58.615 0.352024H63.6907ZM64.576 0H58.4703L50.1259 7.64126V0.459978V0H49.4046H45.7933H45.072V0.459978V14.4893L36.9375 1.27902C36.2596 0.467018 35.5841 0 34.1295 0H31.8546C30.7401 0 30.0477 0.438856 30.0477 1.1476V19.3425V19.8025H30.769H34.3803H35.1016V19.3425V5.5432L43.0552 18.5235C43.7331 19.3355 44.4086 19.8025 45.8632 19.8025H48.319C49.4335 19.8025 50.1259 19.3637 50.1259 18.6549V13.7594L52.2343 11.7506L59.0565 19.8002H60.1662H60.4484H63.6569H64.6604L64.1008 19.0844L55.7395 8.41572L64.576 0Z" fill="black"/>
    <path d="M5.41551 44.4164C2.03819 44.4164 0.180664 43.2782 0.180664 41.213V28.5237C0.180664 26.4562 2.0406 25.3203 5.41551 25.3203H16.9008L19.6509 29.1527H6.13681C5.2973 29.1527 4.87273 29.2841 4.87273 30.0046V39.5538C4.87273 40.2743 5.2973 40.4057 6.13681 40.4057H13.8588C14.6983 40.4057 15.1229 40.2743 15.1229 39.5538V35.8693H12.7708L9.54549 31.8374H19.8174V41.213C19.8174 43.2806 17.9574 44.4164 14.5825 44.4164H5.41551Z" fill="black"/>
    <path d="M16.807 25.4966L19.3062 28.9769H6.13707C5.40612 28.9769 4.69206 29.0567 4.69206 30.0048V39.554C4.69206 40.5022 5.40612 40.582 6.13707 40.582H13.8591C14.59 40.582 15.3041 40.5022 15.3041 39.554V36.0455V35.6935H14.9422H12.8604L9.91726 32.0137H19.2773H19.6367V32.1123V41.2132C19.6367 43.8487 16.4693 44.2407 14.5828 44.2407H5.41577C3.52689 44.2407 0.361856 43.8464 0.361856 41.2132V28.524C0.361856 25.8885 3.5293 25.4966 5.41577 25.4966H16.807ZM16.9952 25.1445H5.41577C1.92266 25.1445 0 26.3461 0 28.524V41.2132C0 43.3934 1.92266 44.5927 5.41577 44.5927H14.5828C18.0759 44.5927 19.9986 43.3911 19.9986 41.2132V32.1123V31.6617H19.2773H9.17666L12.6842 36.0455H14.9446V39.554C14.9446 40.0915 14.7227 40.2299 13.8615 40.2299H6.13707C5.27586 40.2299 5.05392 40.0915 5.05392 39.554V30.0048C5.05392 29.4674 5.27586 29.3289 6.13707 29.3289H19.9986L16.9952 25.1445Z" fill="black"/>
    <path d="M43.9626 44.4164V29.5329H38.9062V25.3203H53.711V29.5329H48.6571V44.4164H43.9626Z" fill="black"/>
    <path d="M53.5318 25.4966V25.8462V29.0074V29.3571H53.1724H48.8397H48.4779V29.7091V43.891V44.2407H48.1184H44.5071H44.1477V43.891V29.7091V29.3571H43.7858H39.4532H39.0938V29.0074V25.8462V25.4966H39.4532H53.1748H53.5318ZM53.8937 25.1445H53.1724H39.4508H38.7295V25.8462V29.0074V29.7091H39.4508H43.7834V43.891V44.5927H44.5047H48.116H48.8373V43.891V29.7091H53.1699H53.8912V29.0074V25.8462V25.1445H53.8937Z" fill="black"/>
    <path d="M102.458 44.4164L99.8812 39.3825H94.8683V44.4164H90.1738V25.3203H100.072C105.582 25.3203 108.378 27.2471 108.378 31.0513V33.6562C108.378 37.2516 106.949 38.371 104.805 38.9436L104.59 39L107.446 44.4188H102.458V44.4164ZM94.8683 36.2448H100.253C102.561 36.2448 103.683 35.3976 103.683 33.6539V31.0489C103.683 29.3052 102.561 28.458 100.253 28.458H94.8683V36.2448Z" fill="black"/>
    <path d="M100.072 25.4966C102.798 25.4966 104.865 25.973 106.216 26.914C107.548 27.841 108.197 29.1952 108.197 31.0491V33.6541C108.197 36.245 107.623 38.0051 104.757 38.7725L104.327 38.8875L104.53 39.2724L107.15 44.2406H102.569L100.094 39.4015L99.9949 39.2067H99.7705H95.0495H94.6876V39.5587V44.0553V44.2406H94.3282H90.7169H90.3574V44.0553V25.6796V25.4942H90.7169H100.072M94.6876 36.421H95.0495H100.253C102.682 36.421 103.864 35.5152 103.864 33.6541V31.0491C103.864 29.1858 102.682 28.2822 100.253 28.2822H95.0495H94.6876V28.6343V36.0713V36.421ZM100.072 25.1445H90.7145H89.9932V25.682V44.0576V44.595H90.7145H94.3258H95.0471V44.0576V39.5611H99.7681L102.345 44.595H107.741L104.851 39.1128C107.818 38.3173 108.556 36.4844 108.556 33.6541V31.0491C108.559 27.1299 105.703 25.1445 100.072 25.1445ZM95.0495 36.069V28.6319H100.253C102.47 28.6319 103.502 29.3993 103.502 31.0468V33.6518C103.502 35.2992 102.47 36.0667 100.253 36.0667H95.0495V36.069Z" fill="black"/>
    <path d="M25.1275 19.6228C23.8345 19.6228 22.7803 18.5996 22.7803 17.3417C22.7803 16.0838 23.8321 15.0605 25.1275 15.0605C26.423 15.0605 27.4747 16.0838 27.4747 17.3417C27.4747 18.5996 26.423 19.6228 25.1275 19.6228Z" fill="black"/>
    <path d="M25.1278 15.2348C26.3219 15.2348 27.2941 16.1806 27.2941 17.3399C27.2941 18.5016 26.3219 19.445 25.1278 19.445C23.9336 19.445 22.9615 18.4993 22.9615 17.3399C22.9615 16.1806 23.9336 15.2348 25.1278 15.2348ZM25.1278 14.8828C23.731 14.8828 22.5996 15.9835 22.5996 17.3399C22.5996 18.6964 23.731 19.7971 25.1278 19.7971C26.5245 19.7971 27.6559 18.6964 27.6559 17.3399C27.6559 15.9835 26.5245 14.8828 25.1278 14.8828Z" fill="black"/>
    <path d="M27.4738 0.175781H22.7794V11.9592H27.4738V0.175781Z" fill="black"/>
    <path d="M27.2937 0.352024V0.701701V11.7811H22.9611V0.701701V0.352024H23.3205H26.9318H27.2937ZM27.6555 0H26.9342H23.3229H22.6016V0.701701V12.1331H27.658V0.701701V0H27.6555Z" fill="black"/>
    <path d="M36.5226 44.4164L27.1095 30.9785V44.4164H22.415V26.2708C22.415 25.6841 23.0374 25.3203 24.041 25.3203H26.3158C27.7054 25.3203 28.3253 25.7404 28.9839 26.5125L41.755 44.4164H39.2462H36.5226Z" fill="black"/>
    <path d="M26.3161 25.4966C27.626 25.4966 28.2146 25.8885 28.8346 26.6136L41.4103 44.2407H39.2464H36.6169L27.5898 31.3519L26.9288 30.4085V31.5514V44.1444V44.243H26.5694H22.9581H22.5986V44.1444V26.2734C22.5986 25.7031 23.3441 25.4989 24.0437 25.4989H26.3161M26.3161 25.1445H24.0412C22.9267 25.1445 22.2344 25.5763 22.2344 26.271V44.1421V44.5927H22.9557H26.567H27.2883V44.1421V31.549L36.4239 44.5927H39.244H42.0978L29.1193 26.4001C28.4438 25.6022 27.7684 25.1445 26.3161 25.1445Z" fill="black"/>
    <path d="M71.1673 44.4164V36.9747H60.84V44.4164H56.1455V25.3203H60.84V32.7621H71.1673V25.3203H84.363L87.3616 29.5329H75.8859V32.7621H84.5729V36.9747H75.8859V40.2039H87.5256V44.4164H71.1673Z" fill="black"/>
    <path d="M84.2707 25.4966L87.0184 29.3571H76.0686H75.7068V29.7091V32.5863V32.9383H76.0686H84.3937V36.7989H76.0686H75.7068V37.1509V40.0281V40.3801H76.0686H87.3465V41.6638V42.1144V44.1421V44.2407H86.987H76.0469H75.3256H71.7336H71.7095H71.35V44.1421V40.0281V37.1509V36.7989H70.9882H61.0227H60.6608V37.1509V44.1421V44.2407H60.3014H56.6901H56.3306V44.1421V25.5951V25.4966H56.6901H60.3014H60.6608V25.5951V32.5863V32.9383H61.0227H70.9882H71.35V32.5863V29.7091V25.5951V25.4966H71.7095H75.3208H76.0421H76.4257H79.6848H80.4061H84.2707ZM84.4589 25.1445H80.4085H79.6872H76.4281H76.0445H75.3232H71.7119H70.9906V25.5951V29.7091V32.5863H61.0227V25.5951V25.1445H60.3014H56.6901H55.9688V25.5951V44.1421V44.5927H56.6901H60.3014H61.0227V44.1421V37.1509H70.9882V40.0281V44.1421V44.5927H71.0123H71.7119H71.736H75.3232H76.0445H86.9846H87.7059V44.1421V42.1144V41.6638V40.0281H76.0662V37.1509H84.7532V32.5863H76.0662V29.7091H87.7059L84.4589 25.1445Z" fill="black"/>
    <path d="M86.5417 16.6016H70.8613V21.2952H86.5417V16.6016Z" fill="#5555FF"/>
</svg>