<svg width="24" height="12" viewBox="0 0 24 12" fill="none" xmlns="http://www.w3.org/2000/svg">
<g clip-path="url(#clip0_880_6498)">
<path
      d="M12 2.99078C10.3423 2.99078 8.99463 4.34017 8.99463 6.00001C8.99463 7.65984 10.3423 9.00923 12 9.00923C13.6577 9.00923 15.0054 7.65984 15.0054 6.00001C15.0054 4.34017 13.6577 2.99078 12 2.99078Z"
      fill="#172B4D"
    />
<path
      d="M12 2.99078C10.3423 2.99078 8.99463 4.34017 8.99463 6.00001C8.99463 7.65984 10.3423 9.00923 12 9.00923C13.6577 9.00923 15.0054 7.65984 15.0054 6.00001C15.0054 4.34017 13.6577 2.99078 12 2.99078Z"
      fill="#172B4D"
    />
<path
      d="M23.6959 5.26226L22.993 4.55837C16.9208 -1.51848 7.07891 -1.51848 1.00984 4.55837L0.306844 5.26226C-0.098375 5.668 -0.098375 6.32886 0.306844 6.7346L1.00984 7.43849C7.07891 13.5153 16.9208 13.5153 22.993 7.43849L23.6959 6.7346C24.1012 6.32886 24.1012 5.668 23.6959 5.26226ZM11.9999 10.2387C9.66678 10.2387 7.76655 8.33603 7.76655 5.99996C7.76655 3.6639 9.66678 1.76123 11.9999 1.76123C14.3329 1.76123 16.2332 3.6639 16.2332 5.99996C16.2332 8.33603 14.3329 10.2387 11.9999 10.2387Z"
      fill="#172B4D"
    />
</g>
<defs>
<clipPath id="clip0_880_6498">
<rect width="24" height="12" fill="white" />
</clipPath>
</defs>
</svg>
