<svg width="20" height="20" viewBox="0 0 20 20" fill="none" xmlns="http://www.w3.org/2000/svg">
<mask id="mask0_2787_18828" style="mask-type:alpha" maskUnits="userSpaceOnUse" x="0" y="0" width="20" height="20">
<rect width="20" height="20" fill="#D9D9D9"/>
</mask>
<g mask="url(#mask0_2787_18828)">
<path d="M7.83317 16.293C7.58317 15.8346 7.36442 15.3589 7.17692 14.8659C6.98942 14.3728 6.83317 13.8624 6.70817 13.3346H4.24984C4.65262 14.0291 5.15609 14.6332 5.76025 15.1471C6.36442 15.661 7.05539 16.043 7.83317 16.293ZM3.5415 11.668H6.37484C6.33317 11.3902 6.30192 11.1159 6.28109 10.8451C6.26025 10.5742 6.24984 10.293 6.24984 10.0013C6.24984 9.70963 6.26025 9.42839 6.28109 9.15755C6.30192 8.88672 6.33317 8.61241 6.37484 8.33464H3.5415C3.47206 8.61241 3.41998 8.88672 3.38525 9.15755C3.35053 9.42839 3.33317 9.70963 3.33317 10.0013C3.33317 10.293 3.35053 10.5742 3.38525 10.8451C3.41998 11.1159 3.47206 11.3902 3.5415 11.668ZM4.24984 6.66797H6.70817C6.83317 6.14019 6.98942 5.62977 7.17692 5.13672C7.36442 4.64366 7.58317 4.16797 7.83317 3.70964C7.05539 3.95964 6.36442 4.34158 5.76025 4.85547C5.15609 5.36936 4.65262 5.97352 4.24984 6.66797ZM8.4165 6.66797H11.5832C11.4165 6.05686 11.2012 5.48047 10.9373 4.9388C10.6734 4.39714 10.3609 3.8763 9.99984 3.3763C9.63873 3.8763 9.32623 4.39714 9.06234 4.9388C8.79845 5.48047 8.58317 6.05686 8.4165 6.66797ZM13.2915 6.66797H15.7498C15.3471 5.97352 14.8436 5.36936 14.2394 4.85547C13.6353 4.34158 12.9443 3.95964 12.1665 3.70964C12.4165 4.16797 12.6353 4.64366 12.8228 5.13672C13.0103 5.62977 13.1665 6.14019 13.2915 6.66797ZM9.99984 18.3346C8.86095 18.3346 7.78456 18.1159 6.77067 17.6784C5.75678 17.2409 4.87136 16.6437 4.11442 15.8867C3.35748 15.1298 2.76025 14.2444 2.32275 13.2305C1.88525 12.2166 1.6665 11.1402 1.6665 10.0013C1.6665 8.84852 1.88525 7.76866 2.32275 6.76172C2.76025 5.75477 3.35748 4.87283 4.11442 4.11589C4.87136 3.35894 5.75678 2.76172 6.77067 2.32422C7.78456 1.88672 8.86095 1.66797 9.99984 1.66797C11.1526 1.66797 12.2325 1.88672 13.2394 2.32422C14.2464 2.76172 15.1283 3.35894 15.8853 4.11589C16.6422 4.87283 17.2394 5.75477 17.6769 6.76172C18.1144 7.76866 18.3332 8.84852 18.3332 10.0013C18.3332 10.1402 18.3297 10.2791 18.3228 10.418C18.3158 10.5569 18.3054 10.6957 18.2915 10.8346H16.604C16.6318 10.6957 16.6491 10.5603 16.6561 10.4284C16.663 10.2964 16.6665 10.1541 16.6665 10.0013C16.6665 9.70963 16.6491 9.42839 16.6144 9.15755C16.5797 8.88672 16.5276 8.61241 16.4582 8.33464H13.6248C13.6665 8.61241 13.6978 8.88672 13.7186 9.15755C13.7394 9.42839 13.7498 9.70963 13.7498 10.0013V10.4284C13.7498 10.5603 13.7429 10.6957 13.729 10.8346H12.0623C12.0762 10.6957 12.0832 10.5603 12.0832 10.4284V10.0013C12.0832 9.70963 12.0728 9.42839 12.0519 9.15755C12.0311 8.88672 11.9998 8.61241 11.9582 8.33464H8.0415C7.99984 8.61241 7.96859 8.88672 7.94775 9.15755C7.92692 9.42839 7.9165 9.70963 7.9165 10.0013C7.9165 10.293 7.92692 10.5742 7.94775 10.8451C7.96859 11.1159 7.99984 11.3902 8.0415 11.668H10.8332V13.3346H8.4165C8.58317 13.9457 8.79845 14.5221 9.06234 15.0638C9.32623 15.6055 9.63873 16.1263 9.99984 16.6263C10.1526 16.4041 10.2984 16.1784 10.4373 15.9492C10.5762 15.7201 10.7082 15.4874 10.8332 15.2513V18.293C10.6943 18.3069 10.5589 18.3173 10.4269 18.3242C10.295 18.3312 10.1526 18.3346 9.99984 18.3346ZM16.6248 17.8138L14.1665 15.3555V17.2096H12.4998V12.5013H17.2082V14.168H15.3332L17.7915 16.6263L16.6248 17.8138Z" fill="black"/>
</g>
</svg>
