<svg width="50" height="50" viewBox="0 0 50 50" fill="none" xmlns="http://www.w3.org/2000/svg">
<rect x="1" y="1" width="48" height="48" rx="24" fill="#EBECF0"/>
<path d="M24.34 27.14C24.34 26.6733 24.4133 26.26 24.56 25.9C24.72 25.54 24.9133 25.22 25.14 24.94C25.38 24.66 25.6333 24.4 25.9 24.16C26.1667 23.92 26.4133 23.6933 26.64 23.48C26.88 23.2533 27.0733 23.02 27.22 22.78C27.38 22.54 27.46 22.2733 27.46 21.98C27.46 21.5 27.26 21.1133 26.86 20.82C26.4733 20.5267 25.9533 20.38 25.3 20.38C24.6733 20.38 24.1133 20.5133 23.62 20.78C23.1267 21.0333 22.72 21.3933 22.4 21.86L19.98 20.44C20.5133 19.6267 21.2533 18.98 22.2 18.5C23.1467 18.0067 24.2933 17.76 25.64 17.76C26.64 17.76 27.52 17.9067 28.28 18.2C29.04 18.48 29.6333 18.8933 30.06 19.44C30.5 19.9867 30.72 20.66 30.72 21.46C30.72 21.98 30.64 22.44 30.48 22.84C30.32 23.24 30.1133 23.5867 29.86 23.88C29.6067 24.1733 29.3333 24.4467 29.04 24.7C28.76 24.9533 28.4933 25.2 28.24 25.44C27.9867 25.68 27.7733 25.9333 27.6 26.2C27.44 26.4667 27.36 26.78 27.36 27.14H24.34ZM25.86 32.16C25.3 32.16 24.84 31.98 24.48 31.62C24.12 31.26 23.94 30.8333 23.94 30.34C23.94 29.8333 24.12 29.4133 24.48 29.08C24.84 28.7333 25.3 28.56 25.86 28.56C26.4333 28.56 26.8933 28.7333 27.24 29.08C27.6 29.4133 27.78 29.8333 27.78 30.34C27.78 30.8333 27.6 31.26 27.24 31.62C26.8933 31.98 26.4333 32.16 25.86 32.16Z" fill="#5E6C83"/>
<rect x="1" y="1" width="48" height="48" rx="24" stroke="#5E6C83" stroke-width="2"/>
</svg>
