<svg width="20" height="20" viewBox="0 0 20 20" fill="none" xmlns="http://www.w3.org/2000/svg">
<mask id="mask0_1475_11376" style="mask-type:alpha" maskUnits="userSpaceOnUse" x="0" y="0" width="20" height="20">
<rect width="20" height="20" fill="#D9D9D9"/>
</mask>
<g mask="url(#mask0_1475_11376)">
<path d="M5 10.0007H15V8.33398H5V10.0007ZM5 13.334H11.6667V11.6673H5V13.334ZM3.33333 16.6673C2.875 16.6673 2.48264 16.5041 2.15625 16.1777C1.82986 15.8513 1.66666 15.459 1.66666 15.0007V5.00065C1.66666 4.54232 1.82986 4.14996 2.15625 3.82357C2.48264 3.49718 2.875 3.33398 3.33333 3.33398H8.33333L10 5.00065H16.6667C17.125 5.00065 17.5174 5.16385 17.8437 5.49023C18.1701 5.81662 18.3333 6.20898 18.3333 6.66732V15.0007C18.3333 15.459 18.1701 15.8513 17.8437 16.1777C17.5174 16.5041 17.125 16.6673 16.6667 16.6673H3.33333ZM3.33333 5.00065V15.0007H16.6667V6.66732H9.3125L7.64583 5.00065H3.33333Z" fill="black"/>
</g>
</svg>
