<svg width="20" height="20" viewBox="0 0 20 20" fill="none" xmlns="http://www.w3.org/2000/svg">
<path d="M9.49602 16.4239L9.49463 16.4225C7.33009 14.2832 5.61026 12.5808 4.41964 10.9943C3.24238 9.42553 2.66669 8.07672 2.66669 6.66148C2.66669 4.33351 4.31495 2.66602 6.25002 2.66602C7.36365 2.66602 8.4749 3.23652 9.21202 4.17996L10 5.18853L10.788 4.17996C11.5251 3.23652 12.6364 2.66602 13.75 2.66602C15.6851 2.66602 17.3334 4.33351 17.3334 6.66148C17.3334 8.07672 16.7577 9.42559 15.5802 10.9957C14.3896 12.5833 12.67 14.2877 10.5057 16.4313C10.5053 16.4317 10.505 16.432 10.5046 16.4324L10.0027 16.9266L9.49602 16.4239Z" stroke="black" stroke-width="2"/>
</svg>
