<svg width="50" height="50" viewBox="0 0 50 50" fill="none" xmlns="http://www.w3.org/2000/svg">
<g clip-path="url(#clip0_2507_17738)">
<rect width="50" height="50" rx="25" fill="#5555FF"/>
<g clip-path="url(#clip1_2507_17738)">
<path d="M56.4838 28.9742C56.4838 17.6752 47.3133 8.51562 35.9987 8.51562C24.6841 8.51562 15.5156 17.6752 15.5156 28.9742C15.5156 33.2222 16.8116 37.1671 19.0299 40.436C16.8116 43.705 15.5156 47.6499 15.5156 51.8979C15.5156 63.1969 24.6862 72.3565 35.9987 72.3565C47.3112 72.3565 56.4818 63.1969 56.4818 51.8979C56.4818 47.6499 55.1858 43.705 52.9675 40.436C55.1858 37.1671 56.4818 33.2222 56.4818 28.9742H56.4838Z" fill="#FF7262" stroke="black" stroke-miterlimit="10"/>
<path d="M24.888 34.9905C27.6825 34.9905 29.9479 32.7278 29.9479 29.9367C29.9479 27.1455 27.6825 24.8828 24.888 24.8828C22.0935 24.8828 19.8281 27.1455 19.8281 29.9367C19.8281 32.7278 22.0935 34.9905 24.888 34.9905Z" fill="black"/>
<path d="M24.8907 33.5112C26.867 33.5112 28.469 31.9111 28.469 29.9372C28.469 27.9634 26.867 26.3633 24.8907 26.3633C22.9145 26.3633 21.3125 27.9634 21.3125 29.9372C21.3125 31.9111 22.9145 33.5112 24.8907 33.5112Z" fill="white"/>
<path d="M41.0599 34.9905C43.8544 34.9905 46.1198 32.7278 46.1198 29.9367C46.1198 27.1455 43.8544 24.8828 41.0599 24.8828C38.2654 24.8828 36 27.1455 36 29.9367C36 32.7278 38.2654 34.9905 41.0599 34.9905Z" fill="black"/>
<path d="M41.0626 33.5112C43.0388 33.5112 44.6409 31.9111 44.6409 29.9372C44.6409 27.9634 43.0388 26.3633 41.0626 26.3633C39.0864 26.3633 37.4844 27.9634 37.4844 29.9372C37.4844 31.9111 39.0864 33.5112 41.0626 33.5112Z" fill="white"/>
<path d="M35.2231 36.5142C35.2231 36.5142 31.4942 34.3026 28.4648 36.5142" stroke="black" stroke-miterlimit="10"/>
</g>
</g>
<rect x="1" y="1" width="48" height="48" rx="24" stroke="#00CA20" stroke-width="2"/>
<defs>
<clipPath id="clip0_2507_17738">
<rect width="50" height="50" rx="25" fill="white"/>
</clipPath>
<clipPath id="clip1_2507_17738">
<rect width="42" height="97" fill="white" transform="translate(15 8)"/>
</clipPath>
</defs>
</svg>
