<svg width="24" height="15" viewBox="0 0 24 15" fill="none" xmlns="http://www.w3.org/2000/svg">
<g clip-path="url(#clip0_880_6483)">
<path d="M23.6961 7.20147L22.9932 6.50739C21.7314 5.26168 20.307 4.27967 18.7875 3.55225L15.9295 6.37403C16.1259 6.85594 16.2364 7.38029 16.2364 7.92889C16.2364 10.2324 14.3362 12.1085 12.0031 12.1085C11.4475 12.1085 10.9164 11.9994 10.4283 11.8054L8.71533 13.4967C13.7038 14.5575 19.119 13.1784 22.9932 9.35039L23.6961 8.65631C24.1014 8.25623 24.1014 7.60458 23.6961 7.2045V7.20147Z" fill="#172B4D"/>
<path d="M12.0002 10.8961C13.6579 10.8961 15.0056 9.56557 15.0056 7.92888C15.0056 7.72884 14.9841 7.53183 14.9472 7.34088L11.4077 10.8355C11.6011 10.8749 11.7976 10.8931 12.0033 10.8931L12.0002 10.8961Z" fill="#172B4D"/>
<path d="M19.5977 0.178834C19.3583 -0.057577 18.9684 -0.057577 18.7289 0.178834L16.27 2.6066C11.0206 1.13054 5.14184 2.42777 1.00984 6.50739L0.306844 7.20147C-0.098375 7.60155 -0.098375 8.25319 0.306844 8.65327L1.00984 9.34735C2.50485 10.8234 4.2301 11.9267 6.06893 12.6753L4.76425 13.9634C4.5248 14.1998 4.5248 14.5848 4.76425 14.8212C5.0037 15.0576 5.39357 15.0576 5.63301 14.8212L7.33984 13.136L9.33524 11.1659L15.2846 5.29199L17.0037 3.59468L19.5977 1.03355C19.8372 0.797141 19.8372 0.412215 19.5977 0.175803V0.178834ZM7.76655 7.92888C7.76655 5.62539 9.66678 3.74925 11.9999 3.74925C12.8809 3.74925 13.6944 4.02204 14.3728 4.47667L13.4826 5.35564C13.0436 5.1071 12.5402 4.96162 11.9999 4.96162C10.3421 4.96162 8.99449 6.29219 8.99449 7.92888C8.99449 8.46233 9.14184 8.9594 9.39357 9.39282L8.50331 10.2718C8.03977 9.60195 7.76655 8.79876 7.76655 7.92888Z" fill="#172B4D"/>
</g>
<defs>
<clipPath id="clip0_880_6483">
<rect width="24" height="15" fill="white"/>
</clipPath>
</defs>
</svg>
