<svg width="28" height="28" viewBox="0 0 28 28" fill="none" xmlns="http://www.w3.org/2000/svg">
<mask id="mask0_1929_22567" style="mask-type:alpha" maskUnits="userSpaceOnUse" x="0" y="0" width="28" height="28">
<rect width="28" height="28" fill="#D9D9D9"/>
</mask>
<g mask="url(#mask0_1929_22567)">
<path d="M21 25.6654C20.0278 25.6654 19.2014 25.3251 18.5208 24.6445C17.8403 23.964 17.5 23.1376 17.5 22.1654C17.5 22.0293 17.5097 21.8883 17.5292 21.7424C17.5486 21.5966 17.5778 21.4654 17.6167 21.3487L9.39167 16.5654C9.06111 16.857 8.69167 17.0855 8.28333 17.2508C7.875 17.4161 7.44722 17.4987 7 17.4987C6.02778 17.4987 5.20139 17.1584 4.52083 16.4779C3.84028 15.7973 3.5 14.9709 3.5 13.9987C3.5 13.0265 3.84028 12.2001 4.52083 11.5195C5.20139 10.839 6.02778 10.4987 7 10.4987C7.44722 10.4987 7.875 10.5813 8.28333 10.7466C8.69167 10.9119 9.06111 11.1404 9.39167 11.432L17.6167 6.6487C17.5778 6.53203 17.5486 6.40078 17.5292 6.25495C17.5097 6.10911 17.5 5.96814 17.5 5.83203C17.5 4.85981 17.8403 4.03342 18.5208 3.35286C19.2014 2.67231 20.0278 2.33203 21 2.33203C21.9722 2.33203 22.7986 2.67231 23.4792 3.35286C24.1597 4.03342 24.5 4.85981 24.5 5.83203C24.5 6.80425 24.1597 7.63064 23.4792 8.3112C22.7986 8.99175 21.9722 9.33203 21 9.33203C20.5528 9.33203 20.125 9.24939 19.7167 9.08411C19.3083 8.91884 18.9389 8.69036 18.6083 8.3987L10.3833 13.182C10.4222 13.2987 10.4514 13.4299 10.4708 13.5758C10.4903 13.7216 10.5 13.8626 10.5 13.9987C10.5 14.1348 10.4903 14.2758 10.4708 14.4216C10.4514 14.5674 10.4222 14.6987 10.3833 14.8154L18.6083 19.5987C18.9389 19.307 19.3083 19.0786 19.7167 18.9133C20.125 18.748 20.5528 18.6654 21 18.6654C21.9722 18.6654 22.7986 19.0056 23.4792 19.6862C24.1597 20.3668 24.5 21.1931 24.5 22.1654C24.5 23.1376 24.1597 23.964 23.4792 24.6445C22.7986 25.3251 21.9722 25.6654 21 25.6654ZM21 6.9987C21.3306 6.9987 21.6076 6.88689 21.8312 6.66328C22.0549 6.43967 22.1667 6.16259 22.1667 5.83203C22.1667 5.50148 22.0549 5.22439 21.8312 5.00078C21.6076 4.77717 21.3306 4.66536 21 4.66536C20.6694 4.66536 20.3924 4.77717 20.1688 5.00078C19.9451 5.22439 19.8333 5.50148 19.8333 5.83203C19.8333 6.16259 19.9451 6.43967 20.1688 6.66328C20.3924 6.88689 20.6694 6.9987 21 6.9987ZM7 15.1654C7.33056 15.1654 7.60764 15.0536 7.83125 14.8299C8.05486 14.6063 8.16667 14.3293 8.16667 13.9987C8.16667 13.6681 8.05486 13.3911 7.83125 13.1674C7.60764 12.9438 7.33056 12.832 7 12.832C6.66944 12.832 6.39236 12.9438 6.16875 13.1674C5.94514 13.3911 5.83333 13.6681 5.83333 13.9987C5.83333 14.3293 5.94514 14.6063 6.16875 14.8299C6.39236 15.0536 6.66944 15.1654 7 15.1654ZM21 23.332C21.3306 23.332 21.6076 23.2202 21.8312 22.9966C22.0549 22.773 22.1667 22.4959 22.1667 22.1654C22.1667 21.8348 22.0549 21.5577 21.8312 21.3341C21.6076 21.1105 21.3306 20.9987 21 20.9987C20.6694 20.9987 20.3924 21.1105 20.1688 21.3341C19.9451 21.5577 19.8333 21.8348 19.8333 22.1654C19.8333 22.4959 19.9451 22.773 20.1688 22.9966C20.3924 23.2202 20.6694 23.332 21 23.332Z" fill="black"/>
</g>
</svg>
