<svg width="28" height="28" viewBox="0 0 28 28" fill="none" xmlns="http://www.w3.org/2000/svg">
<mask id="mask0_2787_18824" style="mask-type:alpha" maskUnits="userSpaceOnUse" x="0" y="0" width="28" height="28">
<rect width="28" height="28" fill="#D9D9D9"/>
</mask>
<g mask="url(#mask0_2787_18824)">
<path d="M18.6667 16.3346C17.6944 16.3346 16.8681 15.9944 16.1875 15.3138C15.5069 14.6332 15.1667 13.8069 15.1667 12.8346C15.1667 11.8624 15.5069 11.036 16.1875 10.3555C16.8681 9.67491 17.6944 9.33464 18.6667 9.33464C19.6389 9.33464 20.4653 9.67491 21.1458 10.3555C21.8264 11.036 22.1667 11.8624 22.1667 12.8346C22.1667 13.8069 21.8264 14.6332 21.1458 15.3138C20.4653 15.9944 19.6389 16.3346 18.6667 16.3346ZM11.6667 23.3346V21.118C11.6667 20.7096 11.7639 20.3207 11.9583 19.9513C12.1528 19.5819 12.425 19.2902 12.775 19.0763C13.65 18.5513 14.5785 18.1576 15.5604 17.8951C16.5424 17.6326 17.5778 17.5013 18.6667 17.5013C19.7556 17.5013 20.791 17.6326 21.7729 17.8951C22.7549 18.1576 23.6833 18.5513 24.5583 19.0763C24.9083 19.2902 25.1806 19.5819 25.375 19.9513C25.5694 20.3207 25.6667 20.7096 25.6667 21.118V23.3346H11.6667ZM14.175 21.0013H23.1583C22.4778 20.6124 21.7583 20.3207 21 20.1263C20.2417 19.9319 19.4639 19.8346 18.6667 19.8346C17.8694 19.8346 17.0917 19.9319 16.3333 20.1263C15.575 20.3207 14.8556 20.6124 14.175 21.0013ZM18.6667 14.0013C18.9972 14.0013 19.2743 13.8895 19.4979 13.6659C19.7215 13.4423 19.8333 13.1652 19.8333 12.8346C19.8333 12.5041 19.7215 12.227 19.4979 12.0034C19.2743 11.7798 18.9972 11.668 18.6667 11.668C18.3361 11.668 18.059 11.7798 17.8354 12.0034C17.6118 12.227 17.5 12.5041 17.5 12.8346C17.5 13.1652 17.6118 13.4423 17.8354 13.6659C18.059 13.8895 18.3361 14.0013 18.6667 14.0013ZM3.5 16.3346V14.0013H12.8333V16.3346H3.5ZM3.5 7.0013V4.66797H17.5V7.0013H3.5ZM12.95 11.668H3.5V9.33464H14C13.7278 9.66519 13.509 10.0249 13.3438 10.4138C13.1785 10.8027 13.0472 11.2207 12.95 11.668Z" fill="#172B4D"/>
</g>
</svg>
