<svg width="18" height="18" viewBox="0 0 18 18" fill="none" xmlns="http://www.w3.org/2000/svg">
<mask id="mask0_2844_28713" style="mask-type:alpha" maskUnits="userSpaceOnUse" x="0" y="0" width="18" height="18">
<rect width="18" height="18" fill="#D9D9D9"/>
</mask>
<g mask="url(#mask0_2844_28713)">
<path d="M9.0002 16.5002C8.0627 16.5002 7.18457 16.3221 6.36582 15.9658C5.54707 15.6096 4.83457 15.1283 4.22832 14.5221C3.62207 13.9158 3.14082 13.2033 2.78457 12.3846C2.42832 11.5658 2.2502 10.6877 2.2502 9.7502C2.2502 8.8127 2.42832 7.93457 2.78457 7.11582C3.14082 6.29707 3.62207 5.58457 4.22832 4.97832C4.83457 4.37207 5.54707 3.89082 6.36582 3.53457C7.18457 3.17832 8.0627 3.0002 9.0002 3.0002C9.9377 3.0002 10.8158 3.17832 11.6346 3.53457C12.4533 3.89082 13.1658 4.37207 13.7721 4.97832C14.3783 5.58457 14.8596 6.29707 15.2158 7.11582C15.5721 7.93457 15.7502 8.8127 15.7502 9.7502C15.7502 10.6877 15.5721 11.5658 15.2158 12.3846C14.8596 13.2033 14.3783 13.9158 13.7721 14.5221C13.1658 15.1283 12.4533 15.6096 11.6346 15.9658C10.8158 16.3221 9.9377 16.5002 9.0002 16.5002ZM11.1002 12.9002L12.1502 11.8502L9.7502 9.4502V6.0002H8.2502V10.0502L11.1002 12.9002ZM4.2002 1.7627L5.2502 2.8127L2.0627 6.0002L1.0127 4.9502L4.2002 1.7627ZM13.8002 1.7627L16.9877 4.9502L15.9377 6.0002L12.7502 2.8127L13.8002 1.7627ZM9.0002 15.0002C10.4627 15.0002 11.7033 14.4908 12.7221 13.4721C13.7408 12.4533 14.2502 11.2127 14.2502 9.7502C14.2502 8.2877 13.7408 7.04707 12.7221 6.02832C11.7033 5.00957 10.4627 4.5002 9.0002 4.5002C7.5377 4.5002 6.29707 5.00957 5.27832 6.02832C4.25957 7.04707 3.7502 8.2877 3.7502 9.7502C3.7502 11.2127 4.25957 12.4533 5.27832 13.4721C6.29707 14.4908 7.5377 15.0002 9.0002 15.0002Z" fill="#FF2626"/>
</g>
</svg>
