<svg width="144" height="208" viewBox="0 0 144 208" fill="none" xmlns="http://www.w3.org/2000/svg">
<g clip-path="url(#clip0_1163_21101)">
<path d="M105.234 35.6387C105.234 35.6387 115.697 39.6191 116.773 41.5615C118.765 45.1625 118.395 66.3352 112.883 71.8561C110.722 74.0178 94.8564 76.0361 94.8564 76.0361L105.234 35.6415" fill="white"/>
<path d="M105.234 35.6387C105.234 35.6387 115.697 39.6191 116.773 41.5615C118.765 45.1625 118.395 66.3352 112.883 71.8561C110.722 74.0178 94.8564 76.0361 94.8564 76.0361L105.234 35.6415" stroke="black" stroke-linecap="round" stroke-linejoin="round"/>
<path d="M94.8564 76.0336C94.8564 76.0336 110.722 74.0125 112.88 71.8508C115.032 69.6975 116.403 65.1549 117.151 60.2047C116.975 60.3649 111.372 65.2139 100.193 55.3528L100.173 55.3359L94.8564 76.0308" fill="black"/>
<path d="M94.8564 76.0336C94.8564 76.0336 110.722 74.0125 112.88 71.8508C115.032 69.6975 116.403 65.1549 117.151 60.2047C116.975 60.3649 111.372 65.2139 100.193 55.3528L100.173 55.3359L94.8564 76.0308" stroke="black" stroke-linecap="round" stroke-linejoin="round"/>
<path d="M25.0356 76.0322C25.0356 76.0322 9.17011 74.0111 7.01211 71.8494C4.85972 69.6961 3.48925 65.1535 2.74096 60.2032C1.57228 52.4757 1.90579 43.753 3.12211 41.5576C4.1955 39.6152 14.6604 35.6348 14.6604 35.6348L19.7219 55.3345L25.0384 76.0294" fill="white"/>
<path d="M25.0356 76.0322C25.0356 76.0322 9.17011 74.0111 7.01211 71.8494C4.85972 69.6961 3.48925 65.1535 2.74096 60.2032C1.57228 52.4757 1.90579 43.753 3.12211 41.5576C4.1955 39.6152 14.6604 35.6348 14.6604 35.6348L19.7219 55.3345L25.0384 76.0294" stroke="black" stroke-linecap="round" stroke-linejoin="round"/>
<path d="M25.0356 76.0336C25.0356 76.0336 9.17011 74.0125 7.01212 71.8508C4.85973 69.6975 3.48926 65.1549 2.74097 60.2047C2.91753 60.3649 8.51991 65.2139 19.6995 55.3528L19.7191 55.3359L25.0356 76.0308" fill="black"/>
<path d="M25.0356 76.0336C25.0356 76.0336 9.17011 74.0125 7.01212 71.8508C4.85973 69.6975 3.48926 65.1549 2.74097 60.2047C2.91753 60.3649 8.51991 65.2139 19.6995 55.3528L19.7191 55.3359L25.0356 76.0308" stroke="black" stroke-linecap="round" stroke-linejoin="round"/>
<path d="M90.5068 150.065H94.9069C97.5301 150.065 99.6573 147.931 99.6573 145.3V132.782C99.6573 130.151 97.5301 128.018 94.9069 128.018H90.7535" fill="white"/>
<path d="M90.5068 150.065H94.9069C97.5301 150.065 99.6573 147.931 99.6573 145.3V132.782C99.6573 130.151 97.5301 128.018 94.9069 128.018H90.7535" stroke="black" stroke-linecap="round" stroke-linejoin="round"/>
<path d="M24.9263 150.065H20.5263C17.903 150.065 15.7759 147.931 15.7759 145.3V132.782C15.7759 130.151 17.903 128.018 20.5263 128.018H24.6797" fill="white"/>
<path d="M78.2904 160.457H37.1427C28.4547 160.457 21.3445 153.626 21.3445 145.277V101.785C21.3445 93.4363 28.4547 86.6055 37.1427 86.6055H78.2904C86.9784 86.6055 94.0886 93.4363 94.0886 101.785V145.277C94.0886 153.626 86.9784 160.457 78.2904 160.457Z" fill="white" stroke="black" stroke-linecap="round" stroke-linejoin="round"/>
<path d="M69.5603 94.709C78.6463 94.709 106.37 90.7285 114.021 67.4531L134.931 75.3999C134.931 75.3999 126.988 118.454 81.1434 119.379" fill="white"/>
<path d="M69.5603 94.709C78.6463 94.709 106.37 90.7285 114.021 67.4531L134.931 75.3999C134.931 75.3999 126.988 118.454 81.1434 119.379" stroke="black" stroke-linecap="round" stroke-linejoin="round"/>
<path d="M11.3309 142.315C11.3309 142.315 7.70999 153.641 19.6126 156.072C21.7566 156.514 23.8053 156.334 25.6382 155.665C33.5387 152.744 37.3558 140.53 26.9834 128.308C26.4369 127.658 25.8484 127.015 25.2206 126.365C25.1926 126.34 25.1645 126.315 25.1393 126.284C25.1393 126.284 25.6914 125.37 27.4542 124.083C28.5613 123.276 30.1475 122.317 32.3672 121.35L36.6355 108.257L36.6439 108.234L37.4006 105.912L42.0137 91.7754C42.0137 91.7754 37.7874 93.2146 32.384 95.6687C30.5988 96.4783 28.6818 97.4031 26.748 98.4235C26.2155 98.7046 25.6774 98.9941 25.1421 99.2893C25.1421 99.2893 23.9706 99.9218 22.1349 101.066C12.7434 106.93 -13.94 126.183 11.3337 142.318L11.3309 142.315Z" fill="white" stroke="black" stroke-linecap="round" stroke-linejoin="round"/>
<path d="M33.6397 110.693L32.3673 121.346C26.5995 123.857 25.1366 126.283 25.1366 126.283C25.1646 126.311 25.1898 126.336 25.2151 126.364C23.668 125.085 21.5941 123.621 19.4165 122.803C19.4165 122.803 23.5195 120.661 24.7723 119.008C28.7856 113.714 28.8696 111.806 30.4055 109.624C30.9015 108.919 34.203 109.52 33.6397 110.69V110.693Z" fill="black" stroke="black" stroke-linecap="round" stroke-linejoin="round"/>
<path d="M19.6125 156.074C7.85007 153.668 11.2496 142.578 11.3281 142.317H11.3309C11.3309 142.317 13.374 153.291 24.0042 150.281C30.8033 148.352 30.2288 138.741 28.9312 132.065C29.0461 131.801 29.1386 131.528 29.2142 131.25H29.217C38.6001 145.255 30.2596 158.256 19.6097 156.077L19.6125 156.074Z" fill="black" stroke="black" stroke-linecap="round" stroke-linejoin="round"/>
<path d="M90.0978 145.873C94.0859 129.979 79.2321 76.1816 57.6185 76.1816C36.0049 76.1816 23.7576 124.042 25.8231 145.907C25.8231 145.907 46.0018 145.907 57.7138 146.876C70.0873 147.902 90.095 145.873 90.095 145.873H90.0978Z" fill="white" stroke="black" stroke-linecap="round" stroke-linejoin="round"/>
<path d="M81.8329 101.622C80.1093 93.7478 74.3892 76.1816 57.6185 76.1816C40.8478 76.1816 35.4192 93.3318 33.6956 101.338C40.6852 105.892 49.0257 108.54 57.9856 108.54C66.9455 108.54 74.9329 106.004 81.8301 101.624C81.8301 101.624 91.9082 96.7781 95.0807 88.5193L85.1119 92.362L79.9467 95.055L81.8301 101.624L81.8329 101.622Z" fill="black"/>
<path d="M81.8301 101.624C74.9329 106.004 66.9455 108.54 57.9856 108.54C49.0257 108.54 40.6852 105.892 33.6956 101.338C35.4192 93.3318 40.8478 76.1816 57.6185 76.1816C74.3892 76.1816 80.1093 93.7478 81.8329 101.622L81.8301 101.624ZM81.8301 101.624C81.8301 101.624 91.9082 96.7781 95.0807 88.5193L85.1119 92.362L79.9467 95.055L81.8301 101.624Z" stroke="black" stroke-linecap="round" stroke-linejoin="round"/>
<path d="M61.2842 159.87C65.5329 174.521 69.9834 198.322 71.3539 202.272C72.8084 206.469 76.5947 206.834 76.5947 206.834H89.5287C89.5287 206.834 98.4662 207.281 100.843 205.091C103.217 202.901 103.082 199.104 101.344 196.953C99.5227 194.702 95.6664 194.718 95.6664 194.718C95.6664 194.718 93.0235 162.926 88.8561 143.395" fill="white"/>
<path d="M61.2842 159.87C65.5329 174.521 69.9834 198.322 71.3539 202.272C72.8084 206.469 76.5947 206.834 76.5947 206.834H89.5287C89.5287 206.834 98.4662 207.281 100.843 205.091C103.217 202.901 103.082 199.104 101.344 196.953C99.5227 194.702 95.6664 194.718 95.6664 194.718C95.6664 194.718 93.0235 162.926 88.8561 143.395" stroke="black" stroke-linecap="round" stroke-linejoin="round"/>
<path d="M100.84 205.479C98.4662 207.669 89.5287 207.222 89.5287 207.222H76.5947C76.5947 207.222 72.8084 206.856 71.3539 202.662C69.9834 198.71 65.5329 174.521 61.2842 159.873C65.9421 159.532 70.0087 163.001 70.4318 167.665C71.4856 179.342 73.3774 198.907 77.3991 201.993C81.8356 205.395 97.8384 205.296 102.625 200.779C102.735 202.468 102.194 204.236 100.843 205.482L100.84 205.479Z" fill="black" stroke="black" stroke-linecap="round" stroke-linejoin="round"/>
<path d="M61.2844 159.869L53.9135 160.456C49.8274 175.178 45.4609 198.481 44.1465 202.268C42.692 206.465 38.9057 206.83 38.9057 206.83H25.9717C25.9717 206.83 17.0342 207.277 14.6604 205.087C12.2866 202.898 12.4212 199.1 14.1588 196.949C15.9805 194.698 19.8368 194.715 19.8368 194.715C19.8368 194.715 22.4769 162.922 26.6471 143.391" fill="white"/>
<path d="M61.2844 159.869L53.9135 160.456C49.8274 175.178 45.4609 198.481 44.1465 202.268C42.692 206.465 38.9057 206.83 38.9057 206.83H25.9717C25.9717 206.83 17.0342 207.277 14.6604 205.087C12.2866 202.898 12.4212 199.1 14.1588 196.949C15.9805 194.698 19.8368 194.715 19.8368 194.715C19.8368 194.715 22.4769 162.922 26.6471 143.391" stroke="black" stroke-linecap="round" stroke-linejoin="round"/>
<path d="M14.6575 205.09C17.0313 207.28 25.9688 206.833 25.9688 206.833H38.9027C38.9027 206.833 42.689 206.467 44.1436 202.273C45.5141 198.321 49.6619 175.107 53.9106 160.459C49.9366 160.459 46.5875 163.436 46.111 167.394C44.7798 178.436 42.2659 198.402 38.1012 201.601C33.6647 205.003 17.6619 204.904 12.8751 200.387C12.7658 202.076 13.3039 203.845 14.6575 205.09Z" fill="black" stroke="black" stroke-linecap="round" stroke-linejoin="round"/>
<path d="M69.9555 146.194C74.207 147.554 86.7794 146.621 91.0506 145.691C93.615 145.131 95.2096 142.478 94.5875 139.819C94.0185 137.395 91.7849 135.796 89.4167 136.125C85.3921 136.684 73.0719 137.322 69.1511 136.78" fill="white"/>
<path d="M69.9555 146.194C74.207 147.554 86.7794 146.621 91.0506 145.691C93.615 145.131 95.2096 142.478 94.5875 139.819C94.0185 137.395 91.7849 135.796 89.4167 136.125C85.3921 136.684 73.0719 137.322 69.1511 136.78" stroke="black" stroke-linecap="round" stroke-linejoin="round"/>
<path d="M69.9527 146.193C74.2042 147.554 86.7794 146.623 91.0506 145.69C93.6122 145.133 95.2096 142.477 94.5875 139.818C94.4557 139.253 94.2343 138.732 93.9345 138.271C93.3627 139.663 92.1716 140.751 90.6386 141.085C86.3731 142.016 73.809 142.949 69.5603 141.594L69.9527 146.193Z" fill="black" stroke="black" stroke-linecap="round" stroke-linejoin="round"/>
<path d="M45.7718 146.194C41.5203 147.554 28.9479 146.621 24.6767 145.691C22.1152 145.131 20.5177 142.478 21.1398 139.819C21.7088 137.395 23.9424 135.796 26.3106 136.125C30.3352 136.684 42.6554 137.322 46.5762 136.78" fill="white"/>
<path d="M45.7718 146.194C41.5203 147.554 28.9479 146.621 24.6767 145.691C22.1152 145.131 20.5177 142.478 21.1398 139.819C21.7088 137.395 23.9424 135.796 26.3106 136.125C30.3352 136.684 42.6554 137.322 46.5762 136.78" stroke="black" stroke-linecap="round" stroke-linejoin="round"/>
<path d="M45.7749 146.193C41.5234 147.554 28.9482 146.623 24.677 145.69C22.1154 145.133 20.518 142.477 21.1373 139.818C21.269 139.253 21.4905 138.732 21.7903 138.271C22.3621 139.663 23.5532 140.751 25.0862 141.085C29.3517 142.016 41.9157 142.949 46.1645 141.594L45.7721 146.193H45.7749Z" fill="black" stroke="black" stroke-linecap="round" stroke-linejoin="round"/>
<path d="M70.401 127.775H45.3234C42.1621 127.775 39.5781 130.37 39.5781 133.538V147.363C39.5781 147.363 39.5781 147.382 39.5781 147.391V147.655C39.5781 150.663 42.0304 153.125 45.032 153.125H45.2954C45.2954 153.125 45.315 153.125 45.3234 153.125H70.401C70.401 153.125 70.4207 153.125 70.4291 153.125H70.6925C73.6913 153.125 76.1464 150.663 76.1464 147.655V133.538C76.1464 130.367 73.5596 127.775 70.401 127.775Z" fill="white" stroke="black" stroke-linecap="round" stroke-linejoin="round"/>
<path d="M43.9026 140.453C43.9026 143.031 45.9092 145.12 48.3811 145.12C50.853 145.12 52.8597 143.031 52.8597 140.453C52.8597 137.876 50.8558 135.787 48.3811 135.787C45.9064 135.787 43.9026 137.876 43.9026 140.453Z" fill="#00CA20" stroke="black" stroke-linecap="round" stroke-linejoin="round"/>
<path d="M128.348 86.6917C135.259 85.9636 141.385 74.95 143.005 66.8036C144.07 61.4429 141.722 55.1687 137.523 51.3148C128.278 42.8282 124.424 49.3976 119.92 55.7422C116.93 59.9559 113.651 65.0889 111.344 70.1262" fill="white"/>
<path d="M128.348 86.6917C135.259 85.9636 141.385 74.95 143.005 66.8036C144.07 61.4429 141.722 55.1687 137.523 51.3148C128.278 42.8282 124.424 49.3976 119.92 55.7422C116.93 59.9559 113.651 65.0889 111.344 70.1262" stroke="black" stroke-linecap="round" stroke-linejoin="round"/>
<path d="M117.462 77.8878C111.801 74.9137 109.497 70.3795 109.822 66.5846C110.405 59.7791 117.513 53.6819 120.94 57.0299C122.754 58.8008 121.052 61.907 118.466 64.5213" fill="white"/>
<path d="M117.462 77.8878C111.801 74.9137 109.497 70.3795 109.822 66.5846C110.405 59.7791 117.513 53.6819 120.94 57.0299C122.754 58.8008 121.052 61.907 118.466 64.5213" stroke="black" stroke-linecap="round" stroke-linejoin="round"/>
<path d="M60.8752 99.1958C87.0258 99.1958 108.225 77.238 108.225 50.1516C108.225 23.0653 87.0258 1.10742 60.8752 1.10742C34.7246 1.10742 13.5254 23.0653 13.5254 50.1516C13.5254 77.238 34.7246 99.1958 60.8752 99.1958Z" fill="white" stroke="black" stroke-linecap="round" stroke-linejoin="round"/>
<path d="M16.2046 40.2986C16.2046 40.2986 24.0771 4.56188 60.7098 5.51482C104.943 6.66453 106.37 46.0556 106.37 46.0556" stroke="black" stroke-linecap="round" stroke-linejoin="round"/>
<path d="M65.0761 76.2388C39.8584 76.2388 19.4162 59.5525 19.4162 38.9672C19.4162 37.0023 19.604 35.0739 19.9628 33.1934C16.821 38.2504 15.0498 43.9709 15.0498 50.0287C15.0498 70.6139 35.4919 87.3002 60.7096 87.3002C83.5199 87.3002 102.423 73.6442 105.823 55.8025C98.2896 67.9294 82.8725 76.2388 65.0761 76.2388Z" fill="black" stroke="black" stroke-linecap="round" stroke-linejoin="round"/>
<path d="M65.0763 76.2375C82.8728 76.2375 98.2899 67.9253 105.823 55.8013C106.182 53.9179 106.37 51.9895 106.37 50.0274C106.37 29.4422 85.9276 12.7559 60.7099 12.7559C42.9134 12.7559 27.4964 21.0681 19.963 33.1921C19.6043 35.0755 19.4165 37.0039 19.4165 38.966C19.4165 59.5512 39.8586 76.2375 65.0763 76.2375Z" fill="#5555FF" stroke="black" stroke-linecap="round" stroke-linejoin="round"/>
<path d="M91.7514 61.0526C91.4935 61.0526 91.2357 61.033 90.9779 60.9992C87.3597 60.4904 85.0784 56.5269 85.8772 52.1473C86.6198 48.0825 89.7615 45.0859 93.1022 45.0859C93.3601 45.0859 93.6179 45.1028 93.8757 45.1393C97.4911 45.6481 99.7752 49.6117 98.9765 53.9913C98.6738 55.6498 97.9703 57.1312 97.0203 58.3034C96.3252 58.9331 95.6134 59.5544 94.8875 60.1615C93.915 60.735 92.8444 61.0554 91.7542 61.0554" fill="white"/>
<path d="M82.6541 74.6818C82.4831 74.6818 82.3122 74.6734 82.1412 74.6537C79.7394 74.3838 78.2232 72.2896 78.7557 69.9733C79.2489 67.8228 81.3341 66.2402 83.5537 66.2402C83.7247 66.2402 83.8956 66.2487 84.0666 66.2683C86.4684 66.5382 87.9846 68.6324 87.4521 70.9487C87.2503 71.8258 86.7851 72.61 86.1517 73.2285C85.6893 73.5602 85.2185 73.8891 84.7364 74.2095C84.0918 74.5131 83.38 74.6818 82.6569 74.6818" fill="white"/>
<path d="M24.7273 41.7251C24.7273 41.7251 29.1526 30.3122 42.6667 23.8047" stroke="white" stroke-linecap="round" stroke-linejoin="round"/>
<path d="M21.3447 101.786C21.3447 101.786 30.7558 106.93 27.5749 114.885L30.4083 109.629L35.7753 94.1875L21.3447 101.786Z" fill="black" stroke="black" stroke-linecap="round" stroke-linejoin="round"/>
</g>
<defs>
<clipPath id="clip0_1163_21101">
<rect width="144" height="208" fill="white"/>
</clipPath>
</defs>
</svg>
