<svg width="544" height="506" viewBox="0 0 544 506" fill="none" xmlns="http://www.w3.org/2000/svg">
<g clip-path="url(#clip0_3304_20942)">
<path d="M136.98 292.946L129.64 291.781C123.495 290.147 112.994 295.889 109.371 298.03C104.415 300.951 85.9849 315.244 81.8177 326.153C81.8177 326.153 79.2118 332.843 81.351 336.02L83.9013 342.598C83.9013 342.598 86.985 347.587 96.5973 344.438C106.21 341.288 133.441 320.205 138.73 307.088C143.12 296.196 136.974 292.951 136.974 292.951L136.98 292.946Z" fill="#D1D1FF"/>
<path d="M462.022 336.196L461.6 330.861C461.639 326.312 456.616 319.639 454.788 317.359C452.293 314.237 440.964 303.072 433.83 301.544C433.83 301.544 429.446 300.569 427.874 302.492L424.34 305.145C424.34 305.145 421.834 307.966 425.173 314.343C428.513 320.721 445.231 337.221 453.855 339.262C461.017 340.951 462.017 336.196 462.017 336.196H462.022Z" fill="#D1D1FF"/>
<path opacity="0.3" d="M462.022 336.196L461.6 330.861C461.639 326.312 456.616 319.639 454.788 317.359C452.293 314.237 440.964 303.072 433.83 301.544C433.83 301.544 429.446 300.569 427.874 302.492L424.34 305.145C424.34 305.145 421.834 307.966 425.173 314.343C428.513 320.721 445.231 337.221 453.855 339.262C461.017 340.951 462.017 336.196 462.017 336.196H462.022Z" fill="black"/>
<path d="M447.39 738.473C562.209 641.287 576.761 469.123 479.894 353.931C383.032 238.734 211.427 224.134 96.6133 321.32C-18.2063 418.501 -32.7581 590.67 64.1094 705.862C160.977 821.054 332.576 835.659 447.39 738.473Z" fill="#D1D1FF"/>
<path opacity="0.3" d="M289.098 497.708C291.532 500.607 294.204 503.182 297.049 505.462C296.405 504.765 295.732 504.119 295.11 503.377C275.08 479.557 277.519 446.946 301.261 426.85C323.241 408.242 355.595 407.061 376.175 425.88C375.875 425.501 375.62 425.105 375.309 424.732C355.223 400.845 319.641 397.818 295.838 417.97C272.029 438.122 269.012 473.816 289.098 497.702V497.708Z" fill="black"/>
<g opacity="0.1">
<path d="M372.957 508.807C396.699 488.71 400.944 454.578 380.914 430.752C360.883 406.932 325.007 406.754 301.265 426.85C277.523 446.946 275.084 479.557 295.114 503.377C315.144 527.197 349.215 528.903 372.963 508.807H372.957Z" fill="black"/>
</g>
<path opacity="0.3" d="M224.758 343.241C227.541 333.91 234.937 326.373 243.86 322.538C252.783 318.702 262.773 318.078 272.463 318.702C278.953 319.12 285.398 320.146 291.733 321.629C288.777 321.211 285.81 320.882 282.837 320.687C273.147 320.062 263.162 320.687 254.233 324.522C245.31 328.357 237.554 335.794 235.131 345.226C232.52 355.394 235.381 362.406 241.037 371.409L248.488 379.275C252.428 382.714 255.845 384.955 259.356 386.36C251.233 386.137 236.131 380.819 228.48 366.638C228.48 366.638 221.807 353.13 224.763 343.236L224.758 343.241Z" fill="black"/>
<g opacity="0.1">
<path d="M307.284 383C295.583 387.861 282.62 388.68 269.957 388.374C261.784 388.173 256.117 385.954 248.488 379.293L241.037 371.427C235.381 362.419 232.519 355.411 235.131 345.243C237.553 335.811 245.304 328.375 254.233 324.54C263.156 320.704 273.147 320.075 282.837 320.704C293.732 321.407 304.528 323.637 314.818 327.305C320.563 329.351 324.986 331.842 328.559 336.804C332.498 342.272 331.27 348.549 329.52 355.06C326.22 367.324 318.98 378.15 307.284 383.011V383Z" fill="black"/>
</g>
<path opacity="0.3" d="M206.851 411.756C206.057 416.6 206.323 420.675 208.596 423.306C210.941 426.155 213.663 428.959 216.997 430.325C215.302 428.998 213.797 427.342 212.43 425.676C210.335 423.256 210.091 419.505 210.824 415.056C211.552 410.268 214.091 405.702 218.036 402.904C221.975 400.105 227.32 399.241 231.804 401.036C234.894 402.274 237.322 404.727 238.866 407.681C237.666 402.77 234.332 398.372 229.66 396.504C224.781 394.553 218.969 395.495 214.686 398.533C210.402 401.577 207.635 406.544 206.846 411.75L206.851 411.756Z" fill="black"/>
<g opacity="0.2">
<path d="M230.709 430.957C228.119 432.4 225.108 433.32 222.185 432.807C218.135 432.099 215.051 428.855 212.434 425.672C210.339 423.253 210.095 419.501 210.828 415.052C211.556 410.264 214.095 405.698 218.04 402.9C221.98 400.102 227.325 399.238 231.809 401.033C237.576 403.34 241.149 409.851 240.688 416.067C240.226 422.283 236.132 427.93 230.703 430.957H230.709Z" fill="black"/>
</g>
<path opacity="0.3" d="M270.775 264.397C270.775 264.397 264.564 264.068 258.035 265.183C253.657 265.64 250.128 267.301 248.817 268.667C247.6 269.932 248.723 271.12 251.051 271.895C253.379 272.669 256.79 273.076 260.374 273.316C262.774 273.478 265.291 273.561 267.869 273.584C266.725 273.539 265.603 273.483 264.502 273.411C260.919 273.171 257.507 272.764 255.179 271.989C252.851 271.214 251.734 270.027 252.945 268.762C254.257 267.396 256.818 266.61 260.808 265.668L265.186 264.926C267.342 264.625 269.053 264.453 270.609 264.397" fill="black"/>
<g opacity="0.1">
<path d="M286.904 266.379C283.815 265.381 279.387 264.851 274.819 264.478C271.869 264.233 269.369 264.327 265.19 264.913L260.812 265.654C256.817 266.602 254.261 267.388 252.95 268.748C251.733 270.013 252.856 271.201 255.178 271.976C257.506 272.751 260.918 273.157 264.501 273.397C268.53 273.665 272.858 273.743 277.32 273.62C279.814 273.553 281.931 273.386 284.293 272.879C286.899 272.321 287.843 271.491 288.654 270.615C290.182 268.965 289.994 267.366 286.904 266.373V266.379Z" fill="black"/>
</g>
<path opacity="0.3" d="M513.905 494.581C513.905 494.581 512.844 484.163 508.888 473.683C506.799 466.564 502.593 461.235 499.581 459.501C496.786 457.89 494.781 460.136 493.914 464.25C493.047 468.364 493.186 474.162 493.703 480.188C494.047 484.224 494.575 488.427 495.242 492.714C495.014 490.802 494.814 488.912 494.658 487.061C494.142 481.035 493.997 475.243 494.869 471.124C495.736 467.01 497.742 464.763 500.537 466.374C503.548 468.108 505.782 472.105 508.716 478.426L511.36 485.456C512.538 488.94 513.338 491.722 513.883 494.286" fill="black"/>
<g opacity="0.1">
<path d="M514.456 522.003C515.545 516.551 515.362 509.031 514.839 501.322C514.506 496.343 513.639 492.218 511.35 485.473L508.705 478.444C505.772 472.117 503.538 468.125 500.526 466.392C497.732 464.781 495.726 467.027 494.859 471.141C493.992 475.255 494.131 481.053 494.648 487.079C495.226 493.852 496.27 501.065 497.732 508.435C498.548 512.554 499.454 516.022 501.088 519.773C502.888 523.915 504.76 525.22 506.683 526.284C510.311 528.285 513.367 527.455 514.456 522.003Z" fill="black"/>
</g>
<path opacity="0.3" d="M379.807 306.692C379.807 306.692 373.611 303.419 366.305 301.753C361.565 300.281 357.037 300.66 354.954 301.708C353.02 302.678 353.526 304.635 355.492 306.647C357.459 308.659 360.743 310.733 364.288 312.679C366.666 313.983 369.2 315.248 371.833 316.464C370.683 315.884 369.561 315.293 368.472 314.697C364.927 312.751 361.643 310.677 359.676 308.665C357.709 306.653 357.204 304.696 359.137 303.726C361.221 302.683 364.271 302.912 368.883 303.614L373.778 304.74C376.156 305.37 378.001 305.956 379.629 306.602" fill="black"/>
<g opacity="0.1">
<path d="M395.281 316.561C392.647 313.93 388.391 311.243 383.907 308.673C381.013 307.012 378.396 305.97 373.789 304.749L368.894 303.623C364.283 302.92 361.232 302.692 359.149 303.734C357.215 304.704 357.721 306.661 359.688 308.673C361.66 310.686 364.938 312.759 368.483 314.705C372.473 316.896 376.873 318.986 381.518 320.904C384.113 321.974 386.38 322.754 389.08 323.234C392.053 323.763 393.475 323.195 394.781 322.515C397.242 321.227 397.915 319.204 395.281 316.572V316.561Z" fill="black"/>
</g>
<path opacity="0.3" d="M58.1549 419.719C58.1549 419.719 54.0266 425.394 51.3207 432.401C49.1816 436.894 48.8982 441.443 49.6261 443.661C50.2984 445.718 52.3042 445.501 54.5767 443.84C56.8492 442.179 59.3662 439.218 61.7998 435.985C63.4333 433.817 65.0446 431.481 66.6282 429.045C65.8892 430.099 65.1446 431.13 64.3945 432.128C61.9609 435.366 59.4439 438.321 57.1714 439.982C54.8989 441.643 52.8987 441.861 52.2208 439.804C51.493 437.585 52.1653 434.586 53.5265 430.11L55.349 425.41C56.3158 423.142 57.1603 421.397 58.0327 419.869" fill="black"/>
<g opacity="0.1">
<path d="M70.124 405.801C67.1459 408.031 63.8788 411.866 60.6951 415.947C58.6393 418.578 57.228 421.031 55.3555 425.423L53.5331 430.123C52.1718 434.599 51.4995 437.592 52.2274 439.817C52.8997 441.874 54.9055 441.662 57.178 439.995C59.4505 438.334 61.9675 435.374 64.4011 432.141C67.1403 428.5 69.8407 424.437 72.4021 420.1C73.8356 417.68 74.9302 415.54 75.7969 412.931C76.7526 410.054 76.397 408.566 75.9136 407.167C74.9968 404.536 73.1022 403.577 70.124 405.807V405.801Z" fill="black"/>
</g>
<path opacity="0.3" d="M108.035 341.787L109.513 350.177C109.513 350.177 111.991 356.811 124.109 355.35C136.227 353.89 173.409 335.354 182.744 321.078C190.495 309.215 183.977 303.925 183.977 303.925L175.471 300.781L108.023 341.793L108.035 341.787Z" fill="black"/>
<path d="M110.887 330.205C110.887 330.205 104.108 340.841 110.048 343.94C115.988 347.04 121.316 349.158 134.362 344.425C147.408 339.687 179.179 322.4 179.584 308.146C179.99 293.887 156.648 301.122 150.097 303.413C143.547 305.705 118.377 318.275 110.887 330.205Z" fill="#D1D1FF"/>
<path opacity="0.3" d="M150.694 313.556C153.422 312.602 160.862 310.267 165.329 311.554C162.923 306.208 151.194 309.854 147.61 311.108C143.577 312.519 128.075 320.262 123.463 327.609C123.463 327.609 119.29 334.159 122.946 336.066C123.53 336.372 124.108 336.656 124.696 336.918C123.874 334.265 126.552 330.062 126.552 330.062C131.164 322.715 146.666 314.972 150.7 313.561L150.694 313.556Z" fill="black"/>
<path opacity="0.12" d="M137.908 336.365C145.942 333.449 165.506 322.802 165.756 314.022C165.784 313.041 165.623 312.232 165.317 311.558C160.85 310.27 153.41 312.606 150.682 313.559C146.648 314.97 131.146 322.713 126.534 330.06C126.534 330.06 123.862 334.263 124.679 336.916C127.757 338.277 131.157 338.812 137.903 336.365H137.908Z" fill="black"/>
<path opacity="0.3" d="M362.045 346.82L353.149 351.642C353.149 351.642 346.12 356.459 347.765 365.066C349.41 373.678 369.373 393.919 384.608 394.767C397.266 395.469 402.833 388.161 402.833 388.161L406.111 380.284L362.05 346.82H362.045Z" fill="black"/>
<path d="M374.355 343.917C374.355 343.917 363.009 343.42 359.764 349.318C356.519 355.216 354.308 360.222 359.436 368.104C364.565 375.981 383.161 392.643 398.308 386.679C413.454 380.714 405.592 366.07 403.108 362.078C400.625 358.087 387.09 344.39 374.36 343.922L374.355 343.917Z" fill="#D1D1FF"/>
<path opacity="0.3" d="M392.349 366.99C393.383 368.651 395.922 373.306 394.588 377.286C400.25 373.094 396.288 365.741 394.927 363.556C393.399 361.098 385.059 352.663 377.225 352.374C377.225 352.374 370.241 352.067 368.241 355.702C367.918 356.281 367.618 356.85 367.352 357.413C370.163 355.618 374.647 355.807 374.647 355.807C382.487 356.092 390.821 364.526 392.355 366.99H392.349Z" fill="black"/>
<path opacity="0.12" d="M368.036 367.272C371.192 372.122 382.649 382.384 391.973 378.711C393.017 378.298 393.873 377.819 394.59 377.289C395.923 373.309 393.384 368.654 392.35 366.993C390.822 364.535 382.483 356.1 374.643 355.81C374.643 355.81 370.153 355.621 367.347 357.416C365.925 360.37 365.386 363.197 368.036 367.272Z" fill="black"/>
<path opacity="0.3" d="M399.177 290.842L395.543 292.887C395.543 292.887 392.748 294.995 394.137 299.237C395.526 303.479 406.022 314.004 412.934 314.923C418.674 315.687 420.624 312.32 420.624 312.32L421.502 308.596L399.177 290.836V290.842Z" fill="black"/>
<path d="M404.497 289.826C404.497 289.826 399.363 289.202 398.346 291.967C397.329 294.732 396.712 297.09 399.613 301.092C402.513 305.1 412.125 313.824 418.482 311.433C424.838 309.041 420.204 301.65 418.782 299.626C417.359 297.603 410.247 290.484 404.491 289.826H404.497Z" fill="#D1D1FF"/>
<path opacity="0.3" d="M414.33 301.668C414.919 302.509 416.413 304.862 416.113 306.752C418.341 304.901 416.008 301.194 415.23 300.085C414.358 298.836 409.974 294.454 406.429 294.053C406.429 294.053 403.267 293.668 402.639 295.369C402.539 295.642 402.445 295.904 402.367 296.171C403.495 295.391 405.529 295.636 405.529 295.636C409.074 296.037 413.457 300.425 414.33 301.668Z" fill="black"/>
<path opacity="0.12" d="M403.417 300.99C405.2 303.459 411.123 308.833 415.035 307.356C415.474 307.189 415.824 306.988 416.102 306.754C416.402 304.864 414.907 302.511 414.318 301.67C413.446 300.421 409.062 296.039 405.517 295.638C405.517 295.638 403.483 295.393 402.355 296.173C401.939 297.561 401.911 298.921 403.406 300.99H403.417Z" fill="black"/>
</g>
<g clip-path="url(#clip1_3304_20942)">
<path d="M516.097 104.956C516.097 104.956 504.973 97.0211 490.827 99.0919C475.651 101.307 464.036 107.664 444.593 106.219C420.616 104.432 404.195 78.1752 404.195 78.1752C404.195 78.1752 421.668 31.0712 421.668 12.2734C424.632 12.5945 427.462 13.4667 430.191 14.692C442.361 20.166 452.673 32.7567 465.232 35.7746C467.053 36.2134 468.912 36.4488 470.834 36.4328C472.837 36.4221 474.759 36.1759 476.633 35.7586C490.261 32.7674 501.433 20.9366 522.659 24.3772C524.149 24.618 525.698 24.9337 527.3 25.335C527.3 25.335 515.819 104.459 516.091 104.956" fill="white"/>
<path d="M516.097 104.957C516.097 104.957 504.973 97.0211 490.827 99.0919C475.651 101.307 464.036 107.664 444.593 106.219C420.616 104.432 404.195 78.1752 404.195 78.1752C404.195 78.1752 421.668 31.0712 421.668 12.2734C424.632 12.5945 427.462 13.4667 430.191 14.692C442.361 20.166 452.673 32.7567 465.232 35.7746C467.053 36.2134 468.912 36.4488 470.834 36.4328C472.837 36.4221 474.759 36.1759 476.633 35.7586C490.261 32.7674 501.433 20.9366 522.659 24.3772C524.149 24.618 525.698 24.9337 527.3 25.335C527.3 25.335 515.819 104.459 516.091 104.957" stroke="black" stroke-width="2" stroke-linecap="round" stroke-linejoin="round"/>
<path d="M289.401 148.044L288.12 159.265L287.463 164.98L276.195 263.56C276.195 263.56 282.945 263.95 292.045 263.742C293.823 263.699 295.692 263.64 297.62 263.544C311.968 262.853 329.452 260.488 336.351 253.404C346.663 242.809 350.556 189.118 342.658 167.436C339.037 157.494 318.745 152.379 304.279 149.955C302.666 149.682 301.117 149.446 299.681 149.238C293.615 148.365 289.407 148.039 289.407 148.039" fill="black"/>
<path d="M289.401 148.044L288.12 159.265L287.463 164.98L276.195 263.56C276.195 263.56 282.945 263.95 292.045 263.742C293.823 263.699 295.692 263.64 297.62 263.544C311.968 262.853 329.452 260.488 336.351 253.404C346.663 242.809 350.556 189.118 342.658 167.436C339.037 157.494 318.745 152.379 304.279 149.955C302.666 149.682 301.117 149.446 299.681 149.238C293.615 148.365 289.407 148.039 289.407 148.039" stroke="black" stroke-width="2" stroke-linecap="round" stroke-linejoin="round"/>
<path d="M403.872 172.382C403.872 172.382 385.021 238.514 308.819 206.055C305.593 204.685 302.266 203.139 298.833 201.395L298.085 176.363L297.882 169.439L297.172 145.734C297.172 145.734 300.2 148.008 305.326 150.957C308.034 152.53 311.323 154.28 315.061 155.992C327.188 161.546 344.031 166.646 360.906 163.312C367.426 162.028 373.946 159.476 380.21 155.211L403.872 172.387" fill="white"/>
<path d="M403.872 172.382C403.872 172.382 385.021 238.514 308.819 206.055C305.593 204.685 302.266 203.139 298.833 201.395L298.085 176.363L297.882 169.439L297.172 145.734C297.172 145.734 300.2 148.008 305.326 150.957C308.034 152.53 311.323 154.28 315.061 155.992C327.188 161.546 344.031 166.646 360.906 163.312C367.426 162.028 373.946 159.476 380.21 155.211L403.872 172.387" stroke="black" stroke-width="2" stroke-linecap="round" stroke-linejoin="round"/>
<path d="M346.859 214.916C341.444 214.124 301.286 212.931 308.095 196.305C303.876 206.606 328.596 203.716 343.783 203.716C349.593 203.716 355.835 202.63 362.532 199.971C377.388 194.074 370.499 183.993 372.448 184.02C372.235 185.641 369.367 181.66 369.367 183.115C369.367 186.947 370.83 190.141 373.153 191.04L366.809 210.945C361.517 212.23 352.84 214.91 346.859 214.91M372.416 209.271L382.205 188.83C382.84 188.905 394.396 186.278 397.883 184.421C394.716 188.418 386.108 200.993 380.09 204.765" fill="black"/>
<path d="M426.576 10.9241L389.506 158.165L378.793 200.721L350.934 311.372L343.757 339.882L334.812 337.624L344.088 300.767L369.833 198.538L380.15 157.544L417.632 8.66067C418.16 6.56846 420.035 5.17188 422.101 5.17188C422.47 5.17188 422.854 5.22003 423.228 5.31635C425.701 5.94241 427.196 8.45198 426.576 10.9241Z" fill="#9191FF" stroke="black" stroke-width="2" stroke-linecap="round" stroke-linejoin="round"/>
<path d="M389.789 138.887C389.789 139.213 389.773 139.556 389.72 139.914C388.753 148.321 376.743 164.876 376.743 164.876C376.743 164.876 367.852 168.044 363.89 165.518C362.314 164.512 361.252 157.984 361.038 151.702C360.867 146.571 361.262 141.595 362.41 139.941C365.727 135.179 389.778 133.777 389.784 138.892" fill="white"/>
<path d="M389.789 138.887C389.789 139.213 389.773 139.556 389.72 139.914C388.753 148.321 376.743 164.876 376.743 164.876C376.743 164.876 367.852 168.044 363.89 165.518C362.314 164.512 361.252 157.984 361.038 151.702C360.867 146.571 361.262 141.595 362.41 139.941C365.727 135.179 389.778 133.777 389.784 138.892" stroke="black" stroke-width="2" stroke-linecap="round" stroke-linejoin="round"/>
<path d="M368.107 164.021C366.997 164.021 366.03 163.877 365.373 163.524C364.535 162.282 363.921 158.296 363.648 154.01C364.129 154.261 364.61 154.406 365.08 154.406C365.549 154.406 366.051 154.25 366.516 153.897C370.249 151.067 366.879 142.452 375.391 138.711C376.198 138.353 377.335 138.203 378.675 138.203C379.466 138.203 380.325 138.257 381.233 138.348C377.954 140.006 374.831 142.334 373.437 145.036C372.294 147.257 369.934 155.551 368.588 164.011C368.422 164.016 368.262 164.021 368.102 164.021" fill="black"/>
<path d="M368.107 164.021C366.997 164.021 366.03 163.877 365.373 163.524C364.535 162.282 363.921 158.296 363.648 154.01C364.129 154.261 364.61 154.406 365.08 154.406C365.549 154.406 366.051 154.25 366.516 153.897C370.249 151.067 366.879 142.452 375.391 138.711C376.198 138.353 377.335 138.203 378.675 138.203C379.466 138.203 380.325 138.257 381.233 138.348C377.954 140.006 374.831 142.334 373.437 145.036C372.294 147.257 369.934 155.551 368.588 164.011C368.422 164.016 368.262 164.021 368.102 164.021" stroke="black" stroke-width="2" stroke-linecap="round" stroke-linejoin="round"/>
<path d="M403.931 173.853C399.141 186.161 389.545 188.841 386.405 188.841C381.86 188.841 380.093 186.963 371.468 184.914C362.85 182.854 370.977 149.833 373.444 145.044C375.927 140.234 383.905 136.606 388.466 135.825C389.075 135.718 389.625 135.664 390.095 135.664C394.057 135.664 406.141 146.789 406.467 150.882C407.263 160.888 406.077 168.337 403.936 173.853" fill="white"/>
<path d="M403.931 173.853C399.141 186.161 389.545 188.841 386.405 188.841C381.86 188.841 380.093 186.963 371.468 184.914C362.85 182.854 370.977 149.833 373.444 145.044C375.927 140.234 383.905 136.606 388.466 135.825C389.075 135.718 389.625 135.664 390.095 135.664C394.057 135.664 406.141 146.789 406.467 150.882C407.263 160.888 406.077 168.337 403.936 173.853" stroke="black" stroke-width="2" stroke-linecap="round" stroke-linejoin="round"/>
<path d="M386.412 188.837C385.664 188.837 384.997 188.789 384.361 188.693C382.791 188.463 381.424 187.976 379.614 187.339C378.476 186.938 377.168 186.477 375.529 185.99C374.365 185.643 373.03 185.279 371.476 184.91C371.23 184.851 371 184.765 370.781 184.658C368.458 183.518 367.609 179.703 367.609 174.855C367.609 164.105 371.796 148.245 373.446 145.04C375.929 140.229 383.907 136.602 388.468 135.82C386.401 140.16 382.444 149.893 380.447 164.228C379.021 174.459 383.827 178.055 390.139 178.055C394.534 178.055 399.666 176.311 403.933 173.855C401.599 179.848 398.128 183.556 394.817 185.787C391.33 188.136 388.019 188.842 386.406 188.842" fill="black"/>
<path d="M123.473 126.413C123.473 126.413 114.288 142.62 100.078 142.62C92.9916 142.626 85.8786 135.589 83.1391 128.681C82.2046 126.311 81.7774 123.951 82.0497 121.891C82.5143 118.349 86.3752 114.651 91.1225 111.371C99.4691 105.608 110.534 101.156 110.534 101.156L123.473 126.413Z" fill="white" stroke="black" stroke-width="2" stroke-linecap="round" stroke-linejoin="round"/>
<path d="M243.323 180.108C240.082 183.372 236.2 186.325 231.794 188.722C225.023 192.42 217.018 194.764 208.266 194.764C204.896 194.764 201.623 194.614 198.461 194.33C153.007 190.322 128.554 159.458 123.31 156.724C117.709 153.797 88.5572 153.594 90.7787 139.954C90.9496 138.906 91.5423 137.851 92.4234 136.819C97.4912 130.852 112.091 125.18 111.359 121.879C110.185 116.56 95.1095 102.535 92.1778 96.2267C86.1328 83.2133 95.4139 73.7796 100.636 80.0991C109.448 90.7527 119.556 96.1892 135.486 108.716C140.751 112.857 153.188 121.494 159.388 125.352C167.783 130.569 175.851 134.668 184.214 137.6C197.11 142.127 210.695 143.898 227.223 142.774C227.773 142.737 228.328 142.694 228.889 142.651C259.867 140.211 259.514 163.862 243.323 180.113" fill="white"/>
<path d="M243.323 180.108C240.082 183.372 236.2 186.325 231.794 188.722C225.023 192.42 217.018 194.764 208.266 194.764C204.896 194.764 201.623 194.614 198.461 194.33C153.007 190.322 128.554 159.458 123.31 156.724C117.709 153.797 88.5572 153.594 90.7787 139.954C90.9496 138.906 91.5423 137.851 92.4234 136.819C97.4912 130.852 112.091 125.18 111.359 121.879C110.185 116.56 95.1095 102.535 92.1778 96.2267C86.1328 83.2133 95.4139 73.7796 100.636 80.0991C109.448 90.7527 119.556 96.1892 135.486 108.716C140.751 112.857 153.188 121.494 159.388 125.352C167.783 130.569 175.851 134.668 184.214 137.6C197.11 142.127 210.695 143.898 227.223 142.774C227.773 142.737 228.328 142.694 228.889 142.651C259.867 140.211 259.514 163.862 243.323 180.113" stroke="black" stroke-width="2" stroke-linecap="round" stroke-linejoin="round"/>
<path d="M197.065 191.72C161.954 188.082 139.627 167.818 130.01 159.091C127.335 156.667 125.722 155.201 124.451 154.537C122.614 153.579 119.346 152.98 115.207 152.215C103.454 150.053 92.0741 147.356 93.2115 140.357C93.2649 140.041 93.3931 139.71 93.596 139.367C94.6106 140.619 96.3461 141.78 99.1924 142.621C110.065 145.842 122.619 148.977 127.34 151.546C133.577 154.938 159.402 185.84 188.558 185.84C194.582 185.84 199.564 182.367 203.719 175.63C200.67 180.569 199.046 186.257 197.071 191.715" fill="black"/>
<path d="M197.065 191.72C161.954 188.082 139.627 167.818 130.01 159.091C127.335 156.667 125.722 155.201 124.451 154.537C122.614 153.579 119.346 152.98 115.207 152.215C103.454 150.053 92.0741 147.356 93.2115 140.357C93.2649 140.041 93.3931 139.71 93.596 139.367C94.6106 140.619 96.3461 141.78 99.1924 142.621C110.065 145.842 122.619 148.977 127.34 151.546C133.577 154.938 159.402 185.84 188.558 185.84C194.582 185.84 199.564 182.367 203.719 175.63C200.67 180.569 199.046 186.257 197.071 191.715" stroke="black" stroke-width="2" stroke-linecap="round" stroke-linejoin="round"/>
<path d="M287.04 257.237C261.771 261.394 188.761 266.606 185.712 254.08C184.799 250.313 189.183 222.959 198.459 194.326C201.524 184.898 205.107 175.32 209.214 166.416C211.948 160.471 214.917 154.826 218.105 149.705C219.226 147.907 222.521 145.462 227.215 142.765C252.148 128.424 316.773 107.047 307.466 139.115C306.35 142.957 305.565 146.853 305.057 150.78C304.454 155.307 304.208 159.877 304.219 164.441C304.251 178.081 306.547 191.667 308.438 204.086C312.533 231.14 314.637 252.688 287.04 257.231" fill="white"/>
<path d="M287.04 257.237C261.771 261.394 188.761 266.606 185.712 254.08C184.799 250.313 189.183 222.959 198.459 194.326C201.524 184.898 205.107 175.32 209.214 166.416C211.948 160.471 214.917 154.826 218.105 149.705C219.226 147.907 222.521 145.462 227.215 142.765C252.148 128.424 316.773 107.047 307.466 139.115C306.35 142.957 305.565 146.853 305.057 150.78C304.454 155.307 304.208 159.877 304.219 164.441C304.251 178.081 306.547 191.667 308.438 204.086C312.533 231.14 314.637 252.688 287.04 257.231" stroke="black" stroke-width="2" stroke-linecap="round" stroke-linejoin="round"/>
<path d="M241.19 116.578C240.885 116.294 240.576 116 240.25 115.711L241.265 116.31L241.19 116.583V116.578Z" fill="white" stroke="black" stroke-width="2" stroke-linecap="round" stroke-linejoin="round"/>
<path d="M176.996 114.803C222.056 216.951 365.832 159.322 333.252 56.8416C289.602 -48.8228 141.041 10.888 176.996 114.803Z" fill="white" stroke="black" stroke-width="2" stroke-linecap="round" stroke-linejoin="round"/>
<path d="M176.996 114.803C222.056 216.951 365.832 159.322 333.252 56.8416C289.602 -48.8228 141.041 10.888 176.996 114.803Z" fill="white" stroke="black" stroke-width="2" stroke-linecap="round" stroke-linejoin="round"/>
<path d="M304.219 164.45C304.209 161.128 304.337 157.799 304.641 154.487C304.919 154.294 305.191 154.096 305.469 153.898C307.557 155.065 309.928 156.312 312.539 157.548C309.917 160.031 307.135 162.337 304.219 164.45Z" fill="black" stroke="black" stroke-width="2" stroke-linecap="round" stroke-linejoin="round"/>
<path d="M254.246 180.859C250.599 180.859 246.952 180.613 243.326 180.11C231.412 178.451 219.728 174.021 209.219 166.422C210.233 164.212 211.285 162.051 212.364 159.932C216.049 162.083 219.91 163.939 223.92 165.48C233.27 169.076 243.219 170.869 253.296 170.869C263.372 170.869 274.458 168.916 284.722 165.02C291.878 162.302 298.569 158.754 304.651 154.484C304.347 157.797 304.219 161.125 304.229 164.448C302.173 165.957 300.043 167.359 297.864 168.659C284.743 176.514 269.546 180.854 254.252 180.854" fill="black"/>
<path d="M254.246 180.859C250.599 180.859 246.952 180.613 243.326 180.11C231.412 178.451 219.728 174.021 209.219 166.422C210.233 164.212 211.285 162.051 212.364 159.932C216.049 162.083 219.91 163.939 223.92 165.48C233.27 169.076 243.219 170.869 253.296 170.869C263.372 170.869 274.458 168.916 284.722 165.02C291.878 162.302 298.569 158.754 304.651 154.484C304.347 157.797 304.219 161.125 304.229 164.448C302.173 165.957 300.043 167.359 297.864 168.659C284.743 176.514 269.546 180.854 254.252 180.854" stroke="black" stroke-width="2" stroke-linecap="round" stroke-linejoin="round"/>
<path d="M176.996 114.803C222.056 216.951 365.832 159.322 333.252 56.8416C289.602 -48.8228 141.041 10.888 176.996 114.803Z" fill="white" stroke="black" stroke-width="2" stroke-linecap="round" stroke-linejoin="round"/>
<path d="M301.295 159.615C338.483 127.231 340.705 72.0045 307.714 34.9869C301.354 27.8595 294.113 21.9521 286.29 17.3182C285.382 16.767 284.453 16.2427 283.513 15.7343C281.014 14.3645 278.461 13.1177 275.866 11.9994C269.863 9.4149 263.626 7.50463 257.282 6.26857C250.944 5.02716 244.487 4.45996 238.047 4.57768C236.002 4.61514 233.957 4.7168 231.906 4.89338" fill="black"/>
<path d="M301.295 159.615C338.483 127.231 340.705 72.0045 307.714 34.9869C301.354 27.8595 294.113 21.9521 286.29 17.3182C285.382 16.767 284.453 16.2427 283.513 15.7343C281.014 14.3645 278.461 13.1177 275.866 11.9994C269.863 9.4149 263.626 7.50463 257.282 6.26857C250.944 5.02716 244.487 4.45996 238.047 4.57768C236.002 4.61514 233.957 4.7168 231.906 4.89338" stroke="black" stroke-width="2" stroke-linecap="round" stroke-linejoin="round"/>
<path d="M298.062 157.806C328.367 125.016 334.978 74.5513 301.987 37.5338C295.627 30.4064 288.386 24.499 280.563 19.8651C279.655 19.3139 278.726 18.7895 277.786 18.2812C275.287 16.9114 272.734 15.6646 270.139 14.5463C264.137 11.9618 257.9 10.0515 251.556 8.81544C245.217 7.57403 238.761 7.00684 232.321 7.12456C230.276 7.16201 228.23 7.26368 226.18 7.44026" fill="white"/>
<path d="M298.062 157.806C328.367 125.016 334.978 74.5513 301.987 37.5338C295.627 30.4064 288.386 24.499 280.563 19.8651C279.655 19.3139 278.726 18.7895 277.786 18.2812C275.287 16.9114 272.734 15.6646 270.139 14.5463C264.137 11.9618 257.9 10.0515 251.556 8.81544C245.217 7.57403 238.761 7.00684 232.321 7.12456C230.276 7.16201 228.23 7.26368 226.18 7.44026" stroke="black" stroke-width="2" stroke-linecap="round" stroke-linejoin="round"/>
<path d="M260.43 168.394C262.224 168.003 296.555 157.762 306.669 137.477C305.601 139.617 308.907 141.966 310.92 142.956C302.691 150.677 297.137 160.266 287.071 164.092C280.124 166.73 269.332 167.367 261.839 168.121" fill="black"/>
<path d="M260.43 168.394C262.224 168.003 296.555 157.762 306.669 137.477C305.601 139.617 308.907 141.966 310.92 142.956C302.691 150.677 297.137 160.266 287.071 164.092C280.124 166.73 269.332 167.367 261.839 168.121" stroke="black" stroke-width="2" stroke-linecap="round" stroke-linejoin="round"/>
<path d="M187.136 133.629C261.315 197.583 349.096 113.242 296.245 45.6708C232.458 -26.4113 132.673 50.1334 187.136 133.629Z" fill="#5555FF" stroke="black" stroke-width="2" stroke-linecap="round" stroke-linejoin="round"/>
<path d="M175.197 72.4922C159.22 159.658 282.42 189.297 310.082 112.009C261.786 151.793 190.977 118.895 175.197 72.4922Z" fill="black" stroke="black" stroke-width="2" stroke-linecap="round" stroke-linejoin="round"/>
<path d="M344.719 118.42C332.603 155.881 294.117 146.87 302.084 109.938C313.341 70.2079 354.486 79.8342 344.719 118.42Z" fill="white" stroke="black" stroke-width="2" stroke-linecap="round" stroke-linejoin="round"/>
<path d="M322.257 141.254C321.979 141.195 315.956 139.568 315.683 139.493C307.71 137.342 299.246 127.999 302.242 111.898C303.481 113.734 311.155 114.312 311.139 114.371L313.515 114.515C310.856 126.849 311.454 135.314 316.516 139.696" fill="white"/>
<path d="M322.257 141.254C321.979 141.195 315.956 139.568 315.683 139.493C307.71 137.342 299.246 127.999 302.242 111.898C303.481 113.734 311.155 114.312 311.139 114.371L313.515 114.515C310.856 126.849 311.454 135.314 316.516 139.696" stroke="black" stroke-width="2" stroke-linecap="round" stroke-linejoin="round"/>
<path d="M345.87 120.816C336.023 151.167 307.075 144.901 313.51 115.026C322.582 82.4234 354.035 89.2672 345.87 120.816Z" fill="black" stroke="black" stroke-width="2" stroke-linecap="round" stroke-linejoin="round"/>
<path d="M286.645 100.076C280.338 100.076 274.731 93.8045 277.155 85.1628C279.462 78.426 283.937 75.6328 288.193 75.6328C294.911 75.6328 301.1 82.5783 297.421 91.9424C294.724 97.6732 290.548 100.081 286.645 100.081" fill="white"/>
<path d="M279.457 117.893C276.643 117.893 274.149 115.084 275.906 110.99C276.985 109 278.645 108.133 280.21 108.133C283.024 108.133 285.523 110.942 283.761 115.035C282.682 117.026 281.022 117.893 279.457 117.893Z" fill="white"/>
<path d="M184.346 78.0862C178.226 50.7645 216.322 14.4692 234.708 31.56C233.181 30.1421 202.342 39.6988 184.346 78.0862Z" fill="white"/>
<path d="M340.344 352.277C328.196 354.187 306.846 349.222 299.135 331.558C299.135 331.558 290.18 300.164 269.455 279.644C254.155 264.501 220.919 261.023 213.763 271.382C206.853 281.377 220.983 308.469 212.396 322.906C208.978 328.637 188.067 338.632 159.663 334.442C147.797 332.687 146.035 323.874 147.247 318.01C147.343 317.528 147.461 317.063 147.6 316.635C151.076 305.403 166.696 302.856 166.696 302.856C166.696 302.856 146.393 273.335 154.082 248.897C160.523 228.457 176.837 220.746 189.946 220.634C195.933 220.586 201.251 222.116 204.669 224.749L267.121 223.234L308.395 221.11C309.041 227.59 310.103 218.461 311.177 224.278C312.213 229.923 313.446 235.338 314.883 240.7C320.794 262.735 330.102 283.769 342.971 315.211C354.324 322.36 360.514 329.033 362.116 334.747C364.519 343.32 356.61 349.719 340.355 352.272" fill="white"/>
<path d="M340.344 352.277C328.196 354.187 306.846 349.222 299.135 331.558C299.135 331.558 290.18 300.164 269.455 279.644C254.155 264.501 220.919 261.023 213.763 271.382C206.853 281.377 220.983 308.469 212.396 322.906C208.978 328.637 188.067 338.632 159.663 334.442C147.797 332.687 146.035 323.874 147.247 318.01C147.343 317.528 147.461 317.063 147.6 316.635C151.076 305.403 166.696 302.856 166.696 302.856C166.696 302.856 146.393 273.335 154.082 248.897C160.523 228.457 176.837 220.746 189.946 220.634C195.933 220.586 201.251 222.116 204.669 224.749L267.121 223.234L308.395 221.11C309.041 227.59 310.103 218.461 311.177 224.278C312.213 229.923 313.446 235.338 314.883 240.7C320.794 262.735 330.102 283.769 342.971 315.211C354.324 322.36 360.514 329.033 362.116 334.747C364.519 343.32 356.61 349.719 340.355 352.272" stroke="black" stroke-width="2" stroke-linecap="round" stroke-linejoin="round"/>
<path d="M233.263 264.197C231.805 264.197 230.401 264.261 229.071 264.385C221.814 265.064 216.602 267.413 213.991 271.186C210.183 276.692 211.663 285.713 213.232 295.27C214.904 305.442 216.634 315.967 212.528 322.859C210.295 326.61 196.342 334.198 175.473 334.198C171.334 334.198 167.185 334.883 162.539 334.198C158.208 333.561 154.732 332.159 151.987 330.511C149.242 328.863 147.405 323.919 147.763 321.522C151.245 323.02 160.74 323.073 169.332 323.073C170.421 323.073 171.564 323.052 172.76 323.014C200.977 322.105 210.114 314.014 205.762 292.445C201.709 272.357 210.413 254.742 210.413 254.742" fill="black"/>
<path d="M187.29 214.11C187.071 219.386 191.161 223.843 196.427 224.068C201.692 224.287 206.14 220.188 206.364 214.912C206.583 209.636 202.493 205.179 197.228 204.954C191.962 204.729 187.514 208.834 187.29 214.11Z" fill="white" stroke="black" stroke-width="2" stroke-linecap="round" stroke-linejoin="round"/>
<path d="M193.463 221.344C192.635 220.932 191.877 220.37 191.231 219.664C189.858 218.165 189.148 216.223 189.233 214.19C189.266 213.483 189.388 212.798 189.597 212.156C190.745 213.655 192.331 214.81 194.173 215.42L193.463 221.344Z" fill="black" stroke="black" stroke-width="2" stroke-linecap="round" stroke-linejoin="round"/>
<path d="M203.736 242.301L253.291 248.257C259.155 248.963 264.538 244.731 265.243 238.845L268.404 212.417C269.023 207.264 265.857 202.496 261.12 200.917C260.447 200.687 259.748 200.532 259.016 200.447L209.465 194.491C203.591 193.785 198.214 198.017 197.514 203.903L195.005 224.836L194.342 230.331C193.638 236.217 197.867 241.6 203.736 242.307" fill="white"/>
<path d="M203.736 242.301L253.291 248.257C259.155 248.963 264.538 244.731 265.243 238.845L268.404 212.417C269.023 207.264 265.857 202.496 261.12 200.917C260.447 200.687 259.748 200.532 259.016 200.447L209.465 194.491C203.591 193.785 198.214 198.017 197.514 203.903L195.005 224.836L194.342 230.331C193.638 236.217 197.867 241.6 203.736 242.307" stroke="black" stroke-width="2" stroke-linecap="round" stroke-linejoin="round"/>
<path d="M201.766 241.87C202.39 242.084 203.042 242.228 203.731 242.303L253.292 248.259C257.591 248.772 261.628 246.643 263.753 243.143C264.528 241.875 265.051 240.42 265.238 238.852L266.647 227.112L267.112 223.238L268.404 212.424C269.109 206.538 264.88 201.155 259.011 200.448L248.304 199.164C253.126 200.689 256.368 205.5 255.748 210.706L254.045 224.982L252.587 237.139C251.882 243.015 246.499 247.258 240.636 246.552L201.771 241.87" fill="white"/>
<path d="M201.766 241.87C202.39 242.084 203.042 242.228 203.731 242.303L253.292 248.259C257.591 248.772 261.628 246.643 263.753 243.143C264.527 241.875 265.051 240.42 265.238 238.852L266.647 227.112L267.112 223.238L268.404 212.424C269.109 206.538 264.88 201.155 259.011 200.448L248.304 199.164C253.126 200.689 256.368 205.5 255.748 210.706L254.045 224.982L252.587 237.139C251.882 243.015 246.499 247.258 240.636 246.552L201.771 241.87" stroke="black" stroke-width="2" stroke-linecap="round" stroke-linejoin="round"/>
<path d="M254.577 246.39C254.23 246.39 253.878 246.369 253.525 246.326L247.32 246.39L249.75 245.844C252.425 243.741 254.118 240.729 254.519 237.369L254.257 226.859C255.325 227.93 257.995 228.866 259.266 228.887H259.394C260.393 228.887 261.311 228.647 262.155 228.245C262.689 230.134 263.506 231.729 264.024 232.628L263.303 238.621C263.025 240.948 261.851 243.035 259.998 244.496C258.422 245.737 256.532 246.39 254.572 246.39" fill="black"/>
<path d="M254.577 246.39C254.23 246.39 253.878 246.369 253.525 246.326L247.32 246.39L249.75 245.844C252.425 243.741 254.118 240.729 254.519 237.369L254.257 226.859C255.325 227.93 257.995 228.866 259.266 228.887H259.394C260.393 228.887 261.311 228.647 262.155 228.245C262.689 230.134 263.506 231.729 264.024 232.628L263.303 238.621C263.025 240.948 261.851 243.035 259.998 244.496C258.422 245.737 256.532 246.39 254.572 246.39" stroke="black" stroke-width="2" stroke-linecap="round" stroke-linejoin="round"/>
<path d="M234.595 221.789C234.483 222.769 234.958 230.822 234.958 230.822C234.958 230.822 237.452 231.105 240.517 231.458C244.346 231.897 247.903 228.28 248.463 223.379C249.024 218.477 246.37 214.154 242.541 213.715C239.957 213.421 236.982 213.078 236.982 213.078C236.982 213.078 234.782 220.2 234.601 221.795" fill="#51A4E9"/>
<path d="M234.595 221.789C234.483 222.769 234.958 230.822 234.958 230.822C234.958 230.822 237.452 231.105 240.517 231.458C244.346 231.897 247.903 228.28 248.463 223.379C249.024 218.477 246.37 214.154 242.541 213.715C239.957 213.421 236.982 213.078 236.982 213.078C236.982 213.078 234.782 220.2 234.601 221.795" stroke="black" stroke-width="2" stroke-linecap="round" stroke-linejoin="round"/>
<path d="M229.036 221.155C228.475 226.056 231.129 230.385 234.958 230.819C238.787 231.257 242.343 227.64 242.904 222.739C243.465 217.837 240.811 213.514 236.982 213.075C233.153 212.636 229.596 216.254 229.036 221.155Z" fill="#51A4E9" stroke="black" stroke-width="2" stroke-linecap="round" stroke-linejoin="round"/>
<path d="M242.547 224.57C242.547 224.57 242.547 224.559 242.547 224.548C242.712 223.971 242.835 223.361 242.905 222.735C243.038 221.579 242.99 220.455 242.793 219.406C242.99 220.455 243.038 221.579 242.91 222.735C242.835 223.371 242.718 223.981 242.552 224.565" fill="#BCD6F1"/>
<path d="M311.61 214.922C311.61 214.922 315.962 218.908 315.78 224.586C315.567 231.146 311.3 233.522 311.3 233.522C311.3 233.522 292.786 241.478 264.51 233.42C264.51 233.42 256.789 222.146 266.609 216.752C266.609 216.752 296.615 222.991 311.61 214.922Z" fill="white" stroke="black" stroke-width="2" stroke-linecap="round" stroke-linejoin="round"/>
<path d="M289.39 237.021C282.421 237.021 274.021 236.122 264.51 233.414C264.494 233.393 264.388 233.233 264.222 232.954C263.544 231.836 261.91 228.823 261.664 225.522C261.787 225.736 261.867 225.848 261.867 225.848C271.372 228.556 279.778 229.455 286.741 229.455C294.922 229.455 301.127 228.213 304.807 227.207C309.543 225.912 312.918 221.915 313.132 217.212C313.132 217.148 313.132 217.083 313.137 217.014C313.142 216.907 313.148 216.795 313.137 216.688C314.371 218.384 315.898 221.177 315.786 224.58C315.577 231.135 311.311 233.511 311.311 233.511C311.311 233.511 303.151 237.016 289.395 237.016" fill="black"/>
<path d="M289.39 237.021C282.421 237.021 274.021 236.122 264.51 233.414C264.494 233.393 264.388 233.233 264.222 232.954C263.544 231.836 261.91 228.823 261.664 225.522C261.787 225.736 261.867 225.848 261.867 225.848C271.372 228.556 279.778 229.455 286.741 229.455C294.922 229.455 301.127 228.213 304.807 227.207C309.543 225.912 312.918 221.915 313.132 217.212C313.132 217.148 313.132 217.083 313.137 217.014C313.142 216.907 313.148 216.795 313.137 216.688C314.371 218.384 315.898 221.177 315.786 224.58C315.577 231.135 311.311 233.511 311.311 233.511C311.311 233.511 303.151 237.016 289.395 237.016" stroke="black" stroke-width="2" stroke-linecap="round" stroke-linejoin="round"/>
<path d="M423 15.0071C423.011 14.547 423.016 14.0975 423.011 13.6641C423.117 13.6748 423.224 13.6855 423.331 13.7015L423 15.0125" fill="#BAB5BD"/>
</g>
<g clip-path="url(#clip2_3304_20942)">
<path d="M469.836 57.2969L491.024 61.492L487.191 80.8487L469.836 57.2969Z" fill="#5555FF"/>
<path d="M479.817 62.522L460.344 77.3203L466.135 85.0513L485.608 70.253L479.817 62.522Z" fill="#5555FF"/>
<path d="M453.959 83.691C447.347 82.3818 444.167 79.3551 444.995 75.1698L449.266 53.6016L458.457 55.4214L454.852 73.6272C454.563 75.0872 455.341 75.5182 456.985 75.8436L471.679 78.7529L470.069 86.8808L453.959 83.691Z" fill="black"/>
<path d="M458.034 55.7051L454.5 73.5542C454.12 75.4756 455.486 75.9141 456.917 76.1974L471.256 79.0366L469.788 86.4511L454.032 83.3314C450.334 82.5992 444.295 80.5733 445.352 75.2371L449.552 54.0255L458.034 55.7051ZM458.884 55.132L448.984 53.1719L444.643 75.0968C443.769 79.5151 447.052 82.6907 453.891 84.0448L470.355 87.3048L472.106 78.4634L457.058 75.484C455.372 75.1502 454.993 74.7836 455.209 73.6944L458.884 55.132Z" fill="black"/>
<path d="M449.837 50.7274L450.09 49.4528C450.919 45.2628 455.016 43.6819 461.624 44.9902L484.111 49.4425L487.957 58.275L449.837 50.7274Z" fill="black"/>
<path d="M483.858 49.7599L487.355 57.7818L470.408 54.4264L461.576 52.6777L450.264 50.438L450.446 49.5201C451.503 44.1839 457.862 44.6128 461.556 45.3441L483.858 49.7599ZM484.368 49.1194L461.697 44.6307C454.858 43.2766 450.612 44.9663 449.738 49.3798L449.416 51.0064L461.436 53.3863L470.273 55.136L488.575 58.7597L484.368 49.1194Z" fill="black"/>
<path d="M474.772 78.1198C474.832 77.9685 474.88 77.8001 474.92 77.5956L476.399 70.1287L471.794 69.217L467.102 59.7969L487.212 63.7788L483.45 82.7788C482.669 86.7262 478.943 88.3658 472.936 87.4187L474.777 78.1208L474.772 78.1198Z" fill="black"/>
<path d="M486.791 64.0651L486.752 64.2648L483.1 82.7084C482.585 85.3099 480.464 88.1372 473.367 87.1176L475.128 78.224C475.191 78.0584 475.241 77.8757 475.283 77.6664L476.691 70.5563L476.832 69.8429L476.123 69.7026L472.047 68.8956L467.762 60.2974L486.087 63.9258L486.791 64.0651ZM487.641 63.492L486.229 63.2124L466.453 59.2969L471.561 69.5407L475.987 70.417L474.579 77.5271C474.542 77.7173 474.495 77.8762 474.439 78.0133L472.518 87.7155C478.963 88.8284 482.967 87.1205 483.813 82.8496L487.465 64.4061L487.646 63.4929L487.641 63.492Z" fill="black"/>
</g>
<path d="M65.6328 37L75.1328 59" stroke="black" stroke-width="6"/>
<path d="M90.6328 40L90.7608 57.9751" stroke="black" stroke-width="6"/>
<path d="M52 63.5547L67.6384 72.4182" stroke="black" stroke-width="6"/>
<defs>
<clipPath id="clip0_3304_20942">
<rect width="544" height="249" fill="white" transform="translate(0 257)"/>
</clipPath>
<clipPath id="clip1_3304_20942">
<rect width="448" height="354" fill="white" transform="translate(80.6328)"/>
</clipPath>
<clipPath id="clip2_3304_20942">
<rect width="42.8562" height="40.1777" fill="white" transform="translate(451.094 42.5312) rotate(11.1995)"/>
</clipPath>
</defs>
</svg>
