<svg width="947" height="993" viewBox="0 0 947 993" fill="none" xmlns="http://www.w3.org/2000/svg">
<g clip-path="url(#clip0_3187_37110)">
<path d="M201.4 780.152L202.399 791.269C202.281 800.817 214.466 814.015 218.902 818.51C224.96 824.662 252.468 846.285 269.834 848.368C269.834 848.368 280.501 849.72 284.33 845.443L292.946 839.325C292.946 839.325 299.059 833.01 290.962 820.159C282.865 807.309 242.274 775.347 221.291 772.435C203.868 770.021 201.41 780.158 201.41 780.158L201.4 780.152Z" fill="#30366C"/>
<path d="M145.046 290.904L137.455 293.469C130.837 295.074 122.99 304.829 120.35 308.324C116.733 313.099 104.675 333.681 105.073 344.631C105.073 344.631 105.264 351.373 108.632 352.961L113.78 357.139C113.78 357.139 118.794 359.758 126.828 352.564C134.863 345.369 152.69 314.987 152.491 301.681C152.318 290.632 145.048 290.912 145.048 290.912L145.046 290.904Z" fill="#30366C"/>
<path opacity="0.3" d="M145.046 290.904L137.455 293.469C130.837 295.074 122.99 304.829 120.35 308.324C116.733 313.099 104.675 333.681 105.073 344.631C105.073 344.631 105.264 351.373 108.632 352.961L113.78 357.139C113.78 357.139 118.794 359.758 126.828 352.564C134.863 345.369 152.69 314.987 152.491 301.681C152.318 290.632 145.048 290.912 145.048 290.912L145.046 290.904Z" fill="black"/>
<path d="M734.44 165.228C551.249 33.4912 295.96 75.2023 164.231 258.392C32.4918 441.575 74.205 696.872 257.394 828.601C440.578 960.34 695.875 918.627 827.604 735.437C959.333 552.248 917.63 296.957 734.44 165.228Z" fill="#30366C"/>
<g opacity="0.2">
<path d="M708.588 269.274C704.174 266.099 698.024 267.104 694.857 271.516C691.682 275.929 692.688 282.079 697.1 285.246C701.513 288.421 707.663 287.415 710.83 283.004C714.005 278.59 712.999 272.44 708.588 269.274Z" fill="black"/>
</g>
<path opacity="0.3" d="M442.913 483.772C446.23 479.168 448.989 474.334 451.256 469.357C450.481 470.551 449.788 471.766 448.94 472.943C421.7 510.824 373.46 519.186 335.58 491.947C300.507 466.729 286.93 420.033 306.708 383.179C306.268 383.754 305.787 384.271 305.359 384.861C278.043 422.847 286.692 475.782 324.676 503.091C362.661 530.407 415.589 521.759 442.905 483.774L442.913 483.772Z" fill="black"/>
<g opacity="0.1">
<path d="M428.288 357.564C390.408 330.324 339.296 336.612 312.048 374.495C284.809 412.375 297.702 464.698 335.582 491.938C373.462 519.178 421.702 510.815 448.942 472.935C476.182 435.055 466.168 384.803 428.286 357.555L428.288 357.564Z" fill="black"/>
</g>
<path opacity="0.3" d="M757.98 566.058C773.048 570.536 790.631 564.622 799.94 551.96L809.651 547.872C820.715 542.799 823.606 528.672 824.386 516.487C822.095 521.677 818.554 526.69 813.195 532.41L801.013 543.162C787.227 551.167 776.584 555.076 761.516 550.598C747.536 546.448 736.838 534.407 731.58 520.799C726.33 507.189 725.94 492.167 727.409 477.657C727.862 473.197 728.519 468.764 729.301 464.35C726.735 473.782 724.85 483.388 723.863 493.111C722.394 507.62 722.786 522.651 728.034 536.253C733.282 549.855 743.982 561.904 757.969 566.052L757.98 566.058Z" fill="black"/>
<g opacity="0.1">
<path d="M821.974 444.357C828.603 462.181 829.123 481.689 827.973 500.679C827.229 512.94 823.591 521.326 813.212 532.406L801.038 543.155C787.25 551.152 776.607 555.061 761.541 550.592C747.562 546.442 736.863 534.401 731.605 520.793C726.356 507.183 725.966 492.16 727.426 477.653C729.077 461.334 732.998 445.252 739.049 430.003C742.432 421.492 746.397 414.986 754.006 409.896C762.403 404.28 771.722 406.461 781.373 409.454C799.545 415.079 815.345 426.533 821.974 444.357Z" fill="black"/>
</g>
<path opacity="0.3" d="M242.227 633.911C227.658 633.267 214.005 625.248 205.166 613.652C196.326 602.055 191.757 587.732 189.112 573.389C187.339 563.783 186.466 554.02 186.297 544.252C186.773 548.71 187.383 553.152 188.19 557.553C190.836 571.896 195.403 586.212 204.244 597.816C213.084 609.413 226.724 617.994 241.305 618.076C257.025 618.165 266.157 611.434 277.155 599.906L285.843 586.178C289.392 579.183 291.393 573.387 292.145 567.759C294.799 579.673 292.615 603.614 274.83 619.94C274.83 619.94 257.666 634.596 242.217 633.905L242.227 633.911Z" fill="black"/>
<g opacity="0.1">
<path d="M269.685 499.184C281.032 514.452 286.974 533.034 291.171 551.591C293.876 563.57 292.732 572.636 285.857 586.182L277.169 599.909C266.164 611.44 257.039 618.168 241.32 618.079C226.738 617.997 213.1 609.424 204.258 597.82C195.419 586.223 190.842 571.902 188.204 557.557C185.23 541.429 184.509 524.889 186.062 508.56C186.926 499.444 188.923 492.091 194.816 485.074C201.312 477.338 210.875 476.833 220.969 477.003C239.985 477.329 258.356 483.919 269.701 499.18L269.685 499.184Z" fill="black"/>
</g>
<path opacity="0.3" d="M668.784 347.536C661.529 354.577 650.636 356.776 640.038 354.4C629.438 352.016 619.358 345.852 610.178 338.679C604.029 333.876 598.217 328.531 592.743 322.817C595.431 325.222 598.175 327.543 600.994 329.751C610.173 336.916 620.255 343.088 630.855 345.472C641.455 347.856 652.648 345.994 659.601 338.607C667.09 330.647 667.702 321.999 666.53 309.548L663.055 296.972C660.866 291.008 658.608 286.55 655.855 282.828C663.698 288.548 675.895 303.878 676.501 322.633C676.501 322.633 676.476 340.075 668.778 347.546L668.784 347.536Z" fill="black"/>
<g opacity="0.1">
<path d="M607.323 253.553C621.135 256.833 634.225 264.838 646.469 273.719C654.374 279.449 658.845 285.415 663.077 296.966L666.552 309.543C667.716 321.995 667.112 330.641 659.623 338.602C652.67 345.989 641.475 347.842 630.877 345.467C620.277 343.083 610.197 336.919 601.016 329.746C590.693 321.69 581.205 312.236 572.912 301.75C568.279 295.893 565.162 290.516 564.072 283.346C562.875 275.446 567.114 270.265 571.998 265.224C581.183 255.726 593.519 250.272 607.331 253.551L607.323 253.553Z" fill="black"/>
</g>
<path opacity="0.3" d="M747.827 222.985C743.191 223.816 741.91 229.603 743.723 237.693C745.535 245.782 749.916 255.601 754.95 265.375C758.32 271.928 762.055 278.562 766.035 285.176C764.352 282.149 762.73 279.123 761.183 276.122C756.147 266.339 751.776 256.527 749.964 248.437C748.151 240.348 749.196 234.172 754.068 233.729C759.318 233.252 765.168 237.554 773.633 245.062L782.221 254.123C786.305 258.758 789.372 262.633 791.942 266.418C787.916 258.283 777.294 242.135 764.572 231.559C764.572 231.559 752.75 222.099 747.835 222.983L747.827 222.985Z" fill="black"/>
<g opacity="0.1">
<path d="M812.696 313.442C810.208 302.803 804.531 290.057 798.286 277.386C794.248 269.203 790.121 263.098 782.215 254.116L773.626 245.055C765.161 237.547 759.317 233.234 754.061 233.722C749.19 234.165 748.145 240.341 749.957 248.43C751.777 256.518 756.151 266.338 761.176 276.115C766.835 287.109 773.419 298.327 780.682 309.339C784.742 315.485 788.444 320.414 793.326 325.004C798.706 330.07 802.135 330.153 805.462 329.763C811.723 329.031 815.185 324.08 812.696 313.442Z" fill="black"/>
</g>
<path opacity="0.3" d="M807.522 704.421C801.746 703.594 798.619 697.393 798.569 688.68C798.519 679.966 801.05 669.372 804.388 658.798C806.623 651.712 809.27 644.549 812.209 637.389C811.028 640.664 809.914 643.93 808.891 647.183C805.554 657.756 803.022 668.35 803.072 677.064C803.123 685.778 806.076 692.384 812.026 692.806C818.445 693.247 824.259 688.548 832.32 680.366L840.11 670.522C843.721 665.483 846.321 661.283 848.363 657.189C845.782 665.979 837.507 683.467 825.192 694.991C825.192 694.991 813.64 705.308 807.516 704.431L807.522 704.421Z" fill="black"/>
<g opacity="0.1">
<path d="M860.28 606.393C860.229 617.851 856.945 631.613 852.947 645.304C850.37 654.145 847.103 660.759 840.117 670.513L832.328 680.356C824.266 688.538 818.452 693.237 812.033 692.796C806.077 692.384 803.13 685.768 803.08 677.054C803.03 668.34 805.561 657.746 808.899 647.173C812.645 635.283 817.449 623.153 823.106 611.23C826.267 604.574 829.356 599.236 833.925 594.239C838.966 588.727 843.044 588.587 847.132 588.961C854.829 589.658 860.33 594.934 860.28 606.393Z" fill="black"/>
</g>
<path opacity="0.3" d="M729.69 706.446C736.972 705.836 742.768 703.972 745.741 699.713C749.005 695.277 752.058 690.309 752.808 684.982C751.507 687.917 749.67 690.703 747.765 693.291C745.033 697.206 739.708 698.925 733.005 699.476C725.82 700.165 718.297 698.143 712.813 693.447C707.328 688.752 704.132 681.32 705.087 674.17C705.749 669.244 708.408 664.831 712.109 661.516C705.457 665.04 700.32 671.471 699.319 678.917C698.283 686.7 701.761 694.775 707.72 699.884C713.679 704.994 721.866 707.193 729.68 706.44L729.69 706.446Z" fill="black"/>
<g opacity="0.2">
<path d="M748.733 664.892C751.766 668.121 754.191 672.15 754.52 676.568C754.979 682.7 751.415 688.339 747.774 693.292C745.041 697.207 739.716 698.925 733.013 699.476C725.829 700.166 718.304 698.135 712.821 693.448C707.336 688.753 704.141 681.321 705.095 674.17C706.325 664.971 714.426 657.424 723.579 655.835C732.729 654.237 742.375 658.127 748.733 664.892Z" fill="black"/>
</g>
<path opacity="0.3" d="M486.565 188.145C493.847 187.535 499.643 185.671 502.616 181.412C505.88 176.976 508.933 172.008 509.683 166.681C508.382 169.616 506.545 172.403 504.64 174.99C501.908 178.905 496.583 180.624 489.88 181.175C482.695 181.865 475.172 179.842 469.688 175.147C464.203 170.451 461.007 163.02 461.962 155.869C462.624 150.943 465.283 146.53 468.984 143.215C462.332 146.74 457.195 153.17 456.194 160.617C455.158 168.399 458.636 176.474 464.595 181.583C470.554 186.693 478.741 188.892 486.555 188.139L486.565 188.145Z" fill="black"/>
<g opacity="0.2">
<path d="M505.6 146.599C508.633 149.828 511.058 153.857 511.387 158.275C511.846 164.407 508.283 170.046 504.641 174.999C501.908 178.914 496.584 180.632 489.881 181.183C482.696 181.873 475.171 179.842 469.688 175.155C464.204 170.46 461.008 163.028 461.962 155.877C463.193 146.678 471.293 139.131 480.446 137.542C489.597 135.945 499.242 139.834 505.6 146.599Z" fill="black"/>
</g>
<path opacity="0.3" d="M719.357 740.458C722.998 740.153 725.895 739.217 727.384 737.096C729.012 734.879 730.546 732.393 730.918 729.734C730.273 731.205 729.348 732.591 728.393 733.89C727.025 735.843 724.367 736.702 721.014 736.986C717.417 737.332 713.659 736.316 710.916 733.968C708.174 731.62 706.577 727.908 707.053 724.329C707.379 721.863 708.718 719.659 710.565 718.006C707.24 719.772 704.667 722.985 704.175 726.706C703.657 730.597 705.396 734.634 708.371 737.19C711.355 739.744 715.443 740.841 719.351 740.468L719.357 740.458Z" fill="black"/>
<g opacity="0.2">
<path d="M728.875 719.678C730.392 721.292 731.605 723.311 731.764 725.517C731.994 728.583 730.209 731.407 728.387 733.88C727.02 735.833 724.354 736.694 721.008 736.976C717.42 737.32 713.653 736.306 710.911 733.958C708.169 731.61 706.572 727.898 707.048 724.319C707.662 719.715 711.714 715.95 716.29 715.151C720.865 714.353 725.692 716.296 728.867 719.68L728.875 719.678Z" fill="black"/>
</g>
<path opacity="0.3" d="M582.764 814.666C590.088 814.053 595.907 812.176 598.894 807.904C602.17 803.448 605.243 798.458 606.004 793.103C604.699 796.056 602.847 798.854 600.928 801.454C598.183 805.39 592.826 807.117 586.099 807.674C578.88 808.363 571.321 806.333 565.812 801.609C560.305 796.893 557.091 789.423 558.053 782.236C558.717 777.284 561.396 772.849 565.111 769.521C558.421 773.064 553.257 779.527 552.259 787.016C551.215 794.835 554.713 802.956 560.695 808.086C566.684 813.214 574.91 815.43 582.768 814.682L582.764 814.666Z" fill="black"/>
<g opacity="0.1">
<path d="M601.898 772.902C604.943 776.146 607.383 780.196 607.709 784.641C608.167 790.8 604.587 796.477 600.925 801.452C598.18 805.387 592.823 807.114 586.096 807.671C578.877 808.361 571.317 806.33 565.808 801.606C560.301 796.891 557.087 789.421 558.05 782.234C559.286 772.989 567.429 765.406 576.622 763.807C585.815 762.208 595.515 766.109 601.9 772.91L601.898 772.902Z" fill="black"/>
</g>
<path opacity="0.3" d="M669.242 600.481C674.737 600.019 679.107 598.609 681.354 595.402C683.817 592.054 686.118 588.308 686.691 584.291C685.708 586.509 684.317 588.606 682.881 590.559C680.819 593.514 676.799 594.81 671.75 595.228C666.33 595.749 660.652 594.218 656.517 590.68C652.382 587.142 649.973 581.535 650.687 576.132C651.189 572.416 653.192 569.09 655.987 566.588C650.967 569.245 647.087 574.103 646.341 579.721C645.554 585.59 648.181 591.685 652.681 595.544C657.178 599.395 663.355 601.059 669.246 600.497L669.242 600.481Z" fill="black"/>
<g opacity="0.1">
<path d="M683.603 569.13C685.894 571.566 687.718 574.609 687.963 577.939C688.308 582.559 685.62 586.824 682.867 590.555C680.805 593.509 676.786 594.805 671.736 595.224C666.316 595.745 660.638 594.213 656.503 590.676C652.368 587.138 649.959 581.531 650.673 576.127C651.601 569.181 657.717 563.494 664.618 562.29C671.518 561.087 678.798 564.023 683.593 569.124L683.603 569.13Z" fill="black"/>
</g>
<path opacity="0.3" d="M660.89 212.395C666.385 211.933 670.755 210.523 673.003 207.316C675.465 203.968 677.767 200.222 678.339 196.205C677.357 198.423 675.966 200.52 674.529 202.473C672.467 205.428 668.448 206.724 663.398 207.142C657.978 207.663 652.3 206.132 648.165 202.594C644.031 199.056 641.621 193.449 642.335 188.046C642.837 184.331 644.84 181.004 647.635 178.502C642.616 181.159 638.735 186.017 637.989 191.635C637.203 197.504 639.83 203.599 644.329 207.458C648.827 211.309 655.003 212.973 660.894 212.411L660.89 212.395Z" fill="black"/>
<g opacity="0.1">
<path d="M675.267 181.041C677.558 183.476 679.382 186.52 679.627 189.849C679.972 194.469 677.285 198.734 674.532 202.465C672.47 205.42 668.45 206.715 663.4 207.134C657.98 207.655 652.302 206.123 648.167 202.586C644.033 199.048 641.623 193.441 642.337 188.037C643.265 181.091 649.381 175.404 656.282 174.201C663.182 172.998 670.462 175.933 675.257 181.035L675.267 181.041Z" fill="black"/>
</g>
<path opacity="0.3" d="M348.272 634.987C355.596 634.374 361.415 632.496 364.402 628.225C367.678 623.769 370.751 618.778 371.511 613.423C370.206 616.376 368.355 619.175 366.436 621.775C363.691 625.71 358.334 627.437 351.607 627.994C344.388 628.683 336.828 626.653 331.319 621.929C325.812 617.214 322.598 609.744 323.561 602.556C324.225 597.604 326.896 593.171 330.619 589.842C323.929 593.384 318.765 599.848 317.767 607.336C316.723 615.155 320.221 623.277 326.202 628.406C332.192 633.534 340.417 635.75 348.266 634.997L348.272 634.987Z" fill="black"/>
<g opacity="0.2">
<path d="M367.406 593.226C370.451 596.47 372.89 600.521 373.217 604.965C373.674 611.124 370.095 616.801 366.433 621.776C363.688 625.711 358.331 627.438 351.603 627.995C344.385 628.685 336.825 626.654 331.316 621.931C325.809 617.215 322.595 609.745 323.557 602.558C324.794 593.314 332.937 585.731 342.13 584.131C351.323 582.532 361.023 586.433 367.408 593.234L367.406 593.226Z" fill="black"/>
</g>
<path opacity="0.3" d="M110.881 595.693C110.881 595.693 112.68 604.861 116.692 613.964C118.961 620.174 122.666 624.706 125.13 626.117C127.413 627.428 128.726 625.359 128.997 621.685C129.269 618.01 128.609 612.892 127.643 607.585C126.998 604.029 126.196 600.332 125.284 596.569C125.639 598.252 125.969 599.908 126.267 601.537C127.233 606.844 127.893 611.962 127.621 615.637C127.35 619.311 126.035 621.371 123.754 620.069C121.291 618.659 119.21 615.215 116.38 609.748L113.699 603.641C112.471 600.611 111.593 598.181 110.942 595.936" fill="black"/>
<g opacity="0.1">
<path d="M107.86 571.487C107.544 576.352 108.399 582.996 109.531 589.785C110.256 594.172 111.311 597.779 113.692 603.652L116.374 609.758C119.214 615.231 121.292 618.667 123.748 620.08C126.031 621.39 127.343 619.321 127.617 615.655C127.888 611.981 127.229 606.863 126.263 601.555C125.174 595.59 123.701 589.256 121.887 582.802C120.876 579.193 119.857 576.17 118.255 572.916C116.49 569.324 114.938 568.252 113.37 567.39C110.414 565.767 108.16 566.627 107.852 571.489L107.86 571.487Z" fill="black"/>
</g>
<path opacity="0.3" d="M355.971 157.449C355.971 157.449 341.233 162.801 327.468 172.393C317.899 178.038 311.704 186.111 310.291 191.131C308.976 195.791 312.973 197.892 319.264 197.651C325.554 197.411 333.92 195.09 342.48 192.135C348.213 190.159 354.122 187.854 360.101 185.317C357.409 186.347 354.739 187.329 352.109 188.232C343.549 191.186 335.193 193.513 328.892 193.748C322.602 193.988 318.605 191.888 319.919 187.228C321.332 182.208 326.316 177.494 334.419 170.911L343.655 164.49C348.281 161.501 352.027 159.319 355.55 157.589" fill="black"/>
<g opacity="0.1">
<path d="M395.571 146.623C387.257 147.029 376.406 150.044 365.405 153.621C358.3 155.926 352.628 158.696 343.675 164.495L334.438 170.916C326.328 177.501 321.352 182.213 319.939 187.233C318.625 191.893 322.622 193.993 328.912 193.753C335.203 193.512 343.569 191.191 352.128 188.237C361.75 184.92 371.84 180.763 382.003 175.942C387.685 173.247 392.387 170.661 397.235 166.91C402.588 162.775 403.796 159.571 404.637 156.381C406.212 150.365 403.886 146.217 395.571 146.623Z" fill="black"/>
</g>
<path opacity="0.3" d="M132.359 421.449C132.359 421.449 129.879 431.669 130.138 442.921C129.739 450.362 131.949 456.819 134.234 459.471C136.352 461.934 139.007 460.482 141.208 456.882C143.408 453.281 145.215 447.741 146.74 441.866C147.762 437.926 148.67 433.773 149.469 429.492C149.049 431.379 148.603 433.23 148.136 435.034C146.611 440.909 144.804 446.45 142.604 450.05C140.403 453.65 137.748 455.102 135.63 452.64C133.353 449.986 132.567 445.459 131.896 438.485L131.736 430.943C131.779 427.249 131.952 424.348 132.294 421.741" fill="black"/>
<g opacity="0.1">
<path d="M141.001 395.307C138.146 400.105 135.806 407.286 133.718 414.756C132.368 419.58 131.814 423.773 131.73 430.928L131.89 438.47C132.56 445.444 133.347 449.971 135.624 452.625C137.741 455.087 140.397 453.635 142.597 450.035C144.796 446.426 146.605 440.894 148.13 435.019C149.848 428.408 151.27 421.234 152.351 413.767C152.954 409.597 153.256 406.009 152.962 401.901C152.641 397.377 151.294 395.513 149.828 393.86C147.056 390.745 143.872 390.505 141.017 395.303L141.001 395.307Z" fill="black"/>
</g>
<path opacity="0.3" d="M414.382 848.677C414.382 848.677 424.134 852.616 435.3 853.998C442.607 855.472 449.315 854.222 452.269 852.351C455.009 850.621 453.958 847.778 450.713 845.075C447.469 842.372 442.248 839.787 436.662 837.424C432.915 835.837 428.933 834.343 424.816 832.927C426.616 833.618 428.386 834.326 430.11 835.054C435.705 837.415 440.917 840.002 444.162 842.705C447.406 845.408 448.455 848.242 445.717 849.981C442.763 851.852 438.163 851.969 431.165 851.622L423.674 850.684C420.025 850.105 417.183 849.512 414.645 848.8" fill="black"/>
<g opacity="0.1">
<path d="M389.777 836.33C394.106 839.854 400.872 843.211 407.963 846.358C412.537 848.391 416.615 849.55 423.679 850.673L431.17 851.61C438.168 851.957 442.76 851.843 445.723 849.97C448.463 848.239 447.42 845.395 444.167 842.694C440.922 839.99 435.702 837.406 430.115 835.042C423.826 832.382 416.936 829.934 409.701 827.788C405.663 826.583 402.154 825.771 398.048 825.462C393.522 825.121 391.491 826.183 389.637 827.398C386.153 829.695 385.456 832.805 389.785 836.328L389.777 836.33Z" fill="black"/>
</g>
<path opacity="0.3" d="M282.905 804.496L294.544 799.278C294.544 799.278 303.267 793.245 296.704 776.127C290.141 759.009 249.6 711.621 225.451 703.241C205.386 696.285 200.095 707.712 200.095 707.712L198.649 721.251L282.918 804.511L282.905 804.496Z" fill="black"/>
<path d="M265.054 804.556C265.054 804.556 282.981 810.543 285.304 800.759C287.626 790.975 288.748 782.439 277.094 765.166C265.432 747.894 228.688 707.933 207.845 712.55C186.993 717.17 206.055 748.526 211.783 757.231C217.511 765.936 244.989 798.005 265.054 804.556Z" fill="#30366C"/>
<path opacity="0.3" d="M226.273 752.655C223.889 749.029 217.77 739.046 218.002 732.068C211.123 737.526 220.716 753.279 223.85 758.041C227.377 763.401 244.301 783.152 256.659 787.185C256.659 787.185 267.698 790.87 269.126 784.848C269.357 783.886 269.558 782.94 269.723 781.987C266.172 784.154 259.087 781.789 259.087 781.789C246.73 777.756 229.805 758.005 226.279 752.644L226.273 752.655Z" fill="black"/>
<path opacity="0.12" d="M264.056 762.93C256.878 752.293 234.248 727.686 221.409 730.53C219.975 730.848 218.86 731.378 217.993 732.07C217.761 739.048 223.879 749.031 226.264 752.657C229.79 758.017 246.715 777.768 259.072 781.801C259.072 781.801 266.154 784.158 269.707 781.999C270.554 777.018 270.084 771.869 264.058 762.938L264.056 762.93Z" fill="black"/>
<path opacity="0.3" d="M197.127 432.653L207.389 443.849C207.389 443.849 216.958 452.327 228.851 446.786C240.752 441.244 262.821 404.768 258.466 382.267C254.845 363.574 242.194 358.135 242.194 358.135L229.556 356.238L197.125 432.645L197.127 432.653Z" fill="black"/>
<path d="M188.398 415.79C188.398 415.79 191.837 432.498 201.589 435.069C211.342 437.641 219.42 439.033 228.984 428.683C238.54 418.334 255.913 385.158 241.701 365.275C227.488 345.392 209.109 362.195 204.225 367.271C199.341 372.347 184.417 397.067 188.404 415.78L188.398 415.79Z" fill="#30366C"/>
<path opacity="0.3" d="M215.285 381.171C217.318 379.059 223.145 373.659 229.413 374.147C221.251 367.432 212.028 375.889 209.355 378.67C206.346 381.794 197.158 397.024 199.609 408.542C199.609 408.542 201.724 418.827 207.734 420.413C208.694 420.67 209.63 420.899 210.545 421.082C206.908 417.643 205.54 411.042 205.54 411.042C203.078 399.519 212.268 384.297 215.283 381.163L215.285 381.171Z" fill="black"/>
<path opacity="0.12" d="M224.603 416.485C230.487 410.116 241.187 389.678 232.435 377.439C231.454 376.069 230.444 374.997 229.412 374.147C223.145 373.659 217.318 379.058 215.285 381.171C212.276 384.295 203.088 399.524 205.541 411.05C205.541 411.05 206.912 417.659 210.547 421.09C215.357 422.082 219.658 421.835 224.603 416.485Z" fill="black"/>
<path opacity="0.3" d="M102.191 399.015L106.493 403.561C106.493 403.561 110.577 406.862 116.227 403.288C121.876 399.715 133.309 380.581 132.11 370.177C131.115 361.537 125.512 359.927 125.512 359.927L119.784 360.009L102.182 399.017L102.191 399.015Z" fill="black"/>
<path d="M98.7806 391.642C98.7806 391.642 99.7563 399.348 104.143 399.819C108.53 400.29 112.18 400.327 116.928 394.639C121.683 388.95 130.826 371.761 125.023 363.376C119.221 354.991 110.188 364.442 107.772 367.253C105.355 370.064 97.6274 383.025 98.7826 391.65L98.7806 391.642Z" fill="#30366C"/>
<path opacity="0.3" d="M112.349 373.006C113.355 371.84 116.223 368.803 119.076 368.55C115.573 365.981 111.046 370.735 109.721 372.273C108.228 374 103.473 381.987 104.19 387.297C104.19 387.297 104.791 392.042 107.489 392.336C107.923 392.381 108.338 392.423 108.755 392.439C107.208 391.081 106.819 388.029 106.819 388.029C106.102 382.719 110.864 374.73 112.349 373.006Z" fill="black"/>
<path opacity="0.12" d="M115.359 389.143C118.291 385.642 123.921 375.051 120.342 369.893C119.939 369.315 119.519 368.879 119.077 368.559C116.224 368.813 113.356 371.85 112.35 373.015C110.857 374.742 106.103 382.729 106.819 388.039C106.819 388.039 107.209 391.091 108.755 392.448C110.923 392.548 112.908 392.092 115.363 389.159L115.359 389.143Z" fill="black"/>
<path d="M258.715 801.804C353.464 845.862 464.408 850.761 564.895 810.686C564.895 810.686 567.28 788.476 584.082 778.007C597.928 769.384 613.113 780.215 618.125 784.375C622.988 781.474 627.939 778.678 632.722 775.574C657.21 759.662 679.169 741.374 698.786 721.362C698.713 719.985 696.6 680.247 712.495 664.608C724.527 652.742 741.999 648.451 755.8 646.873C759.326 640.868 762.754 634.855 765.952 628.674C791.786 578.663 806.231 523.54 808.664 467.508C804.961 465.665 783.293 453.972 778.1 431.634C772.464 407.153 802.33 391.86 802.33 391.86L804.734 393.442C796.839 340.664 777.949 288.731 747.027 241.028C723.626 205 695.197 174.258 663.295 148.938C726.791 178.453 782.987 225.487 823.844 288.504C939.94 467.34 888.79 706.724 709.592 823.005C566.468 915.923 385.129 902.196 258.715 801.804Z" fill="black" fill-opacity="0.3"/>
</g>
<defs>
<clipPath id="clip0_3187_37110">
<rect width="817.111" height="817.111" fill="white" transform="translate(199.43 992.828) rotate(-104.127)"/>
</clipPath>
</defs>
</svg>
