<svg width="443" height="693" viewBox="0 0 443 693" fill="none" xmlns="http://www.w3.org/2000/svg">
<g clip-path="url(#clip0_3187_37743)">
<path d="M414.301 655.669C413.277 659.12 410.836 662.554 406.456 665.823C378.76 686.498 306.435 685.877 293.515 659.193C280.294 631.889 300.272 504.628 298.215 414.488L397.916 465.234C397.916 465.234 398.812 475.352 399.571 491.004C401.171 524.381 402.058 582.943 391.927 622.319C391.927 622.319 419.248 639.14 414.301 655.669Z" fill="white" stroke="white" stroke-width="2" stroke-linecap="round" stroke-linejoin="round"/>
<path d="M409.77 656.645C409.158 655.787 408.06 655.412 407.055 655.741C393.248 660.197 374.366 662.974 357.789 662.974C353.437 662.974 349.533 662.773 346.177 662.38C328.932 660.334 316.799 641.852 313.718 612.931C311.752 594.457 313.8 574.258 319.341 557.519C325.211 539.785 334.318 528.005 344.97 524.353C367.399 516.673 384.772 507.532 396.594 497.167C397.143 496.683 397.445 495.98 397.417 495.249C397.308 492.693 397.198 490.245 397.079 487.953C397.033 487.031 396.5 482 396 481.5C395.393 479.647 393.195 483.397 392.5 484C388.842 487.187 382.755 492.254 378 495.249C370.356 500.025 364.963 501.948 355.5 505.5L336.503 513.285V510.5C327.799 512.18 319.387 513.166 310.5 513.33C309.842 513.34 308.506 516.408 308.058 516.892C307.61 517.376 307.381 518.024 307.427 518.682C307.591 521.166 307.729 523.896 307.847 527.275C308.259 537.53 308.076 548.78 307.28 562.651C307.143 564.551 307.024 566.441 306.906 568.341C306.659 572.304 306.403 576.395 306 580.468C305.68 585.052 305.168 589.727 304.675 594.257C304.528 595.563 304.391 596.868 304.254 598.129C302.745 609.881 298.267 621.311 296 631C295.78 631.959 298.4 633.981 299.5 633C300.396 633.63 300.976 634.724 302 635.5C303.874 636.943 304.854 638.002 306.5 639.5C310.285 642.934 312.678 645.957 315 649.5C316.39 651.692 317.631 654.836 318.353 657C319.204 659.603 320.017 661.171 319.807 663.5C319.606 665.938 318.844 666.171 317.5 668.5L315.5 671.5C315.143 672.148 314.217 671.815 314.5 672.5C314.783 673.185 319.094 674.087 319.807 674.288C320.731 674.553 321.672 674.799 322.651 675.037C330.724 677 340.051 678.041 349.633 678.041C372.19 678.041 393.431 672.644 405.07 663.951C406.991 662.526 408.554 661.019 409.724 659.494C410.365 658.654 410.383 657.494 409.779 656.636L409.77 656.645Z" fill="black" stroke="black" stroke-width="2" stroke-linecap="round" stroke-linejoin="round"/>
<path d="M150.983 490.748C174.811 514.92 227.084 499.04 227.084 499.04L205.131 318.476L200.696 282.004C200.696 282.004 170.321 286.588 148.359 299.007C137.77 304.98 129.139 312.787 126.789 322.768C118.596 357.46 131.397 470.868 150.974 490.739" fill="white"/>
<path d="M150.983 490.748C174.811 514.92 227.084 499.04 227.084 499.04L205.131 318.476L200.696 282.004C200.696 282.004 170.321 286.588 148.359 299.007C137.77 304.98 129.139 312.787 126.789 322.768C118.596 357.46 131.397 470.868 150.974 490.739" stroke="white" stroke-width="2" stroke-linecap="round" stroke-linejoin="round"/>
<path d="M192.27 502.929C179.697 502.582 162.947 496.144 154.361 487.433C152.422 485.469 147.092 478.885 145.281 474.876C146.232 475.141 162.462 476.383 164.492 476.027C164.839 476.191 184.827 465.398 188.119 464.941C203.452 462.831 204.047 497.158 203.836 501.039" fill="black"/>
<path d="M192.27 502.929C179.697 502.582 162.947 496.144 154.361 487.433C152.422 485.469 147.092 478.885 145.281 474.876C146.232 475.141 162.462 476.383 164.492 476.027C164.839 476.191 184.827 465.398 188.119 464.941C203.452 462.831 204.047 497.158 203.836 501.039" stroke="white" stroke-width="2" stroke-linecap="round" stroke-linejoin="round"/>
<path d="M132.928 415.394L169.676 413.614C172.958 413.458 175.93 415.522 176.908 418.654C180.493 430.115 187.387 457.035 177.082 467.473C168.533 476.148 153.026 477.171 143.059 470.66C131.904 463.382 127.588 436.681 126.107 423.385C125.65 419.248 128.768 415.595 132.928 415.394Z" fill="white" stroke="black" stroke-width="2" stroke-linecap="round" stroke-linejoin="round"/>
<path d="M407.861 462.587C396.688 491.617 353.978 507.543 335.856 511.086C331.76 511.881 327.773 512.493 323.887 512.922C294.527 516.228 271.522 509.982 262.955 507.379C246.725 502.457 232.37 493.599 221.013 481.381C219.98 480.267 218.974 479.143 217.987 477.975C217.127 476.952 216.277 475.911 215.463 474.833C211.742 470.002 208.441 464.733 205.606 459.053C205.46 458.761 205.323 458.478 205.177 458.177C200.715 448.944 197.35 436.781 195.128 422.152C191.754 399.916 191.114 372 193.61 340.221C194.269 331.92 195.128 323.345 196.225 314.542C196.262 314.205 196.308 313.858 196.344 313.52C196.381 313.2 196.426 312.88 196.463 312.552C197.24 306.488 198.127 300.315 199.096 294.041C199.243 293.101 199.389 292.151 199.553 291.211C202.553 272.618 206.475 253.204 211.385 233.196L352.781 207.883C359.803 229.653 366.267 250.264 372.101 269.65C375.045 279.394 377.825 288.809 380.449 297.923C380.76 299.009 381.071 300.096 381.372 301.183C382.168 303.959 382.945 306.707 383.722 309.419C384.033 310.543 384.344 311.657 384.646 312.762C394.804 349.134 402.146 379.881 406.352 404.317C411.18 432.425 411.848 452.186 407.843 462.587" fill="white"/>
<path d="M407.861 462.587C396.688 491.617 353.978 507.543 335.856 511.086C331.76 511.881 327.773 512.493 323.887 512.922C294.527 516.228 271.522 509.982 262.955 507.379C246.725 502.457 232.37 493.599 221.013 481.381C219.98 480.267 218.974 479.143 217.987 477.975C217.127 476.952 216.277 475.911 215.463 474.833C211.742 470.002 208.441 464.733 205.606 459.053C205.46 458.761 205.323 458.478 205.177 458.177C200.715 448.944 197.35 436.781 195.128 422.152C191.754 399.916 191.114 372 193.61 340.221C194.269 331.92 195.128 323.345 196.225 314.542C196.262 314.205 196.308 313.858 196.344 313.52C196.381 313.2 196.426 312.88 196.463 312.552C197.24 306.488 198.127 300.315 199.096 294.041C199.243 293.101 199.389 292.151 199.553 291.211C202.553 272.618 206.475 253.204 211.385 233.196L352.781 207.883C359.803 229.653 366.267 250.264 372.101 269.65C375.045 279.394 377.825 288.809 380.449 297.922C380.76 299.009 381.071 300.096 381.372 301.183C382.168 303.959 382.945 306.707 383.722 309.419C384.033 310.543 384.344 311.657 384.646 312.762C394.804 349.134 402.146 379.881 406.352 404.317C411.18 432.425 411.848 452.186 407.843 462.587" stroke="black" stroke-width="2" stroke-linecap="round" stroke-linejoin="round"/>
<path d="M309.894 512.465C309.894 512.465 310.516 574.808 295.639 632.667C295.639 632.667 335.541 657.222 310.177 676.171C282.472 696.854 210.147 696.233 197.227 669.541C184.006 642.246 203.975 514.976 201.936 424.836" fill="white"/>
<path d="M309.894 512.465C309.894 512.465 310.516 574.808 295.639 632.667C295.639 632.667 335.541 657.222 310.177 676.171C282.472 696.854 210.147 696.233 197.227 669.541C184.006 642.246 203.975 514.976 201.936 424.836" stroke="black" stroke-width="2" stroke-linecap="round" stroke-linejoin="round"/>
<path d="M421.143 391.357C422.103 401.156 414.925 409.886 405.105 410.835C395.294 411.794 386.553 404.626 385.602 394.818C384.642 385.02 391.819 376.29 401.639 375.34C411.45 374.381 420.183 381.55 421.143 391.357Z" fill="black" stroke="black" stroke-width="2" stroke-linecap="round" stroke-linejoin="round"/>
<path d="M216.278 325.518C209.375 322.404 202.673 318.76 196.236 314.56C194.014 313.126 191.838 311.628 189.68 310.067C191.115 308.295 192.551 306.533 193.977 304.761C196.327 301.903 198.659 299.026 200.935 296.086C204.986 298.415 209.137 300.542 213.361 302.496L216.269 325.527" fill="black"/>
<path d="M216.278 325.518C209.375 322.404 202.673 318.76 196.236 314.56C194.014 313.126 191.838 311.628 189.68 310.067C191.115 308.295 192.551 306.533 193.977 304.761C196.327 301.903 198.659 299.026 200.935 296.086C204.986 298.415 209.137 300.542 213.361 302.496L216.269 325.527" stroke="black" stroke-width="2" stroke-linecap="round" stroke-linejoin="round"/>
<path d="M393.337 445.537L301.399 461.746C290.518 463.673 280.031 456.349 278.111 445.464L269.47 396.6C267.788 387.075 273.201 377.87 281.887 374.437C283.112 373.944 284.42 373.578 285.773 373.341L377.702 357.132C388.601 355.205 399.079 362.529 400.99 373.414L407.839 412.115L409.64 422.278C411.569 433.163 404.218 443.619 393.337 445.537Z" fill="white" stroke="black" stroke-width="2" stroke-linecap="round" stroke-linejoin="round"/>
<path d="M396.969 444.522C395.817 444.979 394.619 445.317 393.339 445.536L301.401 461.745C293.428 463.151 285.665 459.599 281.34 453.307C279.758 451.024 278.633 448.367 278.131 445.463L274.281 423.757L273.01 416.597L269.472 396.608C267.542 385.723 274.894 375.267 285.775 373.349L305.643 369.852C296.792 373.185 291.242 382.481 292.934 392.106L297.588 418.506L301.565 440.988C303.495 451.855 313.973 459.197 324.854 457.27L396.96 444.541" fill="black"/>
<path d="M396.969 444.522C395.817 444.979 394.619 445.317 393.339 445.536L301.401 461.745C293.428 463.151 285.665 459.599 281.34 453.307C279.758 451.024 278.633 448.367 278.131 445.463L274.281 423.757L273.01 416.597L269.472 396.608C267.542 385.723 274.894 375.267 285.775 373.349L305.643 369.852C296.792 373.185 291.242 382.481 292.934 392.106L297.588 418.506L301.565 440.988C303.495 451.855 313.973 459.197 324.854 457.27L396.96 444.541" stroke="black" stroke-width="2" stroke-linecap="round" stroke-linejoin="round"/>
<path d="M333.574 410.534C333.885 412.342 333.83 427.382 333.83 427.382C333.83 427.382 329.194 428.177 323.507 429.145C316.403 430.359 309.39 423.994 307.835 414.926C306.29 405.868 310.789 397.53 317.893 396.325C322.693 395.503 328.216 394.562 328.216 394.562C328.216 394.562 333.062 407.594 333.565 410.534" fill="#51A4E9"/>
<path d="M333.574 410.534C333.885 412.342 333.83 427.382 333.83 427.382C333.83 427.382 329.194 428.177 323.507 429.145C316.403 430.359 309.39 423.994 307.835 414.926C306.29 405.868 310.789 397.53 317.893 396.325C322.693 395.503 328.216 394.562 328.216 394.562C328.216 394.562 333.062 407.594 333.565 410.534" stroke="black" stroke-width="2" stroke-linecap="round" stroke-linejoin="round"/>
<path d="M189.034 405.712C189.034 405.712 181.317 413.574 182.241 424.122C183.311 436.313 191.531 440.294 191.531 440.294C191.531 440.294 226.925 453.188 278.915 435.272C278.915 435.272 292.164 413.492 273.274 404.461C273.274 404.461 217.882 419.172 189.034 405.712Z" fill="white" stroke="black" stroke-width="2" stroke-linecap="round" stroke-linejoin="round"/>
<path d="M343.901 408.781C345.446 417.84 340.948 426.177 333.843 427.382C326.739 428.597 319.726 422.232 318.171 413.164C316.626 404.105 321.124 395.768 328.229 394.563C335.333 393.348 342.347 399.713 343.901 408.781Z" fill="#51A4E9" stroke="black" stroke-width="2" stroke-linecap="round" stroke-linejoin="round"/>
<path d="M272.805 464.868C265.755 469.717 259.483 467.169 254.225 464.621C250.861 462.996 247.926 461.361 245.466 461.663C239.943 462.347 233.232 476.557 221.016 481.378C219.297 482.063 217.459 482.556 215.494 482.803C199.712 484.748 149.185 471.479 134.116 435.509C117.987 396.991 171.559 324.503 199.565 291.217C204.741 285.062 256.941 311.061 255.643 330.986C254.344 350.875 221.007 381.586 218.392 384.435C210.455 393.083 221.108 395.895 221.108 395.895C221.108 395.895 239.797 386.818 246.792 387.165C253.787 387.512 273.052 391.375 277.514 402.114C285.131 420.442 288.934 443.728 272.814 464.859" fill="white"/>
<path d="M272.805 464.868C265.755 469.717 259.483 467.169 254.225 464.621C250.861 462.996 247.926 461.361 245.466 461.663C239.943 462.347 233.232 476.557 221.016 481.378C219.297 482.063 217.459 482.556 215.494 482.803C199.712 484.748 149.185 471.479 134.116 435.509C117.987 396.991 171.559 324.503 199.565 291.217C204.741 285.062 256.941 311.061 255.643 330.986C254.344 350.875 221.007 381.586 218.392 384.435C210.455 393.083 221.108 395.895 221.108 395.895C221.108 395.895 239.797 386.818 246.792 387.165C253.787 387.512 273.052 391.375 277.514 402.114C285.131 420.442 288.934 443.728 272.814 464.859" stroke="black" stroke-width="2" stroke-linecap="round" stroke-linejoin="round"/>
<path d="M212.145 478.248C211.431 478.248 210.7 478.221 209.95 478.184C207.71 478.074 205.397 477.773 203.102 477.39C193.867 475.819 184.678 472.842 176.092 468.87C167.506 464.87 156.552 462.943 149.457 456.962C124.367 435.803 132.971 406.152 132.971 406.152C145.79 421.238 193.894 462.45 212.108 462.45C213.37 462.45 214.504 462.386 215.509 462.267C231.309 460.322 239.182 441.913 245.482 441.136C245.683 441.109 245.893 441.1 246.104 441.1C248.435 441.1 251.16 442.597 254.241 444.095C257.323 445.593 260.761 447.09 264.5 447.09C267.125 447.09 278.106 445.474 283.428 437.228C283.098 437.739 279.048 462.066 270.791 460.377C270.416 460.304 270.334 460.751 270.133 460.98L268.972 461.656C268.588 461.929 268.194 462.039 267.81 462.194L267.234 462.441C267.042 462.514 266.841 462.532 266.649 462.578C265.936 462.76 265.214 462.861 264.455 462.861C263.568 462.861 262.635 462.733 261.648 462.477C259.819 462.012 257.853 461.126 255.677 460.048C254.571 459.51 253.446 458.934 252.093 458.359L251.078 457.939L249.898 457.546C249.185 457.263 248.097 457.099 247.164 456.943C246.78 456.943 246.415 456.916 246.04 456.916C245.253 456.916 244.449 456.98 243.498 457.254C242.291 457.638 241.349 458.149 240.59 458.651C239.054 459.665 238.012 460.678 237.024 461.656C235.095 463.601 233.486 465.473 231.849 467.226C230.231 468.979 228.612 470.623 226.939 472.084C223.601 475.024 219.981 477.134 216.177 477.892C214.933 478.138 213.589 478.23 212.163 478.23" fill="black"/>
<path d="M212.145 478.248C211.431 478.248 210.7 478.221 209.95 478.184C207.71 478.074 205.397 477.773 203.102 477.39C193.867 475.819 184.678 472.842 176.092 468.87C167.506 464.87 156.552 462.943 149.457 456.962C124.367 435.803 132.971 406.152 132.971 406.152C145.79 421.238 193.894 462.45 212.108 462.45C213.37 462.45 214.504 462.386 215.509 462.267C231.309 460.322 239.182 441.913 245.482 441.136C245.683 441.109 245.893 441.1 246.104 441.1C248.435 441.1 251.16 442.597 254.241 444.095C257.323 445.593 260.761 447.09 264.5 447.09C267.125 447.09 278.106 445.474 283.428 437.228C283.098 437.739 279.048 462.066 270.791 460.377C270.416 460.304 270.334 460.751 270.133 460.98L268.972 461.656C268.588 461.929 268.194 462.039 267.81 462.194L267.234 462.441C267.042 462.514 266.841 462.532 266.649 462.578C265.936 462.76 265.214 462.861 264.455 462.861C263.568 462.861 262.635 462.733 261.648 462.477C259.819 462.012 257.853 461.126 255.677 460.048C254.571 459.51 253.446 458.934 252.093 458.359L251.078 457.939L249.898 457.546C249.185 457.263 248.097 457.099 247.164 456.943C246.78 456.943 246.415 456.916 246.04 456.916C245.253 456.916 244.449 456.98 243.498 457.254C242.291 457.638 241.349 458.149 240.59 458.651C239.054 459.665 238.012 460.678 237.024 461.656C235.095 463.601 233.486 465.473 231.849 467.226C230.231 468.979 228.612 470.623 226.939 472.084C223.601 475.024 219.981 477.134 216.177 477.892C214.933 478.138 213.589 478.23 212.163 478.23" stroke="black" stroke-width="2" stroke-linecap="round" stroke-linejoin="round"/>
<path d="M438.782 135.057C442.217 160.665 439.198 187.305 429.09 212.504C427.025 217.64 424.685 222.705 422.031 227.692C420.75 230.122 419.384 232.54 417.952 234.944C413.611 242.179 408.784 248.931 403.509 255.206C398.977 260.621 394.119 265.681 388.996 270.352C382.814 276.009 376.234 281.103 369.33 285.654C366.812 287.297 364.252 288.877 361.667 290.386C314.172 317.874 253.763 320.04 203.438 290.825C129.298 247.813 105.133 153.053 149.441 79.1803C157.985 64.9635 168.441 52.523 180.303 42.0665C181.679 40.8308 183.094 39.6291 184.531 38.4631C188.356 35.3106 192.309 32.3529 196.38 29.6C205.797 23.2298 215.84 17.9367 226.279 13.7578C236.708 9.57031 247.56 6.49474 258.608 4.58642C262.122 3.98228 265.654 3.48845 269.205 3.1142C274.532 2.56207 279.889 2.26834 285.279 2.27002C312.109 2.19467 339.248 8.96749 363.945 23.2998C406.605 48.0369 432.708 89.8974 438.773 135.058" fill="white"/>
<path d="M438.782 135.057C442.217 160.665 439.198 187.305 429.09 212.504C427.025 217.64 424.685 222.705 422.031 227.692C420.75 230.122 419.384 232.54 417.952 234.944C413.611 242.179 408.784 248.931 403.509 255.206C398.977 260.621 394.119 265.681 388.996 270.352C382.814 276.009 376.234 281.103 369.33 285.654C366.812 287.297 364.252 288.878 361.667 290.386C314.172 317.874 253.763 320.04 203.438 290.825C129.298 247.813 105.133 153.053 149.441 79.1803C157.985 64.9635 168.441 52.523 180.303 42.0665C181.679 40.8308 183.094 39.6291 184.531 38.4631C188.356 35.3106 192.309 32.3529 196.38 29.6C205.797 23.2298 215.84 17.9367 226.279 13.7578C236.708 9.57031 247.56 6.49474 258.608 4.58642C262.122 3.98228 265.654 3.48845 269.205 3.1142C274.532 2.56207 279.889 2.26834 285.279 2.27002C312.109 2.19467 339.248 8.96749 363.945 23.2998C406.605 48.0369 432.708 89.8974 438.773 135.058" stroke="black" stroke-width="2" stroke-linecap="round" stroke-linejoin="round"/>
<path d="M214.263 288.762C141.324 246.454 119.845 154.599 163.438 81.9412C171.843 67.9566 182.128 55.7193 193.797 45.4336C195.15 44.2181 196.542 43.0361 197.956 41.8891C201.718 38.7881 205.606 35.8787 209.611 33.1708C218.874 26.9046 228.753 21.698 239.021 17.5873C249.28 13.4683 259.955 10.4429 270.822 8.5658C274.279 7.97152 277.754 7.48576 281.247 7.11763" fill="black"/>
<path d="M214.263 288.762C141.324 246.454 119.845 154.599 163.438 81.9412C171.843 67.9566 182.128 55.7193 193.797 45.4336C195.15 44.2181 196.542 43.0361 197.956 41.8891C201.718 38.7881 205.606 35.8787 209.611 33.1708C218.874 26.9046 228.753 21.698 239.021 17.5873C249.28 13.4683 259.955 10.4429 270.822 8.5658C274.279 7.97152 277.754 7.48576 281.247 7.11763" stroke="black" stroke-width="2" stroke-linecap="round" stroke-linejoin="round"/>
<path d="M216.896 283.144C155.405 237.941 128.074 155.482 171.668 82.8235C180.072 68.839 190.358 56.6017 202.027 46.3159C203.38 45.1004 204.772 43.9184 206.185 42.7714C209.948 39.6704 213.836 36.7611 217.841 34.0532C227.104 27.7869 236.983 22.5804 247.251 18.4697C257.51 14.3506 268.185 11.3253 279.052 9.44814C282.509 8.85386 285.983 8.3681 289.476 7.99996" fill="white"/>
<path d="M216.896 283.144C155.405 237.941 128.074 155.482 171.668 82.8235C180.072 68.839 190.358 56.6017 202.027 46.3159C203.38 45.1004 204.772 43.9184 206.185 42.7714C209.948 39.6704 213.836 36.7611 217.841 34.0532C227.104 27.7869 236.983 22.5804 247.251 18.4697C257.51 14.3506 268.185 11.3253 279.052 9.44814C282.509 8.85386 285.983 8.3681 289.476 7.99996" stroke="black" stroke-width="2" stroke-linecap="round" stroke-linejoin="round"/>
<path d="M360.479 27.8834C336.973 14.2358 310.155 7.07034 282.911 7.14784C277.747 7.14447 272.413 7.42935 267.063 7.98111C263.624 8.33582 260.113 8.82447 256.612 9.43146C245.717 11.3108 234.988 14.3495 224.73 18.4686C214.363 22.6145 204.452 27.8786 195.249 34.0943C191.253 36.8015 187.322 39.7417 183.559 42.8336C182.042 44.0621 180.676 45.2328 179.382 46.3887C167.482 56.876 157.239 69.1923 148.957 82.984C127.753 118.345 121.692 159.607 131.904 199.15C142.035 238.379 167.007 271.239 202.222 291.664C244.311 316.087 295.64 318.894 340.345 300.121C346.443 297.559 352.427 294.593 358.233 291.23C360.775 289.746 363.321 288.18 365.797 286.564C372.676 282.035 379.199 276.956 385.186 271.481C390.309 266.797 395.121 261.772 399.495 256.543C404.725 250.312 409.513 243.594 413.735 236.564C415.272 233.969 416.591 231.629 417.755 229.421C420.309 224.602 422.653 219.571 424.705 214.443C434.41 190.233 437.713 163.837 434.261 138.077C428.024 91.6144 401.134 51.4497 360.479 27.8743L360.479 27.8834ZM433.536 138.18C436.978 163.813 433.692 190.089 424.033 214.176C421.988 219.275 419.66 224.287 417.114 229.078C415.958 231.276 414.647 233.606 413.109 236.192C408.912 243.184 404.149 249.872 398.935 256.075C394.587 261.283 389.791 266.279 384.694 270.943C378.732 276.398 372.235 281.447 365.401 285.954C362.941 287.56 360.414 289.124 357.871 290.599C309.687 318.487 250.192 318.654 202.594 291.03C167.543 270.702 142.693 238.006 132.614 198.966C122.454 159.611 128.485 118.553 149.601 83.3544C157.852 69.6293 168.044 57.3719 179.893 46.9254C181.177 45.7703 182.535 44.6185 184.043 43.3907C187.78 40.3101 191.694 37.3804 195.673 34.6928C204.118 28.986 213.168 24.0923 222.614 20.1292C223.413 19.7912 224.212 19.4622 225.012 19.1424C235.217 15.0368 245.901 12.0107 256.742 10.1448C260.225 9.5393 263.728 9.06048 267.148 8.70722C272.48 8.1569 277.787 7.88328 282.923 7.87972C310.03 7.80393 336.726 14.9333 360.117 28.5167C400.571 51.9798 427.335 91.9529 433.545 138.179L433.536 138.18Z" stroke="white" stroke-width="2" stroke-linecap="round" stroke-linejoin="round"/>
<path d="M434.03 177.137C398.124 280.396 272.527 317.198 203.389 234.722C156.35 178.602 176.09 89.0625 233.98 47.1874C276.107 16.71 330.5 5.02966 395.431 56.2621C395.431 56.2621 420.581 83.3735 426.975 108.984C433.368 134.594 435.217 160.609 435.217 160.609L434.031 177.146" fill="#5555FF"/>
<path d="M434.03 177.137C398.124 280.396 272.527 317.198 203.389 234.722C156.35 178.602 176.09 89.0625 233.98 47.1874C276.107 16.71 330.5 5.02966 395.431 56.2621C395.431 56.2621 420.581 83.3735 426.975 108.984C433.368 134.594 435.217 160.609 435.217 160.609L434.031 177.146" stroke="black" stroke-width="2" stroke-linecap="round" stroke-linejoin="round"/>
<path d="M203.401 234.723C272.531 317.208 398.128 280.397 434.035 177.147L434.274 173.794C370.839 257.549 249.577 257.705 178.094 175.617C180.724 196.908 188.896 217.404 203.401 234.723Z" fill="black" stroke="black" stroke-width="2" stroke-linecap="round" stroke-linejoin="round"/>
<path d="M144.214 269.656C160.522 294.802 189.297 306.182 208.505 295.07C227.703 283.96 230.054 254.57 213.754 229.424C213.65 229.267 213.546 229.101 213.432 228.945C197.077 204.133 168.53 192.973 149.464 204.009C134.633 212.594 129.856 232.081 135.963 252.099C137.769 257.992 140.514 263.94 144.223 269.655L144.214 269.656Z" fill="white" stroke="black" stroke-width="2" stroke-linecap="round" stroke-linejoin="round"/>
<path d="M144.214 269.652C160.522 294.798 189.297 306.178 208.504 295.066C227.702 283.955 230.054 254.566 213.754 229.42C213.65 229.263 213.545 229.097 213.432 228.941C212.999 232.74 211.351 237.185 206.351 238.9C197.582 241.912 173.105 233.838 173.105 233.838C173.105 233.838 156.947 241.648 135.972 252.094C137.778 257.987 140.523 263.935 144.232 269.651L144.214 269.652Z" fill="#E7E7E7" stroke="black" stroke-width="2" stroke-linecap="round" stroke-linejoin="round"/>
<path d="M143.442 274.462C156.82 294.911 179.467 304.779 194.037 296.499C208.608 288.219 209.57 264.93 196.194 244.49C182.816 224.04 160.168 214.172 145.598 222.452C131.028 230.732 130.064 254.012 143.442 274.462Z" fill="black" stroke="white" stroke-width="2" stroke-linecap="round" stroke-linejoin="round"/>
<path d="M221.175 108.481C220.938 108.335 220.708 108.197 220.479 108.045C210.951 101.809 209.051 87.8968 216.228 76.9838C223.233 66.3309 236.296 62.4662 245.775 68.0769C246.005 68.2158 246.241 68.3615 246.47 68.5132C255.998 74.7491 257.899 88.6613 250.721 99.5743C243.716 110.227 230.654 114.092 221.175 108.481Z" fill="white"/>
<path d="M203.447 136.738C203.323 136.722 203.192 136.702 203.068 136.687C197.842 135.88 194.366 130.373 195.298 124.378C196.203 118.531 200.986 114.384 206.072 114.926C206.195 114.942 206.327 114.961 206.45 114.977C211.677 115.784 215.152 121.291 214.22 127.286C213.315 133.132 208.532 137.28 203.447 136.738Z" fill="white"/>
<path d="M310.883 42.1172C310.883 42.1172 365.724 47.458 398.57 88.9374" stroke="white" stroke-width="2" stroke-linecap="round" stroke-linejoin="round"/>
<path d="M279.899 338.165C258.101 338.165 182.164 313.052 182.164 313.052L199.573 290.195C220.32 299.756 256.885 316.048 280.027 316.048C291.905 316.048 303.883 314.723 315.733 312.002C318.64 311.326 321.575 310.569 324.474 309.738C332.511 307.4 340.374 304.423 347.835 300.898C354.218 297.884 360.408 294.442 366.214 290.679C369.734 288.406 372.614 285.109 375.97 282.543L380.578 300.88C374.919 305.829 369.807 309.582 363.645 313.555C362.621 314.212 361.606 314.86 360.572 315.481C355.772 318.431 350.844 321.088 345.806 323.463C338.445 326.942 330.856 329.791 323.139 332.037C320.332 332.859 317.497 333.581 314.644 334.238C303.206 336.859 291.539 338.174 279.89 338.174" fill="black"/>
<path d="M279.899 338.165C258.101 338.165 182.164 313.052 182.164 313.052L199.573 290.195C220.32 299.756 256.885 316.048 280.027 316.048C291.905 316.048 303.883 314.723 315.733 312.002C318.64 311.326 321.575 310.569 324.474 309.738C332.511 307.4 340.374 304.423 347.835 300.898C354.218 297.884 360.408 294.442 366.214 290.679C369.734 288.406 372.614 285.109 375.97 282.543L380.578 300.88C374.919 305.829 369.807 309.582 363.645 313.555C362.621 314.212 361.606 314.86 360.572 315.481C355.772 318.431 350.844 321.088 345.806 323.463C338.445 326.942 330.856 329.791 323.139 332.037C320.332 332.859 317.497 333.581 314.644 334.238C303.206 336.859 291.539 338.174 279.89 338.174" stroke="black" stroke-width="2" stroke-linecap="round" stroke-linejoin="round"/>
<g clip-path="url(#clip1_3187_37743)">
<path d="M295.739 158.972C294.731 156.885 291.778 156.969 289.488 157.31C282.608 158.337 275.584 158.822 268.688 157.884C267.218 157.679 265.752 157.414 264.267 157.401C261.616 157.37 259.019 158.148 256.559 159.135C250.461 161.554 240.754 171.852 240.754 171.852C238.85 172.394 236.877 173.062 235.537 174.512C234.198 175.962 233.751 178.435 235.101 179.893C236 180.865 237.396 181.136 238.706 181.333C238.573 181.945 238.543 182.58 238.652 183.193C238.968 185.024 240.379 186.628 242.148 187.18C242.63 187.322 243.171 187.43 243.482 187.816C244.417 188.986 242.194 190.677 242.824 192.042C243.163 192.787 244.223 192.994 244.582 193.728C244.879 194.316 244.634 195.018 244.423 195.647C243.584 198.221 243.515 201.035 244.224 203.647C244.805 205.798 245.919 207.826 246.125 210.047C246.27 211.631 246.426 213.845 248.02 213.97C249.373 214.073 250.063 212.404 250.339 211.068C250.964 207.949 251.603 204.738 251.034 201.603C250.875 200.743 250.626 199.87 250.748 199.008C250.885 197.954 251.537 197.06 251.972 196.092C253.303 193.138 252.686 189.535 254.289 186.72C255.082 185.333 256.343 184.28 257.499 183.166C258.608 182.095 259.641 180.95 260.61 179.759C260.705 179.702 260.813 179.663 260.908 179.605C264.006 177.805 266.847 174.922 270.429 175.05C271.907 175.103 273.328 175.693 274.797 175.868C277.075 176.139 279.46 175.348 281.131 173.771C282.139 172.819 282.905 171.594 284.08 170.859C285.122 170.205 286.381 170.015 287.54 169.572C290.042 168.622 291.936 166.566 293.735 164.578C295.156 163.011 296.672 160.874 295.749 158.971L295.739 158.972Z" fill="#B4F1FF"/>
</g>
<path d="M247.64 221C247.64 221 229.573 258.172 245.691 257.999C260.91 257.834 247.64 221 247.64 221Z" fill="#B4F1FF" stroke="#B4F1FF" stroke-linecap="round" stroke-linejoin="round"/>
</g>
<g clip-path="url(#clip2_3187_37743)">
<path d="M98.0234 86.8281H176.203" stroke="black" stroke-width="5" stroke-linecap="round" stroke-linejoin="round"/>
<path d="M118.906 67.5H191.446" stroke="black" stroke-width="5" stroke-linecap="round" stroke-linejoin="round"/>
<path d="M77.6875 106.148H176.197" stroke="black" stroke-width="5" stroke-linecap="round" stroke-linejoin="round"/>
<path d="M57.3594 125.48H176.199" stroke="black" stroke-width="5" stroke-linecap="round" stroke-linejoin="round"/>
<path d="M22.8281 144.801H151.838" stroke="black" stroke-width="5" stroke-linecap="round" stroke-linejoin="round"/>
<path d="M14.9219 164.129H151.842" stroke="black" stroke-width="5" stroke-linecap="round" stroke-linejoin="round"/>
<path d="M2.5 183.449H151.84" stroke="black" stroke-width="5" stroke-linecap="round" stroke-linejoin="round"/>
<path d="M14.9219 202.781H151.842" stroke="black" stroke-width="5" stroke-linecap="round" stroke-linejoin="round"/>
<path d="M27.9062 222.102H151.836" stroke="black" stroke-width="5" stroke-linecap="round" stroke-linejoin="round"/>
<path d="M41.4609 241.43H151.841" stroke="black" stroke-width="5" stroke-linecap="round" stroke-linejoin="round"/>
<path d="M53.3203 260.75H151.84" stroke="black" stroke-width="5" stroke-linecap="round" stroke-linejoin="round"/>
<path d="M62.3594 280.078H159.349" stroke="black" stroke-width="5" stroke-linecap="round" stroke-linejoin="round"/>
<path d="M68.5703 299.398H169.91" stroke="black" stroke-width="5" stroke-linecap="round" stroke-linejoin="round"/>
<path d="M77.1719 318.73H151.842" stroke="black" stroke-width="5" stroke-linecap="round" stroke-linejoin="round"/>
<path d="M68.5703 338.051H151.84" stroke="black" stroke-width="5" stroke-linecap="round" stroke-linejoin="round"/>
<path d="M53.3203 357.379H151.84" stroke="black" stroke-width="5" stroke-linecap="round" stroke-linejoin="round"/>
<path d="M44.8516 376.699H151.842" stroke="black" stroke-width="5" stroke-linecap="round" stroke-linejoin="round"/>
<path d="M36.3828 396.031H151.843" stroke="black" stroke-width="5" stroke-linecap="round" stroke-linejoin="round"/>
<path d="M27.9062 415.359H151.836" stroke="black" stroke-width="5" stroke-linecap="round" stroke-linejoin="round"/>
<path d="M41.4609 434.68H151.841" stroke="black" stroke-width="5" stroke-linecap="round" stroke-linejoin="round"/>
<path d="M53.3203 454.012H151.84" stroke="black" stroke-width="5" stroke-linecap="round" stroke-linejoin="round"/>
<path d="M62.3594 473.328H151.839" stroke="black" stroke-width="5" stroke-linecap="round" stroke-linejoin="round"/>
<path d="M73.6484 492.66H151.838" stroke="black" stroke-width="5" stroke-linecap="round" stroke-linejoin="round"/>
<path d="M83.3828 511.98H163.443" stroke="black" stroke-width="5" stroke-linecap="round" stroke-linejoin="round"/>
<path d="M88.8984 531.309H187.408" stroke="black" stroke-width="5" stroke-linecap="round" stroke-linejoin="round"/>
<path d="M99.6328 550.629H217.083" stroke="black" stroke-width="5" stroke-linecap="round" stroke-linejoin="round"/>
<path d="M116.148 569.961H214.668" stroke="black" stroke-width="5" stroke-linecap="round" stroke-linejoin="round"/>
<path d="M131.633 589.281H217.083" stroke="black" stroke-width="5" stroke-linecap="round" stroke-linejoin="round"/>
<path d="M133.141 608.609H217.081" stroke="black" stroke-width="5" stroke-linecap="round" stroke-linejoin="round"/>
</g>
<defs>
<clipPath id="clip0_3187_37743">
<rect width="319.607" height="693" fill="white" transform="translate(123.393)"/>
</clipPath>
<clipPath id="clip1_3187_37743">
<rect width="62.95" height="55.19" fill="white" transform="translate(232.852 159.828) rotate(-4.52663)"/>
</clipPath>
<clipPath id="clip2_3187_37743">
<rect width="222.087" height="550.079" fill="white" transform="translate(0 60.436)"/>
</clipPath>
</defs>
</svg>
