<svg width="145" height="236" viewBox="0 0 145 236" fill="none" xmlns="http://www.w3.org/2000/svg">
<ellipse cx="83" cy="218" rx="62" ry="18" fill="black" fill-opacity="0.12"/>
<g clip-path="url(#clip0_3304_20940)">
<path d="M1.11369 91.1493C2.03904 96.7765 8.47816 99.9119 12.0882 101.246C13.6854 101.837 14.9969 103.012 15.7866 104.521C18.9811 110.65 27.8279 126.164 37.0313 129.276C40.9567 130.602 44.9027 129.943 48.2828 128.618C53.776 126.465 57.7779 122.559 57.7779 122.559L63.0471 100.225L65.9381 87.9638L69 75C69 75 64.6355 79.8005 59.3251 85.0852C57.1385 87.2582 54.7927 89.5137 52.5235 91.5479C47.7141 95.8672 43.2583 99.1856 41.4429 98.6217C39.5068 98.0224 35.9675 91.2822 29.2248 83.5057C27.5421 81.5631 23.1511 81.7579 18.6953 80.5091C11.6167 78.5163 6.04397 78.4188 3.33866 80.5357C1.2522 82.1654 1.44671 86.4551 1.14612 88.138C0.954559 89.2126 0.960449 90.2164 1.11074 91.1523" fill="white"/>
<path d="M1.11369 91.1493C2.03904 96.7765 8.47816 99.9119 12.0882 101.246C13.6854 101.837 14.9969 103.012 15.7866 104.521C18.9811 110.65 27.8279 126.164 37.0313 129.276C40.9567 130.602 44.9027 129.943 48.2828 128.618C53.776 126.465 57.7779 122.559 57.7779 122.559L63.0471 100.225L65.9381 87.9638L69 75C69 75 64.6355 79.8005 59.3251 85.0852C57.1385 87.2582 54.7927 89.5137 52.5235 91.5479C47.7141 95.8672 43.2583 99.1856 41.4429 98.6217C39.5068 98.0224 35.9675 91.2822 29.2248 83.5057C27.5421 81.5631 23.1511 81.7579 18.6953 80.5091C11.6167 78.5163 6.04397 78.4188 3.33866 80.5357C1.25221 82.1654 1.44671 86.4551 1.14611 88.138C0.954562 89.2126 0.960448 90.2164 1.11074 91.1523" stroke="black" stroke-linecap="round" stroke-linejoin="round"/>
<path d="M45.195 210.01C45.5284 211.126 46.3232 212.237 47.749 213.294C56.7654 219.981 80.3112 219.781 84.5173 211.15C88.8216 202.318 82.3175 161.156 82.9873 132L50.5292 148.414C50.5292 148.414 50.2375 151.686 49.9905 156.749C49.4695 167.545 49.1808 186.487 52.479 199.223C52.479 199.223 43.5846 204.664 45.195 210.01Z" fill="white"/>
<path d="M45.195 210.01C45.5284 211.126 46.3232 212.237 47.749 213.294C56.7655 219.981 80.3112 219.781 84.5173 211.15C88.8216 202.318 82.3175 161.156 82.9873 132L50.5292 148.414C50.5292 148.414 50.2375 151.686 49.9905 156.749C49.4695 167.545 49.1808 186.487 52.479 199.223C52.479 199.223 43.5846 204.664 45.195 210.01" stroke="black" stroke-linecap="round" stroke-linejoin="round"/>
<path d="M47.1446 210.104C47.3422 209.828 47.696 209.707 48.0203 209.813C52.4725 211.249 58.561 212.144 63.9065 212.144C65.31 212.144 66.569 212.079 67.6511 211.953C73.2118 211.293 77.1244 205.337 78.1181 196.016C78.752 190.062 78.0915 183.552 76.3048 178.158C74.4119 172.442 71.4752 168.646 68.0403 167.469C60.8077 164.994 55.2057 162.048 51.3933 158.707C51.2164 158.551 51.1191 158.325 51.128 158.089C51.1633 157.265 51.1987 156.476 51.2371 155.738C51.2518 155.44 51.4375 155.179 51.7118 155.061C51.986 154.946 52.3044 154.996 52.5285 155.19C53.7079 156.217 55.0288 157.186 56.562 158.151C59.0269 159.69 61.707 160.994 64.7586 162.139L70.7705 163.902L70.8324 163.916C73.6394 164.458 76.5171 164.761 79.3829 164.814C79.5952 164.817 79.7987 164.908 79.9432 165.064C80.0876 165.22 80.1613 165.429 80.1466 165.641C80.0935 166.442 80.0493 167.322 80.011 168.41C79.8783 171.715 79.9373 175.341 80.1938 179.812C80.238 180.424 80.2763 181.033 80.3147 181.645C80.3943 182.923 80.4768 184.241 80.6066 185.554C80.7098 187.031 80.8749 188.538 81.0341 189.998C81.0813 190.418 81.1255 190.839 81.1697 191.245C81.6562 195.033 82.2488 198.394 82.9801 201.517C83.0508 201.826 82.9299 202.146 82.6705 202.329C82.3815 202.532 82.0837 202.753 81.7535 203.003C81.1491 203.468 80.5977 203.927 80.067 204.41C78.8463 205.516 77.8881 206.614 77.1392 207.756C76.691 208.462 76.3608 209.145 76.1279 209.843C75.8537 210.681 75.7475 211.482 75.8153 212.232C75.8802 213.018 76.1397 213.824 76.5731 214.575L76.6232 214.663C76.7382 214.872 76.7529 215.119 76.6615 215.34C76.5701 215.561 76.3844 215.726 76.1544 215.79C75.8566 215.876 75.5529 215.955 75.2374 216.032C72.634 216.664 69.6265 217 66.5366 217C59.2627 217 52.4135 215.261 48.6601 212.459C48.0409 212 47.5367 211.514 47.1593 211.023C46.953 210.752 46.9471 210.378 47.1417 210.102L47.1446 210.104Z" fill="black" stroke="black" stroke-linecap="round" stroke-linejoin="round"/>
<path d="M130.427 156.653C122.779 164.487 106 159.34 106 159.34L113.047 100.821L114.47 89C114.47 89 124.22 90.4857 131.269 94.5107C134.668 96.4463 137.438 98.9768 138.193 102.212C140.822 113.455 136.713 150.21 130.43 156.65" fill="white"/>
<path d="M130.427 156.653C122.779 164.487 106 159.341 106 159.341L113.047 100.821L114.47 89C114.47 89 124.22 90.4857 131.269 94.5107C134.668 96.4463 137.438 98.9768 138.193 102.212C140.822 113.455 136.713 150.21 130.43 156.65" stroke="black" stroke-linecap="round" stroke-linejoin="round"/>
<path d="M117.76 160C121.838 159.891 127.271 157.862 130.055 155.117C130.684 154.498 132.413 152.423 133 151.16C132.692 151.244 127.428 151.635 126.77 151.523C126.657 151.575 120.174 148.173 119.107 148.029C114.134 147.365 113.941 158.181 114.009 159.404" fill="black"/>
<path d="M117.76 160C121.838 159.891 127.271 157.862 130.055 155.117C130.684 154.498 132.413 152.423 133 151.16C132.692 151.244 127.428 151.635 126.77 151.523C126.657 151.575 120.174 148.173 119.107 148.029C114.134 147.365 113.941 158.181 114.009 159.404" stroke="black" stroke-linecap="round" stroke-linejoin="round"/>
<path d="M136.811 131.584L125.092 131.003C124.045 130.952 123.097 131.626 122.785 132.648C121.642 136.389 119.444 145.178 122.73 148.585C125.456 151.417 130.402 151.751 133.58 149.625C137.137 147.249 138.513 138.533 138.986 134.192C139.132 132.842 138.137 131.65 136.811 131.584Z" fill="white"/>
<path d="M136.811 131.584L125.092 131.003C124.045 130.952 123.097 131.626 122.785 132.648C121.642 136.389 119.444 145.178 122.73 148.585C125.456 151.417 130.402 151.751 133.58 149.625C137.137 147.249 138.513 138.533 138.986 134.192C139.132 132.842 138.137 131.65 136.811 131.584" stroke="black" stroke-linecap="round" stroke-linejoin="round"/>
<path d="M46.8447 147.409C50.4777 156.802 64.3643 161.955 70.2567 163.101C71.5886 163.358 72.8848 163.556 74.1483 163.695C83.6945 164.765 91.1744 162.744 93.9601 161.902C99.2371 160.309 103.905 157.443 107.597 153.49C107.933 153.129 108.26 152.766 108.581 152.388C108.861 152.057 109.137 151.72 109.402 151.371C110.612 149.808 111.685 148.104 112.606 146.266C112.654 146.171 112.699 146.08 112.746 145.982C114.197 142.995 115.291 139.06 116.013 134.326C117.11 127.132 117.319 118.1 116.507 107.818C116.293 105.132 116.013 102.358 115.657 99.5096C115.645 99.4002 115.63 99.288 115.618 99.1786C115.606 99.0752 115.591 98.9718 115.579 98.8655C115.327 96.9036 115.038 94.9063 114.723 92.8765C114.676 92.5722 114.628 92.2649 114.575 91.9606C113.599 85.9451 112.324 79.6636 110.728 73.1901L64.7538 65C62.4706 72.0437 60.3687 78.7122 58.472 84.9848C57.5147 88.1374 56.6109 91.1835 55.7576 94.1322C55.6566 94.4838 55.5555 94.8354 55.4574 95.187C55.1987 96.0852 54.946 96.9745 54.6933 97.852C54.5923 98.2155 54.4912 98.5759 54.3931 98.9334C51.0901 110.702 48.7028 120.65 47.3353 128.556C45.7656 137.65 45.5485 144.044 46.8507 147.409" fill="white"/>
<path d="M46.8447 147.409C50.4777 156.802 64.3643 161.955 70.2567 163.101C71.5886 163.358 72.8848 163.556 74.1483 163.695C83.6945 164.765 91.1744 162.744 93.9601 161.902C99.2371 160.309 103.905 157.443 107.597 153.49C107.933 153.129 108.26 152.766 108.581 152.388C108.861 152.057 109.137 151.72 109.402 151.371C110.612 149.808 111.685 148.104 112.606 146.266C112.654 146.171 112.699 146.08 112.746 145.982C114.197 142.995 115.291 139.06 116.013 134.326C117.11 127.132 117.319 118.1 116.507 107.818C116.293 105.132 116.013 102.358 115.657 99.5096C115.645 99.4002 115.63 99.288 115.618 99.1786C115.606 99.0752 115.591 98.9718 115.579 98.8655C115.327 96.9036 115.038 94.9063 114.723 92.8765C114.676 92.5722 114.628 92.2649 114.575 91.9606C113.599 85.9451 112.324 79.6636 110.728 73.1901L64.7538 65C62.4706 72.0437 60.3687 78.7122 58.472 84.9848C57.5147 88.1374 56.6109 91.1835 55.7576 94.1322C55.6566 94.4838 55.5555 94.8354 55.4574 95.187C55.1987 96.0852 54.946 96.9745 54.6933 97.852C54.5923 98.2154 54.4912 98.5759 54.3931 98.9334C51.0901 110.702 48.7028 120.65 47.3353 128.556C45.7656 137.65 45.5485 144.044 46.8507 147.409" stroke="black" stroke-linecap="round" stroke-linejoin="round"/>
<path d="M78.8393 163.343C78.8393 163.343 78.6368 183.507 83.4798 202.221C83.4798 202.221 70.4899 210.163 78.747 216.292C87.7661 222.982 111.311 222.781 115.517 214.148C119.821 205.32 113.32 164.155 113.984 135" fill="white"/>
<path d="M78.8393 163.343C78.8393 163.343 78.6368 183.507 83.4798 202.221C83.4798 202.221 70.4899 210.163 78.747 216.292C87.7661 222.982 111.311 222.781 115.517 214.148C119.821 205.32 113.32 164.155 113.984 135" stroke="black" stroke-linecap="round" stroke-linejoin="round"/>
<path d="M43.0289 124.418C42.7063 127.714 45.1181 130.652 48.4178 130.971C51.7144 131.294 54.6515 128.882 54.9711 125.582C55.2937 122.286 52.8819 119.348 49.5822 119.029C46.2856 118.706 43.3515 121.118 43.0289 124.418Z" fill="black" stroke="black" stroke-linecap="round" stroke-linejoin="round"/>
<path d="M55.5541 95C55.6467 94.6471 55.7393 94.2941 55.8291 93.9412C56.2076 92.5027 56.5997 91.0435 57 89.5606C56.7794 89.3767 56.5589 89.1869 56.341 89C55.1321 90.2575 54.0211 91.3757 53 92.3722C53.1171 92.5027 53.2369 92.6332 53.3567 92.7637C53.9204 93.3717 54.5058 93.9738 55.1076 94.5699C55.2546 94.7123 55.4044 94.8576 55.5514 94.997" fill="black"/>
<path d="M55.5541 95C55.6467 94.6471 55.7393 94.2941 55.8291 93.9412C56.2076 92.5027 56.5997 91.0435 57 89.5606C56.7794 89.3767 56.5589 89.1869 56.341 89C55.1321 90.2575 54.0211 91.3757 53 92.3722C53.1171 92.5027 53.2369 92.6332 53.3567 92.7637C53.9204 93.3717 54.5058 93.9738 55.1076 94.5699C55.2546 94.7123 55.4044 94.8576 55.5514 94.997" stroke="black" stroke-linecap="round" stroke-linejoin="round"/>
<path d="M109 102.997C111.336 101.939 113.604 100.702 115.782 99.2748C116.534 98.7878 117.27 98.2792 118 97.7488C117.514 97.147 117.029 96.5484 116.546 95.9467C115.751 94.9758 114.962 93.9988 114.191 93C112.821 93.7909 111.416 94.5137 109.987 95.1774L109.003 103" fill="black"/>
<path d="M109 102.997C111.336 101.939 113.604 100.702 115.782 99.2748C116.534 98.7878 117.27 98.2792 118 97.7488C117.514 97.147 117.029 96.5484 116.546 95.9467C115.751 94.9758 114.962 93.9988 114.191 93C112.821 93.7909 111.416 94.5137 109.987 95.1774L109.003 103" stroke="black" stroke-linecap="round" stroke-linejoin="round"/>
<path d="M33 89C31.0468 87.0921 31.7188 75.7674 28.1648 76.0036C22.7083 76.3685 24.1658 82.747 23.9328 82.8756C23.6969 83.0012 21.2658 84.1316 21 86.9127" fill="white"/>
<path d="M33 89C31.0468 87.0921 31.7188 75.7674 28.1648 76.0036C22.7083 76.3685 24.1658 82.747 23.9328 82.8756C23.6969 83.0012 21.2658 84.1316 21 86.9127" stroke="black" stroke-linecap="round" stroke-linejoin="round"/>
<path d="M52.4274 141.663L82.4674 146.901C86.0227 147.523 89.4494 145.157 90.0768 141.64L92.9001 125.852C93.4498 122.774 91.6811 119.8 88.8429 118.691C88.4426 118.531 88.0154 118.413 87.5732 118.337L57.5361 113.099C53.9749 112.477 50.5512 114.843 49.9268 118.36L47.6891 130.864L47.1005 134.148C46.4701 137.665 48.8721 141.044 52.4274 141.663Z" fill="white"/>
<path d="M52.4274 141.663L82.4674 146.901C86.0227 147.523 89.4494 145.157 90.0768 141.64L92.9001 125.852C93.4498 122.774 91.6811 119.8 88.8429 118.691C88.4426 118.531 88.0154 118.413 87.5732 118.337L57.5361 113.099C53.9749 112.477 50.5512 114.843 49.9267 118.36L47.6891 130.864L47.1005 134.148C46.4701 137.665 48.8721 141.044 52.4274 141.663" stroke="black" stroke-linecap="round" stroke-linejoin="round"/>
<path d="M51 141.297C51.3786 141.445 51.7722 141.555 52.1929 141.626L82.4062 146.901C85.0263 147.358 87.5774 146.202 88.9987 144.155C89.5185 143.412 89.8881 142.548 90.0534 141.603L91.3184 134.54L91.7361 132.21L92.8989 125.706C93.5329 122.164 91.1171 118.762 87.5414 118.138L81.0119 117C83.9206 118.085 85.7445 121.109 85.1886 124.241L83.6592 132.831L82.3521 140.147C81.7181 143.683 78.2746 146.072 74.6988 145.445L51.003 141.303" fill="black"/>
<path d="M51 141.297C51.3786 141.445 51.7722 141.555 52.1929 141.626L82.4062 146.901C85.0263 147.358 87.5774 146.202 88.9987 144.155C89.5185 143.412 89.8881 142.548 90.0534 141.603L91.3184 134.54L91.7361 132.21L92.8989 125.706C93.5329 122.164 91.1171 118.762 87.5414 118.138L81.0119 117C83.9206 118.085 85.7445 121.109 85.1886 124.241L83.6592 132.831L82.3521 140.147C81.7181 143.683 78.2746 146.072 74.6988 145.445L51.003 141.303" stroke="black" stroke-linecap="round" stroke-linejoin="round"/>
<path d="M71.0889 130.059C70.9825 130.631 71.0013 135.395 71.0013 135.395C71.0013 135.395 72.5875 135.646 74.5335 135.953C76.9645 136.338 79.3641 134.322 79.896 131.45C80.4247 128.581 78.8855 125.94 76.4545 125.558C74.812 125.298 72.9223 125 72.9223 125C72.9223 125 71.2641 129.127 71.092 130.059" fill="#00CA20"/>
<path d="M71.0889 130.059C70.9825 130.631 71.0013 135.395 71.0013 135.395C71.0013 135.395 72.5875 135.646 74.5335 135.953C76.9645 136.338 79.3641 134.322 79.896 131.45C80.4247 128.581 78.8855 125.94 76.4545 125.558C74.812 125.298 72.9223 125 72.9223 125C72.9223 125 71.2641 129.127 71.092 130.059" stroke="black" stroke-linecap="round" stroke-linejoin="round"/>
<path d="M118.761 128.403C118.761 128.403 121.276 130.938 120.975 134.339C120.626 138.269 117.948 139.553 117.948 139.553C117.948 139.553 106.414 143.71 89.4715 137.933C89.4715 137.933 85.154 130.912 91.3099 128C91.3099 128 109.36 132.743 118.761 128.403Z" fill="white"/>
<path d="M118.761 128.403C118.761 128.403 121.276 130.938 120.975 134.339C120.626 138.269 117.948 139.553 117.948 139.553C117.948 139.553 106.414 143.71 89.4715 137.933C89.4715 137.933 85.154 130.912 91.3099 128C91.3099 128 109.36 132.743 118.761 128.403" stroke="black" stroke-linecap="round" stroke-linejoin="round"/>
<path d="M68.1039 129.772C67.5758 132.781 69.1131 135.55 71.5408 135.951C73.9685 136.354 76.365 134.24 76.8961 131.228C77.4242 128.219 75.8869 125.45 73.4592 125.049C71.0315 124.646 68.635 126.76 68.1039 129.772Z" fill="#00CA20" stroke="black" stroke-linecap="round" stroke-linejoin="round"/>
<path d="M91.6091 147.17C93.868 148.73 95.8779 147.91 97.5626 147.091C98.6408 146.568 99.5812 146.042 100.369 146.139C102.139 146.359 104.29 150.931 108.204 152.482C108.755 152.703 109.343 152.861 109.973 152.941C115.03 153.566 131.221 149.297 136.049 137.723C141.217 125.33 124.051 102.006 115.077 91.2961C113.419 89.3158 96.6924 97.681 97.1084 104.092C97.5245 110.492 108.207 120.373 109.045 121.29C111.588 124.072 108.174 124.977 108.174 124.977C108.174 124.977 102.186 122.057 99.9445 122.168C97.7032 122.28 91.53 123.523 90.1003 126.978C87.6597 132.875 86.4409 140.368 91.6062 147.167" fill="white"/>
<path d="M91.6091 147.17C93.868 148.73 95.8779 147.91 97.5626 147.091C98.6408 146.568 99.5812 146.042 100.369 146.139C102.139 146.359 104.29 150.931 108.204 152.482C108.755 152.703 109.343 152.861 109.973 152.941C115.03 153.566 131.221 149.297 136.049 137.723C141.217 125.33 124.051 102.006 115.077 91.2961C113.419 89.3158 96.6924 97.681 97.1084 104.092C97.5245 110.492 108.207 120.373 109.045 121.29C111.588 124.072 108.174 124.977 108.174 124.977C108.174 124.977 102.186 122.057 99.9445 122.168C97.7032 122.28 91.53 123.523 90.1003 126.978C87.6597 132.875 86.4409 140.368 91.6062 147.167" stroke="black" stroke-linecap="round" stroke-linejoin="round"/>
<path d="M110.997 153C111.227 153 111.463 152.991 111.705 152.98C112.428 152.945 113.174 152.849 113.915 152.726C116.894 152.225 119.859 151.275 122.629 150.008C125.399 148.732 128.933 148.117 131.222 146.209C139.316 139.459 136.541 130 136.541 130C132.405 134.813 116.885 147.96 111.009 147.96C110.602 147.96 110.236 147.94 109.912 147.902C104.814 147.281 102.275 141.408 100.242 141.161C100.177 141.152 100.109 141.149 100.041 141.149C99.2893 141.149 98.4102 141.627 97.4161 142.104C96.422 142.582 95.3128 143.06 94.1063 143.06C93.2597 143.06 89.7168 142.544 88 139.914C88.1062 140.077 89.413 147.838 92.0768 147.299C92.1977 147.275 92.2243 147.418 92.2892 147.491L92.6638 147.707C92.7877 147.794 92.9145 147.829 93.0384 147.879L93.2243 147.957C93.2862 147.98 93.3511 147.986 93.4131 148.001C93.6432 148.059 93.8762 148.091 94.121 148.091C94.4072 148.091 94.7081 148.05 95.0267 147.969C95.6166 147.82 96.2509 147.538 96.9529 147.194C97.3099 147.022 97.6727 146.839 98.1093 146.655L98.4367 146.521L98.8173 146.396C99.0474 146.305 99.3984 146.253 99.6993 146.203C99.8232 146.203 99.9412 146.195 100.062 146.195C100.316 146.195 100.575 146.215 100.882 146.302C101.272 146.425 101.575 146.588 101.82 146.748C102.316 147.072 102.652 147.395 102.971 147.707C103.593 148.327 104.112 148.924 104.64 149.484C105.163 150.043 105.685 150.567 106.224 151.034C107.301 151.972 108.469 152.645 109.696 152.886C110.098 152.965 110.531 152.994 110.992 152.994" fill="black"/>
<path d="M110.997 153C111.227 153 111.463 152.991 111.705 152.98C112.428 152.945 113.174 152.849 113.915 152.726C116.894 152.225 119.859 151.275 122.629 150.008C125.399 148.732 128.933 148.117 131.222 146.209C139.316 139.459 136.541 130 136.541 130C132.405 134.813 116.885 147.96 111.009 147.96C110.602 147.96 110.236 147.94 109.912 147.902C104.814 147.281 102.275 141.408 100.242 141.161C100.177 141.152 100.109 141.149 100.041 141.149C99.2893 141.149 98.4102 141.627 97.4161 142.104C96.422 142.582 95.3128 143.06 94.1063 143.06C93.2597 143.06 89.7168 142.544 88 139.914C88.1062 140.077 89.413 147.838 92.0768 147.299C92.1977 147.275 92.2243 147.418 92.2892 147.491L92.6638 147.707C92.7877 147.794 92.9145 147.829 93.0384 147.879L93.2243 147.957C93.2862 147.98 93.3511 147.986 93.4131 148.001C93.6432 148.059 93.8762 148.091 94.121 148.091C94.4072 148.091 94.7081 148.05 95.0267 147.969C95.6166 147.82 96.2509 147.538 96.9529 147.194C97.3099 147.022 97.6727 146.839 98.1093 146.655L98.4367 146.521L98.8173 146.396C99.0474 146.305 99.3984 146.253 99.6993 146.203C99.8232 146.203 99.9412 146.195 100.062 146.195C100.316 146.195 100.575 146.215 100.882 146.302C101.272 146.425 101.575 146.588 101.82 146.748C102.316 147.072 102.652 147.395 102.971 147.707C103.593 148.327 104.112 148.924 104.64 149.484C105.163 150.043 105.685 150.567 106.224 151.034C107.301 151.972 108.469 152.645 109.696 152.886C110.098 152.965 110.531 152.994 110.992 152.994" stroke="black" stroke-linecap="round" stroke-linejoin="round"/>
<path d="M39.6974 62.6144C41.8548 70.5293 46.0363 77.9551 52.1234 84.0872C53.3651 85.3367 54.6809 86.5301 56.0737 87.6646C56.7494 88.2186 57.4518 88.7549 58.1689 89.2853C60.3382 90.8677 62.5935 92.2527 64.9198 93.4402C66.9202 94.4686 68.9739 95.3497 71.0572 96.0893C73.5732 96.9851 76.1396 97.6688 78.7268 98.1491C79.6721 98.3229 80.6175 98.4703 81.5658 98.5911C98.9231 100.801 116.944 94.0089 128.125 79.2782C144.6 57.5843 139.985 26.8852 117.827 10.7135C113.557 7.60175 108.946 5.24731 104.168 3.64428C103.611 3.45274 103.048 3.27594 102.479 3.10798C100.965 2.65418 99.4358 2.277 97.9007 1.97054C94.3445 1.26332 90.7379 0.948017 87.155 1.00695C83.5721 1.06294 80.0011 1.49611 76.519 2.29762C75.4106 2.55104 74.3141 2.83982 73.2206 3.16986C71.5877 3.66491 69.9755 4.23658 68.393 4.89959C60.4983 8.17342 53.3592 13.4893 47.8737 20.7177C38.3964 33.1971 35.9012 48.6557 39.7033 62.6144" fill="white"/>
<path d="M39.6974 62.6144C41.8548 70.5293 46.0363 77.9551 52.1234 84.0872C53.3651 85.3367 54.6809 86.5301 56.0737 87.6646C56.7494 88.2186 57.4518 88.7549 58.1689 89.2853C60.3382 90.8677 62.5935 92.2527 64.9198 93.4402C66.9202 94.4686 68.9739 95.3497 71.0572 96.0893C73.5732 96.9851 76.1396 97.6688 78.7268 98.1491C79.6721 98.3229 80.6175 98.4703 81.5658 98.5911C98.9231 100.801 116.944 94.0089 128.125 79.2782C144.6 57.5843 139.985 26.8852 117.827 10.7135C113.557 7.60175 108.946 5.24731 104.168 3.64428C103.611 3.45274 103.048 3.27594 102.479 3.10798C100.965 2.65418 99.4358 2.277 97.9007 1.97054C94.3445 1.26332 90.7379 0.948017 87.155 1.00695C83.5721 1.06294 80.0011 1.49611 76.519 2.29762C75.4106 2.55104 74.3141 2.83982 73.2206 3.16986C71.5877 3.66491 69.9756 4.23658 68.393 4.89959C60.4983 8.17342 53.3592 13.4893 47.8737 20.7177C38.3964 33.1971 35.9012 48.6557 39.7033 62.6144" stroke="black" stroke-linecap="round" stroke-linejoin="round"/>
<path d="M124.325 80C140.77 58.189 135.649 28.0244 113.528 11.7646C109.265 8.6365 104.662 6.26966 99.893 4.6582C99.3369 4.46565 98.7748 4.28792 98.2068 4.11907C96.6952 3.66289 95.1687 3.28372 93.6363 2.97564C90.0864 2.2647 86.4862 1.94774 82.9097 2.00699C79.3332 2.06327 75.7685 2.49872 72.2925 3.30445C71.1862 3.55921 70.0916 3.84951 69 4.18128" fill="black"/>
<path d="M124.325 80C140.77 58.189 135.649 28.0244 113.528 11.7646C109.265 8.6365 104.662 6.26966 99.893 4.6582C99.3369 4.46565 98.7748 4.28792 98.2068 4.11907C96.6952 3.66289 95.1687 3.28372 93.6363 2.97564C90.0864 2.2647 86.4862 1.94774 82.9097 2.00699C79.3332 2.06327 75.7685 2.49872 72.2925 3.30445C71.1862 3.55921 70.0916 3.84951 69 4.18128" stroke="black" stroke-linecap="round" stroke-linejoin="round"/>
<path d="M122.246 79C134.932 57.8577 132.732 29.9019 110.584 13.7187C106.316 10.6053 101.707 8.24956 96.9324 6.64569C96.3756 6.45405 95.8128 6.27715 95.2441 6.1091C93.7305 5.65506 92.2021 5.27767 90.6678 4.97105C87.1133 4.26346 83.5085 3.94799 79.9274 4.00696C76.3464 4.06297 72.7771 4.49637 69.2967 5.29831C68.1889 5.55187 67.093 5.8408 66 6.17101" fill="white"/>
<path d="M122.246 79C134.932 57.8577 132.732 29.9019 110.584 13.7187C106.316 10.6053 101.707 8.24956 96.9325 6.64569C96.3756 6.45405 95.8128 6.27715 95.2441 6.1091C93.7305 5.65506 92.2021 5.27767 90.6678 4.97105C87.1133 4.26346 83.5085 3.94799 79.9274 4.00696C76.3464 4.06297 72.7771 4.49637 69.2967 5.29831C68.1889 5.55187 67.093 5.8408 66 6.17101" stroke="black" stroke-linecap="round" stroke-linejoin="round"/>
<path d="M47.8871 20.9176C53.181 13.8681 60.2749 8.34496 68.4033 4.939C69.9404 4.28869 71.5661 3.70074 73.2302 3.19296C74.3002 2.86632 75.4086 2.56938 76.5259 2.31104C80.0078 1.50335 83.5873 1.06387 87.1579 1.00745C90.767 0.94509 94.3819 1.2747 97.9023 1.98143C99.4334 2.29025 100.973 2.67628 102.481 3.1306C103.087 3.30877 103.639 3.48694 104.172 3.67104C109.034 5.31612 113.627 7.7184 117.827 10.8126C128.584 18.744 135.562 30.3486 137.478 43.4914C139.378 56.5272 136.056 69.5186 128.122 80.078C118.643 92.6951 103.696 100 88.021 100C85.881 100 83.7292 99.8634 81.5744 99.5872C80.6286 99.4655 79.6738 99.3141 78.7368 99.1389C76.121 98.6459 73.5405 97.9451 71.0695 97.0573C68.9561 96.3001 66.89 95.3973 64.9332 94.3788C62.5922 93.1703 60.3222 91.7568 58.1851 90.18C57.3989 89.595 56.7161 89.0576 56.0895 88.5439C54.7239 87.4214 53.3938 86.2069 52.1405 84.93C46.2112 78.8961 41.9164 71.3953 39.7173 63.2412C35.7506 48.5276 38.73 33.1042 47.8871 20.9176V20.9176ZM39.9449 63.1788C42.1322 71.2943 46.4062 78.7595 52.306 84.7637C53.5563 86.0347 54.8776 87.2432 56.2373 88.3598C56.858 88.8735 57.5408 89.408 58.3241 89.99C60.4522 91.5579 62.7105 92.9624 65.0396 94.168C66.9905 95.1806 69.0448 96.0774 71.1463 96.8316C73.6085 97.7165 76.1742 98.4143 78.7782 98.9013C79.7123 99.0735 80.664 99.225 81.604 99.3467C99.46 101.642 117.213 94.2036 127.933 79.9325C135.828 69.4265 139.136 56.4976 137.244 43.524C135.338 30.4466 128.391 18.8984 117.685 11.0026C113.506 7.92627 108.933 5.53586 104.092 3.89672C103.566 3.71262 103.016 3.53742 102.413 3.35925C100.911 2.90493 99.3772 2.52187 97.855 2.21601C94.6243 1.56867 91.3138 1.23907 88.0003 1.23907C87.7225 1.23907 87.4417 1.23907 87.1638 1.245C83.608 1.30142 80.0463 1.73496 76.5791 2.53968C75.4648 2.79803 74.3622 3.092 73.2982 3.41567C71.64 3.92345 70.0231 4.50546 68.492 5.1528C60.4049 8.54094 53.3435 14.0404 48.0763 21.0542C38.9635 33.1785 35.9989 48.5305 39.9449 63.1699V63.1788Z" stroke="black" stroke-linecap="round" stroke-linejoin="round"/>
<path d="M45.6824 74.106C69.2638 100.388 111.192 95.6408 121.426 62.4072C128.385 39.7979 111.321 15.5827 88.8835 10.3429C72.5534 6.52894 54.9292 9.85584 42.039 33.2474C42.039 33.2474 37.9536 44.4739 39.2564 52.9048C40.5564 61.3357 43.2653 69.3208 43.2653 69.3208L45.6853 74.1001" fill="#5555FF"/>
<path d="M45.6824 74.106C69.2638 100.388 111.192 95.6408 121.426 62.4072C128.385 39.7979 111.321 15.5827 88.8835 10.3429C72.5534 6.52894 54.9292 9.85584 42.0391 33.2474C42.0391 33.2474 37.9536 44.4739 39.2564 52.9048C40.5564 61.3357 43.2653 69.3208 43.2653 69.3208L45.6853 74.1001" stroke="black" stroke-linecap="round" stroke-linejoin="round"/>
<path d="M121.421 63.0459C111.164 96.6984 69.1312 101.505 45.4905 74.8962L45 73.9126C74.3971 91.1529 110.547 75.8348 121.551 42C123.437 48.7592 123.573 55.9788 121.421 63.0459Z" fill="black" stroke="black" stroke-linecap="round" stroke-linejoin="round"/>
<path d="M142.627 66.1592C140.889 75.7806 133.604 82.8372 126.355 81.9198C119.106 81.0023 114.637 72.4592 116.375 62.8408C116.384 62.7812 116.399 62.7157 116.411 62.6561C118.206 53.1301 125.449 46.1687 132.646 47.0802C138.248 47.7862 142.187 53.0467 142.889 59.8382C143.094 61.837 143.021 63.9728 142.624 66.1592H142.627Z" fill="white" stroke="black" stroke-linecap="round" stroke-linejoin="round"/>
<path d="M143.666 67.1568C142.255 74.8617 136.784 80.5898 131.445 79.9514C126.106 79.313 122.923 72.5481 124.334 64.8432C125.745 57.1383 131.216 51.4102 136.555 52.0486C141.894 52.687 145.077 59.4518 143.666 67.1597V67.1568Z" fill="black" stroke="black" stroke-linecap="round" stroke-linejoin="round"/>
<path d="M109.597 55C109.683 55 109.769 55 109.856 54.9942C113.44 54.832 116.186 51.3449 115.99 47.206C115.797 43.1686 112.875 40 109.403 40C109.317 40 109.231 40 109.144 40.0058C105.56 40.168 102.814 43.6551 103.01 47.794C103.203 51.8314 106.125 55 109.597 55Z" fill="white"/>
<path d="M100.044 62C100.084 62 100.125 62 100.165 62C101.819 61.9243 103.084 60.2959 102.996 58.3645C102.907 56.4798 101.559 55 99.9556 55C99.9156 55 99.8755 55 99.8354 55C98.1809 55.0757 96.9157 56.7041 97.0044 58.6355C97.0931 60.5202 98.4414 62 100.044 62Z" fill="white"/>
<path d="M65 19C65 19 49.5258 27.4804 45 44" stroke="white" stroke-linecap="round" stroke-linejoin="round"/>
<path d="M89.6036 108C96.606 108 121 99.7431 121 99.7431L115.407 92.2279C108.743 95.3715 96.9967 100.728 89.5625 100.728C85.747 100.728 81.8992 100.293 78.0925 99.3978C77.1584 99.1756 76.2156 98.9264 75.2845 98.6532C72.7026 97.8846 70.1766 96.9058 67.7797 95.7468C65.7295 94.756 63.741 93.624 61.8759 92.387C60.745 91.6394 59.6377 90.8437 58.5597 90C58.1279 91.5043 57.7049 92.9815 57.2967 94.4347C57.1968 94.792 57.0969 95.1493 57 95.5066C58.8182 97.1339 60.7186 98.5992 62.7012 99.9053C63.0302 100.121 63.3562 100.335 63.6881 100.539C65.2302 101.509 66.8134 102.382 68.4318 103.163C70.7963 104.307 73.2342 105.244 75.7133 105.982C76.615 106.253 77.5256 106.49 78.442 106.706C82.1165 107.568 85.8645 108 89.6065 108" fill="black"/>
<path d="M89.6036 108C96.606 108 121 99.7431 121 99.7431L115.407 92.2279C108.743 95.3715 96.9967 100.728 89.5625 100.728C85.747 100.728 81.8992 100.293 78.0925 99.3978C77.1584 99.1756 76.2156 98.9264 75.2844 98.6532C72.7026 97.8846 70.1766 96.9058 67.7797 95.7468C65.7295 94.756 63.741 93.624 61.8758 92.387C60.745 91.6394 59.6377 90.8437 58.5597 90C58.1279 91.5043 57.7049 92.9815 57.2967 94.4347C57.1968 94.792 57.0969 95.1493 57 95.5066C58.8182 97.1339 60.7186 98.5992 62.7012 99.9053C63.0302 100.121 63.3562 100.335 63.6881 100.539C65.2302 101.509 66.8134 102.382 68.4318 103.163C70.7963 104.307 73.2342 105.244 75.7133 105.982C76.615 106.253 77.5256 106.49 78.442 106.706C82.1165 107.568 85.8645 108 89.6065 108" stroke="black" stroke-linecap="round" stroke-linejoin="round"/>
</g>
<defs>
<clipPath id="clip0_3304_20940">
<rect width="145" height="222" fill="white" transform="matrix(-1 0 0 1 145 0)"/>
</clipPath>
</defs>
</svg>
