<svg width="139" height="115" viewBox="0 0 139 115" fill="none" xmlns="http://www.w3.org/2000/svg">
<g clip-path="url(#clip0_3187_36991)">
<path opacity="0.48" d="M10.8109 114.999C16.7815 114.999 21.6217 110.176 21.6217 104.226C21.6217 98.2763 16.7815 93.4531 10.8109 93.4531C4.84019 93.4531 0 98.2763 0 104.226C0 110.176 4.84019 114.999 10.8109 114.999Z" fill="white"/>
<path opacity="0.75" d="M139.002 0L12.7965 96.1824C12.1605 96.032 11.503 95.9354 10.8132 95.9354C6.22156 95.9354 2.49219 99.6516 2.49219 104.227C2.49219 108.803 6.22156 112.519 10.8132 112.519C15.4049 112.519 19.1342 108.803 19.1342 104.227C19.1342 104.12 19.1235 104.023 19.1235 103.916L139.002 0Z" fill="url(#paint0_linear_3187_36991)"/>
<path opacity="0.66" d="M10.8109 109.825C13.9123 109.825 16.4265 107.319 16.4265 104.229C16.4265 101.138 13.9123 98.6328 10.8109 98.6328C7.70951 98.6328 5.19531 101.138 5.19531 104.229C5.19531 107.319 7.70951 109.825 10.8109 109.825Z" fill="white"/>
<path d="M10.8103 108.179C13.0009 108.179 14.7768 106.409 14.7768 104.226C14.7768 102.043 13.0009 100.273 10.8103 100.273C8.61961 100.273 6.84375 102.043 6.84375 104.226C6.84375 106.409 8.61961 108.179 10.8103 108.179Z" fill="white"/>
</g>
<defs>
<linearGradient id="paint0_linear_3187_36991" x1="81.5743" y1="51.4047" x2="-28.5289" y2="134.168" gradientUnits="userSpaceOnUse">
<stop stop-color="white"/>
<stop offset="0.32" stop-color="#B1EBDE"/>
</linearGradient>
<clipPath id="clip0_3187_36991">
<rect width="139" height="115" fill="white"/>
</clipPath>
</defs>
</svg>
