<svg width="929" height="1306" viewBox="0 0 929 1306" fill="none" xmlns="http://www.w3.org/2000/svg">
<g clip-path="url(#clip0_3187_37204)">
<path d="M706.56 189.635L705.225 177.251C705.019 166.667 692.859 151.472 688.443 146.288C682.416 139.189 655.243 113.956 638.492 110.871C638.492 110.871 628.196 108.889 624.651 113.466L616.577 119.871C616.577 119.871 610.912 126.597 619.123 141.214C627.334 155.831 667.436 193.122 687.696 197.303C704.523 200.763 706.547 189.635 706.547 189.635L706.56 189.635Z" fill="#30366C"/>
<path opacity="0.3" d="M706.56 189.635L705.225 177.251C705.019 166.667 692.859 151.472 688.443 146.288C682.416 139.189 655.243 113.956 638.492 110.871C638.492 110.871 628.196 108.889 624.651 113.466L616.577 119.871C616.577 119.871 610.912 126.597 619.123 141.214C627.334 155.831 667.436 193.122 687.696 197.303C704.523 200.763 706.547 189.635 706.547 189.635L706.56 189.635Z" fill="black"/>
<path d="M698.702 1126.44C960.347 892.816 983.058 491.338 749.433 229.707C515.821 -31.9382 114.33 -54.6492 -147.301 178.976C-408.946 412.588 -431.657 814.079 -198.032 1075.71C35.5925 1337.34 437.071 1360.07 698.702 1126.44Z" fill="#30366C"/>
<g opacity="0.2">
<path d="M549.513 1052.15C555.819 1046.52 556.365 1036.85 550.737 1030.56C545.108 1024.25 535.437 1023.71 529.144 1029.34C522.839 1034.96 522.293 1044.64 527.921 1050.93C533.549 1057.23 543.221 1057.78 549.513 1052.15Z" fill="black"/>
</g>
<path opacity="0.3" d="M313.502 576.695C319.372 583.279 325.778 589.095 332.567 594.213C331.017 592.634 329.406 591.173 327.905 589.489C279.596 535.388 283.158 459.361 337.259 411.053C387.347 366.322 462.786 361.451 512.052 403.883C511.327 403.021 510.704 402.117 509.954 401.268C461.511 347.015 378.262 342.306 324.021 390.749C269.768 439.192 265.059 522.428 313.502 576.682L313.502 576.695Z" fill="black"/>
<g opacity="0.1">
<path d="M509.963 597.023C564.064 548.714 571.741 469.029 523.432 414.915C475.123 360.813 391.373 362.751 337.271 411.06C283.17 459.369 279.608 535.395 327.917 589.497C376.226 643.598 455.861 645.332 509.976 597.023L509.963 597.023Z" fill="black"/>
</g>
<path opacity="0.3" d="M82.4791 1027.11C70.6065 1048.47 73.6576 1077.15 89.736 1095.54L92.6678 1111.66C96.6399 1130.16 117.105 1139.3 135.333 1144.59C128.23 1139.37 121.814 1132.31 114.939 1122.25L102.727 1100.14C95.2237 1076.52 92.8769 1059.05 104.749 1037.69C115.757 1017.87 137.634 1005.69 160.057 1002.3C182.481 998.918 205.41 1003.39 226.935 1010.51C233.55 1012.69 240.058 1015.19 246.493 1017.86C233.043 1010.79 219.101 1004.69 204.677 999.917C183.152 992.799 160.21 988.33 137.8 991.711C115.389 995.092 93.4987 1007.27 82.4917 1027.1L82.4791 1027.11Z" fill="black"/>
<g opacity="0.1">
<path d="M245.611 1165.24C216.328 1169.29 186.548 1163.51 158.116 1155.36C139.759 1150.1 128.259 1141.76 114.94 1122.27L102.729 1100.18C95.2385 1076.56 92.8917 1059.09 104.751 1037.73C115.759 1017.91 137.636 1005.74 160.059 1002.34C182.483 998.959 205.412 1003.43 226.936 1010.53C251.146 1018.54 274.23 1029.91 295.334 1044.23C307.11 1052.23 315.647 1060.44 320.809 1073.7C326.503 1088.33 320.052 1101.74 312.259 1115.38C297.6 1141.06 274.895 1161.18 245.611 1165.24Z" fill="black"/>
</g>
<path opacity="0.3" d="M153.274 221.551C159.161 199.659 175.93 181.64 196.507 172.133C217.084 162.625 240.361 160.517 263.019 161.334C278.194 161.881 293.304 163.845 308.185 166.879C301.259 166.1 294.312 165.53 287.361 165.271C264.703 164.454 241.439 166.561 220.849 176.069C200.272 185.577 182.654 203.386 177.616 225.487C172.186 249.313 179.323 265.44 193.113 286.014L211.019 303.824C220.438 311.567 228.56 316.557 236.848 319.594C217.874 319.608 182.277 308.227 163.492 275.736C163.492 275.736 147.034 244.751 153.287 221.538L153.274 221.551Z" fill="black"/>
<g opacity="0.1">
<path d="M348.482 308.615C321.488 320.691 291.286 323.447 261.71 323.564C242.62 323.634 229.247 318.844 211.006 303.847L193.101 286.036C179.31 265.45 172.173 249.336 177.603 225.51C182.641 203.408 200.246 185.6 220.836 176.092C241.413 166.584 264.69 164.464 287.348 165.294C312.826 166.213 338.169 170.692 362.427 178.551C375.97 182.934 386.456 188.441 395.119 199.748C404.672 212.212 402.216 226.896 398.556 242.158C391.655 270.905 375.464 296.565 348.483 308.641L348.482 308.615Z" fill="black"/>
</g>
<path opacity="0.3" d="M444.15 965.376C435.909 951.992 436.241 934.721 443.417 919.438C450.606 904.155 463.357 890.934 477.336 879.419C486.697 871.706 496.767 864.687 507.282 858.304C502.727 861.573 498.28 864.956 493.979 868.49C480.013 880.005 467.25 893.226 460.061 908.509C452.871 923.793 451.926 941.406 460.793 954.447C470.351 968.494 483.269 972.336 502.559 974.754L522.816 973.717C532.604 972.404 540.129 970.479 546.705 967.556C535.383 977.53 508.009 990.876 479.342 985.478C479.342 985.478 452.881 979.563 444.137 965.363L444.15 965.376Z" fill="black"/>
<g opacity="0.1">
<path d="M607.488 903.768C597.858 923.624 581.299 940.793 563.696 956.382C552.337 966.448 541.776 971.223 522.82 973.754L502.564 974.79C483.274 972.36 470.356 968.531 460.798 954.484C451.931 941.443 452.889 923.829 460.065 908.546C467.255 893.263 480.005 880.042 493.984 868.527C509.688 855.574 527.232 844.361 545.94 835.308C556.388 830.251 565.599 827.331 576.847 828.093C589.24 828.939 595.674 837.116 601.679 846.227C612.998 863.366 617.119 883.925 607.488 903.781L607.488 903.768Z" fill="black"/>
</g>
<path opacity="0.3" d="M606.541 1127.29C606.841 1119.98 598.491 1116.09 585.603 1116.11C572.716 1116.14 556.34 1119.48 539.81 1123.82C528.73 1126.73 517.405 1130.16 506.025 1133.97C511.187 1132.44 516.325 1131 521.401 1129.66C537.944 1125.31 554.307 1121.99 567.195 1121.96C580.082 1121.94 589.102 1125.6 588.132 1133.15C587.089 1141.27 578.589 1148.7 564.342 1159.02L547.698 1169C539.288 1173.64 532.374 1176.98 525.764 1179.61C539.465 1176.24 567.55 1165.56 587.887 1149.82C587.887 1149.82 606.227 1135.06 606.541 1127.31L606.541 1127.29Z" fill="black"/>
<g opacity="0.1">
<path d="M447.407 1195.26C464.391 1195.07 485.646 1190.75 506.98 1185.54C520.76 1182.17 531.414 1177.96 547.71 1168.99L564.354 1159.01C578.6 1148.69 587.114 1141.28 588.144 1133.14C589.113 1125.6 580.094 1121.93 567.206 1121.95C554.319 1121.99 537.943 1125.32 521.413 1129.65C502.821 1134.54 483.579 1140.75 464.42 1148.06C453.724 1152.15 444.996 1156.11 436.387 1161.97C426.887 1168.43 425.604 1173.6 425.075 1178.78C424.077 1188.53 430.423 1195.45 447.407 1195.26Z" fill="black"/>
</g>
<g opacity="0.1">
<path d="M-13.2038 1168.78C-30.5764 1164.84 -50.3539 1155.22 -69.7849 1144.54C-82.3344 1137.65 -91.271 1130.46 -103.719 1116.57L-116.033 1101.44C-125.734 1086.45 -130.906 1076.04 -128.074 1066.45C-125.442 1057.55 -114.409 1055.3 -101.168 1058.16C-87.9267 1061.02 -72.7019 1068.43 -57.7804 1077.06C-40.999 1086.75 -24.2091 1098.13 -8.02082 1110.73C1.01561 1117.77 8.07667 1124.26 14.1203 1132.87C20.7861 1142.38 19.6245 1148.62 17.6796 1154.7C14.0297 1166.14 4.1687 1172.71 -13.2038 1168.78Z" fill="black"/>
</g>
<path opacity="0.3" d="M747.439 742.545C745.912 753.802 746.787 763.226 752.249 769.172C757.881 775.62 764.392 781.927 772.223 784.861C768.207 781.898 764.598 778.17 761.313 774.408C756.292 768.942 755.478 760.282 756.9 749.924C758.274 738.788 763.878 728.053 772.852 721.311C781.825 714.57 794.18 712.224 804.711 716.081C811.963 718.746 817.764 724.268 821.548 731.001C818.441 719.719 810.412 709.756 799.449 705.729C787.987 701.535 774.561 704.092 764.799 711.414C755.037 718.736 748.941 730.42 747.451 742.532L747.439 742.545Z" fill="black"/>
<g opacity="0.2">
<path d="M804.079 785.432C798.155 788.947 791.225 791.27 784.409 790.28C774.948 788.911 767.591 781.603 761.302 774.407C756.282 768.942 755.467 760.282 756.889 749.923C758.264 738.788 763.88 728.052 772.841 721.311C781.815 714.569 794.17 712.224 804.7 716.081C818.247 721.048 826.97 735.884 826.298 750.309C825.639 764.734 816.487 778.061 804.079 785.432Z" fill="black"/>
</g>
<path opacity="0.3" d="M60.1319 880.849C58.9818 889.344 59.6487 896.45 63.7594 900.942C68.0104 905.807 72.9202 910.562 78.8232 912.784C75.7881 910.546 73.0742 907.728 70.5934 904.891C66.8045 900.766 66.1925 894.229 67.2582 886.425C68.2941 878.024 72.5312 869.923 79.2931 864.84C86.0551 859.757 95.3762 857.99 103.336 860.894C108.805 862.908 113.179 867.068 116.034 872.153C113.692 863.64 107.627 856.114 99.3527 853.089C90.7106 849.918 80.5765 851.851 73.2041 857.38C65.8446 862.908 61.2381 871.72 60.1059 880.85L60.1319 880.849Z" fill="black"/>
<g opacity="0.1">
<path d="M102.867 913.207C98.3994 915.863 93.166 917.606 88.0312 916.855C80.9027 915.823 75.3356 910.307 70.6013 904.872C66.8124 900.748 66.2004 894.21 67.2661 886.406C68.302 878.006 72.5391 869.905 79.301 864.822C86.063 859.739 95.384 857.971 103.344 860.875C113.573 864.624 120.143 875.822 119.644 886.7C119.145 897.577 112.237 907.635 102.88 913.193L102.867 913.207Z" fill="black"/>
</g>
<path opacity="0.3" d="M651.905 998.931C650.755 1007.43 651.422 1014.53 655.533 1019.02C659.784 1023.89 664.694 1028.64 670.597 1030.87C667.562 1028.63 664.848 1025.81 662.367 1022.97C658.578 1018.85 657.966 1012.31 659.032 1004.51C660.067 996.106 664.305 988.005 671.067 982.922C677.828 977.839 687.15 976.072 695.109 978.976C700.578 980.99 704.952 985.15 707.808 990.235C705.466 981.722 699.401 974.196 691.126 971.171C682.484 968 672.35 969.933 664.977 975.462C657.618 980.99 653.012 989.802 651.879 998.932L651.905 998.931Z" fill="black"/>
<g opacity="0.1">
<path d="M694.649 1031.31C690.181 1033.97 684.947 1035.71 679.812 1034.96C672.684 1033.93 667.117 1028.41 662.383 1022.98C658.594 1018.85 657.982 1012.32 659.047 1004.51C660.083 996.111 664.32 988.01 671.082 982.927C677.844 977.844 687.165 976.077 695.125 978.981C705.354 982.73 711.924 993.928 711.425 1004.81C710.926 1015.68 704.019 1025.74 694.661 1031.3L694.649 1031.31Z" fill="black"/>
</g>
<path opacity="0.3" d="M115.91 382.121C114.372 393.443 115.261 402.905 120.737 408.877C126.396 415.351 132.934 421.695 140.804 424.654C136.762 421.679 133.139 417.926 129.84 414.138C124.793 408.647 123.977 399.935 125.398 389.538C126.784 378.35 132.412 367.562 141.437 360.793C150.449 354.025 162.868 351.664 173.451 355.546C180.743 358.222 186.57 363.769 190.369 370.541C187.246 359.195 179.178 349.181 168.149 345.143C156.635 340.924 143.131 343.497 133.331 350.845C123.531 358.207 117.397 369.944 115.896 382.108L115.91 382.121Z" fill="black"/>
<g opacity="0.2">
<path d="M172.842 425.229C166.893 428.758 159.924 431.095 153.069 430.094C143.569 428.712 136.159 421.367 129.843 414.133C124.795 408.642 123.98 399.93 125.401 389.533C126.786 378.345 132.415 367.558 141.44 360.789C150.451 354.02 162.871 351.659 173.454 355.541C187.066 360.532 195.831 375.445 195.16 389.935C194.49 404.426 185.302 417.831 172.829 425.229L172.842 425.229Z" fill="black"/>
</g>
<path opacity="0.3" d="M255.524 35.0973C255.524 35.0973 241.004 34.7396 225.838 37.7614C215.649 39.112 207.522 43.208 204.551 46.4714C201.794 49.495 204.491 52.1838 209.975 53.8337C215.46 55.4837 223.449 56.2067 231.83 56.5293C237.443 56.748 243.323 56.7774 249.342 56.6602C246.668 56.6316 244.044 56.5755 241.472 56.479C233.091 56.1564 225.102 55.4334 219.617 53.7835C214.133 52.1335 211.449 49.4444 214.193 46.4211C217.164 43.1578 223.092 41.1612 232.341 38.7079L242.512 36.6959C247.524 35.8542 251.507 35.34 255.135 35.1083" fill="black"/>
<g opacity="0.1">
<path d="M293.278 38.6677C286.002 36.5489 275.632 35.6073 264.947 35.0379C258.045 34.6607 252.215 35.0452 242.501 36.6809L232.33 38.6929C223.068 41.1595 217.153 43.1557 214.182 46.4061C211.424 49.4297 214.122 52.1185 219.593 53.7688C225.078 55.4187 233.067 56.1417 241.447 56.4644C250.867 56.8227 260.975 56.7204 271.381 56.1425C277.199 55.8232 282.129 55.2954 287.608 53.9604C293.654 52.4926 295.804 50.4983 297.64 48.409C301.099 44.4701 300.553 40.7605 293.278 38.6547L293.278 38.6677Z" fill="black"/>
</g>
<path opacity="0.3" d="M838.025 554.698C838.025 554.698 834.867 530.53 824.948 506.408C819.607 489.984 809.441 477.862 802.299 474.026C795.67 470.461 791.135 475.819 789.381 485.447C787.627 495.075 788.33 508.553 789.93 522.538C790.998 531.905 792.505 541.649 794.341 551.578C793.684 547.144 793.094 542.761 792.61 538.466C791.01 524.481 790.294 511.016 792.061 501.375C793.815 491.747 798.35 486.389 804.978 489.954C812.121 493.789 817.595 502.941 824.856 517.456L831.489 533.636C834.466 541.664 836.515 548.083 837.954 554.012" fill="black"/>
<g opacity="0.1">
<path d="M841.11 618.445C843.296 605.69 842.376 588.207 840.653 570.306C839.55 558.747 837.257 549.207 831.473 533.665L824.84 517.485C817.579 502.958 812.105 493.819 804.963 489.983C798.334 486.418 793.799 491.776 792.045 501.404C790.291 511.032 790.994 524.51 792.594 538.495C794.385 554.214 797.295 570.927 801.188 587.976C803.363 597.506 805.704 605.513 809.762 614.134C814.234 623.652 818.69 626.563 823.247 628.914C831.846 633.332 838.925 631.199 841.11 618.445Z" fill="black"/>
</g>
<path opacity="0.3" d="M512.717 126.399C512.717 126.399 498.043 119.193 480.881 115.795C469.722 112.682 459.177 113.861 454.383 116.435C449.933 118.819 451.241 123.337 455.963 127.89C460.686 132.443 468.486 137.052 476.887 141.345C482.523 144.224 488.519 147.002 494.746 149.656C492.024 148.383 489.365 147.082 486.784 145.766C478.383 141.472 470.583 136.863 465.861 132.31C461.138 127.758 459.83 123.239 464.28 120.856C469.075 118.294 476.21 118.625 487.02 119.957L498.519 122.256C504.11 123.565 508.454 124.806 512.296 126.204" fill="black"/>
<g opacity="0.1">
<path d="M549.48 148.322C543.16 142.374 533.051 136.402 522.417 130.718C515.552 127.043 509.376 124.789 498.545 122.251L487.046 119.952C476.236 118.621 469.101 118.289 464.306 120.851C459.856 123.234 461.164 127.753 465.887 132.306C470.622 136.858 478.409 141.468 486.81 145.761C496.265 150.596 506.673 155.171 517.64 159.327C523.766 161.647 529.109 163.314 535.443 164.252C542.416 165.289 545.698 163.873 548.702 162.206C554.362 159.048 555.799 154.297 549.48 148.348L549.48 148.322Z" fill="black"/>
</g>
<path opacity="0.3" d="M-119.317 225.811L-115.319 245.232C-115.319 245.232 -109.101 260.502 -80.9123 256.309C-52.7232 252.117 32.8514 206.558 53.7055 172.733C71.0214 144.627 55.4633 132.747 55.4633 132.747L35.4029 125.991L-119.343 225.824L-119.317 225.811Z" fill="black"/>
<path d="M-113.392 198.7C-113.392 198.7 -128.519 223.889 -114.453 230.71C-100.387 237.531 -87.8113 242.109 -57.6703 230.243C-27.5296 218.364 45.4951 176.065 45.5101 142.878C45.5247 109.677 -8.48358 128.041 -23.6238 133.801C-38.7641 139.561 -96.6904 170.456 -113.392 198.7Z" fill="#30366C"/>
<path opacity="0.3" d="M-21.5641 157.332C-15.2588 154.935 1.95358 149.014 12.4645 151.716C6.49968 139.437 -20.6388 148.688 -28.9216 151.841C-38.2447 155.386 -73.921 174.416 -84.2048 191.812C-84.2048 191.812 -93.5161 207.323 -84.8581 211.519C-83.4764 212.194 -82.109 212.817 -80.7172 213.388C-82.81 207.269 -76.8339 197.315 -76.8339 197.315C-66.5502 179.92 -30.8738 160.89 -21.5507 157.344L-21.5641 157.332Z" fill="black"/>
<path opacity="0.12" d="M-49.8866 211.209C-31.3245 203.899 13.6421 177.846 13.6518 157.404C13.6525 155.12 13.2236 153.25 12.4662 151.701C1.95529 148.998 -15.257 154.92 -21.5623 157.316C-30.8854 160.862 -66.5618 179.892 -76.8455 197.287C-76.8455 197.287 -82.8087 207.241 -80.7289 213.36C-73.4553 216.323 -65.4835 217.345 -49.8996 211.209L-49.8866 211.209Z" fill="black"/>
<path opacity="0.3" d="M473.888 220.914L453.44 232.716C453.44 232.716 437.35 244.381 441.751 264.297C446.153 284.226 494.072 330.006 529.688 330.978C559.276 331.782 571.793 314.415 571.793 314.415L578.93 295.875L473.901 220.914L473.888 220.914Z" fill="black"/>
<path d="M502.423 213.35C502.423 213.35 475.908 212.94 468.72 226.873C461.532 240.807 456.698 252.598 469.183 270.599C481.668 288.587 526.163 326.131 561.125 311.261C596.088 296.392 576.78 262.839 570.722 253.716C564.665 244.593 532.178 213.617 502.436 213.362L502.423 213.35Z" fill="#30366C"/>
<path opacity="0.3" d="M545.951 265.821C548.471 269.618 554.702 280.28 551.85 289.627C564.791 279.503 555.064 262.657 551.744 257.663C548.017 252.044 527.999 232.969 509.695 232.809C509.695 232.809 493.373 232.554 488.942 241.14C488.228 242.51 487.564 243.853 486.979 245.18C493.424 240.82 503.902 240.967 503.902 240.967C522.219 241.114 542.223 260.189 545.964 265.82L545.951 265.821Z" fill="black"/>
<path opacity="0.12" d="M489.222 268.062C496.905 279.138 524.317 302.262 545.838 293.104C548.249 292.076 550.215 290.904 551.854 289.625C554.706 280.278 548.475 269.616 545.954 265.819C542.227 260.2 522.21 241.125 503.892 240.965C503.892 240.965 493.401 240.819 486.969 245.179C483.842 252.145 482.769 258.756 489.222 268.062Z" fill="black"/>
<path opacity="0.3" d="M556.932 88.1727L548.585 93.1705C548.585 93.1705 542.199 98.2559 545.719 108.034C549.238 117.812 574.424 141.609 590.617 143.295C604.063 144.695 608.395 136.734 608.395 136.734L610.201 128.014L556.932 88.1597L556.932 88.1727Z" fill="black"/>
<path d="M569.272 85.4825C569.272 85.4825 557.248 84.3667 555.056 90.8659C552.863 97.365 551.578 102.891 558.609 112.012C565.641 121.147 588.647 140.812 603.326 134.832C618.006 128.851 606.707 111.959 603.255 107.345C599.803 102.73 582.738 86.6357 569.259 85.4829L569.272 85.4825Z" fill="#30366C"/>
<path opacity="0.3" d="M592.976 112.353C594.406 114.273 598.048 119.648 597.472 124.064C602.551 119.612 596.862 111.141 594.974 108.611C592.856 105.764 582.337 95.8577 574.037 95.1564C574.037 95.1564 566.633 94.4689 565.279 98.4655C565.063 99.1075 564.86 99.7233 564.696 100.351C567.277 98.4613 572.04 98.8985 572.04 98.8985C580.34 99.5998 590.859 109.519 592.976 112.353Z" fill="black"/>
<path opacity="0.12" d="M567.474 111.484C571.798 117.112 585.974 129.226 595.007 125.533C596.021 125.115 596.825 124.625 597.458 124.062C598.035 119.646 594.392 114.271 592.963 112.352C590.845 109.504 580.326 99.598 572.026 98.8967C572.026 98.8967 567.264 98.4594 564.682 100.349C563.8 103.606 563.824 106.772 567.448 111.485L567.474 111.484Z" fill="black"/>
<path d="M-107.076 190.008C-205.861 318.955 -250.676 485.672 -223.714 651.673C-223.714 651.673 -190.811 662.775 -180.585 691.801C-172.164 715.719 -193.717 735.114 -201.719 741.319C-198.954 749.676 -196.379 758.131 -193.28 766.436C-177.382 808.959 -157.027 848.446 -133.267 884.959C-131.153 885.313 -70.1341 895.495 -51.7562 924.886C-37.8017 947.144 -37.1772 975.105 -39.4326 996.581C-31.5071 1003.95 -23.536 1011.18 -15.2339 1018.12C51.9584 1074.17 130.747 1114.67 214.96 1137.24C219.004 1132.24 244.051 1103.3 279.7 1102.94C318.752 1102.64 331.897 1153.11 331.897 1153.11L328.687 1156.23C411.443 1162.03 496.62 1150.86 579.431 1120C641.992 1096.63 698.224 1063.84 747.398 1023.96C681.213 1110.38 590.9 1179.81 481.501 1220.59C170.985 1336.52 -175.069 1178.24 -291.16 867.113C-383.951 618.603 -302.023 348.029 -107.076 190.008Z" fill="black" fill-opacity="0.3"/>
<ellipse cx="337.731" cy="562.256" rx="148.145" ry="41.5845" fill="black" fill-opacity="0.3"/>
</g>
<defs>
<clipPath id="clip0_3187_37204">
<rect width="1270.23" height="1270.23" fill="white" transform="translate(-377 35.6758) rotate(-1.60941)"/>
</clipPath>
</defs>
</svg>
