<svg width="1140" height="829" viewBox="0 0 1140 829" fill="none" xmlns="http://www.w3.org/2000/svg">
<g clip-path="url(#clip0_150_61)">
<path d="M-42.0029 855.99C-38.3459 1163.26 213.678 1409.43 520.934 1405.88C828.176 1402.23 1074.33 1150.19 1070.77 842.912C1067.2 535.535 815.076 289.372 507.833 293.024C200.578 296.576 -45.5614 548.712 -42.0029 855.99Z" fill="#AFAFFF"/>
<g opacity="0.2">
<path d="M329.117 323.654C202.469 405.019 111.033 536.17 82.4238 689.168C82.4238 689.168 107.635 709.136 107.439 737.613C107.274 761.078 82.3861 771.221 73.4578 774.119C73.2454 782.262 72.8361 790.431 72.932 798.633C73.4451 840.64 78.7996 881.398 88.0573 920.632C89.7899 921.603 139.813 949.57 146.613 980.918C151.795 1004.67 143.559 1029.21 134.849 1047.21C139.446 1056.11 144.128 1064.9 149.191 1073.54C190.194 1143.39 246.197 1203.32 312.559 1249.33C317.656 1246.25 348.589 1228.88 379.793 1239.73C413.949 1251.69 409.564 1299.77 409.564 1299.77L405.786 1301.47C476.143 1332.43 553.94 1349.37 635.855 1348.42C697.759 1347.65 757.099 1336.7 812.511 1317.37C727.651 1371.9 627.078 1404.1 518.86 1405.35C211.63 1409.1 -40.4919 1162.94 -44.0505 855.663C-46.9484 610.208 109.469 400.234 329.117 323.654Z" fill="black"/>
</g>
<g opacity="0.2">
<path d="M92.9836 800.257C93.0726 807.659 99.1708 813.555 106.572 813.466C113.973 813.377 119.868 807.278 119.779 799.877C119.69 792.476 113.592 786.58 106.191 786.668C98.79 786.757 92.8946 792.856 92.9836 800.257Z" fill="black"/>
</g>
<path opacity="0.3" d="M378.392 506.2C371.086 486.04 350.418 471.575 328.989 471.637L316.683 464.268C302.192 456.289 284.357 464.487 270.334 473.476C277.917 471.76 286.217 471.651 296.794 472.84L318.448 477.456C338.339 486.114 351.197 494.612 358.503 514.772C365.204 533.411 360.675 554.954 349.995 571.711C339.316 588.468 323.168 601.048 306.088 611.148C300.795 614.261 295.462 617.078 290.018 619.81C302.403 615.047 314.459 609.326 325.964 602.477C343.044 592.377 359.191 579.797 369.871 563.041C380.551 546.284 385.094 524.838 378.379 506.101L378.392 506.2Z" fill="black"/>
<g opacity="0.1">
<path d="M193.348 534.471C207.582 512.83 228.537 496.501 250.286 482.371C264.296 473.283 276.439 470.455 297.003 472.913L318.657 477.528C338.548 486.186 351.406 494.684 358.712 514.844C365.413 533.483 360.884 555.027 350.204 571.784C339.524 588.54 323.377 601.12 306.297 611.22C287.085 622.607 266.311 631.298 244.635 637.004C232.545 640.225 222.244 641.103 210.459 636.869C197.511 632.191 192.407 620.251 187.86 607.235C179.371 582.725 179.128 556.21 193.348 534.471V534.471Z" fill="black"/>
</g>
<path opacity="0.3" d="M210.958 780.561C224.587 782.845 235.759 792.97 241.677 806.504C247.595 820.038 249.04 836.074 248.563 851.966C248.286 862.622 247.11 873.299 245.219 883.87C245.67 879.001 246.008 874.047 246.163 869.218C246.641 853.325 245.196 837.29 239.278 823.756C233.359 810.222 222.193 799.394 208.559 797.813C193.789 795.983 183.819 802.326 171.122 813.743L160.172 827.731C155.432 834.977 152.332 841.002 150.439 847.066C150.373 833.851 157.341 808.073 177.364 792.27C177.364 792.27 196.516 778.186 210.958 780.561V780.561Z" fill="black"/>
<g opacity="0.1">
<path d="M157.621 923.945C150.027 906.127 148.245 885.328 148.091 864.711C148.012 851.398 150.92 841.692 160.171 827.731L171.121 813.743C183.831 802.425 193.801 796.081 208.558 797.813C222.304 799.48 233.358 810.222 239.277 823.756C245.195 837.29 246.64 853.326 246.162 869.218C245.64 887.02 242.952 905.112 238.191 922.679C235.493 932.457 232.124 940.221 225.153 947.265C217.474 955.005 208.393 954.517 198.898 953.183C181.044 950.764 165.103 941.677 157.509 923.86L157.621 923.945Z" fill="black"/>
</g>
<path opacity="0.3" d="M490.089 340.079C493.832 347.091 489.546 355.479 480.088 362.656C470.617 369.734 456.875 375.58 442.594 380.396C433.016 383.682 422.979 386.528 412.804 389.092C417.337 387.784 421.844 386.279 426.252 384.787C440.52 379.873 454.177 374.138 463.747 367.047C473.217 359.969 478.081 351.403 473.748 344.47C469.053 337.084 459.19 334.497 443.665 332.267L426.554 331.651C418.155 331.774 411.411 332.275 405.25 333.4C416.999 329.123 442.867 324.058 465.466 328.247C465.466 328.247 486.083 332.601 490.076 339.98L490.089 340.079Z" fill="black"/>
<g opacity="0.1">
<path d="M339.987 361.47C352.58 352.271 370.311 344.789 388.541 338.041C400.29 333.764 410.163 331.942 426.566 331.75L443.677 332.365C459.202 334.595 469.065 337.182 473.76 344.568C478.08 351.404 473.216 359.969 463.759 367.145C454.288 374.223 440.545 380.069 426.264 384.886C410.166 390.346 393.05 394.941 375.37 398.309C365.509 400.23 357.217 401.139 347.971 400.173C337.814 399.128 334.427 394.772 331.478 389.958C326.067 380.964 327.394 370.668 339.987 361.47V361.47Z" fill="black"/>
</g>
<path opacity="0.3" d="M555.177 423.734C548.658 416.191 541.904 411.385 534.811 411.533C527.299 411.536 519.373 412.196 512.925 415.664C517.203 414.691 521.782 414.479 526.093 414.503C532.582 414.336 538.791 418.814 544.824 425.721C551.415 433.053 555.245 442.96 554.555 452.77C553.864 462.579 548.318 472.037 539.64 476.805C533.671 480.109 526.743 480.735 520.056 479.426C529.27 483.903 540.543 484.298 549.503 479.392C558.83 474.237 564.959 463.9 565.742 453.276C566.524 442.652 562.28 431.9 555.203 423.931L555.177 423.734Z" fill="black"/>
<g opacity="0.2">
<path d="M494.276 436.493C495.382 430.534 497.793 424.602 502.378 420.682C508.759 415.22 517.793 414.612 526.205 414.588C532.693 414.421 538.902 418.899 544.936 425.806C551.527 433.139 555.357 443.045 554.666 452.855C553.976 462.665 548.43 472.123 539.752 476.891C528.647 482.985 513.843 480.157 504.765 471.455C495.588 462.765 492.045 449.013 494.388 436.578L494.276 436.493Z" fill="black"/>
</g>
<path opacity="0.3" d="M600.801 407.611C597.492 403.846 594.171 401.485 590.674 401.552C586.967 401.548 583.004 401.878 579.731 403.618C581.87 403.131 584.159 403.025 586.364 403.031C589.651 402.892 592.664 405.193 595.723 408.591C599.018 412.257 600.983 417.204 600.532 422.072C600.18 426.928 597.414 431.706 593.124 434.084C590.133 435.686 586.676 436.049 583.382 435.388C587.982 437.577 593.625 437.824 598.098 435.321C602.768 432.793 605.777 427.582 606.162 422.221C606.546 416.86 604.431 411.533 600.886 407.499L600.801 407.611Z" fill="black"/>
<g opacity="0.2">
<path d="M570.303 413.996C570.806 411.024 572.111 408.044 574.36 406.14C577.501 403.416 582.068 403.105 586.267 403.044C589.554 402.905 592.567 405.206 595.626 408.604C598.921 412.27 600.886 417.216 600.435 422.085C600.083 426.941 597.317 431.719 593.027 434.097C587.524 437.137 580.136 435.822 575.527 431.33C570.932 426.935 569.21 420.053 570.289 413.898L570.303 413.996Z" fill="black"/>
</g>
<path opacity="0.3" d="M792.524 497.36C785.907 489.83 779.139 484.926 772.06 485.172C764.548 485.175 756.524 485.848 750.076 489.316C754.353 488.343 758.933 488.131 763.342 488.142C769.831 487.975 776.138 492.44 782.171 499.347C788.762 506.679 792.606 516.684 791.915 526.494C791.224 536.304 785.593 545.873 776.915 550.641C770.946 553.944 763.92 554.584 757.233 553.275C766.546 557.739 777.818 558.134 786.778 553.228C796.204 548.06 802.222 537.637 803.089 526.902C803.858 516.18 799.614 505.427 792.524 497.36V497.36Z" fill="black"/>
<g opacity="0.1">
<path d="M731.328 510.158C732.434 504.2 734.943 498.254 739.528 494.334C745.909 488.872 755.029 488.152 763.453 488.227C769.942 488.06 776.249 492.525 782.283 499.432C788.874 506.765 792.717 516.769 792.026 526.579C791.336 536.389 785.704 545.959 777.026 550.726C765.922 556.821 751.02 554.007 741.83 545.218C732.64 536.43 729.097 522.679 731.426 510.145L731.328 510.158Z" fill="black"/>
</g>
<path opacity="0.3" d="M487.862 575.701C482.899 570.054 477.806 566.428 472.511 566.535C466.895 566.485 460.866 567.092 455.998 569.647C459.206 568.917 462.69 568.751 465.991 568.71C470.879 568.557 475.539 571.94 480.141 577.135C485.09 582.684 487.988 590.11 487.473 597.492C486.958 604.874 482.71 612.055 476.276 615.621C471.802 618.123 466.547 618.526 461.514 617.596C468.477 620.972 476.928 621.244 483.743 617.527C490.84 613.672 495.403 605.848 495.924 597.764C496.543 589.666 493.357 581.578 487.948 575.589L487.862 575.701Z" fill="black"/>
<g opacity="0.1">
<path d="M441.861 585.263C442.66 580.749 444.567 576.286 447.977 573.325C452.732 569.182 459.588 568.766 465.893 568.723C470.781 568.57 475.441 571.954 480.043 577.148C484.993 582.697 487.89 590.123 487.375 597.505C486.861 604.887 482.613 612.068 476.178 615.634C467.782 620.264 456.68 618.143 449.787 611.552C442.895 604.961 440.206 594.601 441.96 585.25L441.861 585.263Z" fill="black"/>
</g>
<path opacity="0.3" d="M965.915 654.48C965.915 654.48 962.358 640.63 954.852 627.208C950.511 617.972 943.756 611.663 939.32 609.952C935.192 608.301 932.957 611.806 932.625 617.56C932.293 623.315 933.642 631.149 935.523 639.212C936.851 644.645 938.389 650.149 940.15 655.824C939.414 653.318 938.776 650.799 938.237 648.266C936.258 640.216 934.909 632.382 935.339 626.614C935.671 620.859 937.92 617.453 942.034 619.006C946.47 620.716 950.344 625.708 955.61 633.619L960.614 642.566C962.919 647.067 964.601 650.648 965.849 653.988" fill="black"/>
<g opacity="0.1">
<path d="M972.27 691.497C972.66 683.931 970.798 673.762 968.516 663.448C967.03 656.835 965 651.396 960.541 642.776L955.537 633.829C950.271 625.918 946.397 620.926 941.961 619.216C937.833 617.564 935.598 621.069 935.266 626.824C934.934 632.579 936.283 640.413 938.164 648.476C940.373 657.497 943.251 667.03 946.746 676.68C948.678 682.132 950.675 686.573 953.61 691.289C956.92 696.557 959.702 697.888 962.544 698.91C967.918 700.895 971.893 699.161 972.172 691.51L972.27 691.497Z" fill="black"/>
</g>
</g>
<g clip-path="url(#clip1_150_61)">
<path d="M484.729 398.879C446.613 398.879 415.716 392.837 415.716 385.386C415.716 377.935 446.616 371.893 484.729 371.893C522.842 371.893 553.745 377.935 553.745 385.386C553.745 392.837 522.844 398.879 484.729 398.879Z" fill="black" stroke="black" stroke-width="2" stroke-linecap="round" stroke-linejoin="round"/>
<path d="M505.565 176.121C519.739 177.361 531.88 178.771 542.864 196.554C551.516 210.558 555.674 234.622 557.404 253.012C558.758 267.406 559.291 279.9 557.234 287.972C553.445 302.851 542.403 308.903 527.529 304.152C512.658 299.401 504.574 210.076 504.574 210.076L505.565 176.123" fill="white"/>
<path d="M505.565 176.121C519.739 177.361 531.88 178.771 542.864 196.554C551.516 210.558 555.674 234.622 557.404 253.012C558.758 267.406 559.291 279.9 557.234 287.972C553.445 302.851 542.403 308.903 527.529 304.152C512.658 299.401 504.574 210.076 504.574 210.076L505.565 176.123" stroke="black" stroke-width="2" stroke-linecap="round" stroke-linejoin="round"/>
<path d="M557.237 287.969C553.442 302.851 542.403 308.898 527.532 304.146C512.656 299.398 504.574 210.073 504.574 210.073L504.913 198.56L505.565 176.126C516.395 177.072 526.045 178.119 534.891 186.498C537.623 189.087 540.278 192.367 542.864 196.557C551.516 210.558 555.676 234.624 557.407 253.009C558.758 267.406 559.291 279.897 557.237 287.972" fill="white"/>
<path d="M557.237 287.969C553.442 302.851 542.403 308.898 527.532 304.146C512.656 299.398 504.574 210.073 504.574 210.073L504.913 198.56L505.565 176.126C516.395 177.072 526.045 178.119 534.891 186.498C537.623 189.087 540.278 192.367 542.864 196.557C551.516 210.558 555.676 234.624 557.407 253.009C558.758 267.406 559.291 279.897 557.237 287.972" stroke="black" stroke-width="2" stroke-linecap="round" stroke-linejoin="round"/>
<path d="M558.594 273.967C558.029 283.756 556.384 289.866 550.785 289.866C542.398 289.866 544.168 275.395 544.168 275.395" fill="white"/>
<path d="M558.594 273.967C558.029 283.756 556.384 289.866 550.785 289.866C542.398 289.866 544.168 275.395 544.168 275.395" stroke="black" stroke-width="2" stroke-linecap="round" stroke-linejoin="round"/>
<path d="M465.846 179.473L466.052 192.664L466.158 199.381L467.984 315.257C467.984 315.257 460.077 314.931 449.507 313.646C447.44 313.394 445.27 313.108 443.038 312.777C426.408 310.331 406.317 305.575 399.093 296.549C388.297 283.048 389.911 220.201 401.6 195.905C406.952 184.767 431.178 181.148 448.298 179.992C450.212 179.86 452.04 179.762 453.739 179.687C460.904 179.369 465.846 179.473 465.846 179.473V179.473Z" fill="white" stroke="black" stroke-width="2" stroke-linecap="round" stroke-linejoin="round"/>
<path d="M466.053 192.664L466.159 199.381L467.608 291.387L467.984 315.257C467.984 315.257 467.82 315.249 467.505 315.233C467.417 315.226 467.309 315.223 467.197 315.218C467.11 315.212 467.007 315.207 466.908 315.202C466.832 315.202 466.755 315.194 466.678 315.191C466.649 315.186 466.612 315.191 466.583 315.186C466.442 315.178 466.283 315.17 466.116 315.157C466.082 315.157 466.047 315.157 466.005 315.151C465.87 315.143 465.727 315.135 465.573 315.125C465.366 315.114 465.152 315.098 464.926 315.082C464.767 315.069 464.595 315.061 464.423 315.051C464.245 315.037 464.068 315.027 463.885 315.014C463.654 315 463.411 314.979 463.162 314.966C462.658 314.926 462.125 314.889 461.564 314.844C461.066 314.812 460.546 314.767 460 314.719C459.372 314.666 458.715 314.613 458.031 314.547C455.511 314.319 452.628 314.025 449.509 313.644C448.903 313.572 448.285 313.49 447.662 313.413C447.231 313.36 446.783 313.299 446.338 313.238C445.262 313.095 444.154 312.941 443.041 312.774C426.405 310.329 406.319 305.572 399.104 296.544C390.211 285.43 389.728 240.854 396.369 211.889C394.077 237.272 395.995 264.642 402.7 273.018C406.012 277.16 420.425 263.487 420.47 255.323C420.586 234.272 424.884 207.326 444.814 191.898C445.331 191.498 456.606 193.329 466.053 192.659V192.664Z" fill="black" stroke="black" stroke-width="2" stroke-linecap="round" stroke-linejoin="round"/>
<path d="M396.501 248.913L419.163 251.303C421.185 251.517 422.812 253.065 423.114 255.076C424.219 262.443 425.886 279.59 418.588 285.017C412.53 289.522 402.943 288.682 397.458 283.748C391.324 278.228 391.212 261.457 391.565 253.166C391.673 250.587 393.934 248.64 396.499 248.91L396.501 248.913Z" fill="white" stroke="black" stroke-width="2" stroke-linecap="round" stroke-linejoin="round"/>
<path d="M516.063 281.917C501.497 288.716 429.916 299.907 431.684 287.966C432.863 280.001 422.356 265.188 447.983 169.981L525.198 180.906L536.65 201.17C550.287 241.824 552.944 269.497 536.354 288.589L516.063 281.917Z" fill="white" stroke="black" stroke-width="2" stroke-linecap="round" stroke-linejoin="round"/>
<path d="M530.317 189.969C521.053 195.854 506.323 199.659 489.732 199.659C469.5 199.659 452.037 194.005 443.873 185.822C444.907 181.683 446.014 177.385 447.193 172.922C448.908 172.064 450.797 171.266 452.753 170.659L525.195 180.912L530.317 189.972V189.969Z" fill="black" stroke="black" stroke-width="2" stroke-linecap="round" stroke-linejoin="round"/>
<path d="M547.674 253.857C553.912 253.611 557.945 265.04 546.389 269.113Z" fill="black"/>
<path d="M547.674 253.857C553.912 253.611 557.945 265.04 546.389 269.113" stroke="black" stroke-width="2" stroke-linecap="round" stroke-linejoin="round"/>
<path d="M576.133 126.433C572.482 139.908 565.404 152.548 555.104 162.985C553.003 165.113 550.777 167.146 548.416 169.075C547.271 170.015 546.084 170.932 544.87 171.833C541.197 174.528 537.379 176.884 533.444 178.906C530.057 180.657 526.581 182.157 523.054 183.416C518.795 184.939 514.452 186.103 510.069 186.924C508.472 187.218 506.868 187.47 505.265 187.677C475.884 191.44 445.381 179.878 426.456 154.803C398.571 117.874 406.385 65.616 443.892 38.0839C451.118 32.7868 458.924 28.7775 467.012 26.0508C467.955 25.7222 468.909 25.4202 469.871 25.1393C472.433 24.3682 475.02 23.7242 477.622 23.2022C483.64 21.9992 489.745 21.4612 495.811 21.5619C501.876 21.6573 507.92 22.394 513.814 23.756C515.687 24.188 517.547 24.6808 519.394 25.2426C522.161 26.0853 524.885 27.0578 527.567 28.184C540.93 33.7566 553.011 42.8059 562.298 55.1119C578.341 76.3559 582.565 102.669 576.131 126.433" fill="white"/>
<path d="M576.133 126.433C572.482 139.908 565.404 152.548 555.104 162.985C553.003 165.113 550.777 167.146 548.416 169.075C547.271 170.015 546.084 170.932 544.87 171.833C541.197 174.528 537.379 176.884 533.444 178.906C530.057 180.657 526.581 182.157 523.054 183.416C518.795 184.939 514.452 186.103 510.069 186.924C508.472 187.218 506.868 187.47 505.265 187.677C475.884 191.44 445.381 179.878 426.456 154.803C398.571 117.874 406.385 65.616 443.892 38.0839C451.118 32.7868 458.924 28.7775 467.012 26.0508C467.955 25.7222 468.909 25.4201 469.871 25.1393C472.433 24.3682 475.02 23.7242 477.622 23.2022C483.64 21.9992 489.745 21.4612 495.811 21.5619C501.876 21.6573 507.92 22.394 513.814 23.756C515.687 24.188 517.547 24.6808 519.394 25.2426C522.161 26.0853 524.885 27.0578 527.567 28.184C540.93 33.7566 553.011 42.8059 562.298 55.1119C578.341 76.3559 582.565 102.669 576.131 126.433" stroke="black" stroke-width="2" stroke-linecap="round" stroke-linejoin="round"/>
<path d="M433.875 157.193C405.991 120.259 413.802 68.0009 451.309 40.4714C458.535 35.1744 466.341 31.1651 474.429 28.4384C475.372 28.1098 476.326 27.8077 477.288 27.5268C479.85 26.7557 482.437 26.1118 485.039 25.5898C491.057 24.3867 497.162 23.8488 503.228 23.9495C509.293 24.0449 515.337 24.7816 521.231 26.1436C523.104 26.5755 524.178 27.0585 526.025 27.6202" fill="black"/>
<path d="M433.875 157.193C405.991 120.259 413.802 68.0009 451.309 40.4714C458.535 35.1744 466.341 31.1651 474.429 28.4384C475.372 28.1098 476.326 27.8077 477.288 27.5268C479.85 26.7557 482.437 26.1118 485.039 25.5898C491.057 24.3867 497.162 23.8488 503.228 23.9495C509.293 24.0449 515.337 24.7816 521.231 26.1436C523.104 26.5755 524.178 27.0585 526.025 27.6202" stroke="black" stroke-width="2" stroke-linecap="round" stroke-linejoin="round"/>
<path d="M438.645 160.638C410.76 123.704 418.572 71.4457 456.078 43.9163C463.305 38.6192 471.111 34.6099 479.199 31.8832C480.142 31.5546 481.096 31.2525 482.058 30.9717C484.62 30.2006 487.206 29.5566 489.809 29.0346C495.826 27.8316 501.932 27.2936 507.997 27.3943C514.063 27.4897 520.107 28.2264 526 29.5884C527.874 30.0204 531.581 31.075 531.581 31.075" fill="white"/>
<path d="M438.645 160.638C410.76 123.704 418.572 71.4457 456.078 43.9163C463.305 38.6192 471.111 34.6099 479.199 31.8832C480.142 31.5546 481.096 31.2525 482.058 30.9717C484.62 30.2006 487.206 29.5566 489.809 29.0346C495.826 27.8316 501.932 27.2936 507.997 27.3943C514.063 27.4897 520.107 28.2264 526 29.5884C527.874 30.0204 531.581 31.075 531.581 31.075" stroke="black" stroke-width="2" stroke-linecap="round" stroke-linejoin="round"/>
<path d="M567.9 146.217C527.771 190.875 456.42 182.809 439.008 126.338C427.16 87.9173 456.198 46.7728 494.385 37.8692C522.177 31.3903 552.168 37.0425 574.104 76.7905C574.104 76.7905 581.054 95.8669 578.839 110.195C576.624 124.523 572.018 138.093 572.018 138.093L567.9 146.217Z" fill="#5555FF"/>
<path d="M567.9 146.217C527.771 190.875 456.42 182.809 439.008 126.338C427.16 87.9173 456.198 46.7728 494.385 37.8692C522.177 31.3903 552.168 37.0425 574.104 76.7905C574.104 76.7905 581.054 95.8669 578.839 110.195C576.624 124.523 572.018 138.093 572.018 138.093L567.9 146.217" stroke="black" stroke-width="2" stroke-linecap="round" stroke-linejoin="round"/>
<path d="M439.008 126.338C456.42 182.806 527.771 190.873 567.897 146.22L568.732 144.571C517.953 166.518 457.47 147.796 438.785 91.0229C435.587 102.364 435.354 114.48 439.008 126.338Z" fill="black"/>
<path d="M439.008 126.338C456.42 182.806 527.77 190.873 567.897 146.22L568.732 144.571C517.953 166.518 457.47 147.796 438.785 91.0229C435.587 102.364 435.354 114.48 439.008 126.338" stroke="black" stroke-width="2" stroke-linecap="round" stroke-linejoin="round"/>
<path d="M401.645 131.449C404.541 147.651 416.672 159.533 428.748 157.99C440.823 156.445 448.264 142.062 445.37 125.861C445.354 125.757 445.331 125.651 445.309 125.551C442.32 109.508 430.255 97.788 418.267 99.3223C408.94 100.515 402.376 109.371 401.208 120.805C400.866 124.173 400.99 127.766 401.647 131.449H401.645Z" fill="white" stroke="black" stroke-width="2" stroke-linecap="round" stroke-linejoin="round"/>
<path d="M400.232 133.715C402.646 146.914 412.001 156.726 421.129 155.632C430.258 154.535 435.704 142.95 433.29 129.751C430.878 116.552 421.521 106.739 412.393 107.834C403.264 108.931 397.821 120.516 400.232 133.715Z" fill="black" stroke="black" stroke-width="2" stroke-linecap="round" stroke-linejoin="round"/>
<path d="M458.511 113.783C458.36 113.783 458.212 113.777 458.06 113.772C451.82 113.491 447.04 107.452 447.382 100.284C447.715 93.2912 452.806 87.806 458.85 87.806C458.999 87.806 459.15 87.8113 459.301 87.8166C465.541 88.0975 470.321 94.1365 469.98 101.304C469.646 108.297 464.555 113.783 458.511 113.783Z" fill="white"/>
<path d="M441.833 227.213C441.833 227.213 392.574 217.461 389.392 181.222C387.532 160.017 404.183 140.888 416.791 130.495C430.356 118.685 442.201 113.377 448.28 118.083C448.28 118.083 458.061 113.772 464.693 117.85C471.721 122.169 475.377 133.182 470.502 143.557C467.279 150.414 457.931 163.544 443.682 174.963C447.62 177.557 455.252 180.525 462.197 182.361C467.799 199.667 459.801 218.458 443.446 226.423L441.83 227.21L441.833 227.213Z" fill="white" stroke="black" stroke-width="2" stroke-linecap="round" stroke-linejoin="round"/>
<path d="M425.313 189.762C425.313 189.762 436.326 180.951 443.682 174.963L425.313 189.762Z" fill="white"/>
<path d="M425.313 189.762C425.313 189.762 436.326 180.951 443.682 174.963" stroke="black" stroke-width="2" stroke-linecap="round" stroke-linejoin="round"/>
<path d="M642.123 386.382H632.607V19.7759H642.123V386.382Z" fill="#B3BAC5" stroke="black" stroke-width="2" stroke-linecap="round" stroke-linejoin="round"/>
<path d="M647.457 11.4156C647.457 16.9883 642.939 21.5063 637.366 21.5063C631.794 21.5063 627.276 16.9883 627.276 11.4156C627.276 5.84297 631.794 1.32495 637.366 1.32495C642.939 1.32495 647.457 5.84297 647.457 11.4156Z" fill="#B3BAC5" stroke="black" stroke-width="2" stroke-linecap="round" stroke-linejoin="round"/>
<path d="M632.607 19.776C632.607 19.776 641.328 17.5978 651.419 21.7952C663.701 26.9041 670.378 33.9554 688.681 32.7497C704.975 31.6765 718.529 29.2652 741.151 34.6232C753.213 37.4797 771.288 47.4326 771.288 47.4326L767.894 132.846C767.894 132.846 756.682 134.611 741.477 127.922C730.912 123.274 719.422 116.594 696.652 121.981C678.071 126.375 660.179 119.599 651.098 117.437C642.014 115.275 632.61 116.573 632.61 116.573C632.61 116.573 630.63 110.987 632.61 107.995C632.61 107.995 641.903 106.019 648.443 106.776C648.443 106.776 649.105 87.6815 648.899 72.8237C648.697 58.3925 648.61 32.5987 648.61 32.5987C648.61 32.5987 645.125 28.5364 632.607 29.9859C632.607 29.9859 630.734 23.4513 632.607 19.776Z" fill="white" stroke="black" stroke-width="2" stroke-linecap="round" stroke-linejoin="round"/>
<path d="M616 389.579C616 389.579 621.325 385.135 627.931 384.011C633.025 383.145 636.498 385.272 636.498 385.272C636.498 385.272 640.263 382.009 647.468 383.304C653.174 384.327 659 390 659 390" fill="#AFAFFF"/>
<path d="M616 389.579C616 389.579 621.325 385.135 627.931 384.011C633.025 383.145 636.498 385.272 636.498 385.272C636.498 385.272 640.263 382.009 647.468 383.304C653.174 384.327 659 390 659 390" stroke="black" stroke-width="2" stroke-linecap="round" stroke-linejoin="round"/>
<path d="M539.512 269.112H513.859L495.879 268.797L493.492 268.005C493.497 268.238 493.502 268.487 493.502 268.755L430.915 267.66C431.072 274.428 430.947 294.191 430.947 315.228C430.942 341.607 431.135 369.99 432.328 377.256C433.499 384.408 449.806 387.373 467.987 387.373C481.247 387.373 484.97 384.23 485.871 380.216C487.999 370.732 482.927 365.671 482.927 365.671L486.297 298.894C486.297 298.894 486.298 298.894 486.303 298.889C487.991 296.52 491.727 297.879 491.502 300.781C489.037 332.463 485.296 375.443 488.404 381.419C490.455 385.365 497.186 386.326 516.005 386.377C530.484 386.417 534.79 385.298 537.159 379.72C537.978 377.781 538.24 375.95 538.036 374.24C537.549 370.046 534.3 366.572 529.777 363.972C530.958 359.555 532.437 328.97 535.696 301.7C536.478 295.158 539.512 269.11 539.512 269.11V269.112Z" fill="white" stroke="black" stroke-width="2" stroke-linecap="round" stroke-linejoin="round"/>
<path d="M711.38 66.4427H734.299V87.2389L711.38 66.4427Z" fill="#5555FF"/>
<path d="M722.855 69.8161L705.634 89.0972L713.255 95.9038L730.476 76.6227L722.855 69.8161Z" fill="#5555FF"/>
<path d="M700.293 96.0312C691.906 96.0312 690.146 92.7506 690.146 89.9974V67.7703H698.205V86.3883C698.205 89.1839 700.651 89.1839 701.824 89.1839H716.78V96.0312H700.295H700.293Z" fill="black"/>
<path d="M696.877 69.0926V86.3856C696.877 88.3068 697.791 89.2979 698.56 89.7907C699.543 90.4214 700.709 90.5088 701.822 90.5088H715.453V94.7062H700.293C697.171 94.7062 694.723 94.1948 693.212 93.225C692.007 92.4512 691.469 91.4548 691.469 89.9948V69.0926H696.877ZM699.527 66.4427H688.819V89.9948C688.819 94.7407 692.892 97.3534 700.29 97.3534H718.1V87.8563H701.819C699.996 87.8563 699.524 87.5542 699.524 86.3856V66.4427H699.527Z" fill="black"/>
<path d="M690.147 62.7965V62.3726C690.147 59.6193 691.906 56.3388 700.293 56.3388H724.126L728.636 62.7992H690.144L690.147 62.7965Z" fill="black"/>
<path d="M723.437 57.6637L726.098 61.4743H691.551C691.742 60.4859 692.275 59.7492 693.215 59.145C694.726 58.1752 697.174 57.6637 700.296 57.6637H723.437ZM724.818 55.0139H700.293C692.895 55.0139 688.822 57.6266 688.822 62.3726V64.1215H731.18L724.818 55.0112V55.0139Z" fill="black"/>
<path d="M721.749 87.0375C721.781 86.8361 721.796 86.6215 721.796 86.3856V77.4211H716.332L710.969 70.5262H729.855V89.9948C729.855 94.2875 725.716 95.6363 721.749 95.9464V87.0375Z" fill="black"/>
<path d="M728.53 71.8511V89.9947C728.53 91.4045 728.032 92.3717 726.911 93.1348C725.991 93.7602 724.688 94.208 723.074 94.4598V87.1355C723.106 86.8997 723.121 86.6506 723.121 86.3856V76.0962H716.982L713.68 71.8511H728.53ZM731.18 69.2012H708.261L715.689 78.7461H720.474V86.3856C720.474 86.5897 720.458 86.7646 720.427 86.9182V97.3402C727.364 97.1732 731.182 94.5843 731.182 89.9974V69.2039L731.18 69.2012Z" fill="black"/>
<path d="M636 385C636 385 634.745 386.335 634 388Z" fill="#F7D35F"/>
<path d="M636 385C636 385 634.745 386.335 634 388" stroke="black" stroke-width="2" stroke-linecap="round" stroke-linejoin="round"/>
<path d="M536.396 288.708L486.761 289.861C480.886 289.999 475.963 285.303 475.825 279.42L475.213 253.009C475.094 247.861 478.679 243.449 483.523 242.338C484.209 242.177 484.922 242.089 485.654 242.071L535.283 240.918C541.166 240.78 546.089 245.476 546.219 251.356L546.709 272.276L546.839 277.77C546.977 283.652 542.273 288.568 536.399 288.706" fill="white"/>
<path d="M536.396 288.708L486.761 289.861C480.886 289.999 475.963 285.303 475.825 279.42L475.213 253.009C475.094 247.861 478.679 243.449 483.523 242.338C484.209 242.177 484.922 242.089 485.654 242.071L535.283 240.918C541.166 240.78 546.089 245.476 546.219 251.356L546.709 272.276L546.839 277.77C546.977 283.652 542.273 288.568 536.399 288.706" stroke="black" stroke-width="2" stroke-linecap="round" stroke-linejoin="round"/>
<path d="M486.759 289.864C482.453 289.959 478.663 287.471 476.893 283.806C476.244 282.478 475.865 280.997 475.833 279.423L475.555 267.69L475.465 263.815L475.311 257.016L475.218 253.009C475.083 247.127 479.779 242.208 485.654 242.071L496.38 241.827C491.459 242.874 487.797 247.32 487.914 252.516L488.094 260.357L488.248 266.786L488.526 278.944C488.666 284.813 493.654 289.516 499.526 289.384L486.764 289.861L486.759 289.864Z" fill="black" stroke="black" stroke-width="2" stroke-linecap="round" stroke-linejoin="round"/>
<path d="M507.793 265.488C507.809 266.465 506.574 274.375 506.574 274.375C506.574 274.375 504.076 274.418 501.01 274.473C497.178 274.539 494.001 270.628 493.916 265.731C493.831 260.837 496.868 256.814 500.7 256.748C503.286 256.703 506.264 256.65 506.264 256.65C506.264 256.65 507.767 263.898 507.793 265.49" fill="#00CA20"/>
<path d="M507.793 265.488C507.809 266.465 506.574 274.375 506.574 274.375C506.574 274.375 504.076 274.418 501.01 274.473C497.178 274.539 494.001 270.628 493.916 265.731C493.831 260.837 496.868 256.814 500.7 256.748C503.286 256.703 506.264 256.65 506.264 256.65C506.264 256.65 507.767 263.898 507.793 265.49" stroke="black" stroke-width="2" stroke-linecap="round" stroke-linejoin="round"/>
<path d="M513.358 265.392C513.443 270.286 510.406 274.309 506.574 274.375C502.743 274.441 499.565 270.528 499.481 265.633C499.396 260.739 502.433 256.716 506.264 256.65C510.099 256.584 513.273 260.495 513.358 265.392" fill="#00CA20"/>
<path d="M513.358 265.392C513.443 270.286 510.406 274.309 506.574 274.375C502.743 274.441 499.565 270.528 499.481 265.633C499.396 260.739 502.433 256.716 506.264 256.65C510.099 256.584 513.273 260.495 513.358 265.392" stroke="black" stroke-width="2" stroke-linecap="round" stroke-linejoin="round"/>
<path d="M475.301 256.767C475.301 256.767 484.313 256.846 484.716 264.87C485.118 272.894 475.717 274.476 475.717 274.476C475.717 274.476 448.593 278.08 430.809 271.087C422.701 262.71 431.414 254.069 431.414 254.069C431.414 254.069 456.659 258.174 475.303 256.764L475.301 256.767Z" fill="white" stroke="black" stroke-width="2" stroke-linecap="round" stroke-linejoin="round"/>
<path d="M475.714 274.479C475.714 274.479 448.593 278.08 430.809 271.087C427.497 267.666 426.988 264.2 427.547 261.298C428.085 262.382 428.859 263.482 429.916 264.576C447.705 271.566 474.826 267.965 474.826 267.965C474.826 267.965 482.127 266.733 483.589 260.959C484.215 261.987 484.636 263.272 484.716 264.87C485.121 272.894 475.714 274.479 475.714 274.479V274.479Z" fill="black" stroke="black" stroke-width="2" stroke-linecap="round" stroke-linejoin="round"/>
<path d="M534.35 51.6565C534.35 51.6565 560.95 66.0214 568.732 94.0093" stroke="white" stroke-width="6" stroke-linecap="round" stroke-linejoin="round"/>
<path d="M390.383 168.521C390.383 168.521 399.814 206.496 452.867 219.833C452.867 219.833 447.776 224.852 441.833 227.215C441.833 227.215 380.833 213.635 390.386 168.524L390.383 168.521Z" fill="black" stroke="black" stroke-width="2" stroke-linecap="round" stroke-linejoin="round"/>
<path d="M487.739 301.404L487.23 368.594C487.23 368.594 482.845 387.808 500.856 385.942L521.111 386.382C521.111 386.382 498.217 382.508 497.093 373.753C495.97 364.998 491.507 300.784 491.507 300.784C491.507 300.784 490.36 295.64 486.308 298.892C486.308 298.892 488.216 298.913 487.742 301.401L487.739 301.404Z" fill="black" stroke="black" stroke-width="2" stroke-linecap="round" stroke-linejoin="round"/>
</g>
<defs>
<clipPath id="clip0_150_61">
<rect width="1115" height="1113" fill="white" transform="translate(-113 371.903) rotate(-7.62266)"/>
</clipPath>
<clipPath id="clip1_150_61">
<rect width="384.692" height="400.204" fill="white" transform="translate(387.924)"/>
</clipPath>
</defs>
</svg>
