<svg width="1660" height="730" viewBox="0 0 1660 730" fill="none" xmlns="http://www.w3.org/2000/svg">
<g clip-path="url(#clip0_1862_15063)">
<path opacity="0.48" d="M665.044 730C678.875 730 690.088 718.802 690.088 704.988C690.088 691.175 678.875 679.976 665.044 679.976C651.213 679.976 640 691.175 640 704.988C640 718.802 651.213 730 665.044 730Z" fill="white"/>
<path opacity="0.75" d="M962.001 463L669.64 686.31C668.166 685.961 666.643 685.737 665.045 685.737C654.408 685.737 645.769 694.365 645.769 704.988C645.769 715.611 654.408 724.24 665.045 724.24C675.682 724.24 684.321 715.611 684.321 704.988C684.321 704.739 684.296 704.514 684.296 704.265L962.001 463Z" fill="url(#paint0_linear_1862_15063)"/>
<path opacity="0.66" d="M665.045 717.981C672.229 717.981 678.054 712.164 678.054 704.988C678.054 697.813 672.229 691.996 665.045 691.996C657.86 691.996 652.036 697.813 652.036 704.988C652.036 712.164 657.86 717.981 665.045 717.981Z" fill="white"/>
<path d="M665.043 714.165C670.118 714.165 674.231 710.056 674.231 704.988C674.231 699.92 670.118 695.811 665.043 695.811C659.968 695.811 655.854 699.92 655.854 704.988C655.854 710.056 659.968 714.165 665.043 714.165Z" fill="white"/>
</g>
<g clip-path="url(#clip1_1862_15063)">
<path opacity="0.48" d="M1428.03 174.07C1433.57 174.07 1438.06 169.579 1438.06 164.04C1438.06 158.501 1433.57 154.01 1428.03 154.01C1422.49 154.01 1418 158.501 1418 164.04C1418 169.579 1422.49 174.07 1428.03 174.07Z" fill="white"/>
<path opacity="0.75" d="M1506 96L1429.27 158.401C1428.88 158.304 1428.48 158.241 1428.06 158.241C1425.27 158.241 1423 160.652 1423 163.62C1423 166.589 1425.27 169 1428.06 169C1430.85 169 1433.12 166.589 1433.12 163.62C1433.12 163.551 1433.11 163.488 1433.11 163.418L1506 96Z" fill="url(#paint1_linear_1862_15063)"/>
<path opacity="0.66" d="M1428.03 169.25C1430.91 169.25 1433.24 166.917 1433.24 164.04C1433.24 161.163 1430.91 158.83 1428.03 158.83C1425.15 158.83 1422.82 161.163 1422.82 164.04C1422.82 166.917 1425.15 169.25 1428.03 169.25Z" fill="white"/>
<path d="M1428.03 167.72C1430.06 167.72 1431.71 166.072 1431.71 164.04C1431.71 162.007 1430.06 160.36 1428.03 160.36C1426 160.36 1424.35 162.007 1424.35 164.04C1424.35 166.072 1426 167.72 1428.03 167.72Z" fill="white"/>
</g>
<g clip-path="url(#clip2_1862_15063)">
<path opacity="0.48" d="M455.03 184.07C460.569 184.07 465.06 179.579 465.06 174.04C465.06 168.501 460.569 164.01 455.03 164.01C449.491 164.01 445 168.501 445 174.04C445 179.579 449.491 184.07 455.03 184.07Z" fill="white"/>
<path opacity="0.75" d="M533 106L456.265 168.401C455.878 168.304 455.479 168.241 455.059 168.241C452.268 168.241 450 170.652 450 173.62C450 176.589 452.268 179 455.059 179C457.851 179 460.119 176.589 460.119 173.62C460.119 173.551 460.112 173.488 460.112 173.418L533 106Z" fill="url(#paint2_linear_1862_15063)"/>
<path opacity="0.66" d="M455.03 179.25C457.908 179.25 460.24 176.917 460.24 174.04C460.24 171.163 457.908 168.83 455.03 168.83C452.153 168.83 449.82 171.163 449.82 174.04C449.82 176.917 452.153 179.25 455.03 179.25Z" fill="white"/>
<path d="M455.03 177.72C457.062 177.72 458.71 176.072 458.71 174.04C458.71 172.007 457.062 170.36 455.03 170.36C452.997 170.36 451.35 172.007 451.35 174.04C451.35 176.072 452.997 177.72 455.03 177.72Z" fill="white"/>
</g>
<g clip-path="url(#clip3_1862_15063)">
<path opacity="0.48" d="M734.333 174C743.353 174 750.666 166.702 750.666 157.7C750.666 148.698 743.353 141.4 734.333 141.4C725.313 141.4 718 148.698 718 157.7C718 166.702 725.313 174 734.333 174Z" fill="white"/>
<path opacity="0.48" d="M928.001 0L737.33 145.528C736.369 145.301 735.376 145.154 734.334 145.154C727.397 145.154 721.763 150.777 721.763 157.7C721.763 164.623 727.397 170.246 734.334 170.246C741.271 170.246 746.905 164.623 746.905 157.7C746.905 157.538 746.889 157.391 746.889 157.229L928.001 0Z" fill="#FFF91D"/>
<path opacity="0.66" d="M734.333 166.167C739.019 166.167 742.817 162.376 742.817 157.7C742.817 153.024 739.019 149.234 734.333 149.234C729.648 149.234 725.849 153.024 725.849 157.7C725.849 162.376 729.648 166.167 734.333 166.167Z" fill="white"/>
<path d="M734.332 163.68C737.642 163.68 740.325 161.003 740.325 157.7C740.325 154.397 737.642 151.72 734.332 151.72C731.023 151.72 728.34 154.397 728.34 157.7C728.34 161.003 731.023 163.68 734.332 163.68Z" fill="white"/>
</g>
<g clip-path="url(#clip4_1862_15063)">
<path opacity="0.48" d="M8.49908 147.433C11.2233 147.433 13.4318 145.224 13.4318 142.5C13.4318 139.776 11.2233 137.567 8.49908 137.567C5.77484 137.567 3.56641 139.776 3.56641 142.5C3.56641 145.224 5.77484 147.433 8.49908 147.433Z" fill="white"/>
<path d="M8.4994 144.638C9.68023 144.638 10.6375 143.681 10.6375 142.5C10.6375 141.319 9.68023 140.362 8.4994 140.362C7.31858 140.362 6.36133 141.319 6.36133 142.5C6.36133 143.681 7.31858 144.638 8.4994 144.638Z" fill="white"/>
<path opacity="0.48" d="M12.108 143.232L17 142.5L12.108 141.768C11.8175 140.321 10.6787 139.183 9.23206 138.892L8.5 134L7.76794 138.892C6.32126 139.183 5.1825 140.321 4.892 141.768L0 142.5L4.892 143.232C5.1825 144.679 6.32126 145.817 7.76794 146.108L8.5 151L9.23206 146.108C10.6787 145.817 11.8175 144.679 12.108 143.232Z" fill="white"/>
</g>
<g clip-path="url(#clip5_1862_15063)">
<path opacity="0.48" d="M1174.5 79.4327C1177.22 79.4327 1179.43 77.2243 1179.43 74.5001C1179.43 71.7758 1177.22 69.5674 1174.5 69.5674C1171.77 69.5674 1169.57 71.7758 1169.57 74.5001C1169.57 77.2243 1171.77 79.4327 1174.5 79.4327Z" fill="white"/>
<path d="M1174.5 76.638C1175.68 76.638 1176.64 75.6807 1176.64 74.4999C1176.64 73.3191 1175.68 72.3618 1174.5 72.3618C1173.32 72.3618 1172.36 73.3191 1172.36 74.4999C1172.36 75.6807 1173.32 76.638 1174.5 76.638Z" fill="white"/>
<path opacity="0.48" d="M1178.11 75.2321L1183 74.5L1178.11 73.7679C1177.82 72.3213 1176.68 71.1825 1175.23 70.892L1174.5 66L1173.77 70.892C1172.32 71.1825 1171.18 72.3213 1170.89 73.7679L1166 74.5L1170.89 75.2321C1171.18 76.6787 1172.32 77.8175 1173.77 78.108L1174.5 83L1175.23 78.108C1176.68 77.8175 1177.82 76.6787 1178.11 75.2321Z" fill="white"/>
</g>
<g clip-path="url(#clip6_1862_15063)">
<path opacity="0.48" d="M1258.5 155.433C1261.22 155.433 1263.43 153.224 1263.43 150.5C1263.43 147.776 1261.22 145.567 1258.5 145.567C1255.77 145.567 1253.57 147.776 1253.57 150.5C1253.57 153.224 1255.77 155.433 1258.5 155.433Z" fill="white"/>
<path d="M1258.5 152.638C1259.68 152.638 1260.64 151.681 1260.64 150.5C1260.64 149.319 1259.68 148.362 1258.5 148.362C1257.32 148.362 1256.36 149.319 1256.36 150.5C1256.36 151.681 1257.32 152.638 1258.5 152.638Z" fill="white"/>
<path opacity="0.48" d="M1262.11 151.232L1267 150.5L1262.11 149.768C1261.82 148.321 1260.68 147.183 1259.23 146.892L1258.5 142L1257.77 146.892C1256.32 147.183 1255.18 148.321 1254.89 149.768L1250 150.5L1254.89 151.232C1255.18 152.679 1256.32 153.817 1257.77 154.108L1258.5 159L1259.23 154.108C1260.68 153.817 1261.82 152.679 1262.11 151.232Z" fill="white"/>
</g>
<g clip-path="url(#clip7_1862_15063)">
<path opacity="0.48" d="M1651.5 391.433C1654.22 391.433 1656.43 389.224 1656.43 386.5C1656.43 383.776 1654.22 381.567 1651.5 381.567C1648.77 381.567 1646.57 383.776 1646.57 386.5C1646.57 389.224 1648.77 391.433 1651.5 391.433Z" fill="white"/>
<path d="M1651.5 388.638C1652.68 388.638 1653.64 387.681 1653.64 386.5C1653.64 385.319 1652.68 384.362 1651.5 384.362C1650.32 384.362 1649.36 385.319 1649.36 386.5C1649.36 387.681 1650.32 388.638 1651.5 388.638Z" fill="white"/>
<path opacity="0.48" d="M1655.11 387.232L1660 386.5L1655.11 385.768C1654.82 384.321 1653.68 383.183 1652.23 382.892L1651.5 378L1650.77 382.892C1649.32 383.183 1648.18 384.321 1647.89 385.768L1643 386.5L1647.89 387.232C1648.18 388.679 1649.32 389.817 1650.77 390.108L1651.5 395L1652.23 390.108C1653.68 389.817 1654.82 388.679 1655.11 387.232Z" fill="white"/>
</g>
<g clip-path="url(#clip8_1862_15063)">
<path opacity="0.48" d="M78.4991 365.433C81.2233 365.433 83.4318 363.224 83.4318 360.5C83.4318 357.776 81.2233 355.567 78.4991 355.567C75.7748 355.567 73.5664 357.776 73.5664 360.5C73.5664 363.224 75.7748 365.433 78.4991 365.433Z" fill="white"/>
<path d="M78.4994 362.638C79.6802 362.638 80.6375 361.681 80.6375 360.5C80.6375 359.319 79.6802 358.362 78.4994 358.362C77.3186 358.362 76.3613 359.319 76.3613 360.5C76.3613 361.681 77.3186 362.638 78.4994 362.638Z" fill="white"/>
<path opacity="0.48" d="M82.108 361.232L87 360.5L82.108 359.768C81.8175 358.321 80.6787 357.183 79.2321 356.892L78.5 352L77.7679 356.892C76.3213 357.183 75.1825 358.321 74.892 359.768L70 360.5L74.892 361.232C75.1825 362.679 76.3213 363.817 77.7679 364.108L78.5 369L79.2321 364.108C80.6787 363.817 81.8175 362.679 82.108 361.232Z" fill="white"/>
</g>
<g clip-path="url(#clip9_1862_15063)">
<path opacity="0.3" d="M178.499 138.126C184.368 138.126 189.126 133.369 189.126 127.5C189.126 121.631 184.368 116.874 178.499 116.874C172.631 116.874 167.873 121.631 167.873 127.5C167.873 133.369 172.631 138.126 178.499 138.126Z" fill="white"/>
<path d="M178.5 131.399C180.654 131.399 182.399 129.653 182.399 127.5C182.399 125.347 180.654 123.601 178.5 123.601C176.347 123.601 174.602 125.347 174.602 127.5C174.602 129.653 176.347 131.399 178.5 131.399Z" fill="white"/>
<path d="M176.551 125.01L178.5 112L180.449 125.01H176.551Z" fill="white"/>
<path d="M176.01 129.449L163 127.5L176.01 125.551V129.449Z" fill="white"/>
<path d="M180.449 129.99L178.5 143L176.551 129.99H180.449Z" fill="white"/>
<path d="M180.99 125.551L194 127.5L180.99 129.45V125.551Z" fill="white"/>
<path opacity="0.48" d="M178.499 132.956C181.513 132.956 183.955 130.514 183.955 127.5C183.955 124.487 181.513 122.044 178.499 122.044C175.486 122.044 173.043 124.487 173.043 127.5C173.043 130.514 175.486 132.956 178.499 132.956Z" fill="white"/>
</g>
<defs>
<linearGradient id="paint0_linear_1862_15063" x1="828.967" y1="582.348" x2="573.495" y2="773.954" gradientUnits="userSpaceOnUse">
<stop stop-color="white"/>
<stop offset="0.32" stop-color="#B1EBDE"/>
</linearGradient>
<linearGradient id="paint1_linear_1862_15063" x1="1471.08" y1="129.35" x2="1401.06" y2="178.677" gradientUnits="userSpaceOnUse">
<stop stop-color="white"/>
<stop offset="0.32" stop-color="#B1EBDE"/>
</linearGradient>
<linearGradient id="paint2_linear_1862_15063" x1="498.083" y1="139.35" x2="428.062" y2="188.677" gradientUnits="userSpaceOnUse">
<stop stop-color="white"/>
<stop offset="0.32" stop-color="#B1EBDE"/>
</linearGradient>
<clipPath id="clip0_1862_15063">
<rect width="322" height="267" fill="white" transform="translate(640 463)"/>
</clipPath>
<clipPath id="clip1_1862_15063">
<rect width="128.96" height="107.07" fill="white" transform="translate(1418 67)"/>
</clipPath>
<clipPath id="clip2_1862_15063">
<rect width="128.96" height="107.07" fill="white" transform="translate(445 77)"/>
</clipPath>
<clipPath id="clip3_1862_15063">
<rect width="210" height="174" fill="white" transform="translate(718)"/>
</clipPath>
<clipPath id="clip4_1862_15063">
<rect width="17" height="17" fill="white" transform="translate(0 134)"/>
</clipPath>
<clipPath id="clip5_1862_15063">
<rect width="17" height="17" fill="white" transform="translate(1166 66)"/>
</clipPath>
<clipPath id="clip6_1862_15063">
<rect width="17" height="17" fill="white" transform="translate(1250 142)"/>
</clipPath>
<clipPath id="clip7_1862_15063">
<rect width="17" height="17" fill="white" transform="translate(1643 378)"/>
</clipPath>
<clipPath id="clip8_1862_15063">
<rect width="17" height="17" fill="white" transform="translate(70 352)"/>
</clipPath>
<clipPath id="clip9_1862_15063">
<rect width="31" height="31" fill="white" transform="translate(163 112)"/>
</clipPath>
</defs>
</svg>
