<svg width="1306" height="1306" viewBox="0 0 1306 1306" fill="none" xmlns="http://www.w3.org/2000/svg">
<g clip-path="url(#clip0_3359_19118)">
<path d="M322.093 110.323L304.885 108.093C290.435 104.697 266.299 118.743 257.984 123.961C246.607 131.081 204.524 165.541 195.511 191.194C195.511 191.194 189.865 206.927 195.066 214.179L201.449 229.315C201.449 229.315 208.972 240.72 231.202 232.762C253.432 224.804 315.613 173.971 327.102 143.109C336.635 117.481 322.08 110.336 322.08 110.336L322.093 110.323Z" fill="#30366C"/>
<path d="M1083.56 189.635L1082.23 177.251C1082.02 166.667 1069.86 151.472 1065.44 146.288C1059.42 139.189 1032.24 113.956 1015.49 110.871C1015.49 110.871 1005.2 108.889 1001.65 113.466L993.577 119.871C993.577 119.871 987.912 126.597 996.123 141.214C1004.33 155.831 1044.44 193.122 1064.7 197.303C1081.52 200.763 1083.55 189.635 1083.55 189.635L1083.56 189.635Z" fill="#30366C"/>
<path opacity="0.3" d="M1083.56 189.635L1082.23 177.251C1082.02 166.667 1069.86 151.472 1065.44 146.288C1059.42 139.189 1032.24 113.956 1015.49 110.871C1015.49 110.871 1005.2 108.889 1001.65 113.466L993.577 119.871C993.577 119.871 987.912 126.597 996.123 141.214C1004.33 155.831 1044.44 193.122 1064.7 197.303C1081.52 200.763 1083.55 189.635 1083.55 189.635L1083.56 189.635Z" fill="black"/>
<path d="M1075.7 1126.44C1337.35 892.816 1360.06 491.338 1126.43 229.707C892.821 -31.9382 491.33 -54.6492 229.699 178.976C-31.946 412.588 -54.657 814.079 178.968 1075.71C412.593 1337.34 814.071 1360.07 1075.7 1126.44Z" fill="#30366C"/>
<g opacity="0.2">
<path d="M926.513 1052.15C932.819 1046.52 933.365 1036.85 927.737 1030.56C922.108 1024.25 912.437 1023.71 906.144 1029.34C899.839 1034.96 899.293 1044.64 904.921 1050.93C910.549 1057.23 920.221 1057.78 926.513 1052.15Z" fill="black"/>
</g>
<path opacity="0.3" d="M690.502 576.695C696.372 583.279 702.778 589.095 709.567 594.213C708.017 592.634 706.406 591.173 704.905 589.489C656.596 535.388 660.158 459.361 714.259 411.053C764.347 366.322 839.786 361.451 889.052 403.883C888.327 403.021 887.704 402.117 886.954 401.268C838.511 347.015 755.262 342.306 701.021 390.749C646.768 439.192 642.059 522.428 690.502 576.682L690.502 576.695Z" fill="black"/>
<g opacity="0.1">
<path d="M886.963 597.023C941.064 548.714 948.741 469.029 900.432 414.915C852.123 360.813 768.373 362.751 714.271 411.06C660.17 459.369 656.608 535.395 704.917 589.497C753.226 643.598 832.861 645.332 886.976 597.023L886.963 597.023Z" fill="black"/>
</g>
<path opacity="0.3" d="M459.479 1027.11C447.607 1048.47 450.658 1077.15 466.736 1095.54L469.668 1111.66C473.64 1130.16 494.105 1139.3 512.333 1144.59C505.23 1139.37 498.814 1132.31 491.939 1122.25L479.727 1100.14C472.224 1076.52 469.877 1059.05 481.749 1037.69C492.757 1017.87 514.634 1005.69 537.057 1002.3C559.481 998.918 582.41 1003.39 603.935 1010.51C610.55 1012.69 617.058 1015.19 623.493 1017.86C610.043 1010.79 596.101 1004.69 581.677 999.917C560.152 992.799 537.21 988.33 514.8 991.711C492.389 995.092 470.499 1007.27 459.492 1027.1L459.479 1027.11Z" fill="black"/>
<g opacity="0.1">
<path d="M622.611 1165.24C593.328 1169.29 563.548 1163.51 535.116 1155.36C516.759 1150.1 505.259 1141.76 491.94 1122.27L479.729 1100.18C472.238 1076.56 469.892 1059.09 481.751 1037.73C492.759 1017.91 514.636 1005.74 537.059 1002.34C559.483 998.959 582.412 1003.43 603.936 1010.53C628.146 1018.54 651.23 1029.91 672.334 1044.23C684.11 1052.23 692.647 1060.44 697.809 1073.7C703.503 1088.33 697.052 1101.74 689.259 1115.38C674.6 1141.06 651.895 1161.18 622.611 1165.24Z" fill="black"/>
</g>
<path opacity="0.3" d="M530.274 221.551C536.161 199.659 552.93 181.64 573.507 172.133C594.084 162.625 617.361 160.517 640.019 161.334C655.194 161.881 670.304 163.845 685.185 166.879C678.259 166.1 671.312 165.53 664.361 165.271C641.703 164.454 618.439 166.561 597.849 176.069C577.272 185.577 559.654 203.386 554.616 225.487C549.186 249.313 556.323 265.44 570.113 286.014L588.019 303.824C597.438 311.567 605.56 316.557 613.848 319.594C594.874 319.608 559.277 308.227 540.492 275.736C540.492 275.736 524.034 244.751 530.287 221.538L530.274 221.551Z" fill="black"/>
<g opacity="0.1">
<path d="M725.482 308.615C698.488 320.691 668.286 323.447 638.71 323.564C619.62 323.634 606.247 318.844 588.006 303.847L570.101 286.036C556.31 265.45 549.173 249.336 554.603 225.51C559.641 203.408 577.246 185.6 597.836 176.092C618.413 166.584 641.69 164.464 664.348 165.294C689.826 166.213 715.169 170.692 739.427 178.551C752.97 182.934 763.456 188.441 772.119 199.748C781.672 212.212 779.216 226.896 775.556 242.158C768.655 270.905 752.464 296.565 725.483 308.641L725.482 308.615Z" fill="black"/>
</g>
<path opacity="0.3" d="M821.15 965.376C812.909 951.992 813.241 934.721 820.417 919.438C827.606 904.155 840.357 890.934 854.336 879.419C863.697 871.706 873.767 864.687 884.282 858.304C879.727 861.573 875.28 864.956 870.979 868.49C857.013 880.005 844.25 893.226 837.061 908.509C829.871 923.793 828.926 941.406 837.793 954.447C847.351 968.494 860.269 972.336 879.559 974.754L899.816 973.717C909.604 972.404 917.129 970.479 923.705 967.556C912.383 977.53 885.009 990.876 856.342 985.478C856.342 985.478 829.881 979.563 821.137 965.363L821.15 965.376Z" fill="black"/>
<g opacity="0.1">
<path d="M984.488 903.768C974.858 923.624 958.299 940.793 940.696 956.382C929.337 966.448 918.776 971.223 899.82 973.754L879.564 974.79C860.274 972.36 847.356 968.531 837.798 954.484C828.931 941.443 829.889 923.829 837.065 908.546C844.255 893.263 857.005 880.042 870.984 868.527C886.688 855.574 904.232 844.361 922.94 835.308C933.388 830.251 942.599 827.331 953.847 828.093C966.24 828.939 972.674 837.116 978.679 846.227C989.998 863.366 994.119 883.925 984.488 903.781L984.488 903.768Z" fill="black"/>
</g>
<path opacity="0.3" d="M983.541 1127.29C983.841 1119.98 975.491 1116.09 962.603 1116.11C949.716 1116.14 933.34 1119.48 916.81 1123.82C905.73 1126.73 894.405 1130.16 883.025 1133.97C888.187 1132.44 893.325 1131 898.401 1129.66C914.944 1125.31 931.307 1121.99 944.195 1121.96C957.082 1121.94 966.102 1125.6 965.132 1133.15C964.089 1141.27 955.589 1148.7 941.342 1159.02L924.698 1169C916.288 1173.64 909.374 1176.98 902.764 1179.61C916.465 1176.24 944.55 1165.56 964.887 1149.82C964.887 1149.82 983.227 1135.06 983.541 1127.31L983.541 1127.29Z" fill="black"/>
<g opacity="0.1">
<path d="M824.407 1195.26C841.391 1195.07 862.646 1190.75 883.98 1185.54C897.76 1182.17 908.414 1177.96 924.71 1168.99L941.354 1159.01C955.6 1148.69 964.114 1141.28 965.144 1133.14C966.113 1125.6 957.094 1121.93 944.206 1121.95C931.319 1121.99 914.943 1125.32 898.413 1129.65C879.821 1134.54 860.579 1140.75 841.42 1148.06C830.724 1152.15 821.996 1156.11 813.387 1161.97C803.887 1168.43 802.604 1173.6 802.075 1178.78C801.077 1188.53 807.423 1195.45 824.407 1195.26Z" fill="black"/>
</g>
<path opacity="0.3" d="M232.807 1055.68C236.008 1047.2 246.472 1044.54 259.713 1047.4C272.954 1050.26 288.179 1057.67 303.1 1066.3C313.101 1072.08 323.08 1078.51 332.956 1085.38C328.384 1082.49 323.801 1079.69 319.21 1077.05C304.289 1068.42 289.064 1061.01 275.823 1058.15C262.582 1055.29 251.562 1057.54 248.917 1066.43C246.085 1076.02 251.257 1086.43 260.958 1101.42L273.272 1116.56C279.704 1123.74 285.202 1129.1 290.727 1133.58C278.255 1126.7 254.505 1108.25 241.164 1085.68C241.164 1085.68 229.399 1064.67 232.793 1055.67L232.807 1055.68Z" fill="black"/>
<g opacity="0.1">
<path d="M363.796 1168.78C346.424 1164.84 326.646 1155.22 307.215 1144.54C294.666 1137.65 285.729 1130.46 273.281 1116.57L260.967 1101.44C251.266 1086.45 246.094 1076.04 248.926 1066.45C251.558 1057.55 262.591 1055.3 275.832 1058.16C289.073 1061.02 304.298 1068.43 319.22 1077.06C336.001 1086.75 352.791 1098.13 368.979 1110.73C378.016 1117.77 385.077 1124.26 391.12 1132.87C397.786 1142.38 396.624 1148.62 394.68 1154.7C391.03 1166.14 381.169 1172.71 363.796 1168.78Z" fill="black"/>
</g>
<path opacity="0.3" d="M255.954 936.885C254.428 948.142 255.302 957.566 260.765 963.512C266.397 969.96 272.908 976.267 280.739 979.201C276.723 976.237 273.114 972.51 269.828 968.748C264.808 963.282 263.993 954.622 265.416 944.264C266.79 933.128 272.394 922.393 281.367 915.651C290.341 908.91 302.696 906.564 313.226 910.421C320.478 913.086 326.279 918.608 330.064 925.341C326.956 914.059 318.928 904.096 307.965 900.069C296.503 895.874 283.077 898.432 273.315 905.754C263.553 913.076 257.457 924.759 255.967 936.872L255.954 936.885Z" fill="black"/>
<g opacity="0.2">
<path d="M312.602 979.783C306.679 983.298 299.748 985.621 292.933 984.632C283.472 983.262 276.115 975.954 269.826 968.759C264.805 963.293 263.991 954.633 265.413 944.275C266.787 933.139 272.404 922.404 281.365 915.663C290.338 908.921 302.693 906.575 313.224 910.433C326.77 915.399 335.494 930.236 334.822 944.661C334.163 959.086 325.011 972.413 312.602 979.783Z" fill="black"/>
</g>
<path opacity="0.3" d="M1124.44 742.545C1122.91 753.802 1123.79 763.226 1129.25 769.172C1134.88 775.62 1141.39 781.927 1149.22 784.861C1145.21 781.898 1141.6 778.17 1138.31 774.408C1133.29 768.942 1132.48 760.282 1133.9 749.924C1135.27 738.788 1140.88 728.053 1149.85 721.311C1158.83 714.57 1171.18 712.224 1181.71 716.081C1188.96 718.746 1194.76 724.268 1198.55 731.001C1195.44 719.719 1187.41 709.756 1176.45 705.729C1164.99 701.535 1151.56 704.092 1141.8 711.414C1132.04 718.736 1125.94 730.42 1124.45 742.532L1124.44 742.545Z" fill="black"/>
<g opacity="0.2">
<path d="M1181.08 785.432C1175.16 788.947 1168.23 791.27 1161.41 790.28C1151.95 788.911 1144.59 781.603 1138.3 774.407C1133.28 768.942 1132.47 760.282 1133.89 749.923C1135.26 738.788 1140.88 728.052 1149.84 721.311C1158.81 714.569 1171.17 712.224 1181.7 716.081C1195.25 721.048 1203.97 735.884 1203.3 750.309C1202.64 764.734 1193.49 778.061 1181.08 785.432Z" fill="black"/>
</g>
<path opacity="0.3" d="M207.82 909.744C207.056 915.372 207.5 920.084 210.218 923.057C213.034 926.275 216.29 929.441 220.199 930.902C218.185 929.427 216.393 927.556 214.744 925.669C212.24 922.936 211.833 918.612 212.531 913.427C213.218 907.853 216.026 902.491 220.513 899.121C225 895.75 231.171 894.577 236.443 896.506C240.075 897.831 242.969 900.605 244.855 903.966C243.295 898.325 239.287 893.337 233.805 891.336C228.075 889.239 221.362 890.518 216.48 894.172C211.6 897.84 208.558 903.675 207.806 909.731L207.82 909.744Z" fill="black"/>
<g opacity="0.2">
<path d="M236.151 931.19C233.189 932.947 229.717 934.109 226.316 933.608C221.585 932.923 217.9 929.263 214.762 925.665C212.258 922.932 211.851 918.595 212.549 913.423C213.237 907.862 216.045 902.487 220.532 899.117C225.018 895.746 231.189 894.573 236.461 896.502C243.241 898.985 247.59 906.403 247.26 913.616C246.931 920.828 242.355 927.498 236.15 931.177L236.151 931.19Z" fill="black"/>
</g>
<path opacity="0.3" d="M141.222 677.449C139.684 688.771 140.573 698.233 146.049 704.206C151.708 710.679 158.246 717.024 166.117 719.982C162.074 717.007 158.452 713.254 155.152 709.466C150.105 703.975 149.289 695.263 150.71 684.866C152.096 673.678 157.725 662.89 166.749 656.121C175.761 649.353 188.181 646.992 198.764 650.874C206.055 653.55 211.883 659.11 215.681 665.869C212.559 654.523 204.49 644.509 193.461 640.471C181.947 636.252 168.444 638.825 158.644 646.174C148.844 653.535 142.71 665.272 141.196 677.45L141.222 677.449Z" fill="black"/>
<g opacity="0.1">
<path d="M198.154 720.557C192.205 724.086 185.237 726.423 178.382 725.422C168.881 724.04 161.471 716.695 155.155 709.461C150.108 703.97 149.292 695.259 150.713 684.861C152.099 673.674 157.727 662.886 166.752 656.117C175.764 649.348 188.183 646.988 198.766 650.869C212.379 655.86 221.143 670.773 220.473 685.264C219.803 699.754 210.614 713.16 198.141 720.558L198.154 720.557Z" fill="black"/>
</g>
<path opacity="0.3" d="M437.132 880.849C435.982 889.344 436.649 896.45 440.759 900.942C445.01 905.807 449.92 910.562 455.823 912.784C452.788 910.546 450.074 907.728 447.593 904.891C443.804 900.766 443.193 894.229 444.258 886.425C445.294 878.024 449.531 869.923 456.293 864.84C463.055 859.757 472.376 857.99 480.336 860.894C485.805 862.908 490.179 867.068 493.034 872.153C490.692 863.64 484.627 856.114 476.353 853.089C467.711 849.918 457.576 851.851 450.204 857.38C442.845 862.908 438.238 871.72 437.106 880.85L437.132 880.849Z" fill="black"/>
<g opacity="0.1">
<path d="M479.867 913.207C475.399 915.863 470.166 917.606 465.031 916.855C457.903 915.823 452.336 910.307 447.601 904.872C443.812 900.748 443.2 894.21 444.266 886.406C445.302 878.006 449.539 869.905 456.301 864.822C463.063 859.739 472.384 857.971 480.344 860.875C490.573 864.624 497.143 875.822 496.644 886.7C496.145 897.577 489.237 907.635 479.88 913.193L479.867 913.207Z" fill="black"/>
</g>
<path opacity="0.3" d="M1028.91 998.931C1027.76 1007.43 1028.42 1014.53 1032.53 1019.02C1036.78 1023.89 1041.69 1028.64 1047.6 1030.87C1044.56 1028.63 1041.85 1025.81 1039.37 1022.97C1035.58 1018.85 1034.97 1012.31 1036.03 1004.51C1037.07 996.106 1041.3 988.005 1048.07 982.922C1054.83 977.839 1064.15 976.072 1072.11 978.976C1077.58 980.99 1081.95 985.15 1084.81 990.235C1082.47 981.722 1076.4 974.196 1068.13 971.171C1059.48 968 1049.35 969.933 1041.98 975.462C1034.62 980.99 1030.01 989.802 1028.88 998.932L1028.91 998.931Z" fill="black"/>
<g opacity="0.1">
<path d="M1071.65 1031.31C1067.18 1033.97 1061.95 1035.71 1056.81 1034.96C1049.68 1033.93 1044.12 1028.41 1039.38 1022.98C1035.59 1018.85 1034.98 1012.32 1036.05 1004.51C1037.08 996.111 1041.32 988.01 1048.08 982.927C1054.84 977.844 1064.17 976.077 1072.13 978.981C1082.35 982.73 1088.92 993.928 1088.43 1004.81C1087.93 1015.68 1081.02 1025.74 1071.66 1031.3L1071.65 1031.31Z" fill="black"/>
</g>
<path opacity="0.3" d="M492.91 382.121C491.372 393.443 492.261 402.905 497.737 408.877C503.396 415.351 509.934 421.695 517.804 424.654C513.762 421.679 510.139 417.926 506.84 414.138C501.793 408.647 500.977 399.935 502.398 389.538C503.784 378.35 509.412 367.562 518.437 360.793C527.449 354.025 539.868 351.664 550.451 355.546C557.743 358.222 563.57 363.769 567.369 370.541C564.246 359.195 556.178 349.181 545.149 345.143C533.635 340.924 520.131 343.497 510.331 350.845C500.531 358.207 494.397 369.944 492.896 382.108L492.91 382.121Z" fill="black"/>
<g opacity="0.2">
<path d="M549.842 425.229C543.893 428.758 536.924 431.095 530.069 430.094C520.569 428.712 513.159 421.367 506.843 414.133C501.795 408.642 500.98 399.93 502.401 389.533C503.786 378.345 509.415 367.558 518.44 360.789C527.451 354.02 539.871 351.659 550.454 355.541C564.066 360.532 572.831 375.445 572.16 389.935C571.49 404.426 562.302 417.831 549.829 425.229L549.842 425.229Z" fill="black"/>
</g>
<path opacity="0.3" d="M632.524 35.0973C632.524 35.0973 618.003 34.7396 602.838 37.7614C592.649 39.112 584.522 43.208 581.551 46.4714C578.793 49.495 581.491 52.1838 586.975 53.8337C592.46 55.4837 600.449 56.2067 608.83 56.5293C614.443 56.748 620.323 56.7774 626.342 56.6602C623.667 56.6316 621.044 56.5755 618.471 56.479C610.091 56.1564 602.102 55.4334 596.617 53.7835C591.133 52.1335 588.448 49.4444 591.193 46.4211C594.164 43.1578 600.091 41.1612 609.341 38.7079L619.512 36.6959C624.524 35.8542 628.507 35.34 632.135 35.1083" fill="black"/>
<g opacity="0.1">
<path d="M670.278 38.6677C663.002 36.5489 652.632 35.6073 641.947 35.0379C635.045 34.6607 629.215 35.0452 619.501 36.6809L609.33 38.6929C600.067 41.1595 594.153 43.1557 591.181 46.4061C588.424 49.4297 591.121 52.1185 596.593 53.7688C602.077 55.4187 610.067 56.1417 618.447 56.4644C627.867 56.8227 637.975 56.7204 648.38 56.1425C654.199 55.8232 659.129 55.2954 664.608 53.9604C670.653 52.4926 672.804 50.4983 674.64 48.409C678.099 44.4701 677.553 40.7605 670.278 38.6547L670.278 38.6677Z" fill="black"/>
</g>
<path opacity="0.3" d="M1215.02 554.698C1215.02 554.698 1211.87 530.53 1201.95 506.408C1196.61 489.984 1186.44 477.862 1179.3 474.026C1172.67 470.461 1168.14 475.819 1166.38 485.447C1164.63 495.075 1165.33 508.553 1166.93 522.538C1168 531.905 1169.5 541.649 1171.34 551.578C1170.68 547.144 1170.09 542.761 1169.61 538.466C1168.01 524.481 1167.29 511.016 1169.06 501.375C1170.82 491.747 1175.35 486.389 1181.98 489.954C1189.12 493.789 1194.6 502.941 1201.86 517.456L1208.49 533.636C1211.47 541.664 1213.52 548.083 1214.95 554.012" fill="black"/>
<g opacity="0.1">
<path d="M1218.11 618.445C1220.3 605.69 1219.38 588.207 1217.65 570.306C1216.55 558.747 1214.26 549.207 1208.47 533.665L1201.84 517.485C1194.58 502.958 1189.1 493.819 1181.96 489.983C1175.33 486.418 1170.8 491.776 1169.05 501.404C1167.29 511.032 1167.99 524.51 1169.59 538.495C1171.39 554.214 1174.3 570.927 1178.19 587.976C1180.36 597.506 1182.7 605.513 1186.76 614.134C1191.23 623.652 1195.69 626.563 1200.25 628.914C1208.85 633.332 1215.92 631.199 1218.11 618.445Z" fill="black"/>
</g>
<path opacity="0.3" d="M889.717 126.399C889.717 126.399 875.043 119.193 857.881 115.795C846.722 112.682 836.177 113.861 831.383 116.435C826.933 118.819 828.241 123.337 832.963 127.89C837.686 132.443 845.486 137.052 853.887 141.345C859.523 144.224 865.519 147.002 871.746 149.656C869.024 148.383 866.365 147.082 863.784 145.766C855.383 141.472 847.583 136.863 842.861 132.31C838.138 127.758 836.83 123.239 841.28 120.856C846.075 118.294 853.21 118.625 864.02 119.957L875.519 122.256C881.11 123.565 885.454 124.806 889.296 126.204" fill="black"/>
<g opacity="0.1">
<path d="M926.48 148.322C920.16 142.374 910.051 136.402 899.417 130.718C892.552 127.043 886.376 124.789 875.545 122.251L864.046 119.952C853.236 118.621 846.101 118.289 841.306 120.851C836.856 123.234 838.164 127.753 842.887 132.306C847.622 136.858 855.409 141.468 863.81 145.761C873.265 150.596 883.673 155.171 894.64 159.327C900.766 161.647 906.109 163.314 912.443 164.252C919.416 165.289 922.698 163.873 925.702 162.206C931.362 159.048 932.799 154.297 926.48 148.348L926.48 148.322Z" fill="black"/>
</g>
<path opacity="0.3" d="M146.342 410.452C146.342 410.452 137.077 423.925 131.219 440.404C126.52 450.997 126.156 461.598 128 466.712C129.704 471.453 134.371 470.816 139.567 466.802C144.762 462.789 150.444 455.737 155.913 448.056C159.584 442.904 163.192 437.364 166.729 431.593C165.073 434.093 163.402 436.541 161.717 438.911C156.248 446.606 150.567 453.644 145.371 457.658C140.175 461.671 135.521 462.308 133.804 457.567C131.96 452.454 133.334 445.432 136.218 434.929L140.165 423.877C142.273 418.536 144.13 414.421 146.066 410.81" fill="black"/>
<g opacity="0.1">
<path d="M173.368 377.27C166.563 382.653 159.188 391.79 152.023 401.491C147.397 407.747 144.263 413.546 140.18 423.888L136.234 434.94C133.349 445.443 131.975 452.452 133.82 457.578C135.523 462.32 140.191 461.695 145.386 457.669C150.582 453.655 156.263 446.604 161.732 438.922C167.888 430.274 173.925 420.643 179.62 410.385C182.808 404.663 185.223 399.611 187.075 393.485C189.118 386.73 188.19 383.291 186.971 380.068C184.659 374.007 180.174 371.9 173.368 377.283L173.368 377.27Z" fill="black"/>
</g>
<path opacity="0.3" d="M257.683 225.811L261.681 245.232C261.681 245.232 267.899 260.502 296.088 256.309C324.277 252.117 409.851 206.558 430.706 172.733C448.021 144.627 432.463 132.747 432.463 132.747L412.403 125.991L257.657 225.824L257.683 225.811Z" fill="black"/>
<path d="M263.608 198.7C263.608 198.7 248.481 223.889 262.547 230.71C276.613 237.531 289.189 242.109 319.33 230.243C349.47 218.364 422.495 176.065 422.51 142.878C422.525 109.677 368.516 128.041 353.376 133.801C338.236 139.561 280.31 170.456 263.608 198.7Z" fill="#30366C"/>
<path opacity="0.3" d="M355.436 157.332C361.741 154.935 378.954 149.014 389.465 151.716C383.5 139.437 356.361 148.688 348.078 151.841C338.755 155.386 303.079 174.416 292.795 191.812C292.795 191.812 283.484 207.323 292.142 211.519C293.524 212.194 294.891 212.817 296.283 213.388C294.19 207.269 300.166 197.315 300.166 197.315C310.45 179.92 346.126 160.89 355.449 157.344L355.436 157.332Z" fill="black"/>
<path opacity="0.12" d="M327.113 211.209C345.676 203.899 390.642 177.846 390.652 157.404C390.653 155.12 390.224 153.25 389.466 151.701C378.955 148.998 361.743 154.92 355.438 157.316C346.115 160.862 310.438 179.892 300.154 197.287C300.154 197.287 294.191 207.241 296.271 213.36C303.545 216.323 311.516 217.345 327.1 211.209L327.113 211.209Z" fill="black"/>
<path opacity="0.3" d="M850.888 220.914L830.44 232.716C830.44 232.716 814.35 244.381 818.751 264.297C823.153 284.226 871.072 330.006 906.688 330.978C936.276 331.782 948.793 314.415 948.793 314.415L955.93 295.875L850.901 220.914L850.888 220.914Z" fill="black"/>
<path d="M879.423 213.35C879.423 213.35 852.908 212.94 845.72 226.873C838.532 240.807 833.698 252.598 846.183 270.599C858.668 288.587 903.163 326.131 938.125 311.261C973.088 296.392 953.78 262.839 947.722 253.716C941.665 244.593 909.178 213.617 879.436 213.362L879.423 213.35Z" fill="#30366C"/>
<path opacity="0.3" d="M922.95 265.821C925.471 269.618 931.702 280.28 928.849 289.627C941.791 279.503 932.063 262.657 928.743 257.663C925.016 252.044 904.999 232.969 886.694 232.809C886.694 232.809 870.372 232.554 865.941 241.14C865.227 242.51 864.564 243.853 863.978 245.18C870.423 240.82 880.901 240.967 880.901 240.967C899.218 241.114 919.223 260.189 922.963 265.82L922.95 265.821Z" fill="black"/>
<path opacity="0.12" d="M866.221 268.062C873.904 279.138 901.317 302.262 922.838 293.104C925.249 292.076 927.215 290.904 928.853 289.625C931.705 280.278 925.474 269.616 922.954 265.819C919.227 260.2 899.209 241.125 880.892 240.965C880.892 240.965 870.401 240.819 863.969 245.179C860.842 252.145 859.769 258.756 866.221 268.062Z" fill="black"/>
<path opacity="0.3" d="M933.932 88.1727L925.585 93.1705C925.585 93.1705 919.199 98.2559 922.719 108.034C926.238 117.812 951.424 141.609 967.617 143.295C981.063 144.695 985.395 136.734 985.395 136.734L987.201 128.014L933.932 88.1597L933.932 88.1727Z" fill="black"/>
<path d="M946.272 85.4825C946.272 85.4825 934.248 84.3667 932.056 90.8659C929.863 97.365 928.578 102.891 935.609 112.012C942.641 121.147 965.647 140.812 980.326 134.832C995.006 128.851 983.707 111.959 980.255 107.345C976.803 102.73 959.738 86.6357 946.259 85.4829L946.272 85.4825Z" fill="#30366C"/>
<path opacity="0.3" d="M969.976 112.353C971.406 114.273 975.048 119.648 974.472 124.064C979.551 119.612 973.862 111.141 971.974 108.611C969.856 105.764 959.337 95.8577 951.037 95.1564C951.037 95.1564 943.633 94.4689 942.279 98.4655C942.063 99.1075 941.86 99.7233 941.696 100.351C944.277 98.4613 949.04 98.8985 949.04 98.8985C957.34 99.5998 967.859 109.519 969.976 112.353Z" fill="black"/>
<path opacity="0.12" d="M944.474 111.484C948.798 117.112 962.974 129.226 972.007 125.533C973.021 125.115 973.825 124.625 974.458 124.062C975.035 119.646 971.392 114.271 969.963 112.352C967.845 109.504 957.326 99.598 949.026 98.8967C949.026 98.8967 944.264 98.4594 941.682 100.349C940.8 103.606 940.824 106.772 944.448 111.485L944.474 111.484Z" fill="black"/>
<path d="M269.924 190.008C171.139 318.955 126.324 485.672 153.286 651.673C153.286 651.673 186.189 662.775 196.415 691.801C204.836 715.719 183.283 735.114 175.281 741.319C178.046 749.676 180.621 758.131 183.72 766.436C199.618 808.959 219.973 848.446 243.733 884.959C245.847 885.313 306.866 895.495 325.244 924.886C339.198 947.144 339.823 975.105 337.567 996.581C345.493 1003.95 353.464 1011.18 361.766 1018.12C428.958 1074.17 507.747 1114.67 591.96 1137.24C596.004 1132.24 621.051 1103.3 656.7 1102.94C695.752 1102.64 708.897 1153.11 708.897 1153.11L705.687 1156.23C788.443 1162.03 873.62 1150.86 956.431 1120C1018.99 1096.63 1075.22 1063.84 1124.4 1023.96C1058.21 1110.38 967.9 1179.81 858.501 1220.59C547.985 1336.52 201.931 1178.24 85.8396 867.113C-6.95105 618.603 74.9774 348.029 269.924 190.008Z" fill="black" fill-opacity="0.3"/>
</g>
<defs>
<clipPath id="clip0_3359_19118">
<rect width="1270.23" height="1270.23" fill="white" transform="translate(0 35.6758) rotate(-1.60941)"/>
</clipPath>
</defs>
</svg>
