<svg width="654" height="654" viewBox="0 0 654 654" fill="none" xmlns="http://www.w3.org/2000/svg">
<g clip-path="url(#clip0_967_7383)">
<path d="M2.61902 287.458C-19.2015 466.69 108.396 629.701 287.627 651.58C466.858 673.401 629.87 545.804 651.749 366.572C673.628 187.283 545.972 24.2709 366.741 2.45043C187.51 -19.4284 24.4978 108.227 2.61902 287.458Z" fill="#D1D1FF"/>
<g opacity="0.2">
<path d="M261.063 7C181.015 44.5042 117.584 113.738 89.0161 200.587C89.0161 200.587 102.134 214.177 99.8018 230.742C97.8778 244.39 82.6029 248.357 77.1809 249.348C76.423 254.073 75.5485 258.797 74.9655 263.58C71.9921 288.077 71.9338 312.225 74.2659 335.789C75.1987 336.489 102.134 356.67 103.65 375.451C104.816 389.683 98.111 403.331 91.6396 413.13C93.6218 418.671 95.6624 424.154 97.9361 429.578C116.359 473.44 144.286 512.694 179.324 544.657C182.531 543.257 201.887 535.558 219.202 544.307C238.15 553.931 231.854 581.578 231.854 581.578L229.522 582.278C268.059 605.784 312.018 621.707 359.766 627.54C395.855 631.914 431.244 630.164 465 623.224C411.363 648.362 350.322 659.27 287.24 651.57C108.139 629.814 -19.424 466.849 2.43889 287.669C19.8709 144.535 127.262 34.472 261.063 7Z" fill="black"/>
</g>
<g opacity="0.2">
<path d="M85.6878 266.345C85.1621 270.675 88.2581 274.596 92.5808 275.123C96.9035 275.65 100.817 272.548 101.343 268.217C101.869 263.887 98.7728 259.965 94.4501 259.439C90.1274 258.912 86.2136 262.014 85.6878 266.345Z" fill="black"/>
</g>
<path opacity="0.3" d="M338.8 370.401C334.302 369.874 329.804 369.757 325.481 370.108C326.591 370.167 327.76 370.225 328.869 370.343C365.963 374.849 390.439 405.574 385.941 442.737C381.735 477.15 354.221 504.773 320.691 505.066C321.275 505.124 321.801 505.3 322.385 505.358C359.596 509.923 393.418 483.353 397.974 446.073C402.531 408.793 376.01 374.907 338.8 370.343V370.401Z" fill="black"/>
<g opacity="0.1">
<path d="M255.792 429.452C251.294 466.615 275.419 500.15 312.513 504.714C349.606 509.221 381.384 479.959 385.94 442.796C390.438 405.633 365.962 374.907 328.869 370.401C291.775 365.895 260.348 392.348 255.792 429.511V429.452Z" fill="black"/>
</g>
<path opacity="0.3" d="M274.324 117.101C271.687 104.87 260.969 94.8986 248.703 93.2754L242.226 88.058C234.545 82.3189 223.712 85.6812 215 89.7971C219.471 89.3914 224.228 89.9711 230.189 91.4783L242.226 95.8261C252.944 102.377 259.651 108.29 262.287 120.522C264.695 131.826 260.453 143.942 253.059 152.812C245.665 161.681 235.462 167.71 224.916 172.232C221.649 173.623 218.382 174.841 215.057 176C222.509 174.203 229.845 171.826 236.953 168.754C247.499 164.232 257.702 158.203 265.096 149.333C272.49 140.464 276.731 128.406 274.324 117.044V117.101Z" fill="black"/>
<g opacity="0.1">
<path d="M164.878 118.891C174.79 107.373 188.179 99.4807 201.857 92.9328C210.667 88.7234 217.913 88.0218 229.621 91.0619L241.793 95.4467C252.631 102.053 259.413 108.016 262.079 120.352C264.513 131.753 260.224 143.972 252.747 152.917C245.27 161.862 234.953 167.942 224.288 172.502C212.29 177.647 199.597 181.096 186.614 182.733C179.368 183.669 173.341 183.376 166.849 179.985C159.72 176.244 157.691 168.877 156.068 160.926C153.054 145.959 154.967 130.466 164.878 118.891Z" fill="black"/>
</g>
<path opacity="0.3" d="M521.698 453.564C526.838 464.04 526.488 476.798 521.756 487.45C517.025 498.159 508.73 506.88 499.675 514.312C493.6 519.287 487.116 523.676 480.282 527.539C483.202 525.49 486.123 523.325 488.869 521.043C497.923 513.668 506.218 504.89 510.95 494.18C515.681 483.47 516.441 470.595 510.891 460.294C504.874 449.175 496.638 445.37 484.312 442.093L471.344 441.274C465.035 441.449 460.245 442.327 455.981 443.966C463.341 437.47 480.983 429.803 499.325 436.007C499.325 436.007 516.207 442.444 521.698 453.564Z" fill="black"/>
<g opacity="0.1">
<path d="M416.434 486.337C422.801 472.467 433.55 461.113 444.941 450.989C452.301 444.434 459.135 441.742 471.286 441.391L484.254 442.21C496.579 445.487 504.816 449.291 510.833 460.411C516.382 470.711 515.623 483.587 510.891 494.297C506.159 505.007 497.865 513.727 488.81 521.159C478.646 529.47 467.313 536.376 455.222 541.584C448.504 544.511 442.546 545.915 435.36 544.511C427.416 542.93 423.385 536.376 419.588 529.236C412.462 515.717 410.008 500.266 416.376 486.396L416.434 486.337Z" fill="black"/>
</g>
<path opacity="0.3" d="M156.021 264.062C163.79 266.461 169.514 273.25 171.909 281.619C174.305 289.988 173.896 299.469 172.377 308.716C171.384 314.92 169.865 321.065 167.937 327.093C168.58 324.284 169.164 321.416 169.631 318.607C171.15 309.36 171.559 299.879 169.164 291.51C166.769 283.141 161.103 275.942 153.275 273.953C144.805 271.729 138.496 274.655 130.201 280.332L122.724 287.647C119.394 291.51 117.116 294.787 115.539 298.182C116.532 290.456 122.607 275.942 135.517 268.276C135.517 268.276 147.784 261.545 156.021 264.062Z" fill="black"/>
<g opacity="0.1">
<path d="M113.728 343.655C110.69 332.652 111.274 320.362 112.793 308.306C113.786 300.523 116.239 295.08 122.723 287.647L130.201 280.332C138.496 274.713 144.804 271.787 153.275 273.953C161.161 276.001 166.768 283.141 169.163 291.51C171.558 299.879 171.149 309.36 169.631 318.607C167.937 328.965 164.958 339.324 160.81 349.215C158.473 354.716 155.903 358.988 151.288 362.558C146.206 366.48 140.949 365.485 135.516 363.963C125.294 361.154 116.707 354.599 113.669 343.597L113.728 343.655Z" fill="black"/>
</g>
<path opacity="0.3" d="M624.214 362.676C621.177 360.452 617.088 362.91 613.407 368.47C609.727 374.029 606.456 381.989 603.594 390.358C601.666 395.976 599.914 401.77 598.278 407.798C599.096 405.164 599.972 402.531 600.848 399.956C603.71 391.587 606.982 383.627 610.662 378.068C614.342 372.508 618.489 369.699 621.469 372.274C624.681 375.083 625.382 380.818 625.733 389.89L625.266 399.897C624.857 404.813 624.273 408.793 623.513 412.363C626.025 405.516 629.471 390.416 628.537 377.131C628.537 377.131 627.485 365.017 624.214 362.676Z" fill="black"/>
<g opacity="0.1">
<path d="M607.742 450.462C612.532 443.088 616.738 432.729 620.651 422.078C623.163 415.172 624.39 409.437 625.208 399.839L625.675 389.831C625.325 380.76 624.624 374.966 621.411 372.215C618.432 369.64 614.284 372.449 610.604 378.009C606.924 383.569 603.653 391.528 600.79 399.897C597.578 409.261 594.715 419.327 592.379 429.628C591.035 435.422 590.276 440.279 590.334 445.663C590.334 451.574 592.203 453.623 594.306 455.32C598.22 458.539 603.01 457.836 607.742 450.462Z" fill="black"/>
</g>
<path opacity="0.3" d="M353.566 28.0213C355.222 32.0975 352.028 36.3367 345.877 39.5433C339.725 42.6955 331.149 44.8695 322.336 46.4456C316.421 47.5326 310.27 48.3478 304.059 49C306.839 48.6196 309.619 48.1304 312.34 47.6413C321.153 46.0108 329.67 43.8912 335.881 40.739C342.032 37.5867 345.581 33.2932 343.57 29.217C341.381 24.8691 335.762 22.7495 326.772 20.4125L316.717 18.8363C311.748 18.2928 307.726 18.0755 304 18.2385C311.275 16.7711 326.949 15.9015 339.962 19.8146C339.962 19.8146 351.792 23.6734 353.566 27.967V28.0213Z" fill="black"/>
<g opacity="0.1">
<path d="M263.958 28.7625C272.007 24.5898 282.915 21.7524 294.056 19.36C301.23 17.8578 307.122 17.5797 316.688 18.6924L326.604 20.3058C335.47 22.6982 341.011 24.868 343.169 29.3188C345.152 33.4359 341.653 37.8311 335.586 41.1137C329.52 44.3405 321.062 46.566 312.371 48.1794C302.572 50.0154 292.248 51.295 281.69 51.8514C275.799 52.1852 270.899 52.0739 265.591 50.8499C259.758 49.5147 258.125 46.8442 256.783 43.9511C254.333 38.5544 255.908 32.9352 263.958 28.7625Z" fill="black"/>
</g>
<path opacity="0.3" d="M351.884 516.654C351.884 516.654 365.904 517.356 375.834 526.837C383.428 531.46 385.297 542.99 383.545 551.71C381.909 559.845 375.659 566.458 368.24 570.087C360.822 573.715 352.351 574.71 344.115 574.593C338.565 574.534 333.074 573.949 327.642 572.954C330.154 573.188 332.724 573.305 335.236 573.364C343.472 573.481 351.942 572.486 359.361 568.858C366.78 565.229 373.03 558.557 374.666 550.481C376.418 541.761 373.731 535.908 368.532 528.534L361.873 522.214C358.368 519.463 355.389 517.707 352.351 516.654" fill="black"/>
<g opacity="0.1">
<path d="M311.753 521.628C321.508 517.005 332.432 515.717 343.239 515.425C350.19 515.249 355.097 516.888 361.873 522.213L368.532 528.534C373.731 535.908 376.477 541.761 374.666 550.481C373.03 558.616 366.78 565.229 359.361 568.857C351.942 572.486 343.472 573.481 335.236 573.364C325.948 573.247 316.66 571.842 307.781 569.15C302.815 567.687 298.96 565.756 295.689 561.717C292.126 557.27 292.885 551.885 294.053 546.267C296.331 535.733 301.998 526.193 311.753 521.57V521.628Z" fill="black"/>
</g>
<path opacity="0.3" d="M384.597 82.5192C381.384 77.6031 377.82 74.2672 373.673 73.799C369.292 73.2138 364.619 72.9797 360.588 74.5013C363.158 74.2672 365.845 74.5013 368.357 74.8525C372.154 75.2622 375.425 78.3639 378.405 82.8703C381.676 87.6693 383.136 93.7559 381.968 99.4327C380.8 105.11 376.827 110.201 371.395 112.308C367.656 113.771 363.567 113.596 359.77 112.308C364.794 115.644 371.336 116.756 376.944 114.591C382.786 112.308 387.167 106.748 388.452 100.603C389.737 94.4582 388.101 87.8449 384.597 82.6362V82.5192Z" fill="black"/>
<g opacity="0.2">
<path d="M348.087 85.2114C349.197 81.817 351.066 78.5396 354.045 76.6083C358.193 73.9162 363.509 74.2673 368.416 74.9111C372.213 75.3208 375.484 78.4226 378.463 82.929C381.734 87.728 383.195 93.8145 382.026 99.4914C380.858 105.168 376.886 110.26 371.453 112.367C364.502 115.059 356.09 112.25 351.475 106.456C346.802 100.662 345.809 92.3514 348.146 85.2699L348.087 85.2114Z" fill="black"/>
</g>
<path opacity="0.3" d="M412.46 76.6671C410.824 74.2091 409.072 72.5704 407.027 72.3363C404.866 72.0437 402.53 71.9266 400.485 72.6874C401.77 72.5704 403.114 72.6874 404.399 72.863C406.327 73.0386 407.904 74.6187 409.423 76.8427C411.058 79.2422 411.818 82.2854 411.175 85.0946C410.591 87.9038 408.605 90.4789 405.918 91.5323C404.048 92.2346 402.004 92.1761 400.135 91.5323C402.646 93.171 405.918 93.7562 408.722 92.6443C411.642 91.5323 413.804 88.7231 414.446 85.6213C415.089 82.5195 414.271 79.2422 412.519 76.6086L412.46 76.6671Z" fill="black"/>
<g opacity="0.2">
<path d="M394.177 78.0132C394.703 76.316 395.696 74.6773 397.156 73.7409C399.201 72.3948 401.888 72.5704 404.341 72.863C406.269 73.0386 407.846 74.6188 409.365 76.8427C411.001 79.2422 411.76 82.2855 411.117 85.0946C410.533 87.9038 408.547 90.4789 405.86 91.5323C402.414 92.8784 398.208 91.5323 395.871 88.5476C393.535 85.6214 393.067 81.4661 394.177 77.9547V78.0132Z" fill="black"/>
</g>
<path opacity="0.3" d="M517.258 144.087C513.987 139.171 510.423 135.777 506.276 135.367C501.895 134.782 497.163 134.548 493.132 136.069C495.703 135.835 498.39 136.069 500.96 136.42C504.757 136.83 508.087 139.932 511.066 144.438C514.337 149.237 515.797 155.382 514.629 161.059C513.461 166.736 509.43 171.886 503.998 173.993C500.259 175.456 496.112 175.281 492.315 173.993C497.397 177.329 503.939 178.441 509.547 176.275C515.447 173.993 519.77 168.375 521.113 162.171C522.398 155.967 520.763 149.354 517.258 144.087Z" fill="black"/>
<g opacity="0.1">
<path d="M480.573 146.779C481.683 143.385 483.611 140.108 486.59 138.176C490.737 135.484 496.111 135.777 501.018 136.479C504.815 136.889 508.145 139.991 511.124 144.497C514.395 149.296 515.856 155.441 514.687 161.118C513.519 166.795 509.488 171.945 504.056 174.052C497.104 176.744 488.634 173.935 483.961 168.082C479.288 162.23 478.295 153.919 480.631 146.779H480.573Z" fill="black"/>
</g>
<path opacity="0.3" d="M333.483 166.034C331.03 162.347 328.342 159.83 325.246 159.479C321.975 159.011 318.412 158.894 315.374 160.006C317.302 159.83 319.347 160.006 321.274 160.24C324.137 160.532 326.59 162.873 328.868 166.268C331.322 169.896 332.432 174.461 331.555 178.734C330.679 183.006 327.642 186.868 323.611 188.449C320.807 189.561 317.711 189.385 314.849 188.449C318.646 190.965 323.552 191.785 327.817 190.146C332.256 188.449 335.528 184.235 336.462 179.553C337.455 174.871 336.229 169.896 333.541 165.975L333.483 166.034Z" fill="black"/>
<g opacity="0.1">
<path d="M305.912 168.024C306.729 165.449 308.19 162.991 310.41 161.528C313.506 159.479 317.536 159.772 321.216 160.24C324.079 160.533 326.532 162.874 328.81 166.268C331.264 169.897 332.374 174.462 331.497 178.734C330.621 183.006 327.584 186.869 323.553 188.449C318.296 190.497 311.987 188.39 308.482 184.001C304.977 179.612 304.218 173.35 305.97 168.024H305.912Z" fill="black"/>
</g>
<path opacity="0.3" d="M481.507 378.536C478.236 373.62 474.673 370.225 470.525 369.816C466.144 369.23 461.413 368.996 457.382 370.518C459.952 370.284 462.639 370.518 465.21 370.869C469.007 371.279 472.336 374.381 475.315 378.887C478.587 383.686 480.047 389.831 478.879 395.508C477.71 401.185 473.68 406.335 468.247 408.442C464.509 409.905 460.361 409.729 456.564 408.442C461.646 411.778 468.189 412.89 473.797 410.724C479.697 408.442 484.019 402.823 485.363 396.62C486.648 390.416 485.012 383.803 481.507 378.536Z" fill="black"/>
<g opacity="0.2">
<path d="M444.823 381.228C445.932 377.834 447.86 374.556 450.839 372.625C454.987 369.933 460.361 370.226 465.268 370.928C469.065 371.338 472.394 374.439 475.374 378.946C478.645 383.745 480.105 389.89 478.937 395.567C477.769 401.243 473.738 406.394 468.305 408.501C461.354 411.193 452.884 408.383 448.211 402.531C443.537 396.679 442.544 388.368 444.881 381.228H444.823Z" fill="black"/>
</g>
<path opacity="0.3" d="M533.556 562.537C533.556 562.537 543.253 554.577 551.139 543.633C556.863 536.786 559.434 529.061 559.141 524.847C558.908 520.984 555.344 520.458 550.613 522.272C545.94 524.145 540.215 528.124 534.549 532.631C530.752 535.674 526.896 538.951 523.041 542.463C524.793 540.941 526.546 539.537 528.298 538.132C533.965 533.626 539.689 529.646 544.362 527.773C549.036 525.9 552.657 526.427 552.891 530.348C553.183 534.503 550.613 539.42 546.232 546.559L540.974 553.875C538.287 557.386 536.009 560.02 533.789 562.244" fill="black"/>
<g opacity="0.1">
<path d="M506.451 581.323C512.643 578.807 520.003 573.657 527.422 567.98C532.153 564.351 535.717 560.723 540.974 553.934L546.231 546.618C550.612 539.478 553.124 534.562 552.891 530.407C552.657 526.544 549.094 526.018 544.362 527.832C539.689 529.705 533.964 533.684 528.298 538.191C521.931 543.282 515.388 549.076 508.963 555.455C505.399 559.025 502.537 562.244 499.85 566.341C496.871 570.906 496.812 573.657 497.046 576.29C497.455 581.265 500.317 583.781 506.509 581.265L506.451 581.323Z" fill="black"/>
</g>
<path opacity="0.3" d="M414.855 612.985C414.855 612.985 422.974 610.761 430.802 606.254C436.176 603.679 439.856 599.583 440.849 597.008C441.784 594.549 439.74 593.262 436.352 593.086C432.963 592.911 428.407 593.789 423.675 595.018C420.521 595.837 417.25 596.773 413.92 597.885C415.381 597.476 416.899 597.066 418.36 596.656C423.091 595.486 427.648 594.608 431.036 594.725C434.424 594.901 436.468 596.188 435.534 598.646C434.541 601.28 431.678 603.562 427.005 606.723L421.748 609.766C419.119 611.17 417.016 612.165 415.088 612.926" fill="black"/>
<g opacity="0.1">
<path d="M393.125 617.023C397.623 617.198 403.523 616.028 409.598 614.623C413.512 613.687 416.667 612.458 421.749 609.766L427.006 606.722C431.621 603.562 434.542 601.28 435.535 598.646C436.469 596.188 434.425 594.901 431.037 594.725C427.649 594.549 423.092 595.427 418.361 596.656C413.045 598.002 407.496 599.758 401.829 601.923C398.675 603.094 396.046 604.264 393.242 606.079C390.205 608.069 389.387 609.707 388.803 611.404C387.693 614.565 388.803 616.906 393.242 617.023H393.125Z" fill="black"/>
</g>
<path opacity="0.3" d="M606.107 249.431C606.107 249.431 605.114 241.062 601.785 232.634C599.974 226.899 596.527 222.685 594.074 221.339C591.796 220.052 590.218 221.925 589.576 225.26C588.933 228.596 589.108 233.278 589.576 238.136C589.926 241.413 590.394 244.749 590.978 248.202C590.744 246.68 590.569 245.159 590.452 243.637C589.926 238.78 589.751 234.098 590.452 230.762C591.095 227.426 592.672 225.612 594.95 226.841C597.403 228.187 599.273 231.405 601.726 236.439L603.946 242.057C604.939 244.866 605.64 247.09 606.107 249.138" fill="black"/>
<g opacity="0.1">
<path d="M606.924 271.553C607.742 267.164 607.45 261.077 606.924 254.874C606.574 250.894 605.814 247.558 603.887 242.174L601.667 236.555C599.214 231.522 597.344 228.303 594.891 226.957C592.613 225.67 591.035 227.543 590.393 230.879C589.75 234.214 589.926 238.896 590.393 243.754C590.977 249.197 591.912 254.991 593.197 260.902C593.898 264.237 594.716 266.988 596.059 269.973C597.578 273.309 599.097 274.304 600.674 275.123C603.653 276.703 606.107 276.001 606.866 271.553H606.924Z" fill="black"/>
</g>
</g>
<defs>
<clipPath id="clip0_967_7383">
<rect width="654" height="654" fill="white"/>
</clipPath>
</defs>
</svg>
