<svg width="1253" height="1252" viewBox="0 0 1253 1252" fill="none" xmlns="http://www.w3.org/2000/svg">
<g clip-path="url(#clip0_1273_9759)">
<path d="M70.9971 631.991C74.6541 939.256 326.678 1185.43 633.934 1181.88C941.176 1178.23 1187.33 926.19 1183.77 618.912C1180.2 311.535 928.076 65.3728 620.833 69.0239C313.578 72.5765 67.4386 324.713 70.9971 631.991Z" fill="#AFAFFF"/>
<g opacity="0.2">
<path d="M442.117 99.6538C315.469 181.019 224.033 312.171 195.424 465.168C195.424 465.168 220.635 485.136 220.439 513.614C220.274 537.078 195.386 547.221 186.458 550.119C186.245 558.262 185.836 566.431 185.932 574.633C186.445 616.64 191.8 657.399 201.057 696.632C202.79 697.603 252.813 725.571 259.613 756.919C264.795 780.669 256.559 805.214 247.849 823.21C252.446 832.112 257.128 840.902 262.191 849.541C303.194 919.389 359.197 979.316 425.559 1025.33C430.656 1022.25 461.589 1004.88 492.793 1015.73C526.949 1027.69 522.564 1075.77 522.564 1075.77L518.786 1077.47C589.143 1108.43 666.94 1125.37 748.855 1124.42C810.759 1123.65 870.099 1112.7 925.511 1093.37C840.651 1147.9 740.078 1180.1 631.86 1181.35C324.63 1185.1 72.5081 938.942 68.9495 631.664C66.0516 386.209 222.469 176.235 442.117 99.6538Z" fill="black"/>
</g>
<g opacity="0.2">
<path d="M205.984 576.258C206.073 583.659 212.171 589.555 219.572 589.466C226.973 589.377 232.868 583.279 232.779 575.877C232.69 568.476 226.592 562.58 219.191 562.669C211.79 562.758 205.895 568.856 205.984 576.258Z" fill="black"/>
</g>
<path opacity="0.3" d="M655.814 694.177C648.118 694.306 640.514 695.123 633.311 696.688C635.194 696.536 637.175 696.371 639.071 696.318C702.576 695.533 750.725 741.684 751.511 805.193C752.17 864.011 712.036 916.667 655.614 924.719C656.611 924.686 657.537 924.863 658.534 924.829C722.248 924.117 773.248 871.809 772.534 808.09C771.82 744.37 719.515 693.366 655.801 694.079L655.814 694.177Z" fill="black"/>
<g opacity="0.1">
<path d="M529.262 812.196C530.049 875.705 578.239 926.659 641.757 925.973C705.262 925.188 752.211 868.814 751.523 805.291C750.737 741.782 702.588 695.631 639.084 696.416C575.579 697.201 528.588 748.772 529.275 812.294L529.262 812.196Z" fill="black"/>
</g>
<path opacity="0.3" d="M491.392 282.2C484.086 262.04 463.418 247.575 441.989 247.638L429.683 240.268C415.192 232.29 397.357 240.487 383.334 249.477C390.917 247.76 399.217 247.651 409.794 248.841L431.448 253.456C451.339 262.115 464.197 270.612 471.503 290.773C478.204 309.411 473.675 330.955 462.995 347.712C452.316 364.469 436.168 377.048 419.088 387.148C413.795 390.261 408.462 393.078 403.018 395.811C415.403 391.048 427.459 385.327 438.964 378.477C456.044 368.377 472.191 355.798 482.871 339.041C493.551 322.284 498.094 300.838 491.379 282.102L491.392 282.2Z" fill="black"/>
<g opacity="0.1">
<path d="M306.348 310.471C320.582 288.83 341.537 272.502 363.286 258.371C377.296 249.283 389.439 246.455 410.003 248.913L431.657 253.528C451.548 262.187 464.406 270.684 471.712 290.845C478.413 309.483 473.884 331.027 463.204 347.784C452.524 364.541 436.377 377.12 419.297 387.22C400.085 398.607 379.311 407.298 357.635 413.004C345.545 416.225 335.244 417.103 323.459 412.87C310.511 408.191 305.407 396.251 300.86 383.235C292.371 358.725 292.128 332.21 306.348 310.471V310.471Z" fill="black"/>
</g>
<path opacity="0.3" d="M982.654 792.792C993.672 809.25 995.953 830.784 990.379 849.763C984.818 868.84 972.806 885.374 959.225 899.915C950.11 909.65 940.174 918.493 929.53 926.53C933.989 922.427 938.422 918.127 942.534 913.669C956.128 899.227 968.127 882.595 973.687 863.517C979.248 844.44 977.63 822.617 965.963 806.547C953.324 789.204 938.592 784.664 917.09 781.931L895.058 783.477C884.47 785.195 876.598 787.751 869.782 791.468C880.72 778.884 908.714 762.014 941.011 768.311C941.011 768.311 970.901 775.331 982.654 792.792V792.792Z" fill="black"/>
<g opacity="0.1">
<path d="M812.695 871.639C820.3 846.878 835.852 825.362 852.763 805.768C863.688 793.085 874.596 787.017 894.986 783.687L917.018 782.141C938.52 784.874 953.252 789.414 965.891 806.757C977.558 822.827 979.176 844.65 973.615 863.727C968.054 882.805 956.043 899.339 942.462 913.88C927.209 930.146 909.671 944.315 890.473 955.8C879.814 962.236 870.092 965.941 857.672 965.199C843.932 964.333 835.667 954.219 827.663 943.068C812.615 921.94 805.004 896.511 812.609 871.751L812.695 871.639Z" fill="black"/>
</g>
<path opacity="0.3" d="M323.958 556.561C337.587 558.845 348.759 568.971 354.677 582.504C360.595 596.038 362.04 612.074 361.563 627.966C361.286 638.623 360.11 649.299 358.219 659.87C358.67 655.002 359.008 650.047 359.163 645.218C359.641 629.325 358.196 613.29 352.278 599.756C346.359 586.222 335.193 575.394 321.559 573.813C306.789 571.983 296.819 578.326 284.122 589.743L273.172 603.731C268.432 610.977 265.332 617.002 263.439 623.066C263.373 609.851 270.341 584.074 290.364 568.27C290.364 568.27 309.516 554.186 323.958 556.561V556.561Z" fill="black"/>
<g opacity="0.1">
<path d="M270.621 699.945C263.027 682.127 261.245 661.328 261.091 640.711C261.012 627.398 263.92 617.692 273.171 603.731L284.121 589.743C296.831 578.425 306.801 572.081 321.558 573.813C335.304 575.48 346.358 586.222 352.277 599.756C358.195 613.29 359.64 629.326 359.162 645.218C358.64 663.02 355.952 681.112 351.191 698.679C348.493 708.457 345.124 716.221 338.153 723.265C330.474 731.005 321.393 730.517 311.898 729.183C294.044 726.764 278.103 717.677 270.509 699.86L270.621 699.945Z" fill="black"/>
</g>
<path opacity="0.3" d="M1134.91 616.836C1129.29 613.781 1122.95 618.836 1118 629.016C1113.06 639.195 1109.34 653.317 1106.4 668.037C1104.41 677.919 1102.77 688.058 1101.37 698.564C1102.15 693.95 1103.04 689.324 1103.93 684.796C1106.87 670.077 1110.59 655.955 1115.54 645.775C1120.49 635.596 1126.84 629.937 1132.44 633.595C1138.49 637.595 1140.96 647.082 1143.59 662.258L1145.05 679.192C1145.47 687.552 1145.38 694.376 1144.91 700.551C1147.6 688.469 1150.01 662.301 1145.44 640.17C1145.44 640.17 1140.94 620.035 1134.91 616.836V616.836Z" fill="black"/>
<g opacity="0.1">
<path d="M1126.91 768.176C1133.32 754.696 1138.08 736.328 1142.27 717.533C1144.95 705.354 1145.73 695.432 1144.94 679.107L1143.48 662.172C1140.85 646.997 1138.36 637.411 1132.33 633.51C1126.73 629.851 1120.38 635.51 1115.43 645.69C1110.48 655.869 1106.76 669.992 1103.82 684.711C1100.52 701.182 1097.96 718.755 1096.34 736.604C1095.38 746.65 1095.2 754.99 1096.51 764.031C1097.84 773.971 1101.45 776.994 1105.37 779.374C1112.69 783.905 1120.6 781.644 1126.91 768.176V768.176Z" fill="black"/>
</g>
<path opacity="0.3" d="M603.089 116.079C606.832 123.092 602.546 131.479 593.088 138.656C583.617 145.734 569.875 151.58 555.594 156.397C546.016 159.682 535.979 162.528 525.804 165.092C530.337 163.784 534.844 162.279 539.252 160.788C553.52 155.873 567.177 150.138 576.747 143.047C586.217 135.969 591.081 127.404 586.748 120.47C582.053 113.084 572.19 110.497 556.665 108.267L539.554 107.652C531.155 107.774 524.411 108.276 518.25 109.401C529.999 105.123 555.867 100.059 578.466 104.247C578.466 104.247 599.083 108.601 603.076 115.981L603.089 116.079Z" fill="black"/>
<g opacity="0.1">
<path d="M452.987 137.47C465.58 128.271 483.311 120.789 501.541 114.041C513.29 109.764 523.163 107.942 539.566 107.75L556.677 108.365C572.202 110.595 582.065 113.182 586.76 120.569C591.08 127.404 586.216 135.969 576.759 143.145C567.288 150.223 553.545 156.07 539.264 160.886C523.166 166.347 506.05 170.941 488.37 174.309C478.509 176.23 470.217 177.139 460.971 176.173C450.814 175.128 447.427 170.773 444.478 165.958C439.067 156.964 440.394 146.669 452.987 137.47V137.47Z" fill="black"/>
</g>
<path opacity="0.3" d="M710.772 937.173C710.772 937.173 734.548 935.194 753.412 948.898C767.246 954.961 772.989 973.928 772 988.987C771.075 1003.04 762.033 1015.57 750.352 1023.34C738.67 1031.12 724.625 1034.7 710.723 1036.36C701.361 1037.51 691.978 1037.77 682.602 1037.32C686.887 1037.14 691.243 1036.76 695.488 1036.29C709.39 1034.63 723.436 1031.05 735.117 1023.28C746.798 1015.5 755.827 1002.87 756.765 988.922C757.754 973.863 751.91 964.627 741.492 953.399L728.851 944.271C722.327 940.436 716.913 938.155 711.559 937.068" fill="black"/>
<g opacity="0.1">
<path d="M644.283 954.587C659.677 944.613 677.79 939.985 695.93 937.056C707.602 935.193 716.237 936.843 728.851 944.271L741.492 953.399C751.91 964.627 757.853 973.85 756.765 988.923C755.84 1002.97 746.798 1015.5 735.117 1023.28C723.435 1031.05 709.39 1034.63 695.488 1036.29C679.814 1038.19 663.851 1037.92 648.287 1035.4C639.592 1034.06 632.663 1031.68 626.243 1025.63C619.239 1018.95 619.306 1009.72 620.01 1000.01C621.477 981.783 628.876 964.463 644.27 954.489L644.283 954.587Z" fill="black"/>
</g>
<path opacity="0.3" d="M668.176 199.734C661.658 192.192 654.904 187.385 647.811 187.533C640.299 187.537 632.373 188.197 625.925 191.664C630.203 190.691 634.782 190.479 639.093 190.503C645.582 190.336 651.791 194.814 657.824 201.721C664.415 209.054 668.245 218.96 667.554 228.77C666.864 238.58 661.318 248.038 652.64 252.806C646.671 256.109 639.743 256.736 633.056 255.426C642.27 259.904 653.543 260.298 662.503 255.393C671.83 250.237 677.959 239.9 678.741 229.276C679.523 218.653 675.28 207.9 668.203 199.931L668.176 199.734Z" fill="black"/>
<g opacity="0.2">
<path d="M607.276 212.493C608.382 206.535 610.793 200.602 615.378 196.682C621.759 191.22 630.793 190.612 639.205 190.588C645.693 190.421 651.902 194.9 657.936 201.806C664.527 209.139 668.357 219.045 667.666 228.855C666.976 238.665 661.43 248.123 652.752 252.891C641.647 258.985 626.843 256.158 617.765 247.455C608.588 238.765 605.045 225.014 607.388 212.578L607.276 212.493Z" fill="black"/>
</g>
<path opacity="0.3" d="M713.801 183.611C710.492 179.846 707.171 177.486 703.674 177.553C699.967 177.548 696.004 177.878 692.731 179.618C694.87 179.132 697.159 179.026 699.364 179.031C702.651 178.892 705.664 181.194 708.723 184.591C712.018 188.257 713.983 193.204 713.532 198.073C713.18 202.929 710.414 207.707 706.124 210.084C703.133 211.687 699.676 212.049 696.382 211.388C700.982 213.577 706.625 213.824 711.098 211.322C715.768 208.793 718.777 203.582 719.162 198.221C719.546 192.86 717.431 187.533 713.886 183.499L713.801 183.611Z" fill="black"/>
<g opacity="0.2">
<path d="M683.303 189.997C683.806 187.024 685.111 184.044 687.36 182.14C690.501 179.416 695.068 179.105 699.267 179.044C702.554 178.905 705.567 181.207 708.626 184.604C711.921 188.27 713.886 193.217 713.435 198.086C713.083 202.942 710.317 207.72 706.027 210.097C700.524 213.138 693.136 211.822 688.527 207.33C683.932 202.936 682.21 196.054 683.289 189.898L683.303 189.997Z" fill="black"/>
</g>
<path opacity="0.3" d="M905.524 273.36C898.907 265.831 892.139 260.926 885.06 261.172C877.548 261.176 869.524 261.849 863.076 265.317C867.353 264.343 871.933 264.131 876.342 264.142C882.831 263.975 889.138 268.44 895.171 275.347C901.762 282.68 905.606 292.684 904.915 302.494C904.224 312.304 898.593 321.874 889.915 326.642C883.946 329.945 876.92 330.585 870.233 329.276C879.546 333.74 890.818 334.134 899.778 329.229C909.204 324.06 915.222 313.637 916.089 302.902C916.858 292.18 912.614 281.428 905.524 273.36V273.36Z" fill="black"/>
<g opacity="0.1">
<path d="M844.328 286.158C845.434 280.2 847.943 274.254 852.528 270.335C858.909 264.872 868.029 264.153 876.453 264.227C882.942 264.06 889.249 268.526 895.283 275.432C901.874 282.765 905.717 292.769 905.026 302.579C904.336 312.389 898.704 321.959 890.026 326.727C878.922 332.821 864.02 330.007 854.83 321.219C845.64 312.431 842.097 298.679 844.426 286.145L844.328 286.158Z" fill="black"/>
</g>
<path opacity="0.3" d="M600.862 351.701C595.899 346.054 590.806 342.428 585.511 342.536C579.895 342.486 573.866 343.092 568.998 345.647C572.206 344.917 575.69 344.751 578.991 344.711C583.879 344.557 588.539 347.941 593.141 353.135C598.09 358.684 600.988 366.111 600.473 373.493C599.958 380.875 595.71 388.055 589.276 391.621C584.802 394.123 579.547 394.526 574.514 393.597C581.477 396.973 589.928 397.244 596.743 393.527C603.84 389.672 608.403 381.848 608.924 373.764C609.543 365.667 606.357 357.578 600.948 351.59L600.862 351.701Z" fill="black"/>
<g opacity="0.1">
<path d="M554.861 361.264C555.66 356.749 557.567 352.286 560.977 349.325C565.732 345.183 572.588 344.766 578.893 344.724C583.781 344.57 588.441 347.954 593.043 353.148C597.993 358.697 600.89 366.124 600.375 373.506C599.861 380.888 595.613 388.068 589.178 391.634C580.782 396.264 569.68 394.143 562.787 387.552C555.895 380.961 553.206 370.602 554.96 361.251L554.861 361.264Z" fill="black"/>
</g>
<path opacity="0.3" d="M898.061 675.682C891.443 668.152 884.676 663.248 877.597 663.494C870.084 663.497 862.061 664.17 855.613 667.638C859.89 666.665 864.47 666.453 868.879 666.464C875.367 666.297 881.675 670.762 887.708 677.668C894.299 685.001 898.142 695.006 897.452 704.816C896.761 714.626 891.13 724.195 882.452 728.963C876.483 732.266 869.456 732.906 862.77 731.597C872.082 736.061 883.355 736.456 892.315 731.55C901.74 726.382 907.758 715.959 908.626 705.224C909.394 694.502 905.151 683.749 898.061 675.682V675.682Z" fill="black"/>
<g opacity="0.2">
<path d="M836.864 688.48C837.97 682.522 840.48 676.576 845.064 672.656C851.446 667.194 860.565 666.474 868.99 666.549C875.479 666.382 881.786 670.847 887.819 677.754C894.41 685.086 898.253 695.091 897.563 704.901C896.872 714.711 891.241 724.28 882.563 729.048C871.458 735.143 856.556 732.328 847.367 723.54C838.177 714.752 834.633 701.001 836.963 688.467L836.864 688.48Z" fill="black"/>
</g>
<path opacity="0.3" d="M1027.16 973.373C1027.16 973.373 1041.7 957.802 1052.52 937.619C1060.63 924.814 1063.22 911.243 1061.78 904.223C1060.51 897.78 1054.39 897.698 1046.83 901.815C1039.38 906.018 1030.63 914.002 1022.1 922.857C1016.39 928.831 1010.63 935.212 1004.92 941.986C1007.53 939.032 1010.17 936.275 1012.81 933.518C1021.34 924.662 1030.09 916.679 1037.54 912.476C1044.99 908.273 1051.21 908.342 1052.49 914.883C1053.91 921.805 1050.69 930.652 1044.92 943.647L1037.7 957.134C1033.97 963.645 1030.72 968.587 1027.48 972.828" fill="black"/>
<g opacity="0.1">
<path d="M985.721 1011.08C995.586 1005.45 1006.83 995.128 1018.05 983.908C1025.2 976.74 1030.39 969.834 1037.72 957.233L1044.93 943.745C1050.7 930.75 1053.83 921.917 1052.5 914.982C1051.23 908.539 1045.11 908.457 1037.55 912.574C1030.1 916.777 1021.35 924.76 1012.82 933.616C1003.24 943.614 993.52 954.833 984.131 967.009C978.931 973.816 974.833 979.874 971.229 987.369C967.237 995.717 967.758 1000.36 968.744 1004.73C970.552 1013.01 975.941 1016.59 985.806 1010.96L985.721 1011.08Z" fill="black"/>
</g>
<path opacity="0.3" d="M838.537 1084.97C838.537 1084.97 851.716 1079.4 863.888 1070.06C872.363 1064.52 877.641 1056.8 878.734 1052.24C879.755 1047.9 876.021 1046.19 870.274 1046.66C864.527 1047.13 857.048 1049.63 849.353 1052.77C844.224 1054.86 838.924 1057.17 833.564 1059.79C835.932 1058.77 838.399 1057.74 840.767 1056.72C848.475 1053.69 855.953 1051.18 861.687 1050.62C867.435 1050.15 871.169 1051.85 870.147 1056.2C869.067 1060.85 864.759 1065.33 857.597 1071.7L849.425 1078C845.313 1080.96 841.994 1083.11 838.918 1084.82" fill="black"/>
<g opacity="0.1">
<path d="M802.839 1096.66C810.456 1095.94 820.132 1092.64 830.051 1088.91C836.433 1086.45 841.471 1083.68 849.427 1078L857.599 1071.7C864.662 1065.35 869.069 1060.85 870.149 1056.2C871.17 1051.85 867.436 1050.15 861.689 1050.62C855.942 1051.08 848.463 1053.59 840.769 1056.72C832.116 1060.18 823.162 1064.39 814.104 1069.31C809.053 1071.99 804.888 1074.55 800.573 1078.23C795.903 1082.26 794.894 1085.2 794.292 1088.19C793.134 1093.75 795.53 1097.44 803.036 1096.63L802.839 1096.66Z" fill="black"/>
</g>
<path opacity="0.3" d="M1078.91 430.48C1078.91 430.48 1075.36 416.63 1067.85 403.209C1063.51 393.972 1056.76 387.663 1052.32 385.952C1048.19 384.301 1045.96 387.806 1045.62 393.561C1045.29 399.315 1046.64 407.149 1048.52 415.212C1049.85 420.645 1051.39 426.149 1053.15 431.824C1052.41 429.318 1051.78 426.799 1051.24 424.266C1049.26 416.216 1047.91 408.382 1048.34 402.614C1048.67 396.86 1050.92 393.453 1055.03 395.006C1059.47 396.717 1063.34 401.708 1068.61 409.619L1073.61 418.567C1075.92 423.067 1077.6 426.649 1078.85 429.988" fill="black"/>
<g opacity="0.1">
<path d="M1085.27 467.497C1085.66 459.932 1083.8 449.762 1081.52 439.448C1080.03 432.835 1078 427.396 1073.54 418.777L1068.54 409.829C1063.27 401.918 1059.4 396.927 1054.96 395.216C1050.83 393.565 1048.6 397.07 1048.27 402.824C1047.93 408.579 1049.28 416.413 1051.16 424.476C1053.37 433.497 1056.25 443.03 1059.75 452.68C1061.68 458.132 1063.67 462.573 1066.61 467.29C1069.92 472.557 1072.7 473.888 1075.54 474.91C1080.92 476.896 1084.89 475.162 1085.17 467.511L1085.27 467.497Z" fill="black"/>
</g>
</g>
<defs>
<clipPath id="clip0_1273_9759">
<rect width="1115" height="1113" fill="white" transform="translate(0 147.903) rotate(-7.62266)"/>
</clipPath>
</defs>
</svg>
