<svg width="31" height="31" viewBox="0 0 31 31" fill="none" xmlns="http://www.w3.org/2000/svg">
<g clip-path="url(#clip0_3187_37067)">
<path opacity="0.3" d="M15.5015 26.1279C21.3703 26.1279 26.1279 21.3703 26.1279 15.5015C26.1279 9.63263 21.3703 4.875 15.5015 4.875C9.63263 4.875 4.875 9.63263 4.875 15.5015C4.875 21.3703 9.63263 26.1279 15.5015 26.1279Z" fill="white"/>
<path d="M15.5004 19.3992C17.6537 19.3992 19.3992 17.6537 19.3992 15.5004C19.3992 13.3471 17.6537 11.6016 15.5004 11.6016C13.3471 11.6016 11.6016 13.3471 11.6016 15.5004C11.6016 17.6537 13.3471 19.3992 15.5004 19.3992Z" fill="white"/>
<path d="M13.5469 13.0103L15.4963 0L17.4457 13.0103H13.5469Z" fill="white"/>
<path d="M13.0103 17.4494L0 15.5L13.0103 13.5505V17.4494Z" fill="white"/>
<path d="M17.4457 17.9883L15.4963 30.9985L13.5469 17.9883H17.4457Z" fill="white"/>
<path d="M17.9922 13.5508L31.0024 15.5002L17.9922 17.4496V13.5508Z" fill="white"/>
<path opacity="0.48" d="M15.5031 20.9555C18.5165 20.9555 20.9594 18.5126 20.9594 15.4992C20.9594 12.4858 18.5165 10.043 15.5031 10.043C12.4897 10.043 10.0469 12.4858 10.0469 15.4992C10.0469 18.5126 12.4897 20.9555 15.5031 20.9555Z" fill="white"/>
</g>
<defs>
<clipPath id="clip0_3187_37067">
<rect width="31" height="31" fill="white"/>
</clipPath>
</defs>
</svg>
