<svg width="386" height="401" viewBox="0 0 386 401" fill="none" xmlns="http://www.w3.org/2000/svg">
<g clip-path="url(#clip0_967_7254)">
<path d="M97.7287 398.879C59.613 398.879 28.7156 392.837 28.7156 385.386C28.7156 377.935 59.6157 371.893 97.7287 371.893C135.842 371.893 166.745 377.935 166.745 385.386C166.745 392.837 135.844 398.879 97.7287 398.879Z" fill="black" stroke="black" stroke-width="2" stroke-linecap="round" stroke-linejoin="round"/>
<path d="M118.565 176.121C132.739 177.361 144.88 178.771 155.864 196.554C164.516 210.558 168.674 234.622 170.404 253.012C171.758 267.406 172.291 279.9 170.234 287.972C166.445 302.851 155.403 308.903 140.529 304.152C125.658 299.401 117.574 210.076 117.574 210.076L118.565 176.123" fill="white"/>
<path d="M118.565 176.121C132.739 177.361 144.88 178.771 155.864 196.554C164.516 210.558 168.674 234.622 170.404 253.012C171.758 267.406 172.291 279.9 170.234 287.972C166.445 302.851 155.403 308.903 140.529 304.152C125.658 299.401 117.574 210.076 117.574 210.076L118.565 176.123" stroke="black" stroke-width="2" stroke-linecap="round" stroke-linejoin="round"/>
<path d="M170.237 287.969C166.442 302.851 155.403 308.898 140.532 304.146C125.656 299.398 117.574 210.073 117.574 210.073L117.913 198.56L118.565 176.126C129.395 177.072 139.045 178.119 147.891 186.498C150.623 189.087 153.278 192.367 155.864 196.557C164.516 210.558 168.676 234.624 170.407 253.009C171.758 267.406 172.291 279.897 170.237 287.972" fill="white"/>
<path d="M170.237 287.969C166.442 302.851 155.403 308.898 140.532 304.146C125.656 299.398 117.574 210.073 117.574 210.073L117.913 198.56L118.565 176.126C129.395 177.072 139.045 178.119 147.891 186.498C150.623 189.087 153.278 192.367 155.864 196.557C164.516 210.558 168.676 234.624 170.407 253.009C171.758 267.406 172.291 279.897 170.237 287.972" stroke="black" stroke-width="2" stroke-linecap="round" stroke-linejoin="round"/>
<path d="M171.594 273.967C171.029 283.756 169.384 289.866 163.785 289.866C155.398 289.866 157.168 275.395 157.168 275.395" fill="white"/>
<path d="M171.594 273.967C171.029 283.756 169.384 289.866 163.785 289.866C155.398 289.866 157.168 275.395 157.168 275.395" stroke="black" stroke-width="2" stroke-linecap="round" stroke-linejoin="round"/>
<path d="M78.8458 179.473L79.0525 192.664L79.1584 199.381L80.9842 315.257C80.9842 315.257 73.077 314.931 62.5067 313.646C60.4398 313.394 58.2696 313.108 56.0384 312.777C39.4078 310.331 19.3165 305.575 12.093 296.549C1.29741 283.048 2.91118 220.201 14.5997 195.905C19.9525 184.767 44.1776 181.148 61.2983 179.992C63.2116 179.86 65.04 179.762 66.7385 179.687C73.9038 179.369 78.8458 179.473 78.8458 179.473Z" fill="white" stroke="black" stroke-width="2" stroke-linecap="round" stroke-linejoin="round"/>
<path d="M79.0526 192.664L79.1585 199.381L80.608 291.387L80.9843 315.257C80.9843 315.257 80.82 315.249 80.5047 315.233C80.4172 315.226 80.3086 315.223 80.1973 315.218C80.1099 315.212 80.0065 315.207 79.9085 315.202C79.8316 315.202 79.7548 315.194 79.6779 315.191C79.6488 315.186 79.6117 315.191 79.5825 315.186C79.4421 315.178 79.2831 315.17 79.1161 315.157C79.0817 315.157 79.0473 315.157 79.0049 315.151C78.8697 315.143 78.7266 315.135 78.5729 315.125C78.3662 315.114 78.1516 315.098 77.9264 315.082C77.7674 315.069 77.5951 315.061 77.4229 315.051C77.2453 315.037 77.0678 315.027 76.885 315.014C76.6544 315 76.4106 314.979 76.1616 314.966C75.6581 314.926 75.1255 314.889 74.5637 314.844C74.0655 314.812 73.5461 314.767 73.0003 314.719C72.3722 314.666 71.7151 314.613 71.0314 314.547C68.5114 314.319 65.6283 314.025 62.5094 313.644C61.9026 313.572 61.2852 313.49 60.6625 313.413C60.2306 313.36 59.7827 313.299 59.3376 313.238C58.2617 313.095 57.1541 312.941 56.0411 312.774C39.4053 310.329 19.3193 305.572 12.1037 296.544C3.21072 285.43 2.72844 240.854 9.36901 211.889C7.07687 237.272 8.99538 264.642 15.6995 273.018C19.0119 277.16 33.4245 263.487 33.4695 255.323C33.5861 234.272 37.8842 207.326 57.8139 191.898C58.3306 191.498 69.6058 193.329 79.0526 192.659V192.664Z" fill="black" stroke="black" stroke-width="2" stroke-linecap="round" stroke-linejoin="round"/>
<path d="M9.50144 248.913L32.1631 251.303C34.185 251.517 35.812 253.065 36.1141 255.076C37.2191 262.443 38.8858 279.59 31.5881 285.017C25.5305 289.522 15.9433 288.682 10.458 283.748C4.3236 278.228 4.2123 261.457 4.56474 253.166C4.67338 250.587 6.93372 248.64 9.49879 248.91L9.50144 248.913Z" fill="white" stroke="black" stroke-width="2" stroke-linecap="round" stroke-linejoin="round"/>
<path d="M129.063 281.917C114.497 288.716 42.9163 299.907 44.6838 287.966C45.863 280.001 35.3562 265.188 60.9831 169.981L138.198 180.906L149.65 201.17C163.287 241.824 165.944 269.497 149.354 288.589L129.063 281.917Z" fill="white" stroke="black" stroke-width="2" stroke-linecap="round" stroke-linejoin="round"/>
<path d="M143.317 189.969C134.053 195.854 119.323 199.659 102.732 199.659C82.5 199.659 65.0374 194.005 56.8732 185.822C57.9066 181.683 59.0143 177.385 60.1935 172.922C61.9079 172.064 63.7973 171.266 65.7529 170.659L138.195 180.912L143.317 189.972V189.969Z" fill="black" stroke="black" stroke-width="2" stroke-linecap="round" stroke-linejoin="round"/>
<path d="M160.674 253.857C166.912 253.611 170.945 265.04 159.389 269.113L160.674 253.857Z" fill="black"/>
<path d="M160.674 253.857C166.912 253.611 170.945 265.04 159.389 269.113" stroke="black" stroke-width="2" stroke-linecap="round" stroke-linejoin="round"/>
<path d="M189.133 126.433C185.482 139.908 178.404 152.548 168.104 162.985C166.003 165.113 163.777 167.146 161.416 169.075C160.271 170.015 159.084 170.932 157.87 171.833C154.197 174.528 150.379 176.884 146.444 178.906C143.057 180.657 139.581 182.157 136.054 183.416C131.795 184.939 127.452 186.103 123.069 186.924C121.472 187.218 119.868 187.47 118.265 187.677C88.8835 191.44 58.3809 179.878 39.4555 154.803C11.571 117.874 19.3854 65.616 56.8917 38.0839C64.1179 32.7868 71.9244 28.7775 80.0117 26.0508C80.9551 25.7222 81.9091 25.4202 82.871 25.1393C85.4334 24.3682 88.0197 23.7242 90.6218 23.2022C96.6397 21.9992 102.745 21.4612 108.811 21.5619C114.876 21.6573 120.92 22.394 126.814 23.756C128.687 24.188 130.547 24.6808 132.394 25.2426C135.161 26.0853 137.885 27.0578 140.567 28.184C153.93 33.7566 166.011 42.8059 175.298 55.1119C191.341 76.3559 195.565 102.669 189.131 126.433" fill="white"/>
<path d="M189.133 126.433C185.482 139.908 178.404 152.548 168.104 162.985C166.003 165.113 163.777 167.146 161.416 169.075C160.271 170.015 159.084 170.932 157.87 171.833C154.197 174.528 150.379 176.884 146.444 178.906C143.057 180.657 139.581 182.157 136.054 183.416C131.795 184.939 127.452 186.103 123.069 186.924C121.472 187.218 119.868 187.47 118.265 187.677C88.8835 191.44 58.3809 179.878 39.4555 154.803C11.571 117.874 19.3854 65.616 56.8917 38.0839C64.1179 32.7868 71.9244 28.7775 80.0118 26.0508C80.9551 25.7222 81.9091 25.4201 82.871 25.1393C85.4334 24.3682 88.0197 23.7242 90.6218 23.2022C96.6397 21.9992 102.745 21.4612 108.811 21.5619C114.876 21.6573 120.92 22.394 126.814 23.756C128.687 24.188 130.547 24.6808 132.394 25.2426C135.161 26.0853 137.885 27.0578 140.567 28.184C153.93 33.7566 166.011 42.8059 175.298 55.1119C191.341 76.3559 195.565 102.669 189.131 126.433" stroke="black" stroke-width="2" stroke-linecap="round" stroke-linejoin="round"/>
<path d="M46.8752 157.193C18.9906 120.259 26.8024 68.0009 64.3087 40.4714C71.5349 35.1744 79.3414 31.1651 87.4288 28.4384C88.3721 28.1098 89.3261 27.8077 90.288 27.5268C92.8504 26.7557 95.4367 26.1118 98.0388 25.5898C104.057 24.3867 110.162 23.8488 116.228 23.9495C122.293 24.0449 128.337 24.7816 134.231 26.1436C136.104 26.5755 137.178 27.0585 139.025 27.6202" fill="black"/>
<path d="M46.8752 157.193C18.9906 120.259 26.8024 68.0009 64.3087 40.4714C71.5349 35.1744 79.3414 31.1651 87.4288 28.4384C88.3721 28.1098 89.3261 27.8077 90.288 27.5268C92.8504 26.7557 95.4367 26.1118 98.0388 25.5898C104.057 24.3867 110.162 23.8488 116.228 23.9495C122.293 24.0449 128.337 24.7816 134.231 26.1436C136.104 26.5755 137.178 27.0585 139.025 27.6202" stroke="black" stroke-width="2" stroke-linecap="round" stroke-linejoin="round"/>
<path d="M51.645 160.638C23.7604 123.704 31.5722 71.4457 69.0784 43.9163C76.3046 38.6192 84.1111 34.6099 92.1985 31.8832C93.1419 31.5546 94.0958 31.2525 95.0577 30.9717C97.6202 30.2006 100.206 29.5566 102.809 29.0346C108.826 27.8316 114.932 27.2936 120.997 27.3943C127.063 27.4897 133.107 28.2264 139 29.5884C140.874 30.0204 144.581 31.075 144.581 31.075" fill="white"/>
<path d="M51.645 160.638C23.7604 123.704 31.5722 71.4457 69.0784 43.9163C76.3046 38.6192 84.1111 34.6099 92.1985 31.8832C93.1419 31.5546 94.0958 31.2525 95.0577 30.9717C97.6202 30.2006 100.206 29.5566 102.809 29.0346C108.826 27.8316 114.932 27.2936 120.997 27.3943C127.063 27.4897 133.107 28.2264 139 29.5884C140.874 30.0204 144.581 31.075 144.581 31.075" stroke="black" stroke-width="2" stroke-linecap="round" stroke-linejoin="round"/>
<path d="M180.9 146.217C140.771 190.875 69.4203 182.809 52.008 126.338C40.1604 87.9173 69.1977 46.7728 107.385 37.8692C135.177 31.3903 165.168 37.0425 187.104 76.7905C187.104 76.7905 194.054 95.8669 191.839 110.195C189.624 124.523 185.018 138.093 185.018 138.093L180.9 146.217Z" fill="#5555FF"/>
<path d="M180.9 146.217C140.771 190.875 69.4203 182.809 52.008 126.338C40.1604 87.9173 69.1977 46.7728 107.385 37.8692C135.177 31.3903 165.168 37.0425 187.104 76.7905C187.104 76.7905 194.054 95.8669 191.839 110.195C189.624 124.523 185.018 138.093 185.018 138.093L180.9 146.217" stroke="black" stroke-width="2" stroke-linecap="round" stroke-linejoin="round"/>
<path d="M52.0079 126.338C69.4202 182.806 140.771 190.873 180.897 146.22L181.732 144.571C130.953 166.518 70.4695 147.796 51.7853 91.0229C48.5869 102.364 48.3537 114.48 52.0079 126.338Z" fill="black"/>
<path d="M52.0079 126.338C69.4202 182.806 140.77 190.873 180.897 146.22L181.732 144.571C130.953 166.518 70.4695 147.796 51.7853 91.0229C48.5869 102.364 48.3537 114.48 52.0079 126.338" stroke="black" stroke-width="2" stroke-linecap="round" stroke-linejoin="round"/>
<path d="M14.6448 131.449C17.5411 147.651 29.6722 159.533 41.7477 157.99C53.8231 156.445 61.2639 142.062 58.3703 125.861C58.3544 125.757 58.3305 125.651 58.3093 125.551C55.3203 109.508 43.2554 97.788 31.2674 99.3223C21.9399 100.515 15.3762 109.371 14.2076 120.805C13.8658 124.173 13.9903 127.766 14.6475 131.449H14.6448Z" fill="white" stroke="black" stroke-width="2" stroke-linecap="round" stroke-linejoin="round"/>
<path d="M13.2325 133.715C15.6465 146.914 25.0005 156.726 34.1293 155.632C43.2581 154.535 48.7036 142.95 46.2896 129.751C43.8782 116.552 34.5215 106.739 25.3927 107.834C16.2639 108.931 10.8211 120.516 13.2325 133.715Z" fill="black" stroke="black" stroke-width="2" stroke-linecap="round" stroke-linejoin="round"/>
<path d="M71.5109 113.783C71.3599 113.783 71.2115 113.777 71.0605 113.772C64.82 113.491 60.0397 107.452 60.3815 100.284C60.7154 93.2912 65.8058 87.806 71.8501 87.806C71.9985 87.806 72.1496 87.8113 72.3006 87.8166C78.541 88.0975 83.3214 94.1365 82.9796 101.304C82.6457 108.297 77.5553 113.783 71.5109 113.783Z" fill="white"/>
<path d="M54.8327 227.213C54.8327 227.213 5.57434 217.461 2.39185 181.222C0.531646 160.017 17.1834 140.888 29.7915 130.495C43.3561 118.685 55.201 113.377 61.2798 118.083C61.2798 118.083 71.0605 113.772 77.6931 117.85C84.7206 122.169 88.3774 133.182 83.5016 143.557C80.2794 150.414 70.9307 163.544 56.6823 174.963C60.62 177.557 68.2516 180.525 75.197 182.361C80.7988 199.667 72.8015 218.458 56.4465 226.423L54.8301 227.21L54.8327 227.213Z" fill="white" stroke="black" stroke-width="2" stroke-linecap="round" stroke-linejoin="round"/>
<path d="M38.3135 189.762C38.3135 189.762 49.3263 180.951 56.6824 174.963L38.3135 189.762Z" fill="white"/>
<path d="M38.3135 189.762C38.3135 189.762 49.3263 180.951 56.6824 174.963" stroke="black" stroke-width="2" stroke-linecap="round" stroke-linejoin="round"/>
<path d="M255.123 386.382H245.607V19.7759H255.123V386.382Z" fill="#B3BAC5" stroke="black" stroke-width="2" stroke-linecap="round" stroke-linejoin="round"/>
<path d="M260.457 11.4156C260.457 16.9883 255.939 21.5063 250.366 21.5063C244.794 21.5063 240.276 16.9883 240.276 11.4156C240.276 5.84297 244.794 1.32495 250.366 1.32495C255.939 1.32495 260.457 5.84297 260.457 11.4156Z" fill="#B3BAC5" stroke="black" stroke-width="2" stroke-linecap="round" stroke-linejoin="round"/>
<path d="M245.607 19.776C245.607 19.776 254.328 17.5978 264.419 21.7952C276.701 26.9041 283.378 33.9554 301.681 32.7497C317.975 31.6765 331.529 29.2652 354.151 34.6232C366.213 37.4797 384.288 47.4326 384.288 47.4326L380.894 132.846C380.894 132.846 369.682 134.611 354.477 127.922C343.912 123.274 332.422 116.594 309.652 121.981C291.071 126.375 273.179 119.599 264.098 117.437C255.014 115.275 245.61 116.573 245.61 116.573C245.61 116.573 243.63 110.987 245.61 107.995C245.61 107.995 254.903 106.019 261.443 106.776C261.443 106.776 262.105 87.6815 261.899 72.8237C261.697 58.3925 261.61 32.5987 261.61 32.5987C261.61 32.5987 258.125 28.5364 245.607 29.9859C245.607 29.9859 243.734 23.4513 245.607 19.776Z" fill="white" stroke="black" stroke-width="2" stroke-linecap="round" stroke-linejoin="round"/>
<path d="M229 389.579C229 389.579 234.325 385.135 240.931 384.011C246.025 383.145 249.498 385.272 249.498 385.272C249.498 385.272 253.263 382.009 260.468 383.304C266.174 384.327 272 390 272 390" fill="#AFAFFF"/>
<path d="M229 389.579C229 389.579 234.325 385.135 240.931 384.011C246.025 383.145 249.498 385.272 249.498 385.272C249.498 385.272 253.263 382.009 260.468 383.304C266.174 384.327 272 390 272 390" stroke="black" stroke-width="2" stroke-linecap="round" stroke-linejoin="round"/>
<path d="M152.512 269.112H126.859L108.879 268.797L106.492 268.005C106.497 268.238 106.502 268.487 106.502 268.755L43.9153 267.66C44.0716 274.428 43.9471 294.191 43.9471 315.228C43.9418 341.607 44.1352 369.99 45.3277 377.256C46.4989 384.408 62.8062 387.373 80.9869 387.373C94.2469 387.373 97.9699 384.23 98.8709 380.216C100.999 370.732 95.9269 365.671 95.9269 365.671L99.2975 298.894C99.2975 298.894 99.2975 298.894 99.3028 298.889C100.991 296.52 104.727 297.879 104.502 300.781C102.037 332.463 98.2959 375.443 101.404 381.419C103.455 385.365 110.186 386.326 129.005 386.377C143.484 386.417 147.79 385.298 150.159 379.72C150.978 377.781 151.24 375.95 151.036 374.24C150.549 370.046 147.3 366.572 142.777 363.972C143.958 359.555 145.437 328.97 148.696 301.7C149.478 295.158 152.512 269.11 152.512 269.11V269.112Z" fill="white" stroke="black" stroke-width="2" stroke-linecap="round" stroke-linejoin="round"/>
<path d="M324.38 66.4427H347.299V87.2389L324.38 66.4427Z" fill="#5555FF"/>
<path d="M335.855 69.8161L318.634 89.0972L326.255 95.9038L343.476 76.6227L335.855 69.8161Z" fill="#5555FF"/>
<path d="M313.293 96.0312C304.906 96.0312 303.146 92.7506 303.146 89.9974V67.7703H311.205V86.3883C311.205 89.1839 313.651 89.1839 314.824 89.1839H329.78V96.0312H313.295H313.293Z" fill="black"/>
<path d="M309.877 69.0926V86.3856C309.877 88.3068 310.791 89.2979 311.56 89.7907C312.543 90.4214 313.709 90.5088 314.822 90.5088H328.453V94.7062H313.293C310.171 94.7062 307.723 94.1948 306.212 93.225C305.007 92.4512 304.469 91.4548 304.469 89.9948V69.0926H309.877ZM312.527 66.4427H301.819V89.9948C301.819 94.7407 305.892 97.3534 313.29 97.3534H331.1V87.8563H314.819C312.996 87.8563 312.524 87.5542 312.524 86.3856V66.4427H312.527Z" fill="black"/>
<path d="M303.147 62.7965V62.3726C303.147 59.6193 304.906 56.3388 313.293 56.3388H337.126L341.636 62.7992H303.144L303.147 62.7965Z" fill="black"/>
<path d="M336.437 57.6637L339.098 61.4743H304.551C304.742 60.4859 305.275 59.7492 306.215 59.145C307.726 58.1752 310.174 57.6637 313.296 57.6637H336.437ZM337.818 55.0139H313.293C305.895 55.0139 301.822 57.6266 301.822 62.3726V64.1215H344.18L337.818 55.0112V55.0139Z" fill="black"/>
<path d="M334.749 87.0375C334.781 86.8361 334.796 86.6215 334.796 86.3856V77.4211H329.332L323.969 70.5262H342.855V89.9948C342.855 94.2875 338.716 95.6363 334.749 95.9464V87.0375Z" fill="black"/>
<path d="M341.53 71.8511V89.9947C341.53 91.4045 341.032 92.3717 339.911 93.1348C338.991 93.7602 337.688 94.208 336.074 94.4598V87.1355C336.106 86.8997 336.121 86.6506 336.121 86.3856V76.0962H329.982L326.68 71.8511H341.53ZM344.18 69.2012H321.261L328.689 78.7461H333.474V86.3856C333.474 86.5897 333.458 86.7646 333.427 86.9182V97.3402C340.364 97.1732 344.182 94.5843 344.182 89.9974V69.2039L344.18 69.2012Z" fill="black"/>
<path d="M249 385C249 385 247.745 386.335 247 388L249 385Z" fill="#F7D35F"/>
<path d="M249 385C249 385 247.745 386.335 247 388" stroke="black" stroke-width="2" stroke-linecap="round" stroke-linejoin="round"/>
<path d="M149.396 288.708L99.7612 289.861C93.8865 289.999 88.963 285.303 88.8252 279.42L88.2131 253.009C88.0939 247.861 91.6791 243.449 96.5231 242.338C97.2094 242.177 97.9222 242.089 98.6536 242.071L148.283 240.918C154.166 240.78 159.089 245.476 159.219 251.356L159.709 272.276L159.839 277.77C159.977 283.652 155.273 288.568 149.399 288.706" fill="white"/>
<path d="M149.396 288.708L99.7612 289.861C93.8865 289.999 88.963 285.303 88.8252 279.42L88.2131 253.009C88.0939 247.861 91.6791 243.449 96.5231 242.338C97.2094 242.177 97.9222 242.089 98.6536 242.071L148.283 240.918C154.166 240.78 159.089 245.476 159.219 251.356L159.709 272.276L159.839 277.77C159.977 283.652 155.273 288.568 149.399 288.706" stroke="black" stroke-width="2" stroke-linecap="round" stroke-linejoin="round"/>
<path d="M99.7586 289.864C95.4526 289.959 91.6633 287.471 89.8931 283.806C89.2439 282.478 88.865 280.997 88.8332 279.423L88.555 267.69L88.4649 263.815L88.3112 257.016L88.2184 253.009C88.0833 247.127 92.7788 242.208 98.6536 242.071L109.38 241.827C104.459 242.874 100.797 247.32 100.914 252.516L101.094 260.357L101.248 266.786L101.526 278.944C101.666 284.813 106.654 289.516 112.526 289.384L99.7639 289.861L99.7586 289.864Z" fill="black" stroke="black" stroke-width="2" stroke-linecap="round" stroke-linejoin="round"/>
<path d="M120.793 265.488C120.809 266.465 119.574 274.375 119.574 274.375C119.574 274.375 117.076 274.418 114.01 274.473C110.178 274.539 107.001 270.628 106.916 265.731C106.831 260.837 109.868 256.814 113.7 256.748C116.286 256.703 119.264 256.65 119.264 256.65C119.264 256.65 120.767 263.898 120.793 265.49" fill="#00CA20"/>
<path d="M120.793 265.488C120.809 266.465 119.574 274.375 119.574 274.375C119.574 274.375 117.076 274.418 114.01 274.473C110.178 274.539 107.001 270.628 106.916 265.731C106.831 260.837 109.868 256.814 113.7 256.748C116.286 256.703 119.264 256.65 119.264 256.65C119.264 256.65 120.767 263.898 120.793 265.49" stroke="black" stroke-width="2" stroke-linecap="round" stroke-linejoin="round"/>
<path d="M126.358 265.392C126.443 270.286 123.406 274.309 119.574 274.375C115.743 274.441 112.565 270.528 112.481 265.633C112.396 260.739 115.433 256.716 119.264 256.65C123.099 256.584 126.273 260.495 126.358 265.392Z" fill="#00CA20"/>
<path d="M126.358 265.392C126.443 270.286 123.406 274.309 119.574 274.375C115.743 274.441 112.565 270.528 112.481 265.633C112.396 260.739 115.433 256.716 119.264 256.65C123.099 256.584 126.273 260.495 126.358 265.392" stroke="black" stroke-width="2" stroke-linecap="round" stroke-linejoin="round"/>
<path d="M88.3007 256.767C88.3007 256.767 97.3129 256.846 97.7157 264.87C98.1184 272.894 88.7167 274.476 88.7167 274.476C88.7167 274.476 61.5927 278.08 43.8094 271.087C35.7008 262.71 44.4136 254.069 44.4136 254.069C44.4136 254.069 69.6589 258.174 88.3033 256.764L88.3007 256.767Z" fill="white" stroke="black" stroke-width="2" stroke-linecap="round" stroke-linejoin="round"/>
<path d="M88.7139 274.479C88.7139 274.479 61.5925 278.08 43.8093 271.087C40.497 267.666 39.9882 264.2 40.5473 261.298C41.0852 262.382 41.859 263.482 42.9163 264.576C60.7048 271.566 87.8262 267.965 87.8262 267.965C87.8262 267.965 95.1266 266.733 96.5893 260.959C97.2147 261.987 97.636 263.272 97.7155 264.87C98.121 272.894 88.7139 274.479 88.7139 274.479Z" fill="black" stroke="black" stroke-width="2" stroke-linecap="round" stroke-linejoin="round"/>
<path d="M147.35 51.6565C147.35 51.6565 173.95 66.0214 181.732 94.0093" stroke="white" stroke-width="6" stroke-linecap="round" stroke-linejoin="round"/>
<path d="M3.38292 168.521C3.38292 168.521 12.8138 206.496 65.8668 219.833C65.8668 219.833 60.7764 224.852 54.8327 227.215C54.8327 227.215 -6.1672 213.635 3.38557 168.524L3.38292 168.521Z" fill="black" stroke="black" stroke-width="2" stroke-linecap="round" stroke-linejoin="round"/>
<path d="M100.739 301.404L100.23 368.594C100.23 368.594 95.8447 387.808 113.856 385.942L134.111 386.382C134.111 386.382 111.217 382.508 110.093 373.753C108.97 364.998 104.507 300.784 104.507 300.784C104.507 300.784 103.36 295.64 99.3081 298.892C99.3081 298.892 101.216 298.913 100.742 301.401L100.739 301.404Z" fill="black" stroke="black" stroke-width="2" stroke-linecap="round" stroke-linejoin="round"/>
</g>
<defs>
<clipPath id="clip0_967_7254">
<rect width="384.692" height="400.204" fill="white" transform="translate(0.923828)"/>
</clipPath>
</defs>
</svg>
