<svg width="293" height="305" viewBox="0 0 293 305" fill="none" xmlns="http://www.w3.org/2000/svg">
<g clip-path="url(#clip0_839_10001)">
<path d="M73.602 303.273C44.6222 303.273 21.1305 298.679 21.1305 293.014C21.1305 287.348 44.6242 282.755 73.602 282.755C102.58 282.755 126.076 287.348 126.076 293.014C126.076 298.679 102.582 303.273 73.602 303.273Z" fill="black" stroke="black" stroke-width="2" stroke-linecap="round" stroke-linejoin="round"/>
<path d="M89.4438 133.907C100.221 134.85 109.452 135.921 117.803 149.442C124.381 160.09 127.542 178.386 128.858 192.368C129.887 203.312 130.292 212.811 128.729 218.948C125.848 230.261 117.453 234.863 106.144 231.25C94.8372 227.638 88.6903 159.723 88.6903 159.723L89.4438 133.909" fill="white"/>
<path d="M89.4438 133.907C100.221 134.85 109.452 135.921 117.803 149.442C124.381 160.09 127.542 178.386 128.858 192.368C129.887 203.312 130.292 212.811 128.729 218.948C125.848 230.261 117.453 234.863 106.144 231.25C94.8372 227.638 88.6903 159.723 88.6903 159.723L89.4438 133.909" stroke="black" stroke-width="2" stroke-linecap="round" stroke-linejoin="round"/>
<path d="M128.731 218.946C125.846 230.261 117.453 234.858 106.146 231.246C94.8352 227.636 88.6903 159.721 88.6903 159.721L88.9482 150.967L89.4438 133.911C97.678 134.63 105.016 135.426 111.741 141.796C113.818 143.765 115.837 146.259 117.803 149.444C124.381 160.09 127.544 178.388 128.86 192.366C129.887 203.312 130.292 212.809 128.731 218.948" fill="white"/>
<path d="M128.731 218.946C125.846 230.261 117.453 234.858 106.146 231.246C94.8352 227.636 88.6903 159.721 88.6903 159.721L88.9482 150.967L89.4438 133.911C97.678 134.63 105.016 135.426 111.741 141.796C113.818 143.765 115.837 146.259 117.803 149.444C124.381 160.09 127.544 178.388 128.86 192.366C129.887 203.312 130.292 212.809 128.731 218.948" stroke="black" stroke-width="2" stroke-linecap="round" stroke-linejoin="round"/>
<path d="M129.762 208.3C129.333 215.743 128.082 220.389 123.825 220.389C117.448 220.389 118.794 209.386 118.794 209.386" fill="white"/>
<path d="M129.762 208.3C129.333 215.743 128.082 220.389 123.825 220.389C117.448 220.389 118.794 209.386 118.794 209.386" stroke="black" stroke-width="2" stroke-linecap="round" stroke-linejoin="round"/>
<path d="M59.245 136.456L59.4021 146.485L59.4827 151.592L60.8709 239.694C60.8709 239.694 54.8589 239.446 46.8222 238.469C45.2507 238.278 43.6006 238.06 41.9042 237.808C29.2598 235.949 13.9842 232.332 8.49201 225.47C0.284017 215.205 1.51099 167.422 10.3979 148.949C14.4677 140.481 32.8863 137.729 45.9035 136.85C47.3581 136.75 48.7483 136.675 50.0397 136.619C55.4875 136.377 59.245 136.456 59.245 136.456Z" fill="white" stroke="black" stroke-width="2" stroke-linecap="round" stroke-linejoin="round"/>
<path d="M59.4022 146.485L59.4827 151.592L60.5848 221.545L60.8709 239.694C60.8709 239.694 60.746 239.688 60.5062 239.676C60.4397 239.67 60.3571 239.668 60.2725 239.664C60.206 239.66 60.1275 239.656 60.0529 239.652C59.9945 239.652 59.9361 239.646 59.8776 239.644C59.8555 239.64 59.8273 239.644 59.8051 239.64C59.6983 239.633 59.5774 239.627 59.4505 239.617C59.4243 239.617 59.3981 239.617 59.3659 239.613C59.2631 239.607 59.1543 239.601 59.0375 239.593C58.8803 239.585 58.7171 239.573 58.5459 239.561C58.425 239.551 58.2941 239.545 58.1631 239.537C58.0281 239.527 57.8931 239.519 57.7541 239.509C57.5788 239.498 57.3935 239.482 57.2041 239.472C56.8213 239.442 56.4163 239.414 55.9892 239.38C55.6104 239.355 55.2156 239.321 54.8005 239.285C54.323 239.245 53.8234 239.204 53.3036 239.154C51.3876 238.981 49.1956 238.757 46.8242 238.467C46.3629 238.413 45.8934 238.35 45.42 238.292C45.0916 238.251 44.7511 238.205 44.4126 238.159C43.5946 238.05 42.7525 237.933 41.9063 237.806C29.2578 235.947 13.9862 232.33 8.5001 225.466C1.73868 217.016 1.372 183.124 6.42091 161.101C4.67817 180.401 6.13683 201.211 11.2341 207.579C13.7525 210.728 24.7106 200.332 24.7448 194.125C24.8335 178.12 28.1014 157.632 43.2541 145.902C43.647 145.598 52.2197 146.99 59.4022 146.481V146.485Z" fill="black" stroke="black" stroke-width="2" stroke-linecap="round" stroke-linejoin="round"/>
<path d="M6.52172 189.251L23.7517 191.068C25.2889 191.232 26.5259 192.408 26.7556 193.937C27.5958 199.538 28.863 212.576 23.3145 216.702C18.7088 220.127 11.4195 219.488 7.24903 215.737C2.58494 211.54 2.50032 198.789 2.76828 192.485C2.85089 190.524 4.56945 189.044 6.5197 189.249L6.52172 189.251Z" fill="white" stroke="black" stroke-width="2" stroke-linecap="round" stroke-linejoin="round"/>
<path d="M97.4261 214.345C86.3511 219.515 31.9274 228.023 33.2712 218.944C34.1677 212.888 26.1793 201.626 45.6638 129.239L104.371 137.545L113.079 152.952C123.446 183.862 125.467 204.902 112.853 219.418L97.4261 214.345Z" fill="white" stroke="black" stroke-width="2" stroke-linecap="round" stroke-linejoin="round"/>
<path d="M108.263 144.436C101.22 148.91 90.02 151.804 77.4058 151.804C62.0234 151.804 48.7463 147.504 42.5389 141.283C43.3247 138.136 44.1668 134.868 45.0634 131.475C46.3669 130.822 47.8034 130.216 49.2903 129.754L104.369 137.549L108.263 144.438V144.436Z" fill="black" stroke="black" stroke-width="2" stroke-linecap="round" stroke-linejoin="round"/>
<path d="M121.46 193.011C126.202 192.823 129.269 201.513 120.483 204.61L121.46 193.011Z" fill="black"/>
<path d="M121.46 193.011C126.202 192.823 129.269 201.513 120.483 204.61" stroke="black" stroke-width="2" stroke-linecap="round" stroke-linejoin="round"/>
<path d="M143.098 96.1286C140.322 106.373 134.94 115.984 127.109 123.92C125.511 125.538 123.819 127.083 122.024 128.55C121.154 129.265 120.251 129.962 119.328 130.647C116.536 132.696 113.633 134.487 110.641 136.024C108.066 137.356 105.423 138.496 102.741 139.453C99.5033 140.612 96.2012 141.496 92.8688 142.121C91.6539 142.344 90.435 142.536 89.2161 142.693C66.8768 145.554 43.6853 136.764 29.2961 117.698C8.09516 89.621 14.0366 49.8886 42.553 28.9556C48.0472 24.9282 53.9826 21.8799 60.1315 19.8068C60.8487 19.5569 61.5741 19.3273 62.3054 19.1137C64.2536 18.5274 66.22 18.0378 68.1985 17.6409C72.7739 16.7262 77.4158 16.3172 82.0276 16.3938C86.6393 16.4663 91.2348 17.0264 95.7156 18.062C97.14 18.3904 98.5544 18.7651 99.9586 19.1923C102.062 19.8329 104.133 20.5724 106.172 21.4286C116.332 25.6656 125.517 32.5459 132.579 41.9023C144.776 58.0543 147.988 78.0605 143.096 96.1286" fill="white"/>
<path d="M143.098 96.1286C140.322 106.373 134.94 115.984 127.109 123.92C125.511 125.538 123.819 127.083 122.024 128.55C121.154 129.265 120.251 129.962 119.328 130.647C116.536 132.696 113.633 134.487 110.641 136.024C108.066 137.356 105.423 138.496 102.741 139.453C99.5033 140.612 96.2012 141.496 92.8688 142.121C91.6539 142.344 90.435 142.536 89.2161 142.693C66.8768 145.554 43.6853 136.764 29.2961 117.698C8.09516 89.621 14.0366 49.8886 42.553 28.9556C48.0472 24.9282 53.9826 21.8799 60.1315 19.8068C60.8487 19.5569 61.5741 19.3273 62.3054 19.1137C64.2536 18.5274 66.22 18.0378 68.1985 17.6409C72.7739 16.7262 77.4158 16.3172 82.0276 16.3938C86.6393 16.4663 91.2348 17.0264 95.7156 18.062C97.14 18.3904 98.5544 18.7651 99.9586 19.1923C102.062 19.8329 104.133 20.5724 106.172 21.4286C116.332 25.6656 125.517 32.5459 132.579 41.9023C144.776 58.0543 147.988 78.0605 143.096 96.1286" stroke="black" stroke-width="2" stroke-linecap="round" stroke-linejoin="round"/>
<path d="M34.9374 119.516C13.7364 91.4345 19.6758 51.702 48.1922 30.7711C53.6864 26.7436 59.6218 23.6953 65.7707 21.6222C66.488 21.3724 67.2133 21.1427 67.9446 20.9291C69.8929 20.3428 71.8592 19.8533 73.8377 19.4564C78.4131 18.5417 83.0551 18.1327 87.6668 18.2092C92.2785 18.2818 96.8741 18.8419 101.355 19.8774C102.779 20.2058 103.596 20.573 105 21.0001" fill="black"/>
<path d="M34.9374 119.516C13.7364 91.4345 19.6758 51.702 48.1922 30.7711C53.6864 26.7436 59.6218 23.6953 65.7707 21.6222C66.488 21.3724 67.2133 21.1427 67.9446 20.9291C69.8929 20.3428 71.8592 19.8533 73.8377 19.4564C78.4131 18.5417 83.0551 18.1327 87.6668 18.2092C92.2785 18.2818 96.8741 18.8419 101.355 19.8774C102.779 20.2058 103.596 20.573 105 21.0001" stroke="black" stroke-width="2" stroke-linecap="round" stroke-linejoin="round"/>
<path d="M38.5638 122.135C17.3629 94.0536 23.3023 54.3212 51.8187 33.3902C57.3129 29.3628 63.2482 26.3145 69.3972 24.2413C70.1144 23.9915 70.8397 23.7618 71.5711 23.5483C73.5193 22.962 75.4857 22.4724 77.4641 22.0755C82.0396 21.1608 86.6815 20.7518 91.2932 20.8284C95.9049 20.9009 100.501 21.461 104.981 22.4966C106.406 22.825 109.224 23.6268 109.224 23.6268" fill="white"/>
<path d="M38.5638 122.135C17.3629 94.0536 23.3023 54.3212 51.8187 33.3902C57.3129 29.3628 63.2482 26.3145 69.3972 24.2413C70.1144 23.9915 70.8397 23.7618 71.5711 23.5483C73.5193 22.962 75.4857 22.4724 77.4641 22.0755C82.0396 21.1608 86.6815 20.7518 91.2932 20.8284C95.9049 20.9009 100.501 21.461 104.981 22.4966C106.406 22.825 109.224 23.6268 109.224 23.6268" stroke="black" stroke-width="2" stroke-linecap="round" stroke-linejoin="round"/>
<path d="M136.838 111.171C106.327 145.125 52.0786 138.992 38.8399 96.056C29.832 66.8445 51.9094 35.5619 80.9436 28.7924C102.074 23.8664 124.877 28.1638 141.555 58.3847C141.555 58.3847 146.839 72.8887 145.155 83.7823C143.471 94.676 139.969 104.993 139.969 104.993L136.838 111.171Z" fill="#5555FF"/>
<path d="M136.838 111.171C106.327 145.125 52.0786 138.992 38.8399 96.056C29.832 66.8445 51.9094 35.5619 80.9436 28.7924C102.074 23.8664 124.877 28.1638 141.555 58.3847C141.555 58.3847 146.839 72.8887 145.155 83.7823C143.471 94.676 139.969 104.993 139.969 104.993L136.838 111.171" stroke="black" stroke-width="2" stroke-linecap="round" stroke-linejoin="round"/>
<path d="M38.8399 96.0563C52.0787 138.99 106.327 145.123 136.836 111.173L137.471 109.92C98.8626 126.606 52.8765 112.372 38.6707 69.2061C36.2389 77.8291 36.0616 87.0404 38.8399 96.0563Z" fill="black"/>
<path d="M38.8399 96.0563C52.0787 138.99 106.327 145.123 136.836 111.173L137.471 109.92C98.8626 126.606 52.8765 112.372 38.6707 69.2061C36.2389 77.8291 36.0616 87.0404 38.8399 96.0563" stroke="black" stroke-width="2" stroke-linecap="round" stroke-linejoin="round"/>
<path d="M10.4323 99.9422C12.6344 112.26 21.8578 121.294 31.0389 120.122C40.22 118.947 45.8773 108.011 43.6773 95.6932C43.6652 95.6146 43.647 95.534 43.6309 95.4575C41.3583 83.2603 32.1853 74.3492 23.0706 75.5157C15.9788 76.4223 10.9883 83.1556 10.0998 91.8491C9.83993 94.4098 9.93463 97.1418 10.4343 99.9422H10.4323Z" fill="white" stroke="black" stroke-width="2" stroke-linecap="round" stroke-linejoin="round"/>
<path d="M9.35834 101.665C11.1938 111.7 18.3057 119.161 25.2465 118.329C32.1872 117.495 36.3275 108.686 34.4921 98.651C32.6586 88.6156 25.5447 81.1551 18.6039 81.9872C11.6632 82.8213 7.52494 91.6297 9.35834 101.665Z" fill="black" stroke="black" stroke-width="2" stroke-linecap="round" stroke-linejoin="round"/>
<path d="M53.6683 86.5101C53.5535 86.5101 53.4407 86.5061 53.3258 86.5021C48.5811 86.2885 44.9466 81.6969 45.2065 76.2471C45.4603 70.9303 49.3306 66.7598 53.9262 66.7598C54.039 66.7598 54.1539 66.7638 54.2687 66.7678C59.0134 66.9814 62.648 71.5729 62.3881 77.0228C62.1342 82.3396 58.2639 86.5101 53.6683 86.5101Z" fill="white"/>
<path d="M40.9876 172.753C40.9876 172.753 3.53588 165.339 1.1162 137.785C-0.29814 121.663 12.3624 107.119 21.9485 99.2174C32.2618 90.2377 41.2677 86.2022 45.8895 89.7804C45.8895 89.7804 53.3258 86.5024 58.3687 89.6031C63.7117 92.8871 66.492 101.26 62.7849 109.148C60.335 114.362 53.2271 124.345 42.3939 133.026C45.3878 134.999 51.1902 137.255 56.4708 138.652C60.7299 151.81 54.6495 166.096 42.2146 172.152L40.9856 172.751L40.9876 172.753Z" fill="white" stroke="black" stroke-width="2" stroke-linecap="round" stroke-linejoin="round"/>
<path d="M28.4277 144.279C28.4277 144.279 36.8009 137.58 42.3938 133.026L28.4277 144.279Z" fill="white"/>
<path d="M28.4277 144.279C28.4277 144.279 36.8009 137.58 42.3938 133.026" stroke="black" stroke-width="2" stroke-linecap="round" stroke-linejoin="round"/>
<path d="M193.271 293.771H186.036V15.0361H193.271V293.771Z" fill="#B3BAC5" stroke="black" stroke-width="2" stroke-linecap="round" stroke-linejoin="round"/>
<path d="M197.326 8.6794C197.326 12.9164 193.891 16.3515 189.654 16.3515C185.417 16.3515 181.982 12.9164 181.982 8.6794C181.982 4.44243 185.417 1.00732 189.654 1.00732C193.891 1.00732 197.326 4.44243 197.326 8.6794Z" fill="#B3BAC5" stroke="black" stroke-width="2" stroke-linecap="round" stroke-linejoin="round"/>
<path d="M186.036 15.036C186.036 15.036 192.666 13.3799 200.338 16.5712C209.677 20.4556 214.754 25.8168 228.669 24.9001C241.058 24.0841 251.363 22.2507 268.563 26.3245C277.734 28.4964 291.476 36.0637 291.476 36.0637L288.896 101.004C288.896 101.004 280.371 102.346 268.811 97.261C260.778 93.7272 252.042 88.648 234.73 92.744C220.602 96.0844 206.999 90.9327 200.095 89.2887C193.188 87.6447 186.038 88.6319 186.038 88.6319C186.038 88.6319 184.533 84.3849 186.038 82.1103C186.038 82.1103 193.103 80.6073 198.076 81.1835C198.076 81.1835 198.579 66.6654 198.422 55.3688C198.269 44.3966 198.203 24.7853 198.203 24.7853C198.203 24.7853 195.553 21.6967 186.036 22.7987C186.036 22.7987 184.611 17.8304 186.036 15.036Z" fill="white" stroke="black" stroke-width="2" stroke-linecap="round" stroke-linejoin="round"/>
<path d="M141 303.038C141 303.038 153.26 292.88 168.468 290.311C180.197 288.331 188.194 293.194 188.194 293.194C188.194 293.194 196.861 285.736 213.45 288.694C226.588 291.034 240 304 240 304" fill="#F7D35F"/>
<path d="M141 303.038C141 303.038 153.26 292.88 168.468 290.311C180.197 288.331 188.194 293.194 188.194 293.194C188.194 293.194 196.861 285.736 213.45 288.694C226.588 291.034 240 304 240 304" stroke="black" stroke-width="2" stroke-linecap="round" stroke-linejoin="round"/>
<path d="M115.254 204.609H95.7498L82.0799 204.37L80.2646 203.767C80.2687 203.945 80.2727 204.134 80.2727 204.337L32.6869 203.505C32.8058 208.651 32.7111 223.677 32.7111 239.672C32.707 259.728 32.8541 281.308 33.7607 286.832C34.6512 292.27 47.0499 294.525 60.8729 294.525C70.9546 294.525 73.7853 292.135 74.4703 289.083C76.0881 281.872 72.2319 278.024 72.2319 278.024L74.7947 227.253C74.7947 227.253 74.7947 227.253 74.7987 227.249C76.0821 225.448 78.9228 226.481 78.7516 228.687C76.8779 252.775 74.0331 285.454 76.3964 289.998C77.9558 292.997 83.0732 293.729 97.3817 293.767C108.39 293.797 111.664 292.947 113.465 288.706C114.088 287.231 114.287 285.839 114.132 284.54C113.761 281.35 111.291 278.709 107.852 276.733C108.751 273.374 109.875 250.12 112.353 229.387C112.948 224.412 115.254 204.607 115.254 204.607V204.609Z" fill="white" stroke="black" stroke-width="2" stroke-linecap="round" stroke-linejoin="round"/>
<path d="M245.927 50.5171H263.353V66.3287L245.927 50.5171Z" fill="#5555FF"/>
<path d="M254.652 53.082L241.559 67.7417L247.353 72.9168L260.446 58.2571L254.652 53.082Z" fill="#5555FF"/>
<path d="M237.498 73.0134C231.121 73.0134 229.784 70.5192 229.784 68.4259V51.5264H235.91V65.6818C235.91 67.8074 237.77 67.8074 238.662 67.8074H250.034V73.0134H237.5H237.498Z" fill="black"/>
<path d="M234.901 52.5318V65.6799C234.901 67.1406 235.596 67.8941 236.18 68.2688C236.928 68.7483 237.814 68.8148 238.66 68.8148H249.024V72.0062H237.498C235.125 72.0062 233.263 71.6173 232.115 70.8799C231.198 70.2916 230.789 69.5341 230.789 68.424V52.5318H234.901ZM236.916 50.5171H228.774V68.424C228.774 72.0323 231.871 74.0189 237.496 74.0189H251.037V66.7981H238.658C237.272 66.7981 236.914 66.5684 236.914 65.6799V50.5171H236.916Z" fill="black"/>
<path d="M229.784 47.7448V47.4225C229.784 45.3292 231.121 42.835 237.498 42.835H255.618L259.047 47.7469H229.781L229.784 47.7448Z" fill="black"/>
<path d="M255.095 43.8424L257.118 46.7396H230.852C230.997 45.9881 231.402 45.428 232.117 44.9687C233.265 44.2313 235.127 43.8424 237.5 43.8424H255.095ZM256.145 41.8277H237.498C231.873 41.8277 228.777 43.8142 228.777 47.4226V48.7523H260.982L256.145 41.8257V41.8277Z" fill="black"/>
<path d="M253.811 66.1758C253.835 66.0227 253.847 65.8595 253.847 65.6802V58.8644H249.693L245.615 53.6221H259.974V68.4243C259.974 71.6881 256.827 72.7136 253.811 72.9493V66.1758Z" fill="black"/>
<path d="M258.967 54.6295V68.4243C258.967 69.4961 258.588 70.2315 257.736 70.8118C257.037 71.2872 256.045 71.6277 254.818 71.8191V66.2504C254.843 66.0711 254.855 65.8817 254.855 65.6802V57.8571H250.187L247.676 54.6295H258.967ZM260.982 52.6147H243.556L249.203 59.8718H252.842V65.6802C252.842 65.8354 252.83 65.9684 252.806 66.0852V74.0091C258.08 73.8822 260.984 71.9138 260.984 68.4263V52.6168L260.982 52.6147Z" fill="black"/>
<path d="M188 293C188 293 184.235 296.114 182 300L188 293Z" fill="#F7D35F"/>
<path d="M188 293C188 293 184.235 296.114 182 300" stroke="black" stroke-width="2" stroke-linecap="round" stroke-linejoin="round"/>
<path d="M112.885 219.508L75.1472 220.385C70.6806 220.489 66.9372 216.919 66.8325 212.447L66.3671 192.366C66.2764 188.451 69.0023 185.097 72.6852 184.253C73.2071 184.13 73.749 184.063 74.3051 184.049L112.039 183.173C116.512 183.068 120.255 186.638 120.354 191.109L120.726 207.015L120.825 211.191C120.93 215.664 117.354 219.401 112.887 219.506" fill="white"/>
<path d="M112.885 219.508L75.1472 220.385C70.6806 220.489 66.9372 216.919 66.8325 212.447L66.3671 192.366C66.2764 188.451 69.0023 185.097 72.6852 184.253C73.2071 184.13 73.749 184.063 74.3051 184.049L112.039 183.173C116.512 183.068 120.255 186.638 120.354 191.109L120.726 207.015L120.825 211.191C120.93 215.664 117.354 219.401 112.887 219.506" stroke="black" stroke-width="2" stroke-linecap="round" stroke-linejoin="round"/>
<path d="M75.1452 220.387C71.8713 220.459 68.9902 218.567 67.6444 215.781C67.1508 214.772 66.8627 213.645 66.8385 212.449L66.6269 203.528L66.5584 200.582L66.4416 195.412L66.3711 192.366C66.2683 187.893 69.8384 184.154 74.3051 184.049L82.4607 183.864C78.7193 184.66 75.935 188.04 76.0236 191.991L76.1606 197.953L76.2775 202.84L76.489 212.084C76.5958 216.547 80.3875 220.123 84.8521 220.022L75.1492 220.385L75.1452 220.387Z" fill="black" stroke="black" stroke-width="2" stroke-linecap="round" stroke-linejoin="round"/>
<path d="M91.1381 201.853C91.1502 202.597 90.2114 208.611 90.2114 208.611C90.2114 208.611 88.3115 208.643 85.9804 208.685C83.0671 208.736 80.6515 205.762 80.587 202.039C80.5225 198.318 82.8314 195.259 85.7447 195.209C87.7111 195.175 89.9756 195.134 89.9756 195.134C89.9756 195.134 91.118 200.645 91.1381 201.855" fill="#00CA20"/>
<path d="M91.1381 201.853C91.1502 202.597 90.2114 208.611 90.2114 208.611C90.2114 208.611 88.3115 208.643 85.9804 208.685C83.0671 208.736 80.6515 205.762 80.587 202.039C80.5225 198.318 82.8314 195.259 85.7447 195.209C87.7111 195.175 89.9756 195.134 89.9756 195.134C89.9756 195.134 91.118 200.645 91.1381 201.855" stroke="black" stroke-width="2" stroke-linecap="round" stroke-linejoin="round"/>
<path d="M95.3691 201.781C95.4336 205.502 93.1247 208.56 90.2114 208.61C87.2981 208.661 84.8824 205.685 84.818 201.964C84.7535 198.243 87.0624 195.184 89.9757 195.134C92.891 195.084 95.3046 198.057 95.3691 201.781Z" fill="#00CA20"/>
<path d="M95.3691 201.781C95.4336 205.502 93.1247 208.56 90.2114 208.61C87.2981 208.661 84.8824 205.685 84.818 201.964C84.7535 198.243 87.0624 195.184 89.9757 195.134C92.891 195.084 95.3046 198.057 95.3691 201.781" stroke="black" stroke-width="2" stroke-linecap="round" stroke-linejoin="round"/>
<path d="M66.4338 195.223C66.4338 195.223 73.2859 195.283 73.5921 201.384C73.8983 207.484 66.7501 208.687 66.7501 208.687C66.7501 208.687 46.1273 211.427 32.6065 206.11C26.4415 199.742 33.0659 193.172 33.0659 193.172C33.0659 193.172 52.2602 196.293 66.4358 195.221L66.4338 195.223Z" fill="white" stroke="black" stroke-width="2" stroke-linecap="round" stroke-linejoin="round"/>
<path d="M66.7478 208.689C66.7478 208.689 46.1271 211.427 32.6063 206.11C30.0879 203.509 29.7011 200.874 30.1262 198.668C30.5352 199.492 31.1235 200.328 31.9273 201.16C45.4522 206.475 66.0729 203.737 66.0729 203.737C66.0729 203.737 71.6235 202.8 72.7356 198.41C73.2111 199.192 73.5314 200.169 73.5919 201.384C73.9001 207.484 66.7478 208.689 66.7478 208.689Z" fill="black" stroke="black" stroke-width="2" stroke-linecap="round" stroke-linejoin="round"/>
<path d="M111.33 39.2749C111.33 39.2749 131.554 50.1967 137.471 71.4763" stroke="white" stroke-width="6" stroke-linecap="round" stroke-linejoin="round"/>
<path d="M1.86969 128.128C1.86969 128.128 9.0401 157.001 49.3769 167.142C49.3769 167.142 45.5066 170.957 40.9876 172.755C40.9876 172.755 -5.39139 162.429 1.8717 128.13L1.86969 128.128Z" fill="black" stroke="black" stroke-width="2" stroke-linecap="round" stroke-linejoin="round"/>
<path d="M75.8907 229.161L75.5039 280.246C75.5039 280.246 72.1695 294.855 85.8636 293.437L101.264 293.771C101.264 293.771 83.8569 290.826 83.0027 284.169C82.1484 277.512 78.7556 228.689 78.7556 228.689C78.7556 228.689 77.8833 224.779 74.8027 227.251C74.8027 227.251 76.2533 227.267 75.8927 229.159L75.8907 229.161Z" fill="black" stroke="black" stroke-width="2" stroke-linecap="round" stroke-linejoin="round"/>
</g>
<defs>
<clipPath id="clip0_839_10001">
<rect width="292.486" height="304.28" fill="white"/>
</clipPath>
</defs>
</svg>
