<svg width="212" height="558" viewBox="0 0 212 558" fill="none" xmlns="http://www.w3.org/2000/svg">
<g clip-path="url(#clip0_3304_20941)">
<path d="M71.2968 125.566C48.0647 132.692 23.4543 119.636 16.3277 96.4041C9.20119 73.172 22.2573 48.5615 45.4893 41.435C68.7214 34.3084 93.3319 47.3645 100.458 70.5966C107.585 93.8287 94.5289 118.439 71.2968 125.566Z" fill="black" stroke="white" stroke-linecap="round" stroke-linejoin="round"/>
<path d="M185.842 104.704C184.976 104.831 184.046 105.041 183.126 105.331L183.123 105.332C180.505 106.152 177.977 107.585 177.285 109.377C176.541 111.29 176.538 113.165 176.305 114.835C176.025 116.836 175.419 118.549 172.808 119.686C172.526 119.808 172.248 119.916 171.963 120.011C170.947 120.362 169.932 120.562 168.987 120.741C166.124 121.284 163.894 121.635 164.141 125.326L146.276 113.16L115.431 92.1519L166.026 97.1586L185.737 104.289C186.232 104.376 186.344 104.63 185.84 104.707" fill="#D93732"/>
<path d="M185.842 104.704C184.976 104.831 184.046 105.041 183.126 105.331L183.123 105.332C180.505 106.152 177.977 107.585 177.285 109.377C176.541 111.29 176.538 113.165 176.305 114.835C176.025 116.836 175.419 118.549 172.808 119.686C172.526 119.808 172.248 119.916 171.963 120.011C170.947 120.362 169.932 120.562 168.987 120.741C166.124 121.284 163.894 121.635 164.141 125.326L146.276 113.16L115.431 92.1519L166.026 97.1586L185.737 104.289C186.232 104.376 186.344 104.63 185.84 104.707" stroke="black" stroke-miterlimit="10"/>
<path d="M171.769 118.807C172.155 118.689 172.54 118.551 172.922 118.383C175.498 117.261 175.669 115.612 175.929 113.116C175.939 113.01 175.952 112.906 175.962 112.799C175.519 112.213 174.931 111.609 174.149 111.026C171.033 108.697 148.628 104.975 141.701 102.783C142.965 103.928 144.203 105.233 145.419 106.749C146.791 108.46 147.928 110.274 148.831 112.165C149.691 112.808 150.62 113.491 151.586 114.185C159.036 116.116 166.428 118.101 170.361 119.166C170.828 119.065 171.3 118.951 171.769 118.807ZM181.284 104.721C181.803 104.481 182.346 104.267 182.897 104.076C179.639 103.326 176.171 102.528 173.074 101.824C163.259 99.5886 142.596 96.5962 125.505 94.2967C128.198 95.2343 130.832 96.159 133.397 97.356C135.005 97.0665 137.457 97.118 138.887 99.5281C138.887 99.5281 138.887 99.5281 138.886 99.5256C139.13 99.9393 139.346 100.423 139.521 100.986C139.753 101.16 139.987 101.339 140.216 101.523C144.448 101.146 172.601 103.863 181.284 104.721Z" fill="#B83033"/>
<path d="M175.915 113.348C176.048 112.089 176.23 110.685 176.796 109.244C177.435 107.618 179.152 106.303 181.202 105.36C172.598 104.522 144.695 101.871 140.499 102.246C140.993 102.637 141.481 103.049 141.967 103.487C148.83 105.645 171.033 109.298 174.119 111.595C174.892 112.173 175.475 112.766 175.914 113.345" fill="black"/>
<path d="M163.869 122.274C164.486 121.268 165.478 120.74 166.581 120.401C167.272 120.189 168.008 120.053 168.717 119.919C169.11 119.847 169.505 119.773 169.902 119.687C166.063 118.587 158.853 116.532 151.586 114.536C154.82 116.941 158.502 119.502 161.54 121.145C162.291 121.549 163.072 121.926 163.871 122.274" fill="black"/>
<path d="M98.088 90.1512L181.176 94.1504C188.151 94.4841 193.91 99.6179 194.982 106.452C194.982 106.452 182.213 103.461 172.734 101.284C154.221 97.0324 98.0906 90.1504 98.0906 90.1504" fill="#D93732"/>
<path d="M98.088 90.1512L181.176 94.1504C188.151 94.4841 193.91 99.6179 194.982 106.452C194.982 106.452 182.213 103.461 172.734 101.284C154.221 97.0324 98.0906 90.1504 98.0906 90.1504" stroke="black" stroke-miterlimit="10"/>
<path d="M193.868 105.749C192.242 100.263 187.271 96.2431 181.458 95.9378L126.166 93.0455C129.349 93.4968 132.649 93.9715 135.973 94.4614L180.669 96.7985C186.365 97.1001 191.263 100.615 193.477 105.656C193.615 105.688 193.743 105.72 193.868 105.749Z" fill="white"/>
<path d="M154.985 165.016C151.36 169.635 141.235 172.309 138.76 158.62C138.76 158.62 128.776 160.472 119.748 159.165C115.262 158.515 111.012 157.086 108.338 154.26L119.836 116.957C119.836 116.957 128.915 127.63 135.376 132.672C139.07 135.555 143.855 137.733 147.765 138.901C148.83 139.22 149.833 139.464 150.727 139.624C157.086 140.765 159.905 158.748 154.985 165.016Z" fill="black" stroke="white" stroke-linecap="round" stroke-linejoin="round"/>
<path d="M149.272 168.592C151.078 168.038 152.702 166.885 153.684 165.634C153.939 165.31 154.169 164.952 154.378 164.562C153.799 164.901 153.18 165.175 152.551 165.368C148.412 166.638 143.74 164.423 146.025 154.58C146.025 154.58 144.1 155.508 141.007 156.457C140.067 156.745 139.02 157.036 137.885 157.3C137.702 157.343 137.525 157.338 137.357 157.362C117.771 160.104 113.254 156.629 113.254 156.629C113.187 157.363 119.695 159.907 125.926 160.072C130.954 160.204 135.153 159.51 138.131 158.805C138.509 158.734 138.887 158.665 139.265 158.594L139.466 159.711C140.405 164.905 142.547 168.035 145.663 168.771C146.384 168.943 147.628 169.099 149.274 168.589" fill="black"/>
<path d="M86.12 148.05C84.3819 150.609 82.5596 152.737 81.0513 154.06C68.357 165.193 56.7913 154.389 56.1709 147.253C55.3335 137.618 65.5755 138.624 65.5755 138.624C68.7806 137.265 71.1045 134.761 71.927 130.833C72.9393 126.028 71.7126 119.102 67.1169 109.549C66.3604 107.978 65.5133 106.333 64.5704 104.617L68.6535 107.819L89.8065 124.408C95.3157 130.054 91.0567 140.789 86.1207 148.053" fill="white"/>
<path d="M86.12 148.05C84.3819 150.609 82.5596 152.737 81.0513 154.06C68.357 165.193 56.7913 154.389 56.1709 147.253C55.3335 137.618 65.5755 138.624 65.5755 138.624C68.7806 137.265 71.1045 134.761 71.927 130.833C72.9393 126.028 71.7126 119.102 67.1169 109.549C66.3604 107.978 65.5133 106.333 64.5704 104.617L68.6535 107.819L89.8065 124.408C95.3157 130.054 91.0567 140.789 86.1207 148.053" stroke="black" stroke-linecap="round" stroke-linejoin="round"/>
<path d="M73.489 157.324C75.7863 156.619 78.3015 155.285 80.9773 153.011C82.1542 152.01 83.4553 150.636 84.7617 149.008L81.7416 146.493C81.4252 146.231 81.1312 145.947 80.8586 145.649C80.5215 147.175 79.6879 148.62 78.3783 149.741C78.3622 149.754 78.3461 149.768 78.33 149.781C75.5951 152.105 72.9211 153.56 70.3742 154.341C66.0584 155.665 62.1197 155.05 58.9255 153.44C60.3765 154.964 62.2438 156.289 64.43 157.107C66.7143 157.963 69.8198 158.449 73.489 157.324Z" fill="black"/>
<path d="M139.122 147.402C132.421 153.373 123.05 157.109 112.091 156.448C92.4912 155.266 80.0309 138.857 73.3384 126.37C69.1299 118.522 67.1981 112.225 67.1981 112.225L99.0155 76.2718C103.292 82.7366 107.668 86.7534 112.04 89.5299C120.421 94.8623 128.787 95.6398 136.418 100.434C139.083 102.11 141.659 104.272 144.111 107.292C144.201 107.402 144.295 107.514 144.383 107.628C145.173 108.624 145.878 109.649 146.499 110.7C153.677 122.799 149.769 137.919 139.125 147.404" fill="white"/>
<path d="M139.122 147.402C132.421 153.373 123.05 157.109 112.091 156.448C92.4912 155.266 80.0309 138.857 73.3384 126.37C69.1299 118.522 67.1981 112.225 67.1981 112.225L99.0155 76.2718C103.292 82.7366 107.668 86.7534 112.04 89.5299C120.421 94.8623 128.787 95.6398 136.418 100.434C139.083 102.11 141.659 104.272 144.111 107.292C144.201 107.402 144.295 107.514 144.383 107.628C145.173 108.624 145.878 109.649 146.499 110.7C153.677 122.799 149.769 137.919 139.125 147.404" stroke="black" stroke-linecap="round" stroke-linejoin="round"/>
<path d="M124.687 155.193C130.24 153.701 134.959 151.053 138.794 147.835C138.558 147.667 138.328 147.491 138.105 147.31C138.012 147.247 137.922 147.184 137.831 147.118C137.35 146.761 136.924 146.346 136.56 145.888C136.56 145.888 136.558 145.883 136.555 145.881C136.555 145.881 136.554 145.879 136.553 145.876C136.432 145.722 136.317 145.567 136.211 145.406C132.193 148.63 127.425 151.126 122.071 152.563C118.148 153.617 113.912 154.103 109.43 153.891L105.606 155.58C106.951 155.878 108.331 156.103 109.747 156.255C115.249 156.844 120.237 156.388 124.69 155.192" fill="black"/>
<path d="M81.2048 124.617C90.2363 121.846 98.112 115.963 103.653 108.317C103.53 108.233 103.403 108.147 103.279 108.063L102.823 107.74L102.388 107.393C102.099 107.161 101.807 106.936 101.524 106.696C101.239 106.457 100.952 106.224 100.674 105.98C100.402 105.731 100.128 105.483 99.8623 105.226C99.6007 104.983 99.3442 104.738 99.0895 104.489C97.5615 106.784 95.8295 108.968 93.9082 111.017C88.1038 117.204 81.0097 121.652 73.3424 124.004C73.2072 124.046 73.0746 124.086 72.9395 124.128C73.2711 124.781 73.6203 125.447 73.9836 126.122C76.4571 125.846 78.87 125.336 81.2082 124.618" fill="black"/>
<path d="M81.2048 124.617C90.2363 121.846 98.112 115.963 103.653 108.317C103.53 108.233 103.403 108.147 103.279 108.063L102.823 107.74L102.388 107.393C102.099 107.161 101.807 106.936 101.524 106.696C101.239 106.457 100.952 106.224 100.674 105.98C100.402 105.731 100.128 105.483 99.8623 105.226C99.6007 104.983 99.3442 104.738 99.0895 104.489C97.5615 106.784 95.8295 108.968 93.9082 111.017C88.1038 117.204 81.0097 121.652 73.3424 124.004C73.2072 124.046 73.0746 124.086 72.9395 124.128C73.2711 124.781 73.6202 125.447 73.9836 126.122C76.4571 125.846 78.87 125.336 81.2082 124.618" stroke="black" stroke-linecap="round" stroke-linejoin="round"/>
<path d="M29.8634 113.083C76.0245 152.487 133.106 90.3699 93.0004 47.8596C46.7068 6.4026 -12.2366 70.6678 29.8634 113.083Z" fill="white"/>
<path d="M29.8634 113.083C76.0245 152.487 133.106 90.3699 93.0004 47.8596C46.7068 6.4026 -12.2366 70.6678 29.8634 113.083Z" fill="white"/>
<path d="M29.8634 113.083C76.0245 152.487 133.106 90.3699 93.0004 47.8596C46.7068 6.4026 -12.2366 70.6678 29.8634 113.083Z" fill="white" stroke="black" stroke-linecap="round" stroke-linejoin="round"/>
<path d="M38.9641 119.721C90.3528 133.447 113.664 71.6972 71.8924 51.1931C23.7001 31.0633 -7.33024 91.8367 38.9641 119.721Z" fill="#5555FF" stroke="black" stroke-linecap="round" stroke-linejoin="round"/>
<path d="M18.3344 92.6559C32.0972 142.74 99.8077 128.637 94.216 80.9608C80.4059 113.745 35.2845 119.822 18.3344 92.6559Z" fill="black" stroke="black" stroke-linecap="round" stroke-linejoin="round"/>
<path d="M40.2949 44.974C46.0263 43.2159 52.2283 42.5787 58.5096 43.1824C70.9907 44.3811 82.1854 50.3174 89.2232 59.473C103.444 78.991 97.1788 101.536 83.6302 113.71C71.8382 124.304 50.7691 130.128 30.1911 111.676C19.6997 102.121 13.9098 85.6057 17.1219 70.1917C19.6037 58.2899 28.4816 48.6511 40.1233 45.0294C40.1799 45.0121 40.2365 44.9947 40.2931 44.9773M69.6435 123.979C75.2076 122.272 80.4571 119.301 84.9957 115.224C92.5643 108.422 97.527 99.2379 98.9653 89.3591C100.553 78.4611 97.7492 67.7064 90.8627 58.2547C83.4655 48.6342 71.752 42.411 58.7105 41.1569C53.0244 40.6119 46.7616 41.2986 40.7392 42.9159C27.9575 46.3458 18.2432 56.7462 15.6519 69.686C14.6626 74.6213 14.0391 79.8681 14.5123 84.192C15.75 95.4691 20.9629 106.037 28.8123 113.185L28.8147 113.193C38.0853 121.503 48.5608 125.812 59.1064 125.657C62.6744 125.603 66.2188 125.032 69.6443 123.982" fill="black"/>
<path d="M40.2949 44.974C46.0263 43.2159 52.2283 42.5787 58.5096 43.1824C70.9907 44.3811 82.1854 50.3174 89.2232 59.473C103.444 78.991 97.1788 101.536 83.6302 113.71C71.8382 124.304 50.7691 130.128 30.1911 111.676C19.6997 102.121 13.9098 85.6057 17.1219 70.1917C19.6037 58.2899 28.4816 48.6511 40.1233 45.0294C40.1799 45.0121 40.2365 44.9947 40.2931 44.9773M69.6435 123.979C75.2076 122.272 80.4571 119.301 84.9957 115.224C92.5643 108.422 97.527 99.2379 98.9653 89.3591C100.553 78.4611 97.7492 67.7064 90.8627 58.2547C83.4655 48.6342 71.752 42.411 58.7105 41.1569C53.0244 40.6119 46.7616 41.2986 40.7392 42.9159C27.9575 46.3458 18.2432 56.7462 15.6519 69.686C14.6626 74.6213 14.0391 79.8681 14.5123 84.192C15.75 95.4691 20.9629 106.037 28.8123 113.185L28.8147 113.193C38.0853 121.503 48.5608 125.811 59.1064 125.657C62.6744 125.603 66.2188 125.032 69.6443 123.982" stroke="black" stroke-linecap="round" stroke-linejoin="round"/>
<path d="M113.166 75.0218C115.996 96.1987 94.8432 100.899 90.0901 80.9625C86.3039 58.8794 108.914 53.8524 113.166 75.0218Z" fill="white" stroke="black" stroke-linecap="round" stroke-linejoin="round"/>
<path d="M114.334 75.3833C116.63 92.5092 101.012 96.2451 97.161 80.1533C93.9585 62.1111 110.938 58.0665 114.334 75.3833Z" fill="black" stroke="black" stroke-linecap="round" stroke-linejoin="round"/>
<path d="M63.7827 138.592C63.7827 138.592 69.3645 138.318 72.8754 142.866C72.8754 142.866 74.8404 142.107 74.4971 139.628C74.0945 136.734 70.7351 133.382 66.8581 134.263C63.9164 134.93 63.7827 138.592 63.7827 138.592Z" fill="white" stroke="black" stroke-linecap="round" stroke-linejoin="round"/>
<path d="M73.4136 142.703C73.9835 142.265 74.7481 141.357 74.5178 139.701C74.4124 138.937 74.1049 138.144 73.6469 137.401C74.1074 138.144 74.4124 138.937 74.5203 139.7C74.7499 141.353 73.9852 142.262 73.4154 142.699" fill="#B6AEBC"/>
<path d="M72.4368 142.992C72.4368 142.992 72.6617 142.906 72.9512 142.7C72.9695 142.686 72.986 142.675 73.0043 142.661C73.5812 142.232 74.356 141.343 74.1502 139.752C74.0543 139.016 73.7593 138.257 73.3036 137.544C73.3024 137.559 73.3004 137.571 73.2991 137.585C73.236 138.272 72.7562 138.769 72.1679 138.95C71.7267 139.085 71.2219 139.041 70.7821 138.767C68.0909 137.08 65.181 136.999 63.5043 137.138C63.433 137.32 63.3772 137.497 63.3293 137.663C63.2851 137.822 63.2488 137.971 63.2196 138.106C63.2196 138.106 63.2196 138.106 63.2204 138.108C63.1792 138.314 63.1533 138.488 63.1381 138.613C63.1381 138.613 63.1389 138.616 63.1397 138.618C63.1397 138.618 63.1413 138.623 63.142 138.626C63.142 138.626 63.142 138.626 63.1428 138.628C63.1286 138.748 63.1251 138.819 63.124 138.825C63.1266 138.824 68.8885 138.484 72.4496 142.96" fill="black"/>
<path d="M107.634 110.631C97.8864 104.088 83.2224 86.7739 83.2224 86.7739C83.2224 86.7739 80.8278 87.4159 77.7893 87.0357C75.5171 86.7514 72.8835 85.8965 70.6182 83.7761C69.8961 83.106 69.2131 82.3061 68.5912 81.3556C62.4898 72.0394 72.2199 60.7352 83.3637 60.5918C100.881 60.372 106.343 83.9856 126.088 98.5464" fill="white"/>
<path d="M107.634 110.631C97.8864 104.088 83.2224 86.7739 83.2224 86.7739C83.2224 86.7739 80.8278 87.4159 77.7893 87.0357C75.5171 86.7514 72.8835 85.8965 70.6182 83.7761C69.8961 83.106 69.2131 82.3061 68.5912 81.3556C62.4898 72.0394 72.2199 60.7352 83.3637 60.5918C100.881 60.372 106.343 83.9856 126.088 98.5464" stroke="black" stroke-linecap="round" stroke-linejoin="round"/>
<path d="M80.7491 85.9839C83.3869 84.9476 86.054 83.6107 87.8953 81.9748C93.1258 77.3252 92.2968 73.3342 91.2134 71.2383C91.1631 71.4977 91.1002 71.7525 91.0304 72.0038C90.7778 72.8552 90.5096 73.6834 90.1621 74.4741C90.0944 74.6491 89.9562 74.9439 89.8255 75.1438C89.7612 75.2561 89.6911 75.3589 89.6228 75.4583C89.5527 75.5612 89.4836 75.6581 89.4104 75.7506C89.119 76.126 88.8125 76.4612 88.4913 76.7672C87.2094 77.9904 85.7994 78.9248 84.33 79.7485C82.8583 80.5645 81.3216 81.2518 79.7182 81.7857C79.5358 81.8445 79.3534 81.9032 79.1702 81.9594C78.8476 82.0583 78.5202 82.1504 78.1911 82.2373C77.7112 82.8724 77.0342 83.4446 76.2947 83.9238C76.0613 84.0739 75.8229 84.2171 75.5788 84.3509C75.1876 84.5663 74.8094 84.7692 74.448 84.953C75.2137 85.2957 76.0235 85.552 76.8559 85.7256C77.8539 85.9327 78.8821 86.0266 79.9155 86.0181C80.1937 86.014 80.473 86.0041 80.7525 85.9856" fill="black"/>
<path d="M80.7491 85.9839C83.3869 84.9476 86.054 83.6107 87.8953 81.9748C93.1258 77.3252 92.2968 73.3342 91.2134 71.2383C91.1631 71.4977 91.1002 71.7525 91.0304 72.0038C90.7778 72.8552 90.5096 73.6834 90.1621 74.4741C90.0944 74.6491 89.9562 74.9439 89.8255 75.1438C89.7612 75.2561 89.6911 75.3589 89.6228 75.4583C89.5527 75.5612 89.4836 75.6581 89.4104 75.7506C89.119 76.126 88.8125 76.4612 88.4913 76.7672C87.2094 77.9904 85.7994 78.9248 84.33 79.7485C82.8583 80.5645 81.3216 81.2518 79.7182 81.7857C79.5358 81.8445 79.3534 81.9032 79.1702 81.9594C78.8476 82.0584 78.5202 82.1504 78.1911 82.2373C77.7112 82.8724 77.0342 83.4446 76.2947 83.9238C76.0613 84.0739 75.8229 84.2171 75.5788 84.3509C75.1876 84.5663 74.8094 84.7692 74.448 84.953C75.2137 85.2957 76.0235 85.552 76.8559 85.7256C77.8539 85.9327 78.8821 86.0266 79.9155 86.0181C80.1937 86.014 80.473 86.0041 80.7525 85.9856" stroke="black" stroke-linecap="round" stroke-linejoin="round"/>
<path d="M67.4269 79.1006C67.4269 79.1006 75.6348 75.8285 77.7675 77.9587C80.3476 80.5348 78.0863 82.9641 75.57 84.3417C73.1334 85.6751 71.3178 86.5574 69.3915 84.9527C66.7604 82.7624 67.4269 79.1006 67.4269 79.1006Z" fill="white" stroke="black" stroke-linecap="round" stroke-linejoin="round"/>
<path d="M74.4423 84.9432C74.8045 84.762 75.1819 84.5565 75.5732 84.3412C75.8147 84.2082 76.0556 84.0642 76.2891 83.9141C76.0556 84.0642 75.8173 84.2074 75.5732 84.3412C75.1819 84.5565 74.8037 84.7594 74.4423 84.9432Z" fill="#887C91"/>
<path d="M72.8671 85.6129C73.0038 85.5709 73.1416 85.5231 73.2812 85.4718C73.656 85.3316 74.0438 85.151 74.4475 84.9486C74.8115 84.7641 75.1871 84.5619 75.5784 84.3466C75.8199 84.2136 76.0608 84.0696 76.2943 83.9195C78.4198 82.5384 80.0118 80.4209 77.971 78.1673C77.6178 79.5374 76.2123 80.7256 74.7209 81.542C73.7324 82.0836 72.843 82.5527 72.0096 82.8084C70.7917 83.1819 69.6871 83.1058 68.5423 82.1531C68.0505 81.746 67.6751 81.2863 67.3899 80.8074C67.4659 81.7178 67.7194 82.857 68.4229 83.8805C68.6835 84.2605 69.0041 84.6248 69.4024 84.9568C69.7706 85.2645 70.1361 85.4804 70.5036 85.6201C71.2706 85.9119 72.044 85.8654 72.8697 85.6121" fill="black"/>
<path d="M72.8671 85.6129C73.0038 85.5709 73.1416 85.5231 73.2812 85.4718C73.656 85.3316 74.0438 85.151 74.4475 84.9486C74.8115 84.7641 75.1871 84.5619 75.5784 84.3466C75.8199 84.2136 76.0608 84.0696 76.2943 83.9195C78.4198 82.5384 80.0118 80.4209 77.971 78.1673C77.6178 79.5374 76.2123 80.7256 74.7209 81.542C73.7324 82.0836 72.843 82.5527 72.0096 82.8084C70.7917 83.1819 69.6871 83.1058 68.5423 82.1531C68.0505 81.746 67.6751 81.2863 67.3899 80.8074C67.4659 81.7178 67.7194 82.857 68.4229 83.8805C68.6835 84.2605 69.0041 84.6248 69.4024 84.9568C69.7706 85.2645 70.1361 85.4804 70.5036 85.6201C71.2706 85.9119 72.044 85.8654 72.8697 85.6121" stroke="black" stroke-linecap="round" stroke-linejoin="round"/>
<mask id="path-40-outside-1_3304_20941" maskUnits="userSpaceOnUse" x="124.942" y="96.5056" width="67.9724" height="71.9489" fill="black">
<rect fill="white" x="124.942" y="96.5056" width="67.9724" height="71.9489"/>
<path d="M143.312 108.506C143.312 108.506 154.269 117.451 161.587 121.294C166.911 124.088 173.758 125.456 178.032 125.463C184.514 125.474 190.675 142.733 187.006 149.777C184.3 154.973 174.825 159.385 169.809 146.31C169.809 146.31 146.879 153.585 137.339 146.599"/>
</mask>
<path d="M143.312 108.506C143.312 108.506 154.269 117.451 161.587 121.294C166.911 124.088 173.758 125.456 178.032 125.463C184.514 125.474 190.675 142.733 187.006 149.777C184.3 154.973 174.825 159.385 169.809 146.31C169.809 146.31 146.879 153.585 137.339 146.599" fill="white"/>
<path d="M142.68 109.28C142.252 108.931 142.188 108.301 142.537 107.873C142.887 107.445 143.517 107.382 143.945 107.731L142.68 109.28ZM161.587 121.294L161.123 122.179L161.122 122.179L161.587 121.294ZM178.032 125.463L178.033 124.463L178.033 124.463L178.032 125.463ZM187.006 149.777L186.119 149.315L186.119 149.315L187.006 149.777ZM169.809 146.31L169.506 145.357C170.011 145.196 170.553 145.457 170.742 145.952L169.809 146.31ZM136.748 147.406C136.303 147.079 136.206 146.454 136.532 146.008C136.859 145.563 137.484 145.466 137.93 145.792L136.748 147.406ZM143.312 108.506C143.945 107.731 143.945 107.731 143.945 107.731C143.945 107.731 143.945 107.731 143.945 107.731C143.945 107.732 143.946 107.732 143.946 107.732C143.947 107.733 143.949 107.735 143.952 107.737C143.957 107.741 143.965 107.747 143.975 107.756C143.995 107.772 144.026 107.797 144.066 107.83C144.147 107.896 144.268 107.993 144.423 108.118C144.735 108.368 145.189 108.731 145.757 109.178C146.893 110.072 148.484 111.305 150.302 112.656C153.951 115.37 158.467 118.526 162.052 120.408L161.122 122.179C157.389 120.219 152.767 116.981 149.108 114.261C147.272 112.896 145.667 111.652 144.52 110.749C143.946 110.298 143.487 109.931 143.171 109.677C143.013 109.55 142.891 109.451 142.807 109.384C142.766 109.35 142.734 109.325 142.713 109.307C142.702 109.298 142.694 109.292 142.688 109.287C142.686 109.285 142.683 109.283 142.682 109.282C142.681 109.282 142.681 109.281 142.68 109.281C142.68 109.281 142.68 109.28 142.68 109.28C142.68 109.28 142.68 109.28 143.312 108.506ZM162.052 120.408C167.222 123.122 173.909 124.456 178.033 124.463L178.03 126.463C173.608 126.456 166.6 125.054 161.123 122.179L162.052 120.408ZM178.033 124.463C180.101 124.467 181.956 125.828 183.455 127.638C184.98 129.481 186.293 131.969 187.265 134.64C188.24 137.317 188.892 140.229 189.061 142.945C189.23 145.641 188.929 148.249 187.893 150.239L186.119 149.315C186.917 147.783 187.223 145.592 187.065 143.07C186.909 140.569 186.303 137.845 185.386 135.325C184.466 132.799 183.253 130.531 181.914 128.914C180.549 127.265 179.203 126.465 178.03 126.463L178.033 124.463ZM187.893 150.239C186.408 153.091 183.072 155.761 179.309 155.895C175.392 156.033 171.471 153.436 168.875 146.668L170.742 145.952C173.162 152.26 176.487 153.993 179.238 153.896C182.144 153.793 184.899 151.659 186.119 149.315L187.893 150.239ZM169.809 146.31C170.111 147.263 170.111 147.263 170.111 147.263C170.11 147.263 170.11 147.263 170.109 147.263C170.108 147.264 170.107 147.264 170.105 147.265C170.102 147.266 170.098 147.267 170.092 147.269C170.079 147.273 170.062 147.278 170.039 147.285C169.993 147.3 169.926 147.32 169.839 147.347C169.664 147.4 169.408 147.476 169.081 147.57C168.425 147.758 167.481 148.018 166.319 148.308C163.996 148.886 160.795 149.586 157.286 150.065C153.783 150.543 149.943 150.806 146.351 150.497C142.774 150.189 139.343 149.306 136.748 147.406L137.93 145.792C140.105 147.385 143.118 148.212 146.523 148.505C149.914 148.796 153.594 148.55 157.016 148.083C160.433 147.617 163.56 146.934 165.835 146.367C166.972 146.084 167.893 145.83 168.529 145.647C168.847 145.556 169.093 145.483 169.259 145.433C169.342 145.408 169.405 145.388 169.446 145.375C169.467 145.369 169.483 145.364 169.493 145.361C169.498 145.359 169.501 145.358 169.504 145.357C169.505 145.357 169.506 145.357 169.506 145.357C169.506 145.357 169.506 145.357 169.506 145.356C169.506 145.356 169.506 145.357 169.809 146.31Z" fill="black" mask="url(#path-40-outside-1_3304_20941)"/>
<path d="M181.28 154.558C183.788 153.788 185.932 151.849 187.006 149.784C185.932 151.849 183.788 153.788 181.278 154.558C181.066 154.623 180.852 154.681 180.635 154.728C180.852 154.681 181.069 154.623 181.28 154.558ZM173.294 152.23C172.013 150.878 170.821 148.953 169.81 146.319C170.822 148.956 172.013 150.878 173.294 152.23Z" fill="#91A3BB"/>
<path d="M137.085 146.451C136.646 146.159 136.255 145.814 135.917 145.43C136.255 145.814 136.645 146.157 137.085 146.451ZM135.912 145.425C135.912 145.425 135.912 145.423 135.911 145.42C135.911 145.42 135.912 145.423 135.912 145.425Z" fill="#887C91"/>
<path d="M181.28 154.55C183.788 153.781 185.934 151.841 187.009 149.776C187.593 148.655 187.929 147.273 188.053 145.743C188.11 145.039 188.122 144.303 188.091 143.547C187.981 143.853 187.75 144.112 187.706 144.42C187.389 146.662 185.458 148.41 183.218 149.097C178.981 150.396 173.642 147.901 176.034 137.78C176.034 137.78 171.109 141.06 164.057 143.223C156.647 145.496 146.892 146.534 138.042 141.241C137.859 141.134 137.664 141.031 137.459 140.934C136.978 140.709 136.482 140.693 136.038 140.829C135.076 141.124 134.379 142.131 134.708 143.231L134.718 143.261C134.959 144.048 135.365 144.782 135.914 145.412C135.914 145.412 135.914 145.412 135.915 145.417C135.915 145.417 135.917 145.423 135.92 145.424C136.258 145.809 136.649 146.152 137.089 146.445C137.17 146.499 137.254 146.552 137.337 146.602C146.436 153.266 167.707 146.96 169.663 146.36C169.759 146.33 169.808 146.315 169.808 146.315C170.819 148.949 172.011 150.875 173.292 152.226C175.628 154.689 178.261 155.247 180.636 154.723C180.853 154.676 181.067 154.619 181.278 154.554" fill="black"/>
<path d="M80.4398 140.482L81.2732 137.944C81.6792 136.709 82.454 135.627 83.4976 134.842L100.924 121.737C101.212 121.523 103.377 125.407 103.59 125.695L103.188 131.398L80.439 140.479L80.4398 140.482Z" fill="white" stroke="black" stroke-linecap="round" stroke-linejoin="round"/>
<path d="M122.669 142.188C120.208 145.467 116.294 150.627 116.122 150.48L109.371 144.08L94.4171 129.898C94.3213 129.807 98.4284 124.366 100.928 121.746C101.973 120.646 103.899 121.925 105.127 122.976L114.2 130.694L121.966 137.301C123.465 138.571 123.775 140.714 122.669 142.188Z" fill="black" stroke="black" stroke-linecap="round" stroke-linejoin="round"/>
<path d="M115.905 150.594L100.693 157.849C98.176 158.627 96.2587 158.828 94.1044 156.968L93.0064 156.02L82.0055 146.525C81.2646 145.885 80.686 145.14 80.2915 144.37C79.3582 142.542 80.2521 140.855 81.7211 139.165L93.5672 130.24C95.4611 128.812 98.086 128.856 99.9199 130.343L102.002 132.169L116.694 145.058C118.501 146.641 118.084 149.553 115.907 150.591" fill="white"/>
<path d="M115.905 150.594L100.693 157.849C98.176 158.627 96.2587 158.828 94.1044 156.968L93.0064 156.02L82.0055 146.525C81.2646 145.885 80.686 145.14 80.2915 144.37C79.3582 142.542 80.2521 140.855 81.7211 139.165L93.5672 130.24C95.4611 128.812 98.086 128.856 99.9199 130.343L102.002 132.169L116.694 145.058C118.501 146.641 118.084 149.553 115.907 150.591" stroke="black" stroke-linecap="round" stroke-linejoin="round"/>
<path d="M100.784 143.249C101.153 143.624 104.571 146.226 104.571 146.226C104.571 146.226 105.367 145.452 106.343 144.502C107.563 143.315 107.051 140.828 105.201 138.947C103.351 137.067 100.862 136.507 99.6422 137.694C98.8184 138.497 97.8703 139.418 97.8703 139.418C97.8703 139.418 100.181 142.635 100.784 143.247" fill="#51A4E9"/>
<path d="M100.784 143.249C101.153 143.624 104.571 146.226 104.571 146.226C104.571 146.226 105.367 145.452 106.343 144.502C107.563 143.315 107.051 140.828 105.201 138.947C103.351 137.067 100.862 136.507 99.6422 137.694C98.8184 138.497 97.8703 139.418 97.8703 139.418C97.8703 139.418 100.181 142.635 100.784 143.247" fill="#51A4E9"/>
<path d="M100.784 143.249C101.153 143.624 104.571 146.226 104.571 146.226C104.571 146.226 105.367 145.452 106.343 144.502C107.563 143.315 107.051 140.828 105.201 138.947C103.351 137.067 100.862 136.507 99.6422 137.694C98.8184 138.497 97.8703 139.418 97.8703 139.418C97.8703 139.418 100.181 142.635 100.784 143.247" stroke="black" stroke-linecap="round" stroke-linejoin="round"/>
<path d="M98.4094 145.546C100.259 147.426 102.749 147.986 103.968 146.799C105.188 145.612 104.676 143.125 102.826 141.244C100.976 139.364 98.4867 138.804 97.2672 139.991C96.0477 141.179 96.5594 143.666 98.4094 145.546Z" fill="#51A4E9" stroke="black" stroke-linecap="round" stroke-linejoin="round"/>
<path d="M131.68 98.2344C131.68 98.2344 127.362 114.361 113.141 125.677C110.922 127.443 110.344 130.604 111.975 132.866C112.836 134.06 114.192 134.807 116.325 134.15C125.224 131.403 141.272 108.353 139.465 101.754C137.776 95.5877 131.683 98.2336 131.683 98.2336" fill="white"/>
<path d="M131.68 98.2344C131.68 98.2344 127.362 114.361 113.141 125.677C110.922 127.443 110.344 130.604 111.975 132.866C112.836 134.06 114.192 134.807 116.325 134.15C125.224 131.403 141.272 108.353 139.465 101.754C137.776 95.5877 131.683 98.2336 131.683 98.2336" stroke="black" stroke-linecap="round" stroke-linejoin="round"/>
<path d="M139.378 101.442C139.201 100.877 138.985 100.391 138.741 99.9749C138.741 99.9749 138.741 99.9749 138.742 99.9775C138.988 100.393 139.201 100.877 139.38 101.442" fill="#892736"/>
<path d="M118.404 133.226C126.423 128.694 137.975 112.44 139.445 104.469C137.972 112.441 126.423 128.694 118.404 133.226Z" fill="#B6AEBC"/>
<path d="M116.307 134.156L116.315 134.154C116.48 134.103 116.649 134.046 116.821 133.979C116.648 134.043 116.483 134.102 116.315 134.154L116.305 134.157C114.506 134.709 113.262 134.258 112.4 133.383C113.262 134.258 114.506 134.709 116.31 134.155" fill="#887C91"/>
<path d="M116.32 134.155L116.33 134.151C116.495 134.101 116.664 134.043 116.835 133.977C117.34 133.783 117.87 133.53 118.414 133.223C126.433 128.691 137.984 112.437 139.455 104.466C139.652 103.396 139.669 102.477 139.47 101.756C139.441 101.65 139.412 101.546 139.378 101.447C139.203 100.884 138.986 100.398 138.74 99.983C137.702 108.38 123.639 127.782 115.52 130.286L115.512 130.289C113.386 130.941 112.029 130.191 111.17 128.999C111.16 128.985 111.151 128.974 111.144 128.96C110.982 129.786 111.019 130.641 111.27 131.45L111.271 131.455C111.425 131.949 111.66 132.427 111.978 132.867C112.111 133.051 112.254 133.223 112.41 133.383C113.271 134.257 114.516 134.708 116.315 134.156" fill="black"/>
<path d="M31.9844 58.0547C31.9844 58.0547 20.5528 69.592 20.9368 85.1176" stroke="white" stroke-linecap="round" stroke-linejoin="round"/>
<path d="M63.6321 59.1775C63.6537 59.1008 63.6746 59.0215 63.6928 58.943C64.4554 55.6864 62.0264 52.3601 58.2663 51.5143C54.5971 50.6883 51.0168 52.5268 50.1376 55.6425C50.1159 55.7193 50.0951 55.7986 50.0768 55.8771C49.3142 59.1337 51.7433 62.46 55.5033 63.3058C59.1726 64.1318 62.7529 62.2933 63.6321 59.1775Z" fill="white"/>
<path d="M74.2796 60.1399C74.2908 60.1028 74.2994 60.0665 74.3081 60.0302C74.6633 58.5193 73.534 56.973 71.7875 56.5806C70.0835 56.1976 68.423 57.0519 68.0141 58.498C68.0055 58.5343 67.9943 58.5714 67.9856 58.6077C67.6304 60.1186 68.7597 61.6649 70.5062 62.0573C72.2102 62.4402 73.8706 61.586 74.2796 60.1399Z" fill="white"/>
<g clip-path="url(#clip1_3304_20941)">
<path opacity="0.48" d="M150.547 38.9911C151.745 39.0597 152.775 38.1483 152.847 36.9554C152.919 35.7625 152.007 34.7398 150.809 34.6711C149.612 34.6025 148.582 35.5139 148.51 36.7068C148.437 37.8998 149.35 38.9224 150.547 38.9911Z" fill="white"/>
<path d="M150.631 37.7623C151.15 37.792 151.597 37.397 151.628 36.8799C151.659 36.3628 151.264 35.9195 150.745 35.8898C150.226 35.8601 149.779 36.2551 149.748 36.7722C149.717 37.2893 150.112 37.7325 150.631 37.7623Z" fill="white"/>
<path opacity="0.48" d="M152.25 37.2383L154.42 37.041L152.289 36.5972C152.2 35.9563 151.729 35.429 151.101 35.2654L150.909 33.1048L150.457 35.2285C149.813 35.3192 149.283 35.7892 149.116 36.4154L146.946 36.6127L149.078 37.0565C149.167 37.6973 149.637 38.2246 150.266 38.3883L150.458 40.5489L150.909 38.4252C151.553 38.3344 152.084 37.8644 152.25 37.2383Z" fill="white"/>
</g>
</g>
<ellipse cx="122.5" cy="540" rx="89.5" ry="18" fill="black" fill-opacity="0.12"/>
<defs>
<clipPath id="clip0_3304_20941">
<rect width="170" height="158" fill="white" transform="matrix(-0.956031 0.293267 0.293267 0.956031 163.523 0)"/>
</clipPath>
<clipPath id="clip1_3304_20941">
<rect width="7.48621" height="7.45779" fill="white" transform="matrix(0.998362 0.0572062 -0.06049 0.998169 147.172 32.8906)"/>
</clipPath>
</defs>
</svg>
