<svg width="67" height="55" viewBox="0 0 67 55" fill="none" xmlns="http://www.w3.org/2000/svg">
<path opacity="0.48" d="M5.13322 55.0008C7.96822 55.0008 10.2664 52.694 10.2664 49.8485C10.2664 47.003 7.96822 44.6963 5.13322 44.6963C2.29822 44.6963 0 47.003 0 49.8485C0 52.694 2.29822 55.0008 5.13322 55.0008Z" fill="white"/>
<path opacity="0.48" d="M66.0014 0L6.07627 46.0003C5.77432 45.9284 5.46213 45.8821 5.13459 45.8821C2.95438 45.8821 1.18359 47.6595 1.18359 49.8478C1.18359 52.036 2.95438 53.8134 5.13459 53.8134C7.3148 53.8134 9.08558 52.036 9.08558 49.8478C9.08558 49.7964 9.08046 49.7502 9.08046 49.6988L66.0014 0Z" fill="#FFF91D"/>
<path opacity="0.66" d="M5.1332 52.523C6.60582 52.523 7.79961 51.3248 7.79961 49.8467C7.79961 48.3686 6.60582 47.1704 5.1332 47.1704C3.66059 47.1704 2.4668 48.3686 2.4668 49.8467C2.4668 51.3248 3.66059 52.523 5.1332 52.523Z" fill="white"/>
<path d="M5.13386 51.7377C6.17402 51.7377 7.01724 50.8914 7.01724 49.8474C7.01724 48.8034 6.17402 47.957 5.13386 47.957C4.0937 47.957 3.25049 48.8034 3.25049 49.8474C3.25049 50.8914 4.0937 51.7377 5.13386 51.7377Z" fill="white"/>
</svg>
