<svg width="247" height="364" viewBox="0 0 247 364" fill="none" xmlns="http://www.w3.org/2000/svg">
<g clip-path="url(#clip0_3229_19233)">
<path d="M62.1956 133.271L58.863 132.744C56.0728 132.005 51.3047 134.603 49.6599 135.572C47.4096 136.894 39.0415 143.362 37.1494 148.299C37.1494 148.299 35.9663 151.327 36.9375 152.765L38.0955 155.741C38.0955 155.741 39.4956 157.999 43.86 156.574C48.2244 155.149 60.5886 145.607 62.9902 139.671C64.9832 134.742 62.193 133.274 62.193 133.274L62.1956 133.271Z" fill="#D1D1FF"/>
<path d="M209.777 152.844L209.585 150.43C209.603 148.371 207.322 145.352 206.492 144.32C205.36 142.907 200.216 137.854 196.976 137.163C196.976 137.163 194.986 136.721 194.272 137.592L192.668 138.792C192.668 138.792 191.53 140.069 193.046 142.955C194.562 145.841 202.153 153.309 206.069 154.232C209.32 154.996 209.775 152.844 209.775 152.844H209.777Z" fill="#D1D1FF"/>
<path opacity="0.3" d="M209.777 152.844L209.585 150.43C209.603 148.371 207.322 145.352 206.492 144.32C205.36 142.907 200.216 137.854 196.976 137.163C196.976 137.163 194.986 136.721 194.272 137.592L192.668 138.792C192.668 138.792 191.53 140.069 193.046 142.955C194.562 145.841 202.153 153.309 206.069 154.232C209.32 154.996 209.775 152.844 209.775 152.844H209.777Z" fill="black"/>
<path d="M203.135 334.893C255.268 290.911 261.875 212.997 217.893 160.867C173.913 108.734 95.9974 102.126 43.8667 146.108C-8.26645 190.088 -14.8736 268.004 29.1085 320.135C73.0906 372.265 151.004 378.875 203.135 334.893Z" fill="#E3E3FF"/>
<g opacity="0.2">
<path d="M174.54 319.638C175.796 318.578 175.955 316.701 174.896 315.448C173.836 314.191 171.959 314.032 170.705 315.092C169.449 316.152 169.29 318.028 170.35 319.282C171.409 320.539 173.286 320.698 174.54 319.638Z" fill="black"/>
</g>
<path opacity="0.3" d="M131.262 225.934C132.367 227.246 133.581 228.411 134.872 229.443C134.58 229.128 134.275 228.835 133.992 228.5C124.897 217.72 126.005 202.962 136.785 193.867C146.765 185.446 161.455 184.911 170.799 193.428C170.663 193.257 170.547 193.077 170.406 192.908C161.286 182.098 145.13 180.728 134.322 189.848C123.512 198.968 122.143 215.121 131.262 225.932V225.934Z" fill="black"/>
<g opacity="0.1">
<path d="M169.34 230.957C180.119 221.863 182.047 206.416 172.952 195.633C163.858 184.853 147.568 184.773 136.788 193.867C126.008 202.962 124.901 217.72 133.995 228.5C143.09 239.28 158.56 240.052 169.342 230.957H169.34Z" fill="black"/>
</g>
<path opacity="0.3" d="M83.8982 312.218C81.4738 316.305 81.9103 321.895 84.9351 325.558L85.4169 328.707C86.088 332.324 90.0159 334.214 93.5302 335.342C92.178 334.287 90.9696 332.879 89.688 330.886L87.4351 326.522C86.1056 321.89 85.7449 318.482 88.1693 314.395C90.4171 310.603 94.7361 308.356 99.1131 307.818C103.49 307.283 107.923 308.277 112.068 309.778C113.342 310.24 114.593 310.76 115.829 311.315C113.253 309.867 110.577 308.605 107.799 307.599C103.654 306.098 99.219 305.104 94.8445 305.639C90.47 306.173 86.1485 308.421 83.9007 312.215L83.8982 312.218Z" fill="black"/>
<g opacity="0.1">
<path d="M114.85 339.956C109.136 340.584 103.379 339.298 97.8974 337.559C94.3579 336.437 92.1681 334.752 89.6857 330.892L87.4329 326.53C86.1059 321.898 85.7452 318.49 88.167 314.403C90.4148 310.611 94.7338 308.363 99.1108 307.826C103.488 307.291 107.92 308.285 112.065 309.784C116.727 311.471 121.152 313.808 125.176 316.706C127.421 318.326 129.036 319.968 129.967 322.574C130.994 325.45 129.667 328.021 128.077 330.629C125.088 335.541 120.565 339.328 114.85 339.956Z" fill="black"/>
</g>
<path opacity="0.3" d="M102.051 156.025C103.315 151.801 106.673 148.391 110.725 146.655C114.776 144.919 119.312 144.637 123.712 144.919C126.659 145.108 129.585 145.573 132.461 146.244C131.119 146.055 129.772 145.906 128.422 145.817C124.022 145.535 119.489 145.817 115.435 147.553C111.383 149.289 107.861 152.654 106.761 156.923C105.576 161.524 106.875 164.698 109.443 168.772L112.826 172.332C114.615 173.888 116.166 174.902 117.761 175.538C114.072 175.437 107.216 173.031 103.742 166.613C103.742 166.613 100.712 160.5 102.054 156.022L102.051 156.025Z" fill="black"/>
<g opacity="0.1">
<path d="M139.524 174.015C134.211 176.215 128.325 176.585 122.576 176.447C118.865 176.356 116.291 175.352 112.828 172.337L109.444 168.777C106.876 164.701 105.577 161.529 106.763 156.928C107.863 152.659 111.382 149.294 115.436 147.558C119.488 145.823 124.024 145.538 128.423 145.823C133.371 146.14 138.272 147.15 142.944 148.81C145.553 149.735 147.561 150.863 149.183 153.108C150.972 155.583 150.414 158.424 149.62 161.37C148.121 166.921 144.834 171.82 139.524 174.02V174.015Z" fill="black"/>
</g>
<path opacity="0.3" d="M154.537 302.194C153.008 299.547 153.167 296.192 154.645 293.261C156.126 290.329 158.676 287.829 161.457 285.667C163.318 284.219 165.314 282.91 167.393 281.727C166.49 282.337 165.607 282.97 164.751 283.634C161.974 285.796 159.421 288.296 157.94 291.227C156.459 294.159 156.179 297.577 157.831 300.16C159.612 302.943 162.102 303.761 165.839 304.336L169.782 304.245C171.691 304.043 173.165 303.71 174.459 303.178C172.204 305.055 166.81 307.499 161.267 306.293C161.267 306.293 156.156 304.999 154.534 302.191L154.537 302.194Z" fill="black"/>
<g opacity="0.1">
<path d="M186.625 291.111C184.645 294.917 181.332 298.164 177.826 301.098C175.563 302.993 173.484 303.863 169.786 304.252L165.843 304.343C162.106 303.765 159.616 302.95 157.835 300.167C156.183 297.584 156.465 294.166 157.944 291.234C159.425 288.303 161.975 285.803 164.755 283.641C167.878 281.209 171.35 279.125 175.036 277.467C177.094 276.542 178.9 276.024 181.083 276.234C183.487 276.466 184.693 278.091 185.81 279.894C187.917 283.287 188.606 287.306 186.625 291.113V291.111Z" fill="black"/>
</g>
<path opacity="0.3" d="M185.223 334.555C185.321 333.135 183.719 332.333 181.214 332.267C178.709 332.201 175.507 332.761 172.271 333.516C170.101 334.02 167.881 334.626 165.648 335.304C166.66 335.034 167.667 334.782 168.661 334.55C171.9 333.796 175.099 333.238 177.604 333.304C180.109 333.369 181.842 334.131 181.613 335.592C181.365 337.166 179.673 338.564 176.847 340.491L173.557 342.34C171.897 343.196 170.535 343.809 169.236 344.283C171.918 343.703 177.435 341.78 181.474 338.831C181.474 338.831 185.119 336.064 185.223 334.558V334.555Z" fill="black"/>
<g opacity="0.1">
<path d="M153.915 346.897C157.217 346.952 161.372 346.228 165.548 345.333C168.244 344.753 170.338 343.993 173.555 342.338L176.845 340.489C179.67 338.562 181.365 337.167 181.61 335.59C181.84 334.129 180.107 333.367 177.601 333.302C175.096 333.239 171.895 333.796 168.658 334.548C165.018 335.396 161.244 336.498 157.48 337.815C155.378 338.552 153.66 339.273 151.955 340.366C150.073 341.569 149.795 342.568 149.664 343.572C149.417 345.462 150.613 346.841 153.915 346.897Z" fill="black"/>
</g>
<path opacity="0.3" d="M39.6838 316.538C40.3523 314.906 42.4008 314.447 44.9589 315.075C47.517 315.703 50.4359 317.227 53.2891 318.985C55.2014 320.163 57.1061 321.468 58.9881 322.858C58.1152 322.27 57.2398 321.702 56.3619 321.162C53.5086 319.404 50.5898 317.88 48.0317 317.252C45.4736 316.624 43.3191 317.002 42.7565 318.715C42.1536 320.564 43.1022 322.615 44.9059 325.582L47.2168 328.592C48.4277 330.022 49.4671 331.094 50.5166 331.995C48.13 330.59 43.6143 326.874 41.1445 322.414C41.1445 322.414 38.9724 318.266 39.6813 316.536L39.6838 316.538Z" fill="black"/>
<g opacity="0.1">
<path d="M64.5284 339.235C61.1731 338.375 57.3813 336.397 53.6628 334.215C51.2611 332.807 49.5633 331.361 47.2196 328.594L44.9087 325.584C43.105 322.617 42.1564 320.566 42.7593 318.717C43.3194 317.002 45.4764 316.626 48.0345 317.254C50.5926 317.882 53.5114 319.406 56.3647 321.164C59.5736 323.14 62.775 325.443 65.8528 327.981C67.5708 329.399 68.9079 330.698 70.0356 332.406C71.2793 334.29 71.0195 335.496 70.6083 336.667C69.8363 338.872 67.8837 340.095 64.5284 339.235Z" fill="black"/>
</g>
<path opacity="0.3" d="M44.8317 293.573C44.4735 295.753 44.5921 297.589 45.6214 298.775C46.6809 300.059 47.9121 301.32 49.4181 301.933C48.6537 301.336 47.9726 300.591 47.3545 299.842C46.4085 298.752 46.2975 297.065 46.6305 295.059C46.9584 292.902 48.1063 290.846 49.8874 289.584C51.6685 288.323 54.0828 287.935 56.1085 288.742C57.5036 289.299 58.6011 290.404 59.2999 291.734C58.7575 289.524 57.2514 287.544 55.1423 286.701C52.9374 285.823 50.3137 286.247 48.3762 287.617C46.4387 288.987 45.19 291.224 44.8343 293.57L44.8317 293.573Z" fill="black"/>
<g opacity="0.2">
<path d="M55.6101 302.223C54.4395 302.874 53.0797 303.288 51.7603 303.058C49.9288 302.74 48.5387 301.279 47.3555 299.847C46.4095 298.757 46.2985 297.069 46.6315 295.063C46.9595 292.906 48.1099 290.85 49.8884 289.589C51.6695 288.328 54.0838 287.939 56.1096 288.746C58.7156 289.786 60.3302 292.717 60.1208 295.517C59.9139 298.318 58.0622 300.858 55.6101 302.223Z" fill="black"/>
</g>
<path opacity="0.3" d="M214.707 260.538C214.349 262.717 214.467 264.554 215.496 265.74C216.556 267.024 217.787 268.285 219.293 268.898C218.529 268.3 217.848 267.556 217.23 266.807C216.283 265.717 216.172 264.029 216.505 262.024C216.833 259.867 217.981 257.811 219.762 256.549C221.543 255.288 223.958 254.899 225.984 255.707C227.379 256.264 228.476 257.369 229.175 258.699C228.632 256.489 227.126 254.508 225.017 253.666C222.812 252.788 220.189 253.212 218.251 254.582C216.314 255.951 215.065 258.189 214.709 260.535L214.707 260.538Z" fill="black"/>
<g opacity="0.2">
<path d="M225.477 269.184C224.307 269.835 222.947 270.249 221.628 270.019C219.796 269.701 218.406 268.24 217.223 266.807C216.277 265.718 216.166 264.03 216.499 262.024C216.827 259.867 217.977 257.811 219.756 256.55C221.537 255.288 223.951 254.9 225.977 255.707C228.583 256.747 230.197 259.678 229.988 262.478C229.781 265.279 227.929 267.819 225.477 269.184Z" fill="black"/>
</g>
<path opacity="0.3" d="M35.6227 288.033C35.4436 289.122 35.5041 290.041 36.0162 290.634C36.546 291.274 37.1616 291.908 37.9134 292.213C37.5299 291.915 37.1918 291.542 36.8815 291.166C36.4098 290.621 36.3543 289.778 36.5183 288.774C36.6822 287.695 37.2574 286.668 38.148 286.037C39.0385 285.406 40.2444 285.212 41.2586 285.616C41.9574 285.893 42.5048 286.448 42.853 287.112C42.5805 286.007 41.8287 285.015 40.7742 284.597C39.6717 284.158 38.3599 284.37 37.3911 285.053C36.4224 285.739 35.7993 286.857 35.6202 288.03L35.6227 288.033Z" fill="black"/>
<g opacity="0.2">
<path d="M41.0116 292.358C40.4263 292.684 39.7452 292.89 39.0867 292.774C38.171 292.615 37.4747 291.884 36.8844 291.167C36.4126 290.622 36.3571 289.777 36.5211 288.776C36.6851 287.699 37.2603 286.669 38.1508 286.039C39.0413 285.408 40.2472 285.214 41.2614 285.617C42.5657 286.137 43.3704 287.603 43.267 289.003C43.1635 290.403 42.2377 291.674 41.0116 292.356V292.358Z" fill="black"/>
</g>
<path opacity="0.3" d="M23.9421 242.516C23.5814 244.708 23.7025 246.553 24.7343 247.743C25.7989 249.032 27.0351 250.301 28.5487 250.92C27.7793 250.319 27.0956 249.57 26.475 248.816C25.5239 247.721 25.4129 246.023 25.7459 244.01C26.0764 241.843 27.2293 239.776 29.0205 238.51C30.8091 237.244 33.2361 236.853 35.2719 237.665C36.6746 238.225 37.7771 239.337 38.4784 240.672C37.9335 238.449 36.4198 236.459 34.2981 235.614C32.0831 234.731 29.4443 235.157 27.4993 236.532C25.5542 237.91 24.2979 240.157 23.9371 242.516H23.9421Z" fill="black"/>
<g opacity="0.1">
<path d="M34.775 251.205C33.5994 251.859 32.2321 252.275 30.9051 252.043C29.066 251.723 27.6658 250.254 26.4776 248.814C25.5265 247.719 25.4155 246.021 25.7485 244.008C26.079 241.841 27.2319 239.775 29.0231 238.508C30.8117 237.242 33.2386 236.851 35.2745 237.663C37.8932 238.708 39.5153 241.654 39.3059 244.467C39.0965 247.28 37.2372 249.836 34.7725 251.205H34.775Z" fill="black"/>
</g>
<path opacity="0.3" d="M80.3565 283.669C80.0866 285.314 80.1774 286.699 80.9519 287.595C81.7516 288.563 82.68 289.514 83.8153 289.979C83.2376 289.527 82.7254 288.964 82.2587 288.399C81.5448 287.577 81.4615 286.303 81.7113 284.792C81.9585 283.165 82.8263 281.613 84.1685 280.662C85.5106 279.711 87.332 279.418 88.8633 280.026C89.9153 280.448 90.7428 281.28 91.2701 282.284C90.8614 280.617 89.7236 279.121 88.1317 278.487C86.4692 277.824 84.4888 278.144 83.0256 279.179C81.5649 280.213 80.6214 281.901 80.3515 283.669H80.3565Z" fill="black"/>
<g opacity="0.1">
<path d="M88.4874 290.194C87.6044 290.686 86.5776 290.996 85.5837 290.822C84.2037 290.583 83.1517 289.48 82.2612 288.398C81.5472 287.576 81.464 286.302 81.7137 284.79C81.9609 283.163 82.8288 281.612 84.1709 280.661C85.513 279.71 87.3345 279.417 88.8658 280.025C90.8335 280.809 92.0495 283.022 91.8931 285.133C91.7367 287.245 90.3391 289.162 88.4899 290.192L88.4874 290.194Z" fill="black"/>
</g>
<path opacity="0.3" d="M194.732 309.853C194.462 311.498 194.552 312.883 195.327 313.778C196.127 314.747 197.055 315.698 198.19 316.162C197.613 315.711 197.1 315.148 196.634 314.583C195.92 313.76 195.837 312.486 196.086 310.975C196.334 309.348 197.201 307.797 198.543 306.846C199.886 305.894 201.707 305.602 203.238 306.21C204.29 306.631 205.118 307.464 205.645 308.468C205.236 306.8 204.099 305.304 202.507 304.671C200.844 304.007 198.864 304.328 197.401 305.362C195.94 306.397 194.996 308.084 194.726 309.853H194.732Z" fill="black"/>
<g opacity="0.1">
<path d="M202.862 316.378C201.979 316.87 200.953 317.18 199.959 317.006C198.579 316.766 197.527 315.664 196.636 314.582C195.922 313.759 195.839 312.485 196.089 310.974C196.336 309.347 197.204 307.795 198.546 306.844C199.888 305.893 201.709 305.6 203.241 306.208C205.209 306.993 206.425 309.206 206.268 311.317C206.112 313.429 204.714 315.346 202.865 316.375L202.862 316.378Z" fill="black"/>
</g>
<path opacity="0.3" d="M93.9187 187.032C93.558 189.224 93.679 191.068 94.7109 192.259C95.7755 193.548 97.0116 194.817 98.5253 195.435C97.7559 194.835 97.0722 194.085 96.4516 193.331C95.5005 192.236 95.3895 190.538 95.7225 188.525C96.053 186.358 97.2059 184.292 98.9971 183.026C100.786 181.759 103.213 181.368 105.248 182.18C106.651 182.741 107.754 183.851 108.455 185.188C107.91 182.965 106.396 180.975 104.275 180.129C102.06 179.246 99.4209 179.673 97.4758 181.048C95.5308 182.425 94.2744 184.673 93.9162 187.029L93.9187 187.032Z" fill="black"/>
<g opacity="0.2">
<path d="M104.752 195.721C103.576 196.374 102.209 196.791 100.882 196.559C99.0425 196.238 97.6424 194.77 96.4542 193.329C95.5031 192.235 95.3921 190.537 95.7251 188.524C96.0556 186.356 97.2085 184.29 98.9997 183.024C100.788 181.757 103.215 181.366 105.251 182.179C107.87 183.223 109.492 186.17 109.282 188.983C109.073 191.796 107.214 194.351 104.749 195.721H104.752Z" fill="black"/>
</g>
<path opacity="0.3" d="M122.946 120.345C122.946 120.345 120.125 120.196 117.161 120.7C115.173 120.907 113.571 121.659 112.976 122.277C112.423 122.85 112.933 123.387 113.99 123.738C115.047 124.089 116.596 124.273 118.223 124.381C119.313 124.454 120.456 124.492 121.626 124.502C121.106 124.482 120.597 124.457 120.097 124.424C118.47 124.316 116.921 124.131 115.864 123.781C114.807 123.43 114.3 122.893 114.85 122.32C115.445 121.702 116.608 121.346 118.42 120.92L120.408 120.584C121.387 120.448 122.164 120.37 122.87 120.345" fill="black"/>
<g opacity="0.1">
<path d="M130.267 121.246C128.865 120.794 126.854 120.554 124.78 120.385C123.441 120.274 122.305 120.317 120.408 120.582L118.42 120.918C116.606 121.346 115.446 121.702 114.851 122.318C114.298 122.89 114.808 123.428 115.862 123.778C116.919 124.129 118.468 124.313 120.095 124.422C121.925 124.543 123.89 124.578 125.916 124.523C127.048 124.492 128.009 124.417 129.082 124.187C130.265 123.935 130.694 123.559 131.062 123.163C131.756 122.416 131.67 121.692 130.267 121.243V121.246Z" fill="black"/>
</g>
<path opacity="0.3" d="M233.337 224.519C233.337 224.519 232.855 219.804 231.059 215.062C230.111 211.84 228.201 209.428 226.833 208.644C225.564 207.914 224.654 208.931 224.26 210.793C223.867 212.655 223.93 215.278 224.164 218.006C224.321 219.832 224.56 221.734 224.863 223.674C224.76 222.809 224.669 221.954 224.598 221.116C224.364 218.389 224.298 215.768 224.694 213.904C225.088 212.042 225.998 211.025 227.267 211.754C228.635 212.539 229.649 214.348 230.981 217.208L232.182 220.39C232.717 221.966 233.08 223.225 233.327 224.386" fill="black"/>
<g opacity="0.1">
<path d="M233.588 236.928C234.082 234.461 233.999 231.057 233.762 227.568C233.61 225.316 233.217 223.449 232.178 220.396L230.977 217.215C229.645 214.352 228.63 212.545 227.263 211.761C225.994 211.032 225.083 212.048 224.69 213.91C224.296 215.772 224.359 218.396 224.594 221.123C224.856 224.188 225.331 227.452 225.994 230.788C226.365 232.652 226.776 234.221 227.518 235.919C228.335 237.793 229.185 238.384 230.058 238.865C231.706 239.771 233.093 239.395 233.588 236.928Z" fill="black"/>
</g>
<path opacity="0.3" d="M172.447 139.491C172.447 139.491 169.634 138.01 166.317 137.256C164.165 136.59 162.109 136.762 161.163 137.236C160.285 137.675 160.515 138.56 161.408 139.471C162.301 140.382 163.792 141.32 165.401 142.201C166.481 142.791 167.631 143.364 168.827 143.914C168.305 143.651 167.795 143.384 167.301 143.114C165.691 142.233 164.2 141.295 163.307 140.384C162.414 139.473 162.185 138.588 163.063 138.149C164.009 137.677 165.394 137.781 167.488 138.099L169.71 138.608C170.79 138.893 171.627 139.158 172.367 139.451" fill="black"/>
<g opacity="0.1">
<path d="M179.475 143.955C178.279 142.764 176.347 141.548 174.311 140.385C172.996 139.633 171.808 139.161 169.717 138.609L167.494 138.099C165.4 137.781 164.015 137.678 163.069 138.15C162.191 138.589 162.421 139.474 163.314 140.385C164.209 141.296 165.698 142.234 167.307 143.115C169.119 144.106 171.117 145.052 173.226 145.92C174.404 146.404 175.433 146.758 176.659 146.974C178.009 147.214 178.655 146.957 179.248 146.649C180.365 146.066 180.671 145.151 179.475 143.96V143.955Z" fill="black"/>
</g>
<path opacity="0.3" d="M26.4033 190.648C26.4033 190.648 24.5289 193.217 23.3003 196.388C22.329 198.421 22.2004 200.48 22.5308 201.484C22.8361 202.415 23.7468 202.316 24.7786 201.564C25.8105 200.813 26.9533 199.473 28.0582 198.01C28.7999 197.029 29.5316 195.971 30.2505 194.869C29.915 195.346 29.577 195.813 29.2364 196.264C28.1314 197.73 26.9886 199.067 25.9568 199.819C24.925 200.571 24.0168 200.669 23.709 199.738C23.3785 198.734 23.6838 197.377 24.3018 195.351L25.1293 193.224C25.5683 192.197 25.9517 191.408 26.3478 190.717" fill="black"/>
<g opacity="0.1">
<path d="M31.8392 184.346C30.4869 185.355 29.0036 187.09 27.558 188.937C26.6246 190.128 25.9838 191.238 25.1336 193.226L24.3061 195.353C23.6881 197.378 23.3828 198.733 23.7133 199.74C24.0186 200.671 24.9293 200.575 25.9611 199.82C26.9929 199.069 28.1357 197.729 29.2407 196.266C30.4844 194.618 31.7105 192.779 32.8735 190.817C33.5244 189.722 34.0214 188.753 34.4149 187.572C34.8488 186.271 34.6874 185.597 34.4679 184.964C34.0516 183.773 33.1914 183.339 31.8392 184.348V184.346Z" fill="black"/>
</g>
<path opacity="0.3" d="M49.0519 155.366L49.723 159.163C49.723 159.163 50.8481 162.165 56.3503 161.504C61.8525 160.843 78.7349 152.455 82.9732 145.994C86.4924 140.626 83.5332 138.231 83.5332 138.231L79.6709 136.809L49.0469 155.369L49.0519 155.366Z" fill="black"/>
<path d="M50.3475 150.128C50.3475 150.128 47.2698 154.941 49.9666 156.344C52.6635 157.747 55.0828 158.705 61.0063 156.563C66.9298 154.419 81.355 146.596 81.5392 140.145C81.7233 133.692 71.1251 136.966 68.1508 138.003C65.1764 139.04 53.7482 144.729 50.3475 150.128Z" fill="#D1D1FF"/>
<path opacity="0.3" d="M68.4209 142.588C69.6596 142.156 73.0376 141.099 75.0659 141.682C73.9735 139.263 68.6479 140.913 67.0207 141.48C65.1892 142.119 58.1506 145.623 56.0567 148.948C56.0567 148.948 54.1621 151.912 55.8221 152.775C56.087 152.913 56.3494 153.042 56.6168 153.161C56.2434 151.96 57.4594 150.058 57.4594 150.058C59.5533 146.733 66.5919 143.229 68.4234 142.59L68.4209 142.588Z" fill="black"/>
<path opacity="0.12" d="M62.6163 152.905C66.2642 151.586 75.1469 146.767 75.2604 142.794C75.273 142.35 75.1999 141.984 75.0611 141.679C73.0328 141.096 69.6548 142.153 68.4161 142.585C66.5846 143.223 59.5461 146.727 57.4521 150.052C57.4521 150.052 56.2387 151.954 56.6095 153.155C58.0072 153.771 59.5511 154.013 62.6137 152.905H62.6163Z" fill="black"/>
<path opacity="0.3" d="M164.386 157.652L160.347 159.835C160.347 159.835 157.156 162.014 157.902 165.909C158.649 169.807 167.713 178.967 174.631 179.351C180.378 179.669 182.906 176.361 182.906 176.361L184.394 172.797L164.388 157.652H164.386Z" fill="black"/>
<path d="M169.977 156.337C169.977 156.337 164.825 156.112 163.352 158.781C161.879 161.45 160.875 163.716 163.203 167.283C165.532 170.848 173.975 178.388 180.853 175.689C187.73 172.99 184.16 166.362 183.032 164.556C181.905 162.75 175.759 156.551 169.979 156.339L169.977 156.337Z" fill="#D1D1FF"/>
<path opacity="0.3" d="M178.147 166.778C178.616 167.53 179.769 169.636 179.164 171.437C181.734 169.54 179.935 166.213 179.317 165.224C178.624 164.111 174.837 160.294 171.28 160.163C171.28 160.163 168.109 160.024 167.201 161.669C167.054 161.932 166.918 162.189 166.797 162.444C168.073 161.631 170.109 161.717 170.109 161.717C173.669 161.846 177.453 165.663 178.149 166.778H178.147Z" fill="black"/>
<path opacity="0.12" d="M167.108 166.904C168.541 169.099 173.743 173.744 177.976 172.081C178.45 171.894 178.839 171.677 179.164 171.438C179.77 169.636 178.617 167.53 178.148 166.778C177.454 165.666 173.667 161.849 170.107 161.717C170.107 161.717 168.069 161.632 166.795 162.444C166.149 163.781 165.905 165.06 167.108 166.904Z" fill="black"/>
<path opacity="0.3" d="M181.245 132.307L179.595 133.233C179.595 133.233 178.326 134.187 178.957 136.107C179.588 138.026 184.353 142.789 187.492 143.206C190.098 143.551 190.983 142.027 190.983 142.027L191.382 140.342L181.245 132.305V132.307Z" fill="black"/>
<path d="M183.661 131.852C183.661 131.852 181.33 131.569 180.868 132.82C180.407 134.072 180.127 135.139 181.444 136.95C182.761 138.764 187.125 142.712 190.011 141.63C192.897 140.548 190.793 137.202 190.147 136.287C189.501 135.371 186.272 132.149 183.659 131.852H183.661Z" fill="#D1D1FF"/>
<path opacity="0.3" d="M188.127 137.205C188.394 137.586 189.073 138.651 188.937 139.506C189.948 138.668 188.889 136.991 188.536 136.489C188.139 135.924 186.149 133.941 184.539 133.759C184.539 133.759 183.104 133.585 182.819 134.354C182.774 134.478 182.731 134.597 182.695 134.718C183.207 134.365 184.131 134.476 184.131 134.476C185.74 134.657 187.731 136.643 188.127 137.205Z" fill="black"/>
<path opacity="0.12" d="M183.172 136.899C183.982 138.017 186.671 140.449 188.447 139.78C188.646 139.705 188.805 139.614 188.931 139.508C189.067 138.653 188.389 137.588 188.121 137.207C187.725 136.642 185.735 134.659 184.125 134.477C184.125 134.477 183.202 134.366 182.69 134.72C182.501 135.348 182.488 135.963 183.167 136.899H183.172Z" fill="black"/>
</g>
<path d="M40.4717 2.99496V28.3811V28.9815H41.0889H65.4806H66.0937V29.5779V34.9698V35.5662H65.4806H33.699H33.0859V34.9698V2.99496H40.4717ZM41.0889 2.39453H32.4688V34.9698V36.1666H33.699H65.4806H66.7109V34.9698V29.5779V28.3811H65.4806H41.0889V2.39453Z" fill="white"/>
<path d="M141.102 2.99496L127.108 16.3205L126.717 16.6927L127.046 17.113L141.312 35.314L141.513 35.5702H141.048H135.576H135.094H133.494L122.043 22.0606L121.615 21.5562L121.133 22.0125L117.537 25.439L117.352 25.6151V25.8673V34.2132C117.352 35.2139 116.08 35.5702 114.887 35.5702H110.699C108.472 35.5702 107.469 34.8937 106.419 33.6448L92.878 11.5451L91.73 9.67172V11.8533V35.3901V35.5742H91.1169H84.9531H84.3401V35.3901V4.35193C84.3401 3.35121 85.6115 2.99496 86.8047 2.99496H90.6849C92.9109 2.99496 93.9149 3.67144 94.9682 4.92033L108.818 27.4124L109.966 29.2737V27.1042V3.17909V2.99496H110.579H116.739H117.352V3.17909V15.4278V16.8168L118.393 15.8641L132.444 2.99496H141.102ZM142.612 2.39453H132.198L117.965 15.4278V3.17909V2.39453H116.735H110.575H109.345V3.17909V27.1082L95.4702 4.58009C94.314 3.1951 93.1619 2.39853 90.6807 2.39853H86.8006C84.8997 2.39853 83.7188 3.14707 83.7188 4.35593V35.3901V36.1746H84.949H91.1087H92.3389V35.3901V11.8533L105.905 33.9931C107.061 35.3781 108.213 36.1746 110.694 36.1746H114.883C116.784 36.1746 117.965 35.4261 117.965 34.2172V25.8633L121.561 22.4368L133.197 36.1666H135.09H135.572H141.044H142.756L141.801 34.9457L127.54 16.7488L142.612 2.39453Z" fill="white"/>
<path d="M61.1355 45.8778L65.3983 51.814H42.9364C41.6897 51.814 40.4717 51.9501 40.4717 53.5673V69.8549C40.4717 71.472 41.6897 71.6081 42.9364 71.6081H56.1074C57.3542 71.6081 58.5721 71.472 58.5721 69.8549V63.8706V63.2702H57.9549H54.404L49.3841 56.9937H65.3489H65.962V57.1618V72.6849C65.962 77.1801 60.5595 77.8486 57.3418 77.8486H41.7061C38.4844 77.8486 33.0859 77.1761 33.0859 72.6849V51.0415C33.0859 46.5462 38.4885 45.8778 41.7061 45.8778H61.1355ZM61.4565 45.2773H41.7061C35.7481 45.2773 32.4688 47.3268 32.4688 51.0415V72.6849C32.4688 76.4035 35.7481 78.449 41.7061 78.449H57.3418C63.2998 78.449 66.5792 76.3995 66.5792 72.6849V57.1618V56.3933H65.3489H48.1209L54.1036 63.8706H57.959V69.8549C57.959 70.7715 57.5805 71.0077 56.1115 71.0077H42.9364C41.4675 71.0077 41.0889 70.7715 41.0889 69.8549V53.5673C41.0889 52.6506 41.4675 52.4144 42.9364 52.4144H66.5792L61.4565 45.2773Z" fill="white"/>
<path d="M123.771 45.8778V46.4742V51.866V52.4625H123.158H115.768H115.151V53.0629V77.2522V77.8486H114.538H108.378H107.765V77.2522V53.0629V52.4625H107.148H99.7578H99.1448V51.866V46.4742V45.8778H99.7578H123.162H123.771ZM124.388 45.2773H123.158H99.7537H98.5234V46.4742V51.866V53.0629H99.7537H107.144V77.2522V78.449H108.374H114.534H115.764V77.2522V53.0629H123.154H124.384V51.866V46.4742V45.2773H124.388Z" fill="white"/>
<path d="M203.16 45.8778C207.809 45.8778 211.336 46.6904 213.64 48.2955C215.911 49.8766 217.018 52.1863 217.018 55.3485V59.7917C217.018 64.2108 216.039 67.213 211.15 68.5219L210.418 68.7181L210.764 69.3745L215.232 77.8486H207.418L203.197 69.5947L203.028 69.2624H202.645H194.593H193.976V69.8629V77.5323V77.8486H193.363H187.203H186.59V77.5323V46.19V45.8738H187.203H203.16M193.976 64.5111H194.593H203.468C207.612 64.5111 209.628 62.966 209.628 59.7917V55.3485C209.628 52.1703 207.612 50.6292 203.468 50.6292H194.593H193.976V51.2296V63.9146V64.5111ZM203.16 45.2773H187.199H185.969V46.194V77.5363V78.453H187.199H193.359H194.589V77.5363V69.8669H202.641L207.036 78.453H216.24L211.311 69.1023C216.372 67.7454 217.631 64.6191 217.631 59.7917V55.3485C217.635 48.6638 212.763 45.2773 203.16 45.2773ZM194.593 63.9106V51.2256H203.468C207.25 51.2256 209.011 52.5345 209.011 55.3445V59.7877C209.011 62.5977 207.25 63.9066 203.468 63.9066H194.593V63.9106Z" fill="white"/>
<path d="M75.3356 28.3778C77.3723 28.3778 79.0306 29.9909 79.0306 31.9683C79.0306 33.9457 77.3723 35.5589 75.3356 35.5589C73.2988 35.5589 71.6406 33.9457 71.6406 31.9683C71.6406 29.9909 73.2988 28.3778 75.3356 28.3778ZM75.3356 27.7773C72.9532 27.7773 71.0234 29.6547 71.0234 31.9683C71.0234 34.282 72.9532 36.1593 75.3356 36.1593C77.718 36.1593 79.6477 34.282 79.6477 31.9683C79.6477 29.6547 77.718 27.7773 75.3356 27.7773Z" fill="white"/>
<path d="M79.0264 2.99496V3.59138V22.4889H71.6365V3.59138V2.99496H72.2496H78.4092H79.0264ZM79.6436 2.39453H78.4134H72.2537H71.0234V3.59138V23.0893H79.6478V3.59138V2.39453H79.6436Z" fill="white"/>
<path d="M77.3526 45.8778C79.5869 45.8778 80.5908 46.5462 81.6483 47.7831L103.098 77.8486H99.4072H94.9222L79.5252 55.8649L78.3977 54.2558V56.2051V77.6845V77.8526H77.7847H71.625H71.0119V77.6845V47.2027C71.0119 46.23 72.2834 45.8818 73.4766 45.8818H77.3526M77.3526 45.2773H73.4725C71.5715 45.2773 70.3906 46.0139 70.3906 47.1987V77.6805V78.449H71.6209H77.7805H79.0108V77.6805V56.2011L94.593 78.449H99.403H104.271L82.1338 47.4189C80.9817 46.0579 79.8296 45.2773 77.3526 45.2773Z" fill="white"/>
<path d="M176.195 45.8778L180.882 52.4625H162.205H161.588V53.0629V57.9704V58.5708H162.205H176.405V65.1555H162.205H161.588V65.756V70.6635V71.2639H162.205H181.441V73.4534V74.222V77.6805V77.8486H180.828H162.168H160.938H154.811H154.77H154.157V77.6805V70.6635V65.756V65.1555H153.54H136.542H135.925V65.756V77.6805V77.8486H135.312H129.152H128.539V77.6805V46.0459V45.8778H129.152H135.312H135.925V46.0459V57.9704V58.5708H136.542H153.54H154.157V57.9704V53.0629V46.0459V45.8778H154.77H160.93H162.16H162.814H168.373H169.603H176.195ZM176.516 45.2773H169.607H168.377H162.818H162.164H160.934H154.774H153.544V46.0459V53.0629V57.9704H136.542V46.0459V45.2773H135.312H129.152H127.922V46.0459V77.6805V78.449H129.152H135.312H136.542V77.6805V65.756H153.54V70.6635V77.6805V78.449H153.581H154.774H154.815H160.934H162.164H180.824H182.054V77.6805V74.222V73.4534V70.6635H162.201V65.756H177.018V57.9704H162.201V53.0629H182.054L176.516 45.2773Z" fill="white"/>
<path d="M30.3047 33.4724V0.300781H38.3077V26.2873H63.9296V33.4724H30.3047Z" fill="white"/>
<path d="M38.003 0.600428V25.9865V26.587H38.6202H63.0119H63.6249V27.1834V32.5752V33.1716H63.0119H31.2303H30.6172V32.5752V0.600428H38.003ZM38.6202 0H30V32.5752V33.7721H31.2303H63.0119H64.2421V32.5752V27.1834V25.9865H63.0119H38.6202V0Z" fill="white"/>
<path d="M130.877 33.4724L119.117 19.5985L115.188 23.3412V31.8153C115.188 32.836 114.126 33.4724 112.415 33.4724H108.226C105.868 33.4724 104.811 32.7519 103.692 31.419L89.5618 8.36253V33.4724H81.5547V1.95796C81.5547 0.937235 82.6163 0.300781 84.328 0.300781H88.2081C90.5658 0.300781 91.6232 1.0213 92.7424 2.35425L107.177 25.795V0.300781H115.184V13.7264L129.844 0.300781H139.382L124.656 14.3268L139.666 33.4724H130.877Z" fill="white"/>
<path d="M138.633 0.600428L124.639 13.9259L124.248 14.2982L124.577 14.7185L138.843 32.9195L139.044 33.1757H138.579H133.107H132.626H131.025L119.574 19.666L119.146 19.1617L118.665 19.618L115.068 23.0444L114.883 23.2206V23.4727V31.8187C114.883 32.8194 113.612 33.1757 112.418 33.1757H108.23C106.004 33.1757 105 32.4992 103.951 31.2503L90.4092 9.15053L89.2612 7.27719V9.45875V32.9955V33.1797H88.6481H82.4844H81.8713V32.9955V1.9574C81.8713 0.956682 83.1427 0.600428 84.336 0.600428H88.2161C90.4421 0.600428 91.4461 1.27691 92.4995 2.5258L106.349 25.0178L107.497 26.8792V24.7096V0.784559V0.600428H108.11H114.27H114.883V0.784559V13.0333V14.4223L115.924 13.4696L129.976 0.600428H138.633ZM140.143 0H129.729L115.496 13.0333V0.784559V0H114.266H108.106H106.876V0.784559V24.7136L93.0014 2.18156C91.8452 0.796568 90.6931 0 88.212 0H84.3319C82.4309 0 81.25 0.748534 81.25 1.9574V32.9915V33.7761H82.4803H88.6399H89.8702V32.9915V9.45474L103.436 31.5945C104.592 32.9795 105.745 33.7761 108.226 33.7761H112.414C114.315 33.7761 115.496 33.0276 115.496 31.8187V23.4687L119.092 20.0423L130.729 33.7721H132.621H133.103H138.575H140.287L139.332 32.5512L125.071 14.3542L140.143 0Z" fill="white"/>
<path d="M39.2335 75.7587C33.473 75.7587 30.3047 73.8174 30.3047 70.2948V48.6514C30.3047 45.1249 33.4771 43.1875 39.2335 43.1875H58.8233L63.514 49.7242H40.4638C39.0319 49.7242 38.3077 49.9483 38.3077 51.1772V67.4648C38.3077 68.6937 39.0319 68.9179 40.4638 68.9179H53.6348C55.0667 68.9179 55.7908 68.6937 55.7908 67.4648V61.1803H51.7791L46.2778 54.3034H63.798V70.2948C63.798 73.8214 60.6256 75.7587 54.8692 75.7587H39.2335Z" fill="white"/>
<path d="M58.6668 43.4871L62.9296 49.4234H40.4677C39.2209 49.4234 38.003 49.5595 38.003 51.1766V67.4642C38.003 69.0814 39.2209 69.2175 40.4677 69.2175H53.6387C54.8854 69.2175 56.1034 69.0814 56.1034 67.4642V61.48V60.8796H55.4862H51.9352L46.9153 54.6031H62.8802H63.4933V54.7712V70.2943C63.4933 74.7895 58.0907 75.458 54.8731 75.458H39.2374C36.0156 75.458 30.6172 74.7855 30.6172 70.2943V48.6508C30.6172 44.1556 36.0197 43.4871 39.2374 43.4871H58.6668ZM58.9877 42.8867H39.2374C33.2794 42.8867 30 44.9362 30 48.6508V70.2943C30 74.0129 33.2794 76.0584 39.2374 76.0584H54.8731C60.8311 76.0584 64.1105 74.0089 64.1105 70.2943V54.7712V54.0027H62.8802H45.6521L51.6348 61.48H55.4903V67.4642C55.4903 68.3809 55.1117 68.6171 53.6428 68.6171H40.4677C38.9987 68.6171 38.6202 68.3809 38.6202 67.4642V51.1766C38.6202 50.26 38.9987 50.0238 40.4677 50.0238H64.1105L58.9877 42.8867Z" fill="white"/>
<path d="M104.984 75.7587V50.3726H96.3594V43.1875H121.611V50.3726H112.991V75.7587H104.984Z" fill="white"/>
<path d="M121.318 43.4871V44.0836V49.4754V50.0718H120.705H113.315H112.698V50.6723V74.8615V75.458H112.085H105.925H105.312V74.8615V50.6723V50.0718H104.695H97.3047H96.6916V49.4754V44.0836V43.4871H97.3047H120.709H121.318ZM121.935 42.8867H120.705H97.3006H96.0703V44.0836V49.4754V50.6723H97.3006H104.691V74.8615V76.0584H105.921H112.08H113.311V74.8615V50.6723H120.701H121.931V49.4754V44.0836V42.8867H121.935Z" fill="white"/>
<path d="M204.749 75.7587L200.354 67.1726H191.804V75.7587H183.797V43.1875H200.679C210.077 43.1875 214.846 46.4738 214.846 52.9625V57.4056C214.846 63.538 212.41 65.4474 208.752 66.4241L208.386 66.5201L213.258 75.7627H204.749V75.7587ZM191.804 61.8208H200.988C204.926 61.8208 206.839 60.3758 206.839 57.4016V52.9585C206.839 49.9843 204.926 48.5393 200.988 48.5393H191.804V61.8208Z" fill="white"/>
<path d="M200.683 43.4871C205.333 43.4871 208.859 44.2997 211.163 45.9049C213.435 47.486 214.541 49.7956 214.541 52.9579V57.4011C214.541 61.8202 213.562 64.8224 208.674 66.1313L207.941 66.3274L208.287 66.9839L212.756 75.4579H204.942L200.72 67.2041L200.552 66.8718H200.169H192.116H191.499V67.4722V75.1417V75.4579H190.886H184.727H184.113V75.1417V43.7994V43.4831H184.727H200.683M191.499 62.1204H192.116H200.992C205.135 62.1204 207.151 60.5753 207.151 57.4011V52.9579C207.151 49.7796 205.135 48.2385 200.992 48.2385H192.116H191.499V48.839V61.524V62.1204ZM200.683 42.8867H184.722H183.492V43.8034V75.1457V76.0624H184.722H190.882H192.112V75.1457V67.4763H200.165L204.559 76.0624H213.764L208.834 66.7117C213.895 65.3547 215.154 62.2285 215.154 57.4011V52.9579C215.159 46.2731 210.287 42.8867 200.683 42.8867ZM192.116 61.52V48.835H200.992C204.773 48.835 206.534 50.1439 206.534 52.9539V57.3971C206.534 60.2071 204.773 61.516 200.992 61.516H192.116V61.52Z" fill="white"/>
<path d="M72.8551 33.473C70.6497 33.473 68.8516 31.7277 68.8516 29.5822C68.8516 27.4367 70.6455 25.6914 72.8551 25.6914C75.0647 25.6914 76.8587 27.4367 76.8587 29.5822C76.8587 31.7277 75.0647 33.473 72.8551 33.473Z" fill="white"/>
<path d="M72.859 25.9871C74.8958 25.9871 76.554 27.6003 76.554 29.5777C76.554 31.5591 74.8958 33.1683 72.859 33.1683C70.8223 33.1683 69.1641 31.5551 69.1641 29.5777C69.1641 27.6003 70.8223 25.9871 72.859 25.9871ZM72.859 25.3867C70.4766 25.3867 68.5469 27.2641 68.5469 29.5777C68.5469 31.8914 70.4766 33.7687 72.859 33.7687C75.2414 33.7687 77.1712 31.8914 77.1712 29.5777C77.1712 27.2641 75.2414 25.3867 72.859 25.3867Z" fill="white"/>
<path d="M76.8587 0.300781H68.8516V20.3991H76.8587V0.300781Z" fill="white"/>
<path d="M76.5499 0.600428V1.19685V20.0943H69.16V1.19685V0.600428H69.773H75.9327H76.5499ZM77.1671 0H75.9368H69.7772H68.5469V1.19685V20.6948H77.1712V1.19685V0H77.1671Z" fill="white"/>
<path d="M92.2969 75.7587L76.2415 52.8384V75.7587H68.2344V44.8087C68.2344 43.8079 69.296 43.1875 71.0076 43.1875H74.8878C77.2578 43.1875 78.3153 43.904 79.4386 45.221L101.222 75.7587H96.9423H92.2969Z" fill="white"/>
<path d="M74.8917 43.4871C77.1259 43.4871 78.1299 44.1556 79.1874 45.3925L100.637 75.458H96.9462H92.4612L77.0642 53.4743L75.9368 51.8651V53.8145V75.2938V75.462H75.3237H69.1641H68.551V75.2938V44.8121C68.551 43.8394 69.8224 43.4912 71.0157 43.4912H74.8917M74.8917 42.8867H71.0116C69.1106 42.8867 67.9297 43.6232 67.9297 44.8081V75.2898V76.0584H69.16H75.3196H76.5499V75.2898V53.8105L92.1321 76.0584H96.9421H101.81L79.6729 45.0282C78.5208 43.6673 77.3687 42.8867 74.8917 42.8867Z" fill="white"/>
<path d="M151.38 75.7587V63.0657H133.765V75.7587H125.758V43.1875H133.765V55.8806H151.38V43.1875H173.887L179.001 50.3726H159.428V55.8806H174.245V63.0657H159.428V68.5736H179.281V75.7587H151.38Z" fill="white"/>
<path d="M173.742 43.4871L178.428 50.0718H159.752H159.135V50.6723V55.5798V56.1802H159.752H173.952V62.7649H159.752H159.135V63.3653V68.2728V68.8733H159.752H178.988V71.0628V71.8314V75.2898V75.458H178.375H159.715H158.485H152.358H152.317H151.704V75.2898V68.2728V63.3653V62.7649H151.087H134.089H133.472V63.3653V75.2898V75.458H132.859H126.699H126.086V75.2898V43.6553V43.4871H126.699H132.859H133.472V43.6553V55.5798V56.1802H134.089H151.087H151.704V55.5798V50.6723V43.6553V43.4871H152.317H158.476H159.707H160.361H165.92H167.15H173.742ZM174.063 42.8867H167.154H165.924H160.365H159.711H158.481H152.321H151.091V43.6553V50.6723V55.5798H134.089V43.6553V42.8867H132.859H126.699H125.469V43.6553V75.2898V76.0584H126.699H132.859H134.089V75.2898V63.3653H151.087V68.2728V75.2898V76.0584H151.128H152.321H152.362H158.481H159.711H178.371H179.601V75.2898V71.8314V71.0628V68.2728H159.748V63.3653H174.565V55.5798H159.748V50.6723H179.601L174.063 42.8867Z" fill="white"/>
<path d="M177.612 28.3164H150.867V36.3221H177.612V28.3164Z" fill="#5555FF"/>
<defs>
<clipPath id="clip0_3229_19233">
<rect width="247" height="247" fill="white" transform="translate(0 117)"/>
</clipPath>
</defs>
</svg>
