<svg width="99" height="152" viewBox="0 0 99 152" fill="none" xmlns="http://www.w3.org/2000/svg">
<g clip-path="url(#clip0_839_10186)">
<path
      d="M98.4195 62.2143C97.7858 66.077 93.3758 68.2292 90.9033 69.1453C89.8094 69.5506 88.9113 70.3572 88.3704 71.3927C86.1825 75.5999 80.1236 86.2496 73.8204 88.3857C71.132 89.2956 68.4295 88.8437 66.1145 87.9337C62.3524 86.4563 59.6115 83.7752 59.6115 83.7752L56.0028 68.4441L54.0228 60.0276L51.9258 51.1289C51.9258 51.1289 54.9149 54.4241 58.5519 58.0517C60.0495 59.5433 61.656 61.0916 63.2101 62.4879C66.504 65.4528 69.5557 67.7307 70.799 67.3436C72.125 66.9322 74.549 62.3055 79.1669 56.9675C80.3193 55.634 83.3266 55.7678 86.3783 54.9105C91.2263 53.5426 95.0429 53.4757 96.8957 54.9288C98.3246 56.0474 98.1914 58.9921 98.3973 60.1472C98.5285 60.8849 98.5245 61.5739 98.4215 62.2164"
      fill="white"
    />
<path
      d="M98.4195 62.2143C97.7858 66.077 93.3758 68.2292 90.9033 69.1453C89.8094 69.5506 88.9113 70.3572 88.3704 71.3927C86.1825 75.5999 80.1236 86.2496 73.8204 88.3857C71.132 89.2956 68.4295 88.8437 66.1145 87.9337C62.3524 86.4563 59.6115 83.7752 59.6115 83.7752L56.0028 68.4441L54.0228 60.0276L51.9258 51.1289C51.9258 51.1289 54.9149 54.4241 58.5519 58.0517C60.0495 59.5433 61.656 61.0916 63.2101 62.4879C66.504 65.4528 69.5557 67.7307 70.799 67.3436C72.125 66.9322 74.549 62.3055 79.1669 56.9675C80.3193 55.634 83.3266 55.7678 86.3783 54.9105C91.2263 53.5426 95.0429 53.4757 96.8957 54.9288C98.3247 56.0474 98.1914 58.9921 98.3973 60.1472C98.5285 60.8849 98.5245 61.5739 98.4215 62.2164"
      stroke="black"
      stroke-linecap="round"
      stroke-linejoin="round"
    />
<path
      d="M67.8625 143.716C67.6364 144.482 67.0975 145.244 66.1308 145.969C60.0173 150.557 44.0525 150.419 41.2006 144.498C38.2822 138.438 42.6922 110.196 42.238 90.1914L64.2457 101.453C64.2457 101.453 64.4435 103.699 64.611 107.172C64.9642 114.579 65.16 127.576 62.9237 136.314C62.9237 136.314 68.9544 140.047 67.8625 143.716Z"
      fill="white"
    />
<path
      d="M67.8625 143.716C67.6364 144.482 67.0975 145.244 66.1308 145.969C60.0173 150.557 44.0525 150.419 41.2006 144.498C38.2822 138.438 42.6922 110.196 42.238 90.1914L64.2457 101.453C64.2457 101.453 64.4435 103.699 64.611 107.172C64.9642 114.579 65.16 127.576 62.9237 136.314C62.9237 136.314 68.9544 140.047 67.8625 143.716"
      stroke="black"
      stroke-linecap="round"
      stroke-linejoin="round"
    />
<path
      d="M66.8625 143.932C66.7273 143.741 66.4851 143.658 66.2631 143.731C63.2154 144.72 59.0476 145.336 55.3884 145.336C54.4277 145.336 53.5659 145.292 52.8252 145.205C49.0186 144.751 46.3403 140.649 45.6602 134.231C45.2262 130.131 45.6783 125.648 46.9014 121.933C48.1972 117.998 50.2074 115.383 52.5587 114.573C57.5097 112.868 61.3444 110.84 63.9541 108.54C64.0752 108.432 64.1418 108.276 64.1358 108.114C64.1115 107.547 64.0873 107.004 64.0611 106.495C64.051 106.29 63.9238 106.11 63.7361 106.029C63.5484 105.95 63.3304 105.984 63.1771 106.118C62.3697 106.825 61.4655 107.492 60.416 108.157C58.7287 109.217 56.8941 110.114 54.8051 110.903L50.6898 112.117L50.6474 112.127C48.726 112.5 46.7561 112.708 44.7943 112.745C44.649 112.747 44.5097 112.81 44.4108 112.917C44.3119 113.024 44.2615 113.168 44.2716 113.314C44.3079 113.866 44.3382 114.471 44.3644 115.221C44.4552 117.497 44.4149 119.994 44.2393 123.072C44.209 123.494 44.1828 123.913 44.1565 124.335C44.102 125.214 44.0455 126.122 43.9567 127.026C43.8861 128.044 43.7731 129.081 43.6641 130.086C43.6318 130.376 43.6015 130.666 43.5712 130.946C43.2382 133.554 42.8325 135.868 42.332 138.018C42.2835 138.231 42.3663 138.452 42.5439 138.578C42.7417 138.718 42.9455 138.87 43.1716 139.042C43.5853 139.362 43.9628 139.678 44.3261 140.011C45.1616 140.772 45.8176 141.528 46.3302 142.315C46.637 142.801 46.8631 143.271 47.0225 143.752C47.2102 144.329 47.2829 144.88 47.2365 145.397C47.1921 145.938 47.0145 146.494 46.7178 147.01L46.6835 147.071C46.6047 147.215 46.5946 147.385 46.6572 147.537C46.7198 147.689 46.8469 147.803 47.0044 147.847C47.2082 147.906 47.4161 147.961 47.6321 148.013C49.4142 148.449 51.4729 148.68 53.5881 148.68C58.5672 148.68 63.2558 147.483 65.8251 145.553C66.2489 145.237 66.5941 144.903 66.8524 144.564C66.9937 144.378 66.9977 144.12 66.8645 143.93L66.8625 143.932Z"
      fill="black"
      stroke="black"
      stroke-linecap="round"
      stroke-linejoin="round"
    />
<path
      d="M9.73947 107.115C14.9992 112.48 26.5378 108.955 26.5378 108.955L21.6919 68.8837L20.713 60.7896C20.713 60.7896 14.0082 61.8069 9.16021 64.5631C6.82301 65.8884 4.91773 67.6212 4.39903 69.8362C2.59062 77.5352 5.41625 102.703 9.73745 107.113"
      fill="white"
    />
<path
      d="M9.73947 107.115C14.9992 112.48 26.5378 108.955 26.5378 108.955L21.6919 68.8837L20.713 60.7896C20.713 60.7896 14.0082 61.8069 9.16021 64.5631C6.82301 65.8884 4.91773 67.6212 4.39903 69.8362C2.59062 77.5352 5.41625 102.703 9.73745 107.113"
      stroke="black"
      stroke-linecap="round"
      stroke-linejoin="round"
    />
<path
      d="M18.8526 109.818C16.0774 109.741 12.3798 108.313 10.4846 106.379C10.0568 105.944 8.88009 104.482 8.48047 103.593C8.69037 103.652 12.2729 103.927 12.7209 103.848C12.7976 103.885 17.2097 101.489 17.9362 101.388C21.3209 100.92 21.4521 108.538 21.4057 109.399"
      fill="black"
    />
<path
      d="M18.8526 109.818C16.0774 109.741 12.3798 108.313 10.4846 106.379C10.0568 105.944 8.88009 104.482 8.48047 103.593C8.69037 103.652 12.2729 103.927 12.7209 103.848C12.7976 103.885 17.2096 101.489 17.9362 101.388C21.3209 100.92 21.4521 108.538 21.4057 109.399"
      stroke="black"
      stroke-linecap="round"
      stroke-linejoin="round"
    />
<path
      d="M5.75182 90.3916L13.8634 89.9964C14.588 89.962 15.2439 90.42 15.4599 91.1151C16.251 93.6585 17.7729 99.6329 15.4982 101.949C13.6111 103.875 10.1881 104.101 7.9881 102.657C5.52577 101.041 4.57312 95.1156 4.24616 92.1649C4.14524 91.2469 4.83349 90.4362 5.75182 90.3916Z"
      fill="white"
    />
<path
      d="M5.75182 90.3916L13.8634 89.9964C14.588 89.962 15.2439 90.42 15.4599 91.1151C16.251 93.6585 17.7729 99.6329 15.4982 101.949C13.6111 103.875 10.1881 104.101 7.9881 102.657C5.52577 101.041 4.57312 95.1156 4.24616 92.1649C4.14524 91.2469 4.83349 90.4362 5.75182 90.3916"
      stroke="black"
      stroke-linecap="round"
      stroke-linejoin="round"
    />
<path
      d="M66.4422 100.865C63.9758 107.308 54.5483 110.842 50.548 111.629C49.6438 111.805 48.7638 111.941 47.906 112.036C41.4252 112.77 36.3472 111.383 34.456 110.806C30.8735 109.713 27.7048 107.748 25.1981 105.036C24.97 104.789 24.748 104.54 24.53 104.28C24.3403 104.053 24.1526 103.822 23.9729 103.583C23.1515 102.511 22.4229 101.342 21.7972 100.081C21.7649 100.016 21.7346 99.9534 21.7023 99.8865C20.7174 97.8377 19.9747 95.1382 19.4842 91.8916C18.7395 86.9569 18.5982 80.7616 19.1492 73.7091C19.2945 71.867 19.4842 69.964 19.7264 68.0104C19.7345 67.9354 19.7446 67.8584 19.7527 67.7834C19.7607 67.7125 19.7708 67.6415 19.7789 67.5686C19.9505 66.2229 20.1462 64.8529 20.3602 63.4607C20.3925 63.2519 20.4248 63.0412 20.4611 62.8324C21.1231 58.7063 21.9889 54.3978 23.0728 49.9575L54.2839 44.3398C55.8339 49.1712 57.2609 53.7452 58.5486 58.0477C59.1985 60.21 59.812 62.2994 60.3913 64.322C60.4599 64.5631 60.5285 64.8043 60.5951 65.0455C60.7707 65.6615 60.9423 66.2716 61.1138 66.8735C61.1825 67.1227 61.2511 67.37 61.3177 67.6152C63.56 75.6871 65.1807 82.5106 66.1091 87.9337C67.1748 94.1716 67.3221 98.5571 66.4381 100.865"
      fill="white"
    />
<path
      d="M66.4422 100.865C63.9758 107.308 54.5483 110.842 50.548 111.629C49.6438 111.805 48.7638 111.941 47.906 112.036C41.4252 112.77 36.3472 111.383 34.456 110.806C30.8735 109.713 27.7048 107.748 25.1981 105.036C24.97 104.789 24.748 104.54 24.53 104.28C24.3403 104.053 24.1526 103.822 23.9729 103.583C23.1515 102.511 22.4229 101.342 21.7972 100.081C21.7649 100.016 21.7346 99.9534 21.7023 99.8865C20.7174 97.8377 19.9747 95.1382 19.4842 91.8916C18.7395 86.9569 18.5982 80.7616 19.1492 73.7091C19.2945 71.867 19.4842 69.964 19.7264 68.0104C19.7345 67.9354 19.7446 67.8584 19.7527 67.7834C19.7607 67.7125 19.7708 67.6415 19.7789 67.5686C19.9505 66.2229 20.1462 64.8529 20.3602 63.4607C20.3925 63.2519 20.4248 63.0412 20.4611 62.8324C21.1231 58.7063 21.9889 54.3978 23.0728 49.9575L54.2839 44.3398C55.8339 49.1712 57.2609 53.7452 58.5486 58.0477C59.1985 60.21 59.812 62.2994 60.3913 64.322C60.4599 64.5631 60.5285 64.8043 60.5951 65.0455C60.7707 65.6615 60.9423 66.2716 61.1138 66.8735C61.1825 67.1227 61.2511 67.37 61.3177 67.6152C63.56 75.6871 65.1807 82.5106 66.1091 87.9337C67.1748 94.1716 67.3221 98.5571 66.4381 100.865"
      stroke="black"
      stroke-linecap="round"
      stroke-linejoin="round"
    />
<path
      d="M44.8165 111.934C44.8165 111.934 44.9538 125.77 41.67 138.61C41.67 138.61 50.4779 144.06 44.8791 148.265C38.7636 152.855 22.7988 152.717 19.9469 146.794C17.0285 140.736 21.4364 112.492 20.9864 92.4873"
      fill="white"
    />
<path
      d="M44.8165 111.934C44.8165 111.934 44.9538 125.77 41.67 138.61C41.67 138.61 50.4779 144.06 44.8791 148.265C38.7636 152.855 22.7988 152.717 19.9469 146.794C17.0285 140.736 21.4364 112.492 20.9864 92.4873"
      stroke="black"
      stroke-linecap="round"
      stroke-linejoin="round"
    />
<path
      d="M69.372 85.0576C69.5839 87.2321 67.9995 89.1695 65.8319 89.3803C63.6662 89.5931 61.7367 88.0022 61.5268 85.8257C61.3149 83.6512 62.8993 81.7137 65.0669 81.503C67.2326 81.2902 69.1601 82.881 69.372 85.0576Z"
      fill="black"
      stroke="black"
      stroke-linecap="round"
      stroke-linejoin="round"
    />
<path
      d="M61.0717 65.0998C61.0031 64.8586 60.9345 64.6175 60.8679 64.3763C60.5873 63.3934 60.2967 62.3963 60 61.383C60.1635 61.2574 60.327 61.1277 60.4884 61C61.3846 61.8593 62.208 62.6233 62.9649 63.3042C62.8781 63.3934 62.7893 63.4826 62.7005 63.5717C62.2827 63.9872 61.8488 64.3986 61.4027 64.8059C61.2937 64.9032 61.1827 65.0025 61.0737 65.0978"
      fill="black"
    />
<path
      d="M61.0717 65.0998C61.0031 64.8586 60.9345 64.6175 60.8679 64.3763C60.5873 63.3934 60.2967 62.3963 60 61.383C60.1635 61.2574 60.327 61.1277 60.4884 61C61.3846 61.8593 62.208 62.6233 62.9649 63.3042C62.8781 63.3934 62.7893 63.4826 62.7005 63.5717C62.2827 63.9872 61.8488 64.3986 61.4027 64.8059C61.2937 64.9032 61.1827 65.0025 61.0737 65.0978"
      stroke="black"
      stroke-linecap="round"
      stroke-linejoin="round"
    />
<path
      d="M24.1525 70.4443C22.6287 69.7532 21.1493 68.9446 19.7284 68.0124C19.2379 67.6942 18.7576 67.3618 18.2812 67.0153C18.5981 66.6221 18.915 66.231 19.2299 65.8379C19.7486 65.2035 20.2632 64.5652 20.7658 63.9126C21.6599 64.4294 22.5762 64.9016 23.5087 65.3353L24.1505 70.4463"
      fill="black"
    />
<path
      d="M24.1525 70.4443C22.6287 69.7532 21.1493 68.9446 19.7284 68.0124C19.2379 67.6942 18.7576 67.3618 18.2812 67.0153C18.5981 66.6221 18.915 66.231 19.2299 65.8379C19.7486 65.2035 20.2632 64.5652 20.7658 63.9126C21.6599 64.4294 22.5762 64.9016 23.5087 65.3353L24.1505 70.4463"
      stroke="black"
      stroke-linecap="round"
      stroke-linejoin="round"
    />
<path
      d="M76.5723 60.5522C77.8922 59.2592 77.4381 51.5846 79.8399 51.7447C83.5273 51.9919 82.5424 56.3146 82.6998 56.4017C82.8593 56.4869 84.5022 57.2529 84.6818 59.1376"
      fill="white"
    />
<path
      d="M76.5723 60.5522C77.8922 59.2592 77.4381 51.5846 79.8399 51.7447C83.5273 51.9919 82.5424 56.3146 82.6998 56.4017C82.8593 56.4869 84.5022 57.2529 84.6818 59.1376"
      stroke="black"
      stroke-linecap="round"
      stroke-linejoin="round"
    />
<path
      d="M63.2318 97.0817L42.9377 100.679C40.5359 101.107 38.2209 99.4812 37.7971 97.0655L35.8898 86.2212C35.5184 84.1075 36.7133 82.0647 38.6306 81.3027C38.9011 81.1933 39.1897 81.1122 39.4884 81.0595L59.7805 77.4623C62.1863 77.0347 64.4993 78.6601 64.9211 81.0757L66.4328 89.6644L66.8304 91.92C67.2563 94.3357 65.6336 96.6561 63.2318 97.0817Z"
      fill="white"
    />
<path
      d="M63.2318 97.0817L42.9377 100.679C40.5359 101.107 38.2209 99.4812 37.7971 97.0655L35.8898 86.2212C35.5184 84.1075 36.7133 82.0647 38.6306 81.3027C38.9011 81.1933 39.1897 81.1122 39.4884 81.0595L59.7805 77.4623C62.1863 77.0347 64.4993 78.6601 64.9211 81.0757L66.4328 89.6644L66.8304 91.92C67.2563 94.3357 65.6336 96.6561 63.2318 97.0817"
      stroke="black"
      stroke-linecap="round"
      stroke-linejoin="round"
    />
<path
      d="M64.0334 96.8565C63.7791 96.9579 63.5147 97.0329 63.2322 97.0815L42.9381 100.679C41.1781 100.991 39.4646 100.202 38.5099 98.8061C38.1608 98.2995 37.9125 97.7097 37.8015 97.0653L36.9518 92.2481L36.6712 90.6592L35.8902 86.223C35.4643 83.8074 37.087 81.4869 39.4888 81.0613L43.8746 80.2852C41.9209 81.0249 40.6958 83.0879 41.0691 85.2239L42.0965 91.0828L42.9744 96.0723C43.4003 98.4839 45.7133 100.113 48.115 99.6857L64.0314 96.8606"
      fill="black"
    />
<path
      d="M64.0334 96.8565C63.7791 96.9579 63.5147 97.0329 63.2322 97.0815L42.9381 100.679C41.1781 100.991 39.4646 100.202 38.5099 98.8061C38.1608 98.2995 37.9125 97.7097 37.8015 97.0653L36.9518 92.2481L36.6712 90.6592L35.8902 86.223C35.4643 83.8074 37.087 81.4869 39.4888 81.0613L43.8746 80.2852C41.9209 81.0249 40.6958 83.0879 41.0691 85.2239L42.0965 91.0828L42.9744 96.0723C43.4003 98.4839 45.7133 100.113 48.115 99.6857L64.0314 96.8606"
      stroke="black"
      stroke-linecap="round"
      stroke-linejoin="round"
    />
<path
      d="M50.0416 89.314C50.1102 89.7153 50.0981 93.0531 50.0981 93.0531C50.0981 93.0531 49.0748 93.2294 47.8194 93.4442C46.2512 93.7137 44.7032 92.3012 44.3601 90.2888C44.019 88.2784 45.012 86.4282 46.5802 86.1607C47.6398 85.9783 48.8589 85.7695 48.8589 85.7695C48.8589 85.7695 49.9286 88.6615 50.0396 89.314"
      fill="#00CA20"
    />
<path
      d="M50.0416 89.314C50.1102 89.7153 50.0981 93.0531 50.0981 93.0531C50.0981 93.0531 49.0748 93.2294 47.8194 93.4442C46.2512 93.7137 44.7032 92.3012 44.3601 90.2888C44.019 88.2784 45.012 86.4282 46.5802 86.1607C47.6398 85.9783 48.8589 85.7695 48.8589 85.7695C48.8589 85.7695 49.9286 88.6615 50.0396 89.314"
      stroke="black"
      stroke-linecap="round"
      stroke-linejoin="round"
    />
<path
      d="M18.1357 88.2439C18.1357 88.2439 16.4322 89.9888 16.6361 92.3295C16.8722 95.035 18.6867 95.9186 18.6867 95.9186C18.6867 95.9186 26.4995 98.7802 37.9756 94.804C37.9756 94.804 40.9002 89.9706 36.7303 87.9663C36.7303 87.9663 24.5034 91.2311 18.1357 88.2439Z"
      fill="white"
    />
<path
      d="M18.1357 88.2439C18.1357 88.2439 16.4322 89.9888 16.6361 92.3295C16.8722 95.035 18.6867 95.9186 18.6867 95.9186C18.6867 95.9186 26.4995 98.7802 37.9756 94.804C37.9756 94.804 40.9002 89.9706 36.7303 87.9663C36.7303 87.9663 24.5034 91.2311 18.1357 88.2439"
      stroke="black"
      stroke-linecap="round"
      stroke-linejoin="round"
    />
<path
      d="M52.3189 88.9247C52.66 90.9351 51.667 92.7853 50.0987 93.0528C48.5305 93.3224 46.9825 91.9099 46.6394 89.8975C46.2983 87.8871 47.2913 86.0368 48.8595 85.7693C50.4277 85.4998 51.9758 86.9123 52.3189 88.9247Z"
      fill="#00CA20"
      stroke="black"
      stroke-linecap="round"
      stroke-linejoin="round"
    />
<path
      d="M36.6303 101.37C35.0741 102.446 33.6896 101.88 32.5291 101.315C31.7863 100.954 31.1384 100.592 30.5955 100.658C29.3765 100.81 27.895 103.964 25.1986 105.034C24.8191 105.186 24.4134 105.295 23.9795 105.35C20.4959 105.782 9.34274 102.837 6.01657 94.8543C2.45628 86.3061 14.2815 70.2191 20.4636 62.8322C21.606 61.4663 33.1285 67.236 32.8419 71.658C32.5553 76.0719 25.1965 82.8873 24.6193 83.5196C22.8674 85.4387 25.2187 86.0629 25.2187 86.0629C25.2187 86.0629 29.3442 84.0485 30.8882 84.1255C32.4322 84.2025 36.6848 85.0598 37.6697 87.443C39.3509 91.5104 40.1906 96.6782 36.6323 101.368"
      fill="white"
    />
<path
      d="M36.6303 101.37C35.0741 102.446 33.6896 101.88 32.5291 101.315C31.7863 100.954 31.1384 100.592 30.5955 100.658C29.3765 100.81 27.895 103.964 25.1986 105.034C24.8191 105.186 24.4134 105.295 23.9795 105.35C20.4959 105.782 9.34274 102.837 6.01657 94.8543C2.45628 86.3061 14.2815 70.2191 20.4636 62.8322C21.606 61.4663 33.1285 67.236 32.8419 71.658C32.5553 76.0719 25.1965 82.8873 24.6193 83.5196C22.8674 85.4387 25.2187 86.0629 25.2187 86.0629C25.2187 86.0629 29.3442 84.0485 30.8882 84.1255C32.4322 84.2025 36.6848 85.0598 37.6697 87.443C39.3509 91.5104 40.1906 96.6782 36.6323 101.368"
      stroke="black"
      stroke-linecap="round"
      stroke-linejoin="round"
    />
<path
      d="M23.2381 105.341C23.0807 105.341 22.9192 105.335 22.7537 105.327C22.2593 105.302 21.7486 105.235 21.242 105.15C19.2035 104.802 17.1751 104.141 15.2799 103.259C13.3848 102.372 10.9668 101.944 9.40062 100.617C3.86238 95.9211 5.76161 89.3408 5.76161 89.3408C8.59128 92.6887 19.2096 101.835 23.2301 101.835C23.5086 101.835 23.7589 101.821 23.9809 101.794C27.4685 101.363 29.2063 97.2769 30.5969 97.1047C30.6413 97.0986 30.6877 97.0966 30.7341 97.0966C31.2488 97.0966 31.8503 97.4289 32.5304 97.7613C33.2106 98.0936 33.9695 98.426 34.795 98.426C35.3742 98.426 37.7982 98.0673 38.9729 96.2373C38.9002 96.3508 38.0061 101.75 36.1836 101.375C36.1008 101.358 36.0826 101.458 36.0382 101.508L35.7819 101.658C35.6971 101.719 35.6104 101.744 35.5256 101.778L35.3984 101.833C35.3561 101.849 35.3116 101.853 35.2693 101.863C35.1118 101.904 34.9524 101.926 34.7849 101.926C34.5891 101.926 34.3832 101.898 34.1652 101.841C33.7616 101.737 33.3277 101.541 32.8473 101.302C32.6031 101.182 32.3548 101.054 32.0561 100.927L31.8321 100.834L31.5717 100.746C31.4143 100.684 31.1741 100.647 30.9683 100.613C30.8835 100.613 30.8028 100.607 30.72 100.607C30.5464 100.607 30.3688 100.621 30.1589 100.682C29.8925 100.767 29.6846 100.88 29.5171 100.992C29.178 101.217 28.9479 101.442 28.7299 101.658C28.3041 102.09 27.9489 102.506 27.5876 102.895C27.2303 103.284 26.8731 103.649 26.5038 103.973C25.7671 104.625 24.9678 105.093 24.1282 105.262C23.8537 105.316 23.557 105.337 23.2422 105.337"
      fill="black"
    />
<path
      d="M23.2381 105.341C23.0807 105.341 22.9192 105.335 22.7537 105.327C22.2593 105.302 21.7486 105.235 21.242 105.15C19.2035 104.802 17.1751 104.141 15.2799 103.259C13.3848 102.372 10.9668 101.944 9.40062 100.617C3.86238 95.9211 5.76161 89.3408 5.76161 89.3408C8.59128 92.6887 19.2096 101.835 23.2301 101.835C23.5086 101.835 23.7589 101.821 23.9809 101.794C27.4685 101.363 29.2063 97.2769 30.5969 97.1047C30.6413 97.0986 30.6877 97.0966 30.7341 97.0966C31.2488 97.0966 31.8502 97.4289 32.5304 97.7613C33.2106 98.0936 33.9695 98.426 34.795 98.426C35.3742 98.426 37.7982 98.0673 38.9729 96.2373C38.9002 96.3508 38.0061 101.75 36.1836 101.375C36.1008 101.358 36.0826 101.458 36.0382 101.508L35.7819 101.658C35.6971 101.719 35.6104 101.744 35.5256 101.778L35.3984 101.833C35.3561 101.849 35.3116 101.853 35.2693 101.863C35.1118 101.904 34.9524 101.926 34.7849 101.926C34.5891 101.926 34.3832 101.898 34.1652 101.841C33.7616 101.737 33.3277 101.541 32.8473 101.302C32.6031 101.182 32.3548 101.054 32.0561 100.927L31.8321 100.834L31.5717 100.746C31.4143 100.684 31.1741 100.647 30.9683 100.613C30.8835 100.613 30.8028 100.607 30.72 100.607C30.5464 100.607 30.3688 100.621 30.1589 100.682C29.8925 100.767 29.6846 100.88 29.5171 100.992C29.178 101.217 28.9479 101.442 28.7299 101.658C28.3041 102.09 27.9489 102.506 27.5876 102.895C27.2303 103.284 26.8731 103.649 26.5038 103.973C25.7671 104.625 24.9678 105.093 24.1282 105.262C23.8537 105.316 23.557 105.337 23.2422 105.337"
      stroke="black"
      stroke-linecap="round"
      stroke-linejoin="round"
    />
<path
      d="M71.5099 42.9615C70.0406 48.4049 67.1927 53.5119 63.0471 57.7292C62.2015 58.5885 61.3053 59.4093 60.3567 60.1895C59.8966 60.5705 59.4182 60.9394 58.9298 61.3041C57.4524 62.3924 55.9165 63.3449 54.3321 64.1616C52.9697 64.8689 51.571 65.4749 50.1522 65.9835C48.4386 66.5996 46.6908 67.0698 44.9288 67.4001C44.285 67.5197 43.6411 67.621 42.9953 67.7041C31.174 69.224 18.9007 64.5528 11.2856 54.4219C0.0658541 39.5021 3.20836 18.3892 18.2992 7.26727C21.2076 5.12719 24.3481 3.50795 27.6016 2.40549C27.9811 2.27376 28.3645 2.15217 28.7521 2.03665C29.7834 1.72456 30.8249 1.46515 31.8703 1.25439C34.2923 0.768008 36.7486 0.551164 39.1887 0.591695C41.6289 0.6302 44.0609 0.928109 46.4324 1.47934C47.1873 1.65363 47.9341 1.85223 48.6788 2.07921C49.7909 2.41968 50.8889 2.81283 51.9666 3.26881C57.3434 5.52035 62.2055 9.17631 65.9414 14.1475C72.3959 22.7301 74.0954 33.3616 71.5059 42.9615"
      fill="white"
    />
<path
      d="M71.5099 42.9615C70.0406 48.4049 67.1927 53.5119 63.0471 57.7292C62.2015 58.5885 61.3053 59.4093 60.3567 60.1895C59.8966 60.5705 59.4182 60.9394 58.9298 61.3041C57.4524 62.3924 55.9165 63.3449 54.3321 64.1616C52.9697 64.8689 51.571 65.4749 50.1522 65.9835C48.4386 66.5996 46.6908 67.0698 44.9288 67.4001C44.285 67.5197 43.6411 67.621 42.9953 67.7041C31.174 69.224 18.9007 64.5528 11.2856 54.4219C0.0658539 39.5021 3.20836 18.3892 18.2992 7.26727C21.2076 5.12719 24.3481 3.50795 27.6016 2.40549C27.9811 2.27376 28.3645 2.15217 28.7521 2.03665C29.7834 1.72456 30.8249 1.46515 31.8703 1.25439C34.2923 0.768008 36.7486 0.551164 39.1887 0.591695C41.6289 0.6302 44.0609 0.928109 46.4324 1.47934C47.1873 1.65363 47.9341 1.85223 48.6788 2.07921C49.7909 2.41968 50.8889 2.81283 51.9666 3.26881C57.3434 5.52035 62.2055 9.17631 65.9414 14.1475C72.3959 22.7301 74.0954 33.3616 71.5059 42.9615"
      stroke="black"
      stroke-linecap="round"
      stroke-linejoin="round"
    />
<path
      d="M13.921 54.9126C2.70127 39.9908 6.19496 19.3541 21.2879 8.23016C24.1962 6.09008 27.3367 4.47084 30.5902 3.36838C30.9697 3.23665 31.3532 3.11506 31.7407 2.99954C32.772 2.68745 33.8135 2.42804 34.859 2.21728C37.2809 1.7309 39.7372 1.51405 42.1773 1.55459C44.6175 1.59309 47.0495 1.891 49.421 2.44223C50.1759 2.61652 50.9227 2.81512 51.6674 3.0421"
      fill="black"
    />
<path
      d="M13.921 54.9126C2.70127 39.9908 6.19496 19.3541 21.2879 8.23016C24.1962 6.09008 27.3367 4.47084 30.5902 3.36838C30.9697 3.23665 31.3532 3.11506 31.7407 2.99954C32.772 2.68745 33.8135 2.42804 34.859 2.21728C37.2809 1.7309 39.7372 1.51405 42.1773 1.55459C44.6175 1.59309 47.0495 1.891 49.421 2.44223C50.1759 2.61652 50.9227 2.81512 51.6674 3.0421"
      stroke="black"
      stroke-linecap="round"
      stroke-linejoin="round"
    />
<path
      d="M15.2584 54.4949C6.61399 39.9623 8.1136 20.7462 23.2045 9.62225C26.1129 7.48217 29.2533 5.86293 32.5069 4.76047C32.8863 4.62874 33.2698 4.50715 33.6573 4.39163C34.6886 4.07954 35.7301 3.82013 36.7756 3.60937C39.1975 3.12299 41.6538 2.90614 44.094 2.94668C46.5341 2.98518 48.9662 3.28309 51.3377 3.83432C52.0925 4.00861 52.8393 4.20721 53.584 4.43419"
      fill="white"
    />
<path
      d="M15.2584 54.4949C6.61399 39.9623 8.1136 20.7462 23.2045 9.62225C26.1129 7.48217 29.2533 5.86293 32.5069 4.76047C32.8863 4.62874 33.2698 4.50715 33.6573 4.39163C34.6886 4.07954 35.7301 3.82013 36.7756 3.60937C39.1975 3.12299 41.6538 2.90614 44.094 2.94668C46.5341 2.98518 48.9662 3.28309 51.3377 3.83432C52.0925 4.00861 52.8393 4.20721 53.584 4.43419"
      stroke="black"
      stroke-linecap="round"
      stroke-linejoin="round"
    />
<path
      d="M66.0082 14.0992C62.3934 9.28808 57.5495 5.51864 51.9991 3.19414C50.9496 2.75032 49.8395 2.34906 48.7032 2.00251C47.9726 1.77959 47.2157 1.57693 46.4528 1.40061C44.0753 0.849382 41.6311 0.549448 39.193 0.510942C36.7286 0.468384 34.2602 0.693335 31.8564 1.17566C30.8109 1.38643 29.7594 1.64988 28.7301 1.95995C28.3163 2.08155 27.9389 2.20314 27.5756 2.32879C24.2555 3.45152 21.119 5.09103 18.251 7.20273C10.9064 12.6157 6.14117 20.5356 4.83331 29.5053C3.53554 38.402 5.80411 47.2683 11.2213 54.4749C17.694 63.0858 27.9005 68.0712 38.6036 68.0712C40.0649 68.0712 41.5342 67.978 43.0056 67.7895C43.6514 67.7064 44.3033 67.6031 44.9431 67.4835C46.7293 67.1471 48.4913 66.6688 50.1786 66.0629C51.6217 65.5461 53.0325 64.93 54.3686 64.2349C55.9671 63.4101 57.5172 62.4454 58.9764 61.3693C59.5133 60.9701 59.9795 60.6033 60.4074 60.2527C61.3399 59.4866 62.2481 58.6577 63.1039 57.7863C67.1526 53.6683 70.0852 48.5491 71.5868 42.9841C74.2954 32.9424 72.2609 22.4163 66.0082 14.0992V14.0992ZM71.4314 42.9416C69.9379 48.4802 67.0194 53.5751 62.9908 57.6728C62.1371 58.5402 61.2349 59.365 60.3065 60.127C59.8826 60.4776 59.4164 60.8424 58.8816 61.2396C57.4284 62.3096 55.8864 63.2682 54.296 64.091C52.9639 64.7821 51.5612 65.3941 50.1261 65.9089C48.4449 66.5128 46.693 66.989 44.9149 67.3214C44.2771 67.4389 43.6272 67.5423 42.9854 67.6254C30.7928 69.1919 18.6708 64.1153 11.3504 54.3756C5.95952 47.2055 3.70104 38.3817 4.99275 29.5276C6.29456 20.6025 11.0376 12.7211 18.3479 7.33243C21.2018 5.23289 24.3241 3.60149 27.6301 2.48281C27.9893 2.35716 28.3648 2.23759 28.7765 2.116C29.8018 1.80593 30.8493 1.5445 31.8887 1.33576C34.0947 0.893967 36.3552 0.669016 38.6178 0.669016C38.8075 0.669016 38.9992 0.669016 39.1889 0.673069C41.617 0.711574 44.049 1.00746 46.4165 1.55666C47.1774 1.73297 47.9302 1.93361 48.6568 2.1545C49.7891 2.50105 50.8931 2.89826 51.9386 3.34006C57.4607 5.65239 62.2824 9.40563 65.879 14.1924C72.1015 22.467 74.1258 32.9444 71.4314 42.9355V42.9416Z"
      stroke="black"
      stroke-linecap="round"
      stroke-linejoin="round"
    />
<path
      d="M68.1961 50.9545C52.0497 68.9972 23.3413 65.7384 16.3337 42.9231C11.5685 27.4015 23.2525 10.7774 38.6158 7.18023C49.7972 4.56188 61.8647 6.84585 70.6908 22.9045C70.6908 22.9045 73.4881 30.6116 72.596 36.3995C71.706 42.1875 69.8511 47.6694 69.8511 47.6694L68.1941 50.9504"
      fill="#5555FF"
    />
<path
      d="M68.1961 50.9545C52.0497 68.9972 23.3413 65.7384 16.3337 42.9231C11.5685 27.4015 23.2525 10.7774 38.6158 7.18023C49.7972 4.56188 61.8647 6.84585 70.6908 22.9045C70.6908 22.9045 73.4881 30.6116 72.596 36.3995C71.706 42.1875 69.8511 47.6694 69.8511 47.6694L68.1941 50.9504"
      stroke="black"
      stroke-linecap="round"
      stroke-linejoin="round"
    />
<path
      d="M16.3362 42.9229C23.3417 65.7362 52.0501 68.9949 68.1966 50.9563L68.5316 50.2896C48.4535 61.9769 23.7635 51.5927 16.2474 28.6558C14.9597 33.2379 14.8669 38.1321 16.3362 42.9229Z"
      fill="black"
      stroke="black"
      stroke-linecap="round"
      stroke-linejoin="round"
    />
<path
      d="M1.3009 44.988C2.46546 51.5338 7.34775 56.3348 12.2058 55.7106C17.0639 55.0864 20.059 49.2742 18.8945 42.7304C18.8884 42.6898 18.8783 42.6452 18.8703 42.6047C17.6674 36.1237 12.8133 31.3876 7.98957 32.0077C4.23552 32.488 1.59557 36.0669 1.12531 40.6876C0.988062 42.0474 1.0365 43.5005 1.30292 44.988H1.3009Z"
      fill="white"
      stroke="black"
      stroke-linecap="round"
      stroke-linejoin="round"
    />
<path
      d="M0.734025 45.9023C1.70483 51.2343 5.46897 55.1983 9.14229 54.7565C12.8156 54.3147 15.0055 49.6333 14.0347 44.3013C13.0639 38.9694 9.29972 35.0054 5.6264 35.4472C1.95308 35.889 -0.236781 40.5704 0.734025 45.9044V45.9023Z"
      fill="black"
      stroke="black"
      stroke-linecap="round"
      stroke-linejoin="round"
    />
<path
      d="M24.1828 37.8507C24.1223 37.8507 24.0617 37.8507 24.0012 37.8466C21.4904 37.7331 19.5669 35.2931 19.7042 32.3971C19.8394 29.5721 21.886 27.355 24.318 27.355C24.3786 27.355 24.4391 27.355 24.4997 27.359C27.0104 27.4725 28.9339 29.9125 28.7967 32.8085C28.6614 35.6336 26.6149 37.8507 24.1828 37.8507Z"
      fill="white"
    />
<path
      d="M30.6036 42.7224C30.5753 42.7224 30.5471 42.7224 30.5188 42.7224C29.3522 42.6697 28.4602 41.5369 28.5227 40.1932C28.5853 38.882 29.5359 37.8525 30.6662 37.8525C30.6944 37.8525 30.7227 37.8525 30.7509 37.8525C31.9175 37.9052 32.8096 39.0381 32.747 40.3817C32.6845 41.6929 31.7338 42.7224 30.6036 42.7224Z"
      fill="white"
    />
<path
      d="M54.6973 12.749C54.6973 12.749 65.4003 18.5532 68.5307 29.8595"
      stroke="white"
      stroke-linecap="round"
      stroke-linejoin="round"
    />
<path
      d="M38.1948 73.4799C33.3831 73.4799 16.6211 67.9068 16.6211 67.9068L20.464 62.8343C25.0435 64.9561 33.1147 68.5716 38.223 68.5716C40.8448 68.5716 43.4888 68.2777 46.1045 67.6738C46.7463 67.5238 47.3942 67.3556 48.034 67.1712C49.8081 66.6524 51.5439 65.9917 53.1908 65.2094C54.5996 64.5407 55.966 63.7767 57.2476 62.9417C58.0247 62.4371 58.7856 61.9 59.5263 61.3306C59.823 62.3459 60.1136 63.343 60.3941 64.3238C60.4628 64.565 60.5314 64.8062 60.598 65.0473C59.3487 66.1457 58.0428 67.1347 56.6805 68.0163C56.4544 68.1622 56.2304 68.3061 56.0023 68.4439C54.9427 69.0985 53.8548 69.6882 52.7427 70.2151C51.118 70.9872 49.4428 71.6195 47.7394 72.1181C47.1197 72.3005 46.4941 72.4606 45.8644 72.6065C43.3395 73.1881 40.7641 73.4799 38.1928 73.4799"
      fill="black"
    />
<path
      d="M38.1948 73.4799C33.3831 73.4799 16.6211 67.9068 16.6211 67.9068L20.464 62.8343C25.0435 64.9561 33.1147 68.5716 38.223 68.5716C40.8448 68.5716 43.4888 68.2777 46.1045 67.6738C46.7463 67.5238 47.3942 67.3556 48.034 67.1712C49.8081 66.6524 51.5439 65.9917 53.1908 65.2094C54.5996 64.5407 55.966 63.7767 57.2476 62.9417C58.0247 62.4371 58.7856 61.9 59.5263 61.3306C59.823 62.3459 60.1136 63.343 60.3941 64.3238C60.4628 64.565 60.5314 64.8062 60.598 65.0473C59.3487 66.1457 58.0428 67.1347 56.6805 68.0163C56.4544 68.1622 56.2304 68.3061 56.0023 68.4439C54.9427 69.0985 53.8548 69.6882 52.7427 70.2151C51.118 70.9872 49.4428 71.6195 47.7394 72.1181C47.1197 72.3005 46.4941 72.4606 45.8644 72.6065C43.3395 73.1881 40.7641 73.4799 38.1928 73.4799"
      stroke="black"
      stroke-linecap="round"
      stroke-linejoin="round"
    />
</g>
<defs>
<clipPath id="clip0_839_10186">
<rect width="99" height="152" fill="white" />
</clipPath>
</defs>
</svg>
