<svg width="657" height="656" viewBox="0 0 657 656" fill="none" xmlns="http://www.w3.org/2000/svg">
<g clip-path="url(#clip0_986_7698)">
<path
      d="M3.62753 288.35C-18.253 468.137 109.695 631.654 289.42 653.6C469.144 675.489 632.604 547.496 654.543 367.709C676.482 187.863 548.475 24.3461 368.751 2.458C189.027 -19.4886 25.5665 108.563 3.62753 288.35Z"
      fill="#FF7E66"
    />
<g opacity="0.2">
<path
        d="M261.981 6.37939C181.655 44.0106 118.003 113.479 89.3356 200.622C89.3356 200.622 102.499 214.258 100.159 230.879C98.2282 244.574 82.9002 248.553 77.4593 249.548C76.6987 254.289 75.8212 259.029 75.2361 263.828C72.2524 288.409 72.1939 312.638 74.5341 336.281C75.4701 336.984 102.499 357.233 104.02 376.078C105.19 390.358 98.4622 404.053 91.9683 413.885C93.9574 419.445 96.005 424.946 98.2867 430.389C116.774 474.399 144.797 513.786 179.958 545.857C183.176 544.453 202.599 536.728 219.975 545.506C238.989 555.163 232.67 582.903 232.67 582.903L230.33 583.606C269.001 607.191 313.113 623.168 361.028 629.021C397.242 633.41 432.754 631.654 466.628 624.69C412.804 649.914 351.551 660.858 288.249 653.133C108.525 631.303 -19.4819 467.786 2.45715 287.999C19.9498 144.38 127.714 33.9444 261.981 6.37939Z"
        fill="black"
      />
</g>
<g opacity="0.2">
<path
        d="M86.82 266.345C86.2935 270.675 89.3942 274.596 93.7235 275.123C98.0528 275.65 101.973 272.548 102.499 268.217C103.026 263.887 99.9249 259.965 95.5956 259.439C91.2663 258.912 87.3465 262.014 86.82 266.345Z"
        fill="black"
      />
</g>
<path
      opacity="0.3"
      d="M340.318 370.401C335.813 369.874 331.308 369.757 326.979 370.108C328.091 370.167 329.261 370.225 330.372 370.343C367.522 374.849 392.035 405.574 387.531 442.737C383.318 477.15 355.763 504.773 322.182 505.066C322.767 505.124 323.293 505.3 323.878 505.358C361.145 509.923 395.019 483.353 399.582 446.073C404.146 408.793 377.585 374.907 340.318 370.343V370.401Z"
      fill="black"
    />
<g opacity="0.1">
<path
        d="M257.183 429.452C252.679 466.615 276.841 500.15 313.991 504.714C351.141 509.221 382.967 479.959 387.53 442.796C392.035 405.633 367.522 374.907 330.372 370.401C293.222 365.895 261.747 392.348 257.183 429.511V429.452Z"
        fill="black"
      />
</g>
<path
      opacity="0.3"
      d="M276.491 116.873C273.8 104.525 262.86 94.4584 250.34 92.8197L243.729 87.5525C235.889 81.7586 224.832 85.153 215.939 89.3083C220.503 88.8986 225.359 89.4838 231.443 91.0055L243.729 95.3948C254.669 102.008 261.514 107.978 264.205 120.326C266.662 131.738 262.333 143.97 254.786 152.924C247.239 161.879 236.825 167.965 226.061 172.53C222.726 173.935 219.391 175.164 215.998 176.334C223.603 174.52 231.092 172.12 238.346 169.019C249.111 164.454 259.525 158.367 267.072 149.413C274.619 140.459 278.948 128.286 276.491 116.815V116.873Z"
      fill="black"
    />
<g opacity="0.1">
<path
        d="M166.21 118.921C176.215 107.392 189.729 99.4914 203.536 92.9366C212.429 88.7229 219.742 88.0206 231.559 91.0639L243.845 95.4532C254.785 102.066 261.63 108.036 264.322 120.385C266.779 131.797 262.45 144.028 254.902 152.983C247.355 161.937 236.942 168.023 226.177 172.588C214.067 177.738 201.254 181.191 188.149 182.83C180.836 183.767 174.752 183.474 168.2 180.079C161.004 176.334 158.956 168.96 157.318 161.001C154.276 146.018 156.206 130.509 166.21 118.921Z"
        fill="black"
      />
</g>
<path
      opacity="0.3"
      d="M523.495 453.564C528.643 464.04 528.292 476.798 523.553 487.45C518.814 498.159 510.507 506.88 501.439 514.312C495.354 519.287 488.86 523.676 482.015 527.539C484.94 525.49 487.866 523.325 490.615 521.043C499.683 513.668 507.991 504.89 512.73 494.18C517.469 483.47 518.229 470.595 512.671 460.294C506.645 449.175 498.396 445.37 486.052 442.093L473.064 441.274C466.746 441.449 461.948 442.327 457.678 443.966C465.049 437.47 482.717 429.803 501.088 436.007C501.088 436.007 517.995 442.444 523.495 453.564Z"
      fill="black"
    />
<g opacity="0.1">
<path
        d="M418.07 486.337C424.447 472.467 435.212 461.113 446.62 450.989C453.992 444.434 460.837 441.742 473.006 441.391L485.994 442.21C498.338 445.487 506.587 449.291 512.613 460.411C518.171 470.711 517.41 483.587 512.671 494.297C507.933 505.007 499.625 513.727 490.557 521.159C480.377 529.47 469.027 536.376 456.917 541.584C450.189 544.511 444.222 545.915 437.026 544.511C429.069 542.93 425.032 536.376 421.23 529.236C414.092 515.717 411.635 500.266 418.012 486.396L418.07 486.337Z"
        fill="black"
      />
</g>
<path
      opacity="0.3"
      d="M157.26 264.062C165.041 266.461 170.774 273.25 173.173 281.619C175.572 289.988 175.162 299.469 173.641 308.716C172.647 314.92 171.126 321.065 169.195 327.093C169.838 324.284 170.423 321.416 170.891 318.607C172.413 309.36 172.822 299.879 170.423 291.51C168.025 283.141 162.35 275.942 154.51 273.953C146.027 271.729 139.709 274.655 131.401 280.332L123.913 287.647C120.578 291.51 118.296 294.787 116.717 298.182C117.711 290.456 123.796 275.942 136.725 268.276C136.725 268.276 149.011 261.545 157.26 264.062Z"
      fill="black"
    />
<g opacity="0.1">
<path
        d="M114.903 343.655C111.86 332.652 112.445 320.362 113.966 308.306C114.961 300.523 117.418 295.08 123.912 287.647L131.401 280.332C139.708 274.713 146.027 271.787 154.51 273.953C162.408 276.001 168.024 283.141 170.423 291.51C172.821 299.879 172.412 309.36 170.891 318.607C169.194 328.965 166.211 339.324 162.057 349.215C159.717 354.716 157.142 358.988 152.521 362.558C147.431 366.48 142.165 365.485 136.725 363.963C126.486 361.154 117.886 354.599 114.844 343.597L114.903 343.655Z"
        fill="black"
      />
</g>
<path
      opacity="0.3"
      d="M626.167 362.676C623.125 360.452 619.03 362.91 615.344 368.47C611.658 374.029 608.382 381.989 605.515 390.358C603.585 395.976 601.83 401.77 600.191 407.798C601.01 405.164 601.888 402.531 602.766 399.956C605.632 391.587 608.909 383.627 612.594 378.068C616.28 372.508 620.434 369.699 623.418 372.274C626.635 375.083 627.337 380.818 627.688 389.89L627.22 399.897C626.811 404.813 626.226 408.793 625.465 412.363C627.981 405.516 631.433 390.416 630.496 377.131C630.496 377.131 629.443 365.017 626.167 362.676Z"
      fill="black"
    />
<g opacity="0.1">
<path
        d="M609.67 450.462C614.467 443.088 618.679 432.729 622.599 422.078C625.115 415.172 626.343 409.437 627.162 399.839L627.63 389.831C627.279 380.76 626.577 374.966 623.36 372.215C620.376 369.64 616.222 372.449 612.536 378.009C608.851 383.569 605.574 391.528 602.708 399.897C599.49 409.261 596.623 419.327 594.283 429.628C592.938 435.422 592.177 440.279 592.236 445.663C592.236 451.574 594.108 453.623 596.214 455.32C600.134 458.539 604.931 457.836 609.67 450.462Z"
        fill="black"
      />
</g>
<path
      opacity="0.3"
      d="M354.71 28.5599C356.348 32.9493 353.189 37.5142 347.104 40.9671C341.02 44.3615 332.537 46.7025 323.82 48.3997C317.969 49.5702 311.885 50.4481 305.742 51.1504C308.492 50.7407 311.241 50.214 313.933 49.6872C322.65 47.9315 331.074 45.6491 337.217 42.2546C343.302 38.8602 346.812 34.2368 344.823 29.8475C342.658 25.1655 337.1 22.8831 328.208 20.3665L318.262 18.6693C313.348 18.0841 309.369 17.85 305.684 18.0255C312.88 16.4454 328.383 15.509 341.254 19.7227C341.254 19.7227 352.955 23.878 354.71 28.5014V28.5599Z"
      fill="black"
    />
<g opacity="0.1">
<path
        d="M265.374 29.3205C273.447 24.9312 284.388 21.9465 295.562 19.4299C302.758 17.8498 308.667 17.5571 318.261 18.7276L328.207 20.4248C337.1 22.9414 342.658 25.2238 344.822 29.9058C346.811 34.2366 343.301 38.86 337.217 42.313C331.132 45.7074 322.649 48.0484 313.932 49.7456C304.103 51.6769 293.748 53.0229 283.159 53.6082C277.25 53.9593 272.336 53.8423 267.012 52.5547C261.162 51.1501 259.523 48.341 258.178 45.2977C255.721 39.6208 257.3 33.7099 265.374 29.3205Z"
        fill="black"
      />
</g>
<path
      opacity="0.3"
      d="M353.422 516.654C353.422 516.654 367.463 517.356 377.409 526.837C385.014 531.46 386.886 542.99 385.131 551.71C383.493 559.845 377.233 566.458 369.803 570.087C362.373 573.715 353.89 574.71 345.641 574.593C340.083 574.534 334.584 573.949 329.143 572.954C331.658 573.188 334.233 573.305 336.748 573.364C344.997 573.481 353.48 572.486 360.91 568.858C368.34 565.229 374.6 558.557 376.238 550.481C377.994 541.761 375.302 535.908 370.096 528.534L363.426 522.214C359.916 519.463 356.932 517.707 353.89 516.654"
      fill="black"
    />
<g opacity="0.1">
<path
        d="M313.23 521.628C323 517.005 333.94 515.717 344.763 515.425C351.725 515.249 356.64 516.888 363.426 522.213L370.096 528.534C375.302 535.908 378.052 541.761 376.238 550.481C374.6 558.616 368.34 565.229 360.91 568.857C353.48 572.486 344.997 573.481 336.748 573.364C327.446 573.247 318.144 571.842 309.251 569.15C304.279 567.687 300.417 565.756 297.141 561.717C293.572 557.27 294.333 551.885 295.503 546.267C297.785 535.733 303.46 526.193 313.23 521.57V521.628Z"
        fill="black"
      />
</g>
<path
      opacity="0.3"
      d="M386.184 82.5192C382.967 77.6031 379.398 74.2672 375.244 73.799C370.856 73.2138 366.176 72.9797 362.139 74.5013C364.713 74.2672 367.404 74.5013 369.92 74.8525C373.723 75.2622 376.999 78.3639 379.983 82.8703C383.259 87.6693 384.722 93.7559 383.552 99.4327C382.382 105.11 378.403 110.201 372.962 112.308C369.218 113.771 365.123 113.596 361.32 112.308C366.351 115.644 372.904 116.756 378.52 114.591C384.371 112.308 388.758 106.748 390.046 100.603C391.333 94.4582 389.695 87.8449 386.184 82.6362V82.5192Z"
      fill="black"
    />
<g opacity="0.2">
<path
        d="M349.619 85.2114C350.731 81.817 352.603 78.5396 355.587 76.6083C359.741 73.9162 365.064 74.2673 369.979 74.9111C373.782 75.3208 377.058 78.4226 380.041 82.929C383.318 87.728 384.78 93.8145 383.61 99.4914C382.44 105.168 378.462 110.26 373.021 112.367C366.059 115.059 357.634 112.25 353.013 106.456C348.332 100.662 347.338 92.3514 349.678 85.2699L349.619 85.2114Z"
        fill="black"
      />
</g>
<path
      opacity="0.3"
      d="M414.09 76.6671C412.452 74.2091 410.697 72.5704 408.65 72.3363C406.485 72.0437 404.145 71.9266 402.097 72.6874C403.384 72.5704 404.73 72.6874 406.017 72.863C407.948 73.0386 409.527 74.6187 411.048 76.8427C412.686 79.2422 413.447 82.2854 412.803 85.0946C412.218 87.9038 410.229 90.4789 407.538 91.5323C405.666 92.2346 403.618 92.1761 401.746 91.5323C404.262 93.171 407.538 93.7562 410.346 92.6443C413.271 91.5323 415.436 88.7231 416.08 85.6213C416.723 82.5195 415.904 79.2422 414.149 76.6086L414.09 76.6671Z"
      fill="black"
    />
<g opacity="0.2">
<path
        d="M395.78 78.0132C396.306 76.316 397.301 74.6773 398.763 73.7409C400.811 72.3948 403.502 72.5704 405.959 72.863C407.89 73.0386 409.47 74.6188 410.991 76.8427C412.629 79.2422 413.389 82.2855 412.746 85.0946C412.161 87.9038 410.172 90.4789 407.48 91.5323C404.029 92.8784 399.816 91.5323 397.476 88.5476C395.136 85.6214 394.668 81.4661 395.78 77.9547V78.0132Z"
        fill="black"
      />
</g>
<path
      opacity="0.3"
      d="M519.048 144.087C515.772 139.171 512.203 135.777 508.049 135.367C503.661 134.782 498.922 134.548 494.886 136.069C497.46 135.835 500.151 136.069 502.725 136.42C506.528 136.83 509.863 139.932 512.846 144.438C516.123 149.237 517.585 155.382 516.415 161.059C515.245 166.736 511.208 171.886 505.767 173.993C502.023 175.456 497.869 175.281 494.067 173.993C499.156 177.329 505.709 178.441 511.325 176.275C517.234 173.993 521.564 168.375 522.909 162.171C524.196 155.967 522.558 149.354 519.048 144.087Z"
      fill="black"
    />
<g opacity="0.1">
<path
        d="M482.307 146.779C483.419 143.385 485.349 140.108 488.333 138.176C492.487 135.484 497.869 135.777 502.784 136.479C506.586 136.889 509.921 139.991 512.905 144.497C516.181 149.296 517.644 155.441 516.473 161.118C515.303 166.795 511.267 171.945 505.826 174.052C498.864 176.744 490.381 173.935 485.7 168.082C481.02 162.23 480.025 153.919 482.366 146.779H482.307Z"
        fill="black"
      />
</g>
<path
      opacity="0.3"
      d="M334.993 166.034C332.536 162.347 329.844 159.83 326.744 159.479C323.468 159.011 319.899 158.894 316.857 160.006C318.787 159.83 320.835 160.006 322.766 160.24C325.632 160.532 328.089 162.873 330.371 166.268C332.828 169.896 333.94 174.461 333.062 178.734C332.185 183.006 329.142 186.868 325.106 188.449C322.297 189.561 319.197 189.385 316.33 188.449C320.133 190.965 325.047 191.785 329.318 190.146C333.764 188.449 337.041 184.235 337.977 179.553C338.971 174.871 337.743 169.896 335.051 165.975L334.993 166.034Z"
      fill="black"
    />
<g opacity="0.1">
<path
        d="M307.379 168.024C308.199 165.449 309.661 162.991 311.884 161.528C314.985 159.479 319.022 159.772 322.708 160.24C325.574 160.533 328.031 162.874 330.313 166.268C332.77 169.897 333.882 174.462 333.004 178.734C332.127 183.006 329.084 186.869 325.048 188.449C319.782 190.497 313.464 188.39 309.954 184.001C306.443 179.612 305.683 173.35 307.438 168.024H307.379Z"
        fill="black"
      />
</g>
<path
      opacity="0.3"
      d="M483.243 378.536C479.967 373.62 476.398 370.225 472.244 369.816C467.856 369.23 463.118 368.996 459.081 370.518C461.655 370.284 464.346 370.518 466.92 370.869C470.723 371.279 474.058 374.381 477.042 378.887C480.318 383.686 481.78 389.831 480.61 395.508C479.44 401.185 475.403 406.335 469.963 408.442C466.218 409.905 462.064 409.729 458.262 408.442C463.352 411.778 469.904 412.89 475.52 410.724C481.429 408.442 485.759 402.823 487.104 396.62C488.391 390.416 486.753 383.803 483.243 378.536Z"
      fill="black"
    />
<g opacity="0.2">
<path
        d="M446.502 381.228C447.614 377.834 449.544 374.556 452.528 372.625C456.682 369.933 462.064 370.226 466.979 370.928C470.781 371.338 474.116 374.439 477.1 378.946C480.376 383.745 481.839 389.89 480.669 395.567C479.498 401.243 475.462 406.394 470.021 408.501C463.059 411.193 454.576 408.383 449.895 402.531C445.215 396.679 444.22 388.368 446.561 381.228H446.502Z"
        fill="black"
      />
</g>
<path
      opacity="0.3"
      d="M535.371 562.537C535.371 562.537 545.082 554.577 552.98 543.633C558.714 536.786 561.288 529.061 560.995 524.847C560.761 520.984 557.193 520.458 552.454 522.272C547.774 524.145 542.04 528.124 536.365 532.631C532.563 535.674 528.701 538.951 524.84 542.463C526.595 540.941 528.35 539.537 530.105 538.132C535.78 533.626 541.514 529.646 546.194 527.773C550.874 525.9 554.501 526.427 554.736 530.348C555.028 534.503 552.454 539.42 548.066 546.559L542.801 553.875C540.11 557.386 537.828 560.02 535.605 562.244"
      fill="black"
    />
<g opacity="0.1">
<path
        d="M508.224 581.323C514.426 578.807 521.797 573.657 529.227 567.98C533.966 564.351 537.535 560.723 542.8 553.934L548.066 546.618C552.453 539.478 554.969 534.562 554.735 530.407C554.501 526.544 550.932 526.018 546.193 527.832C541.513 529.705 535.78 533.684 530.105 538.191C523.728 543.282 517.175 549.076 510.74 555.455C507.171 559.025 504.305 562.244 501.613 566.341C498.63 570.906 498.571 573.657 498.805 576.29C499.215 581.265 502.081 583.781 508.283 581.265L508.224 581.323Z"
        fill="black"
      />
</g>
<path
      opacity="0.3"
      d="M416.489 612.985C416.489 612.985 424.621 610.761 432.46 606.254C437.843 603.679 441.529 599.583 442.523 597.008C443.459 594.549 441.412 593.262 438.018 593.086C434.625 592.911 430.062 593.789 425.323 595.018C422.164 595.837 418.887 596.773 415.553 597.885C417.015 597.476 418.536 597.066 419.999 596.656C424.738 595.486 429.301 594.608 432.694 594.725C436.088 594.901 438.135 596.188 437.199 598.646C436.205 601.28 433.338 603.562 428.658 606.723L423.392 609.766C420.76 611.17 418.653 612.165 416.723 612.926"
      fill="black"
    />
<g opacity="0.1">
<path
        d="M394.726 617.023C399.231 617.198 405.14 616.028 411.224 614.623C415.144 613.687 418.303 612.458 423.393 609.766L428.659 606.722C433.28 603.562 436.206 601.28 437.2 598.646C438.136 596.188 436.089 594.901 432.695 594.725C429.302 594.549 424.739 595.427 420 596.656C414.676 598.002 409.118 599.758 403.443 601.923C400.284 603.094 397.651 604.264 394.843 606.079C391.801 608.069 390.982 609.707 390.397 611.404C389.285 614.565 390.397 616.906 394.843 617.023H394.726Z"
        fill="black"
      />
</g>
<path
      opacity="0.3"
      d="M608.033 249.431C608.033 249.431 607.038 241.062 603.703 232.634C601.89 226.899 598.438 222.685 595.981 221.339C593.699 220.052 592.12 221.925 591.476 225.26C590.833 228.596 591.008 233.278 591.476 238.136C591.827 241.413 592.295 244.749 592.88 248.202C592.646 246.68 592.471 245.159 592.354 243.637C591.827 238.78 591.652 234.098 592.354 230.762C592.997 227.426 594.577 225.612 596.858 226.841C599.316 228.187 601.188 231.405 603.645 236.439L605.868 242.057C606.863 244.866 607.565 247.09 608.033 249.138"
      fill="black"
    />
<g opacity="0.1">
<path
        d="M608.851 271.553C609.67 267.164 609.378 261.077 608.851 254.874C608.5 250.894 607.739 247.558 605.809 242.174L603.586 236.555C601.129 231.522 599.256 228.303 596.799 226.957C594.518 225.67 592.938 227.543 592.294 230.879C591.651 234.214 591.826 238.896 592.294 243.754C592.879 249.197 593.816 254.991 595.103 260.902C595.805 264.237 596.624 266.988 597.969 269.973C599.49 273.309 601.012 274.304 602.591 275.123C605.575 276.703 608.032 276.001 608.793 271.553H608.851Z"
        fill="black"
      />
</g>
</g>
<defs>
<clipPath id="clip0_986_7698">
<rect width="657" height="656" fill="white" />
</clipPath>
</defs>
</svg>
