<svg width="307" height="307" viewBox="0 0 307 307" fill="none" xmlns="http://www.w3.org/2000/svg">
<g clip-path="url(#clip0_839_10120)">
<path
      d="M1.69492 134.944C-8.5293 219.082 51.2578 295.606 135.239 305.877C219.219 316.12 295.6 256.221 305.852 172.083C316.103 87.9176 256.289 11.3935 172.308 1.15014C88.3274 -9.12063 11.9465 50.8059 1.69492 134.944Z"
      fill="#F7D35F"
    />
<g opacity="0.2">
<path
        d="M122.417 2.98535C84.8822 20.5963 55.1391 53.1067 41.7437 93.8885C41.7437 93.8885 47.8946 100.27 46.8011 108.048C45.899 114.457 38.7366 116.32 36.1942 116.785C35.8388 119.004 35.4287 121.222 35.1553 123.468C33.7611 134.972 33.7338 146.31 34.8273 157.375C35.2647 157.704 47.8946 167.181 48.6054 176C49.1521 182.683 46.0083 189.092 42.9739 193.693C43.9033 196.295 44.8602 198.869 45.9263 201.417C54.565 222.013 67.6596 240.445 84.0895 255.454C85.593 254.797 94.669 251.182 102.788 255.29C111.673 259.809 108.721 272.792 108.721 272.792L107.627 273.12C125.697 284.158 146.31 291.635 168.699 294.374C185.621 296.428 202.215 295.606 218.043 292.347C192.893 304.152 164.27 309.273 134.691 305.658C50.7104 295.442 -9.10405 218.918 1.14751 134.78C9.32142 67.5679 59.6771 15.8854 122.417 2.98535Z"
        fill="black"
      />
</g>
<g opacity="0.2">
<path
        d="M40.5682 124.646C40.3222 126.673 41.7711 128.508 43.7941 128.754C45.817 129.001 47.6487 127.549 47.8947 125.522C48.1407 123.496 46.6918 121.66 44.6689 121.414C42.6459 121.168 40.8143 122.619 40.5682 124.646Z"
        fill="black"
      />
</g>
<path
      opacity="0.3"
      d="M159.021 173.343C156.917 173.096 154.812 173.041 152.789 173.206C153.308 173.233 153.855 173.261 154.374 173.315C171.733 175.424 183.188 189.803 181.083 207.195C179.115 223.3 166.239 236.227 150.547 236.364C150.82 236.392 151.066 236.474 151.34 236.501C168.754 238.637 184.582 226.203 186.714 208.756C188.847 191.31 176.435 175.452 159.021 173.315V173.343Z"
      fill="black"
    />
<g opacity="0.1">
<path
        d="M120.176 200.978C118.071 218.37 129.361 234.064 146.72 236.2C164.08 238.309 178.951 224.615 181.084 207.223C183.188 189.831 171.734 175.452 154.375 173.343C137.015 171.234 122.308 183.614 120.176 201.005V200.978Z"
        fill="black"
      />
</g>
<path
      opacity="0.3"
      d="M129.197 54.6953C127.939 48.9163 122.827 44.2055 116.977 43.4386L113.888 40.9736C110.225 38.2621 105.058 39.8506 100.903 41.7952C103.035 41.6035 105.304 41.8774 108.147 42.5895L113.888 44.6437C119 47.7386 122.199 50.5322 123.456 56.3113C124.604 61.6521 122.581 67.3763 119.055 71.5668C115.528 75.7572 110.662 78.6057 105.632 80.742C104.074 81.3993 102.516 81.9745 100.93 82.5223C104.484 81.6732 107.983 80.5503 111.373 79.0987C116.403 76.9623 121.269 74.1139 124.796 69.9235C128.322 65.733 130.345 60.0361 129.197 54.6679V54.6953Z"
      fill="black"
    />
<g opacity="0.1">
<path
        d="M77.6658 55.6541C82.3405 50.2585 88.6555 46.561 95.1071 43.4935C99.2624 41.5215 102.68 41.1929 108.202 42.6171L113.943 44.6712C119.055 47.7661 122.253 50.5598 123.511 56.3388C124.659 61.6796 122.636 67.4038 119.109 71.5943C115.583 75.7848 110.717 78.6332 105.687 80.7695C100.028 83.1797 94.0409 84.7957 87.9173 85.5626C84.5002 86.0008 81.6571 85.8638 78.5953 84.2753C75.2328 82.5224 74.2759 79.0714 73.5105 75.3466C72.0889 68.3351 72.9911 61.0771 77.6658 55.6541V55.6541Z"
        fill="black"
      />
</g>
<path
      opacity="0.3"
      d="M244.616 212.263C247.022 217.165 246.858 223.136 244.643 228.121C242.429 233.133 238.547 237.214 234.31 240.692C231.467 243.02 228.432 245.074 225.234 246.882C226.601 245.923 227.967 244.91 229.252 243.842C233.49 240.391 237.372 236.282 239.586 231.27C241.8 226.258 242.156 220.233 239.559 215.412C236.743 210.208 232.888 208.428 227.12 206.894L221.051 206.511C218.099 206.593 215.857 207.004 213.861 207.771C217.306 204.731 225.562 201.143 234.146 204.046C234.146 204.046 242.046 207.059 244.616 212.263V212.263Z"
      fill="black"
    />
<g opacity="0.1">
<path
        d="M195.353 227.6C198.333 221.109 203.363 215.796 208.694 211.058C212.139 207.99 215.337 206.73 221.023 206.566L227.092 206.949C232.86 208.483 236.715 210.263 239.531 215.467C242.128 220.288 241.772 226.313 239.558 231.325C237.344 236.337 233.462 240.418 229.224 243.897C224.468 247.786 219.164 251.018 213.505 253.455C210.362 254.825 207.573 255.482 204.211 254.825C200.493 254.085 198.607 251.018 196.83 247.676C193.494 241.35 192.346 234.119 195.326 227.628L195.353 227.6Z"
        fill="black"
      />
</g>
<path
      opacity="0.3"
      d="M73.4838 123.578C77.1196 124.701 79.7987 127.878 80.9196 131.794C82.0404 135.711 81.849 140.148 81.1383 144.475C80.6735 147.378 79.9627 150.254 79.0606 153.075C79.3613 151.761 79.6347 150.419 79.8534 149.104C80.5642 144.776 80.7555 140.34 79.6347 136.423C78.5139 132.506 75.8621 129.138 72.1989 128.206C68.235 127.166 65.2825 128.535 61.4006 131.192L57.9014 134.615C56.3432 136.423 55.277 137.957 54.5389 139.545C55.0036 135.93 57.8467 129.138 63.8883 125.55C63.8883 125.55 69.6292 122.4 73.4838 123.578V123.578Z"
      fill="black"
    />
<g opacity="0.1">
<path
        d="M53.6914 160.826C52.2698 155.677 52.5432 149.926 53.254 144.284C53.7187 140.641 54.8669 138.094 57.9014 134.615L61.4006 131.192C65.2825 128.563 68.2349 127.193 72.1989 128.207C75.8894 129.165 78.5138 132.507 79.6347 136.423C80.7555 140.34 80.5641 144.777 79.8534 149.104C79.0606 153.952 77.6664 158.8 75.7254 163.428C74.6319 166.003 73.4291 168.002 71.2694 169.673C68.891 171.508 66.4307 171.042 63.8883 170.33C59.1042 169.016 55.0856 165.948 53.6641 160.799L53.6914 160.826Z"
        fill="black"
      />
</g>
<path
      opacity="0.3"
      d="M292.593 169.728C291.171 168.687 289.258 169.838 287.535 172.439C285.813 175.041 284.282 178.766 282.943 182.683C282.041 185.312 281.221 188.024 280.455 190.845C280.838 189.612 281.248 188.38 281.658 187.175C282.997 183.258 284.528 179.533 286.251 176.931C287.973 174.329 289.914 173.015 291.308 174.22C292.812 175.534 293.14 178.219 293.304 182.464L293.085 187.147C292.894 189.448 292.62 191.31 292.265 192.981C293.44 189.777 295.053 182.71 294.616 176.493C294.616 176.493 294.124 170.824 292.593 169.728V169.728Z"
      fill="black"
    />
<g opacity="0.1">
<path
        d="M284.884 210.811C287.126 207.36 289.094 202.512 290.926 197.528C292.101 194.296 292.676 191.612 293.058 187.12L293.277 182.437C293.113 178.191 292.785 175.48 291.281 174.192C289.887 172.987 287.946 174.302 286.224 176.904C284.502 179.506 282.971 183.231 281.631 187.147C280.128 191.53 278.788 196.24 277.695 201.061C277.066 203.772 276.71 206.046 276.738 208.565C276.738 211.332 277.613 212.29 278.597 213.084C280.428 214.591 282.67 214.262 284.884 210.811V210.811Z"
        fill="black"
      />
</g>
<path
      opacity="0.3"
      d="M165.747 13.3656C166.512 15.4198 165.036 17.5561 162.193 19.172C159.35 20.7606 155.386 21.8561 151.313 22.6504C148.579 23.1982 145.736 23.609 142.865 23.9377C144.15 23.7459 145.435 23.4994 146.693 23.2529C150.766 22.4313 154.703 21.3631 157.573 19.7746C160.416 18.186 162.056 16.0223 161.127 13.9682C160.115 11.7771 157.518 10.7089 153.363 9.5312L148.716 8.73693C146.419 8.46304 144.56 8.35349 142.838 8.43565C146.201 7.69616 153.445 7.25794 159.459 9.22993C159.459 9.22993 164.927 11.1745 165.747 13.3382V13.3656Z"
      fill="black"
    />
<g opacity="0.1">
<path
        d="M124.003 13.7217C127.775 11.6675 132.888 10.2707 138.109 9.09296C141.471 8.35347 144.233 8.21652 148.716 8.7643L153.363 9.55857C157.519 10.7363 160.116 11.8044 161.127 13.9955C162.057 16.0223 160.416 18.186 157.573 19.8019C154.73 21.3905 150.766 22.486 146.693 23.2803C142.1 24.1841 137.262 24.8141 132.313 25.088C129.552 25.2523 127.256 25.1975 124.768 24.595C122.035 23.9376 121.269 22.623 120.64 21.1988C119.492 18.5421 120.23 15.7758 124.003 13.7217V13.7217Z"
        fill="black"
      />
</g>
<path
      opacity="0.3"
      d="M165.146 241.788C165.146 241.788 171.707 242.116 176.354 246.553C179.908 248.717 180.783 254.113 179.963 258.193C179.197 262 176.272 265.095 172.801 266.793C169.329 268.492 165.365 268.957 161.51 268.902C158.913 268.875 156.343 268.601 153.801 268.136C154.976 268.245 156.179 268.3 157.355 268.327C161.209 268.382 165.173 267.916 168.645 266.218C172.117 264.52 175.042 261.398 175.808 257.618C176.628 253.537 175.37 250.798 172.937 247.348L169.821 244.39C168.18 243.102 166.786 242.281 165.365 241.788"
      fill="black"
    />
<g opacity="0.1">
<path
        d="M146.365 244.116C150.931 241.952 156.043 241.349 161.1 241.212C164.353 241.13 166.65 241.897 169.821 244.39L172.937 247.347C175.37 250.798 176.655 253.537 175.808 257.618C175.042 261.425 172.117 264.52 168.645 266.218C165.173 267.916 161.209 268.382 157.355 268.327C153.008 268.272 148.662 267.615 144.506 266.355C142.183 265.671 140.378 264.767 138.847 262.877C137.18 260.795 137.535 258.276 138.082 255.646C139.148 250.716 141.8 246.252 146.365 244.088V244.116Z"
        fill="black"
      />
</g>
<path
      opacity="0.3"
      d="M180.454 38.6182C178.951 36.3175 177.283 34.7564 175.342 34.5372C173.292 34.2634 171.105 34.1538 169.219 34.8659C170.422 34.7564 171.679 34.8659 172.855 35.0302C174.631 35.222 176.162 36.6736 177.557 38.7825C179.087 41.0284 179.771 43.8768 179.224 46.5335C178.677 49.1902 176.818 51.573 174.276 52.559C172.527 53.2437 170.613 53.1616 168.836 52.559C171.187 54.1202 174.249 54.6406 176.873 53.6272C179.607 52.559 181.657 49.9571 182.259 47.0813C182.86 44.2055 182.095 41.1105 180.454 38.6729V38.6182Z"
      fill="black"
    />
<g opacity="0.2">
<path
        d="M163.369 39.8778C163.889 38.2893 164.764 36.7555 166.158 35.8517C168.099 34.5918 170.587 34.7561 172.883 35.0574C174.66 35.2491 176.191 36.7007 177.585 38.8097C179.116 41.0555 179.799 43.904 179.252 46.5607C178.706 49.2174 176.847 51.6002 174.304 52.5862C171.051 53.8461 167.115 52.5314 164.955 49.8199C162.768 47.1084 162.303 43.2192 163.397 39.9052L163.369 39.8778Z"
        fill="black"
      />
</g>
<path
      opacity="0.3"
      d="M193.495 35.8794C192.73 34.729 191.909 33.9622 190.953 33.8526C189.941 33.7157 188.848 33.6609 187.891 34.0169C188.492 33.9622 189.121 34.0169 189.722 34.0991C190.625 34.1813 191.363 34.9208 192.073 35.9615C192.839 37.0845 193.194 38.5087 192.894 39.8233C192.62 41.138 191.691 42.3431 190.433 42.8361C189.558 43.1648 188.602 43.1374 187.727 42.8361C188.902 43.603 190.433 43.8769 191.745 43.3565C193.112 42.8361 194.124 41.5214 194.425 40.0698C194.725 38.6182 194.342 37.0845 193.522 35.852L193.495 35.8794Z"
      fill="black"
    />
<g opacity="0.2">
<path
        d="M184.938 36.5095C185.184 35.7152 185.649 34.9483 186.333 34.5101C187.289 33.8801 188.547 33.9623 189.695 34.0992C190.597 34.1814 191.335 34.9209 192.046 35.9617C192.812 37.0846 193.167 38.5088 192.866 39.8235C192.593 41.1381 191.663 42.3432 190.406 42.8362C188.793 43.4662 186.825 42.8362 185.731 41.4394C184.638 40.07 184.419 38.1254 184.938 36.4821V36.5095Z"
        fill="black"
      />
</g>
<path
      opacity="0.3"
      d="M242.536 67.4312C241.006 65.1305 239.338 63.542 237.397 63.3502C235.347 63.0763 233.132 62.9668 231.246 63.6789C232.449 63.5693 233.706 63.6789 234.909 63.8432C236.686 64.035 238.244 65.4866 239.639 67.5955C241.17 69.8414 241.853 72.7172 241.306 75.3739C240.759 78.0306 238.873 80.4408 236.331 81.4268C234.581 82.1115 232.64 82.0293 230.863 81.4268C233.242 82.9879 236.303 83.5083 238.928 82.4949C241.689 81.4268 243.712 78.7975 244.341 75.8943C244.942 72.9911 244.177 69.8961 242.536 67.4312V67.4312Z"
      fill="black"
    />
<g opacity="0.1">
<path
        d="M225.369 68.691C225.889 67.1025 226.791 65.5687 228.185 64.6649C230.126 63.405 232.641 63.5419 234.938 63.8706C236.714 64.0623 238.273 65.5139 239.667 67.6229C241.198 69.8687 241.881 72.7446 241.335 75.4013C240.788 78.058 238.901 80.4682 236.359 81.4542C233.106 82.714 229.142 81.3994 226.955 78.6605C224.768 75.9216 224.303 72.0324 225.397 68.691H225.369Z"
        fill="black"
      />
</g>
<path
      opacity="0.3"
      d="M156.535 77.702C155.387 75.9765 154.129 74.7988 152.68 74.6344C151.149 74.4153 149.482 74.3605 148.06 74.8809C148.962 74.7988 149.919 74.8809 150.821 74.9905C152.161 75.1274 153.309 76.223 154.375 77.8115C155.523 79.5096 156.043 81.6459 155.633 83.6453C155.223 85.6447 153.801 87.4523 151.915 88.1918C150.603 88.7122 149.154 88.6301 147.814 88.1918C149.591 89.3696 151.888 89.753 153.883 88.9861C155.961 88.1918 157.492 86.2198 157.929 84.0288C158.394 81.8377 157.82 79.5096 156.562 77.6746L156.535 77.702Z"
      fill="black"
    />
<g opacity="0.1">
<path
        d="M143.632 78.633C144.014 77.4279 144.698 76.2776 145.737 75.5929C147.186 74.6342 149.072 74.7712 150.794 74.9903C152.134 75.1272 153.282 76.2228 154.348 77.8113C155.496 79.5094 156.016 81.6458 155.605 83.6451C155.195 85.6445 153.774 87.4522 151.888 88.1917C149.427 89.1503 146.475 88.1643 144.834 86.1101C143.194 84.056 142.839 81.1254 143.659 78.633H143.632Z"
        fill="black"
      />
</g>
<path
      opacity="0.3"
      d="M225.806 177.15C224.275 174.85 222.607 173.261 220.666 173.069C218.616 172.796 216.402 172.686 214.516 173.398C215.718 173.289 216.976 173.398 218.179 173.562C219.956 173.754 221.514 175.206 222.908 177.315C224.439 179.561 225.122 182.436 224.576 185.093C224.029 187.75 222.143 190.16 219.6 191.146C217.851 191.831 215.91 191.749 214.133 191.146C216.511 192.707 219.573 193.228 222.197 192.214C224.958 191.146 226.981 188.517 227.61 185.613C228.212 182.71 227.446 179.615 225.806 177.15V177.15Z"
      fill="black"
    />
<g opacity="0.2">
<path
        d="M208.639 178.41C209.158 176.822 210.06 175.288 211.455 174.384C213.396 173.124 215.911 173.261 218.207 173.59C219.984 173.782 221.542 175.233 222.936 177.342C224.467 179.588 225.151 182.464 224.604 185.12C224.057 187.777 222.171 190.187 219.629 191.173C216.375 192.433 212.412 191.119 210.225 188.38C208.038 185.641 207.573 181.752 208.666 178.41H208.639Z"
        fill="black"
      />
</g>
<path
      opacity="0.3"
      d="M250.165 263.26C250.165 263.26 254.703 259.535 258.393 254.413C261.073 251.209 262.275 247.594 262.139 245.622C262.029 243.814 260.362 243.568 258.147 244.417C255.96 245.293 253.281 247.155 250.63 249.264C248.853 250.689 247.048 252.222 245.244 253.866C246.064 253.154 246.884 252.496 247.705 251.839C250.356 249.73 253.035 247.868 255.222 246.991C257.409 246.115 259.104 246.361 259.214 248.196C259.35 250.141 258.147 252.441 256.097 255.783L253.637 259.206C252.379 260.85 251.313 262.082 250.274 263.123"
      fill="black"
    />
<g opacity="0.1">
<path
        d="M237.48 272.052C240.378 270.874 243.822 268.464 247.294 265.807C249.508 264.109 251.176 262.411 253.636 259.234L256.097 255.81C258.147 252.469 259.322 250.168 259.213 248.224C259.104 246.416 257.436 246.17 255.222 247.019C253.035 247.895 250.356 249.757 247.704 251.866C244.724 254.249 241.662 256.961 238.655 259.946C236.988 261.617 235.648 263.123 234.391 265.04C232.996 267.177 232.969 268.464 233.078 269.696C233.27 272.025 234.609 273.202 237.507 272.025L237.48 272.052Z"
        fill="black"
      />
</g>
<path
      opacity="0.3"
      d="M194.617 286.87C194.617 286.87 198.417 285.829 202.08 283.72C204.595 282.515 206.318 280.598 206.782 279.392C207.22 278.242 206.263 277.64 204.677 277.557C203.092 277.475 200.959 277.886 198.745 278.461C197.269 278.845 195.738 279.283 194.18 279.803C194.863 279.612 195.574 279.42 196.257 279.228C198.472 278.68 200.604 278.269 202.19 278.324C203.775 278.406 204.732 279.009 204.295 280.159C203.83 281.392 202.49 282.46 200.303 283.939L197.843 285.363C196.613 286.02 195.629 286.486 194.726 286.842"
      fill="black"
    />
<g opacity="0.1">
<path
        d="M184.447 288.76C186.552 288.842 189.313 288.294 192.156 287.637C193.987 287.198 195.464 286.623 197.842 285.363L200.302 283.939C202.462 282.46 203.829 281.392 204.294 280.159C204.731 279.009 203.774 278.407 202.189 278.324C200.603 278.242 198.471 278.653 196.256 279.228C193.769 279.858 191.172 280.68 188.52 281.693C187.044 282.241 185.814 282.789 184.501 283.638C183.08 284.569 182.697 285.336 182.424 286.13C181.904 287.609 182.424 288.705 184.501 288.76H184.447Z"
        fill="black"
      />
</g>
<path
      opacity="0.3"
      d="M284.118 116.731C284.118 116.731 283.653 112.814 282.095 108.87C281.248 106.186 279.635 104.214 278.487 103.584C277.42 102.981 276.682 103.858 276.382 105.419C276.081 106.98 276.163 109.171 276.382 111.445C276.546 112.978 276.764 114.54 277.038 116.155C276.928 115.443 276.846 114.731 276.792 114.019C276.546 111.746 276.464 109.555 276.792 107.994C277.092 106.432 277.83 105.583 278.897 106.159C280.045 106.788 280.92 108.295 282.068 110.65L283.107 113.28C283.571 114.594 283.899 115.635 284.118 116.594"
      fill="black"
    />
<g opacity="0.1">
<path
        d="M284.501 127.084C284.883 125.029 284.747 122.181 284.501 119.278C284.337 117.415 283.981 115.854 283.079 113.334L282.04 110.705C280.892 108.35 280.017 106.843 278.869 106.213C277.803 105.611 277.065 106.487 276.764 108.048C276.464 109.61 276.546 111.801 276.764 114.074C277.038 116.621 277.475 119.333 278.076 122.099C278.404 123.66 278.787 124.947 279.416 126.344C280.127 127.905 280.838 128.371 281.576 128.754C282.97 129.494 284.118 129.165 284.473 127.084H284.501Z"
        fill="black"
      />
</g>
</g>
<defs>
<clipPath id="clip0_839_10120">
<rect width="307" height="307" fill="white" />
</clipPath>
</defs>
</svg>
