<svg width="1660" height="686" viewBox="0 0 1660 686" fill="none" xmlns="http://www.w3.org/2000/svg">
<g clip-path="url(#clip0_2907_33606)">
<path opacity="0.48" d="M393.03 107.07C398.569 107.07 403.06 102.579 403.06 97.0398C403.06 91.5003 398.569 87.0098 393.03 87.0098C387.491 87.0098 383 91.5003 383 97.0398C383 102.579 387.491 107.07 393.03 107.07Z" fill="white"/>
<path opacity="0.75" d="M471 29L394.265 91.4012C393.878 91.3036 393.479 91.2409 393.059 91.2409C390.268 91.2409 388 93.652 388 96.6205C388 99.589 390.268 102 393.059 102C395.851 102 398.119 99.589 398.119 96.6205C398.119 96.5508 398.112 96.4881 398.112 96.4184L471 29Z" fill="url(#paint0_linear_2907_33606)"/>
<path opacity="0.66" d="M393.03 102.25C395.908 102.25 398.24 99.9175 398.24 97.0401C398.24 94.1627 395.908 91.8301 393.03 91.8301C390.153 91.8301 387.82 94.1627 387.82 97.0401C387.82 99.9175 390.153 102.25 393.03 102.25Z" fill="white"/>
<path d="M393.03 100.72C395.062 100.72 396.71 99.0723 396.71 97.0399C396.71 95.0075 395.062 93.3599 393.03 93.3599C390.997 93.3599 389.35 95.0075 389.35 97.0399C389.35 99.0723 390.997 100.72 393.03 100.72Z" fill="white"/>
</g>
<g clip-path="url(#clip1_2907_33606)">
<path opacity="0.48" d="M1258.48 680C1263.16 680 1266.96 676.225 1266.96 671.569C1266.96 666.913 1263.16 663.138 1258.48 663.138C1253.8 663.138 1250 666.913 1250 671.569C1250 676.225 1253.8 680 1258.48 680Z" fill="white"/>
<path opacity="0.48" d="M1359 590L1260.03 665.273C1259.53 665.156 1259.02 665.08 1258.48 665.08C1254.88 665.08 1251.95 667.988 1251.95 671.569C1251.95 675.15 1254.88 678.058 1258.48 678.058C1262.08 678.058 1265 675.15 1265 671.569C1265 671.485 1264.99 671.409 1264.99 671.325L1359 590Z" fill="#FFF91D"/>
<path opacity="0.66" d="M1258.48 675.949C1260.91 675.949 1262.88 673.988 1262.88 671.569C1262.88 669.151 1260.91 667.19 1258.48 667.19C1256.05 667.19 1254.07 669.151 1254.07 671.569C1254.07 673.988 1256.05 675.949 1258.48 675.949Z" fill="white"/>
<path d="M1258.48 674.662C1260.2 674.662 1261.59 673.277 1261.59 671.569C1261.59 669.861 1260.2 668.476 1258.48 668.476C1256.76 668.476 1255.37 669.861 1255.37 671.569C1255.37 673.277 1256.76 674.662 1258.48 674.662Z" fill="white"/>
</g>
<g clip-path="url(#clip2_2907_33606)">
<path opacity="0.48" d="M8.49908 123.433C11.2233 123.433 13.4318 121.224 13.4318 118.5C13.4318 115.776 11.2233 113.567 8.49908 113.567C5.77484 113.567 3.56641 115.776 3.56641 118.5C3.56641 121.224 5.77484 123.433 8.49908 123.433Z" fill="white"/>
<path d="M8.4994 120.638C9.68023 120.638 10.6375 119.681 10.6375 118.5C10.6375 117.319 9.68023 116.362 8.4994 116.362C7.31858 116.362 6.36133 117.319 6.36133 118.5C6.36133 119.681 7.31858 120.638 8.4994 120.638Z" fill="white"/>
<path opacity="0.48" d="M12.108 119.232L17 118.5L12.108 117.768C11.8175 116.321 10.6787 115.183 9.23206 114.892L8.5 110L7.76794 114.892C6.32126 115.183 5.1825 116.321 4.892 117.768L0 118.5L4.892 119.232C5.1825 120.679 6.32126 121.817 7.76794 122.108L8.5 127L9.23206 122.108C10.6787 121.817 11.8175 120.679 12.108 119.232Z" fill="white"/>
</g>
<g clip-path="url(#clip3_2907_33606)">
<path opacity="0.48" d="M1174.5 55.4327C1177.22 55.4327 1179.43 53.2243 1179.43 50.5001C1179.43 47.7758 1177.22 45.5674 1174.5 45.5674C1171.77 45.5674 1169.57 47.7758 1169.57 50.5001C1169.57 53.2243 1171.77 55.4327 1174.5 55.4327Z" fill="white"/>
<path d="M1174.5 52.638C1175.68 52.638 1176.64 51.6807 1176.64 50.4999C1176.64 49.3191 1175.68 48.3618 1174.5 48.3618C1173.32 48.3618 1172.36 49.3191 1172.36 50.4999C1172.36 51.6807 1173.32 52.638 1174.5 52.638Z" fill="white"/>
<path opacity="0.48" d="M1178.11 51.2321L1183 50.5L1178.11 49.7679C1177.82 48.3213 1176.68 47.1825 1175.23 46.892L1174.5 42L1173.77 46.892C1172.32 47.1825 1171.18 48.3213 1170.89 49.7679L1166 50.5L1170.89 51.2321C1171.18 52.6787 1172.32 53.8175 1173.77 54.108L1174.5 59L1175.23 54.108C1176.68 53.8175 1177.82 52.6787 1178.11 51.2321Z" fill="white"/>
</g>
<g clip-path="url(#clip4_2907_33606)">
<path opacity="0.48" d="M1651.5 367.433C1654.22 367.433 1656.43 365.224 1656.43 362.5C1656.43 359.776 1654.22 357.567 1651.5 357.567C1648.77 357.567 1646.57 359.776 1646.57 362.5C1646.57 365.224 1648.77 367.433 1651.5 367.433Z" fill="white"/>
<path d="M1651.5 364.638C1652.68 364.638 1653.64 363.681 1653.64 362.5C1653.64 361.319 1652.68 360.362 1651.5 360.362C1650.32 360.362 1649.36 361.319 1649.36 362.5C1649.36 363.681 1650.32 364.638 1651.5 364.638Z" fill="white"/>
<path opacity="0.48" d="M1655.11 363.232L1660 362.5L1655.11 361.768C1654.82 360.321 1653.68 359.183 1652.23 358.892L1651.5 354L1650.77 358.892C1649.32 359.183 1648.18 360.321 1647.89 361.768L1643 362.5L1647.89 363.232C1648.18 364.679 1649.32 365.817 1650.77 366.108L1651.5 371L1652.23 366.108C1653.68 365.817 1654.82 364.679 1655.11 363.232Z" fill="white"/>
</g>
<g clip-path="url(#clip5_2907_33606)">
<path opacity="0.48" d="M78.4991 341.433C81.2233 341.433 83.4318 339.224 83.4318 336.5C83.4318 333.776 81.2233 331.567 78.4991 331.567C75.7748 331.567 73.5664 333.776 73.5664 336.5C73.5664 339.224 75.7748 341.433 78.4991 341.433Z" fill="white"/>
<path d="M78.4994 338.638C79.6802 338.638 80.6375 337.681 80.6375 336.5C80.6375 335.319 79.6802 334.362 78.4994 334.362C77.3186 334.362 76.3613 335.319 76.3613 336.5C76.3613 337.681 77.3186 338.638 78.4994 338.638Z" fill="white"/>
<path opacity="0.48" d="M82.108 337.232L87 336.5L82.108 335.768C81.8175 334.321 80.6787 333.183 79.2321 332.892L78.5 328L77.7679 332.892C76.3213 333.183 75.1825 334.321 74.892 335.768L70 336.5L74.892 337.232C75.1825 338.679 76.3213 339.817 77.7679 340.108L78.5 345L79.2321 340.108C80.6787 339.817 81.8175 338.679 82.108 337.232Z" fill="white"/>
</g>
<g clip-path="url(#clip6_2907_33606)">
<path opacity="0.3" d="M178.499 114.126C184.368 114.126 189.126 109.369 189.126 103.5C189.126 97.6312 184.368 92.8735 178.499 92.8735C172.631 92.8735 167.873 97.6312 167.873 103.5C167.873 109.369 172.631 114.126 178.499 114.126Z" fill="white"/>
<path d="M178.5 107.399C180.654 107.399 182.399 105.653 182.399 103.5C182.399 101.347 180.654 99.6011 178.5 99.6011C176.347 99.6011 174.602 101.347 174.602 103.5C174.602 105.653 176.347 107.399 178.5 107.399Z" fill="white"/>
<path d="M176.551 101.01L178.5 88L180.449 101.01H176.551Z" fill="white"/>
<path d="M176.01 105.45L163 103.5L176.01 101.551V105.45Z" fill="white"/>
<path d="M180.449 105.99L178.5 119L176.551 105.99H180.449Z" fill="white"/>
<path d="M180.99 101.551L194 103.5L180.99 105.45V101.551Z" fill="white"/>
<path opacity="0.48" d="M178.499 108.956C181.513 108.956 183.955 106.514 183.955 103.5C183.955 100.487 181.513 98.0439 178.499 98.0439C175.486 98.0439 173.043 100.487 173.043 103.5C173.043 106.514 175.486 108.956 178.499 108.956Z" fill="white"/>
</g>
<path opacity="0.48" d="M1186 370C1193.73 370 1200 363.751 1200 356.042C1200 348.334 1193.73 342.084 1186 342.084C1178.27 342.084 1172 348.334 1172 356.042C1172 363.751 1178.27 370 1186 370Z" fill="white"/>
<path opacity="0.75" d="M1352 221L1188.57 345.619C1187.75 345.424 1186.89 345.299 1186 345.299C1180.05 345.299 1175.22 350.114 1175.22 356.042C1175.22 361.97 1180.05 366.785 1186 366.785C1191.95 366.785 1196.78 361.97 1196.78 356.042C1196.78 355.903 1196.76 355.778 1196.76 355.639L1352 221Z" fill="url(#paint1_linear_2907_33606)"/>
<path opacity="0.66" d="M1186 363.293C1190.02 363.293 1193.27 360.047 1193.27 356.042C1193.27 352.038 1190.02 348.792 1186 348.792C1181.98 348.792 1178.73 352.038 1178.73 356.042C1178.73 360.047 1181.98 363.293 1186 363.293Z" fill="white"/>
<path d="M1186 361.163C1188.84 361.163 1191.14 358.87 1191.14 356.042C1191.14 353.214 1188.84 350.921 1186 350.921C1183.16 350.921 1180.86 353.214 1180.86 356.042C1180.86 358.87 1183.16 361.163 1186 361.163Z" fill="white"/>
<path opacity="0.48" d="M1368.5 458.433C1371.22 458.433 1373.43 456.224 1373.43 453.5C1373.43 450.776 1371.22 448.567 1368.5 448.567C1365.77 448.567 1363.57 450.776 1363.57 453.5C1363.57 456.224 1365.77 458.433 1368.5 458.433Z" fill="white"/>
<path d="M1368.5 455.638C1369.68 455.638 1370.64 454.681 1370.64 453.5C1370.64 452.319 1369.68 451.362 1368.5 451.362C1367.32 451.362 1366.36 452.319 1366.36 453.5C1366.36 454.681 1367.32 455.638 1368.5 455.638Z" fill="white"/>
<path opacity="0.48" d="M1372.11 454.232L1377 453.5L1372.11 452.768C1371.82 451.321 1370.68 450.183 1369.23 449.892L1368.5 445L1367.77 449.892C1366.32 450.183 1365.18 451.321 1364.89 452.768L1360 453.5L1364.89 454.232C1365.18 455.679 1366.32 456.817 1367.77 457.108L1368.5 462L1369.23 457.108C1370.68 456.817 1371.82 455.679 1372.11 454.232Z" fill="white"/>
<path opacity="0.48" d="M1550.5 682.433C1553.22 682.433 1555.43 680.224 1555.43 677.5C1555.43 674.776 1553.22 672.567 1550.5 672.567C1547.77 672.567 1545.57 674.776 1545.57 677.5C1545.57 680.224 1547.77 682.433 1550.5 682.433Z" fill="white"/>
<path d="M1550.5 679.638C1551.68 679.638 1552.64 678.681 1552.64 677.5C1552.64 676.319 1551.68 675.362 1550.5 675.362C1549.32 675.362 1548.36 676.319 1548.36 677.5C1548.36 678.681 1549.32 679.638 1550.5 679.638Z" fill="white"/>
<path opacity="0.48" d="M1554.11 678.232L1559 677.5L1554.11 676.768C1553.82 675.321 1552.68 674.183 1551.23 673.892L1550.5 669L1549.77 673.892C1548.32 674.183 1547.18 675.321 1546.89 676.768L1542 677.5L1546.89 678.232C1547.18 679.679 1548.32 680.817 1549.77 681.108L1550.5 686L1551.23 681.108C1552.68 680.817 1553.82 679.679 1554.11 678.232Z" fill="white"/>
<path opacity="0.3" d="M946.499 33.1264C952.368 33.1264 957.126 28.3688 957.126 22.5C957.126 16.6312 952.368 11.8735 946.499 11.8735C940.631 11.8735 935.873 16.6312 935.873 22.5C935.873 28.3688 940.631 33.1264 946.499 33.1264Z" fill="white"/>
<path d="M946.5 26.3987C948.654 26.3987 950.399 24.6532 950.399 22.4999C950.399 20.3466 948.654 18.6011 946.5 18.6011C944.347 18.6011 942.602 20.3466 942.602 22.4999C942.602 24.6532 944.347 26.3987 946.5 26.3987Z" fill="white"/>
<path d="M944.551 20.0103L946.5 7L948.449 20.0103H944.551Z" fill="white"/>
<path d="M944.01 24.4496L931 22.5002L944.01 20.5508V24.4496Z" fill="white"/>
<path d="M948.449 24.9897L946.5 38L944.551 24.9897H948.449Z" fill="white"/>
<path d="M948.99 20.5508L962 22.5002L948.99 24.4496V20.5508Z" fill="white"/>
<path opacity="0.48" d="M946.499 27.9565C949.513 27.9565 951.955 25.5136 951.955 22.5002C951.955 19.4868 949.513 17.0439 946.499 17.0439C943.486 17.0439 941.043 19.4868 941.043 22.5002C941.043 25.5136 943.486 27.9565 946.499 27.9565Z" fill="white"/>
<defs>
<linearGradient id="paint0_linear_2907_33606" x1="436.083" y1="62.3503" x2="366.062" y2="111.677" gradientUnits="userSpaceOnUse">
<stop stop-color="white"/>
<stop offset="0.32" stop-color="#B1EBDE"/>
</linearGradient>
<linearGradient id="paint1_linear_2907_33606" x1="1277.63" y1="287.603" x2="1135" y2="394.763" gradientUnits="userSpaceOnUse">
<stop stop-color="white"/>
<stop offset="0.32" stop-color="#B1EBDE"/>
</linearGradient>
<clipPath id="clip0_2907_33606">
<rect width="128.96" height="107.07" fill="white" transform="translate(383)"/>
</clipPath>
<clipPath id="clip1_2907_33606">
<rect width="109" height="90" fill="white" transform="translate(1250 590)"/>
</clipPath>
<clipPath id="clip2_2907_33606">
<rect width="17" height="17" fill="white" transform="translate(0 110)"/>
</clipPath>
<clipPath id="clip3_2907_33606">
<rect width="17" height="17" fill="white" transform="translate(1166 42)"/>
</clipPath>
<clipPath id="clip4_2907_33606">
<rect width="17" height="17" fill="white" transform="translate(1643 354)"/>
</clipPath>
<clipPath id="clip5_2907_33606">
<rect width="17" height="17" fill="white" transform="translate(70 328)"/>
</clipPath>
<clipPath id="clip6_2907_33606">
<rect width="31" height="31" fill="white" transform="translate(163 88)"/>
</clipPath>
</defs>
</svg>
