<svg width="42" height="38" viewBox="0 0 42 38" fill="none" xmlns="http://www.w3.org/2000/svg">
<g clip-path="url(#clip0_1373_10739)">
<path
      d="M21.0004 18C23.7599 18 26 20.6094 26 23.8238V38H16V23.8238C16 20.6094 18.2401 18 20.9996 18H21.0004Z"
      fill="#F7D35F"
      stroke="black"
      stroke-miterlimit="10"
    />
<path
      d="M3.73992 19.6669C5.66237 19.6669 7.22082 18.1176 7.22082 16.2065C7.22082 14.2954 5.66237 12.7461 3.73992 12.7461C1.81748 12.7461 0.259033 14.2954 0.259033 16.2065C0.259033 18.1176 1.81748 19.6669 3.73992 19.6669Z"
      fill="white"
      stroke="black"
      stroke-miterlimit="10"
    />
<path
      d="M4.72161 14.9911C6.64406 14.9911 8.20251 13.4418 8.20251 11.5307C8.20251 9.61959 6.64406 8.07031 4.72161 8.07031C2.79917 8.07031 1.24072 9.61959 1.24072 11.5307C1.24072 13.4418 2.79917 14.9911 4.72161 14.9911Z"
      fill="white"
      stroke="black"
      stroke-miterlimit="10"
    />
<path
      d="M7.22137 10.9794C9.14381 10.9794 10.7023 9.43012 10.7023 7.51899C10.7023 5.60787 9.14381 4.05859 7.22137 4.05859C5.29893 4.05859 3.74048 5.60787 3.74048 7.51899C3.74048 9.43012 5.29893 10.9794 7.22137 10.9794Z"
      fill="white"
      stroke="black"
      stroke-miterlimit="10"
    />
<path
      d="M20.649 21.4541C27.6988 21.4541 33.4139 17.1569 33.4139 11.856C33.4139 6.55505 27.6988 2.25781 20.649 2.25781C13.5991 2.25781 7.88403 6.55505 7.88403 11.856C7.88403 17.1569 13.5991 21.4541 20.649 21.4541Z"
      fill="white"
      stroke="black"
      stroke-miterlimit="10"
    />
<path
      d="M16.1343 10.2303C16.1343 9.62202 15.6383 9.12891 15.0264 9.12891C14.4145 9.12891 13.9185 9.62202 13.9185 10.2303V12.1887C13.9185 12.797 14.4145 13.2902 15.0264 13.2902C15.6383 13.2902 16.1343 12.797 16.1343 12.1887V10.2303Z"
      fill="black"
    />
<path
      d="M15.8648 10.685C15.8648 10.3585 15.5985 10.0938 15.27 10.0938C14.9416 10.0938 14.6753 10.3585 14.6753 10.685V11.7371C14.6753 12.0636 14.9416 12.3284 15.27 12.3284C15.5985 12.3284 15.8648 12.0636 15.8648 11.7371V10.685Z"
      fill="white"
    />
<path
      d="M22.2618 10.2303C22.2618 9.62202 21.7657 9.12891 21.1538 9.12891C20.5419 9.12891 20.0459 9.62202 20.0459 10.2303V12.1887C20.0459 12.797 20.5419 13.2902 21.1538 13.2902C21.7657 13.2902 22.2618 12.797 22.2618 12.1887V10.2303Z"
      fill="black"
    />
<path
      d="M21.9927 10.685C21.9927 10.3585 21.7265 10.0938 21.398 10.0938C21.0695 10.0938 20.8032 10.3585 20.8032 10.685V11.7371C20.8032 12.0636 21.0695 12.3284 21.398 12.3284C21.7265 12.3284 21.9927 12.0636 21.9927 11.7371V10.685Z"
      fill="white"
    />
<ellipse cx="23.2609" cy="13.5909" rx="1.26778" ry="0.520567" fill="#FF2626" fill-opacity="0.51" />
<ellipse cx="13.1189" cy="13.5909" rx="1.26778" ry="0.520567" fill="#FF2626" fill-opacity="0.51" />
<path d="M15.2751 14.0918L17.3383 15.5729L19.3056 14.0918" stroke="black" stroke-miterlimit="10" />
<path
      d="M34.4633 9.20791C36.3858 9.20791 37.9442 7.65864 37.9442 5.74751C37.9442 3.83638 36.3858 2.28711 34.4633 2.28711C32.5409 2.28711 30.9824 3.83638 30.9824 5.74751C30.9824 7.65864 32.5409 9.20791 34.4633 9.20791Z"
      fill="white"
      stroke="black"
      stroke-miterlimit="10"
    />
<path
      d="M37.9448 14.0302C39.8672 14.0302 41.4256 12.4809 41.4256 10.5698C41.4256 8.65865 39.8672 7.10938 37.9448 7.10938C36.0223 7.10938 34.4639 8.65865 34.4639 10.5698C34.4639 12.4809 36.0223 14.0302 37.9448 14.0302Z"
      fill="white"
      stroke="black"
      stroke-miterlimit="10"
    />
<path
      d="M38.2599 18.9911C40.1824 18.9911 41.7408 17.4418 41.7408 15.5307C41.7408 13.6196 40.1824 12.0703 38.2599 12.0703C36.3375 12.0703 34.7791 13.6196 34.7791 15.5307C34.7791 17.4418 36.3375 18.9911 38.2599 18.9911Z"
      fill="white"
      stroke="black"
      stroke-miterlimit="10"
    />
<path
      d="M28.718 4.61328L32.9261 9.75263L33.5639 7.60889L31.1619 4.24993L28.718 4.61328Z"
      fill="#00CA20"
      stroke="black"
      stroke-miterlimit="10"
    />
<path
      d="M6.99536 8.50175L9.55959 5.0293H11.5732L7.79572 10.1665L6.99536 8.50175Z"
      fill="#00CA20"
      stroke="black"
      stroke-miterlimit="10"
    />
<path
      d="M35.8105 14.6496C35.9819 14.7789 36.1654 14.8918 36.3584 14.986C36.4229 15.0173 36.5105 15.0058 36.5469 14.9367C36.5794 14.8748 36.5667 14.7827 36.4973 14.7493C36.3038 14.6551 36.1202 14.5427 35.9494 14.4129C35.9229 14.3926 35.8739 14.3909 35.843 14.3992C35.811 14.4079 35.7763 14.4326 35.7609 14.4622C35.7438 14.494 35.7355 14.5323 35.7471 14.5679C35.7587 14.6036 35.7801 14.6271 35.8105 14.6496Z"
      fill="black"
    />
<path
      d="M37.7144 14.7825C37.9371 14.6176 38.1543 14.4466 38.366 14.268C38.4211 14.2214 38.4178 14.1217 38.366 14.074C38.307 14.0203 38.2298 14.0241 38.1708 14.074C38.0711 14.1584 37.9702 14.2406 37.8677 14.3217C37.8423 14.3414 37.817 14.3617 37.7916 14.3814C37.7789 14.3913 37.7662 14.4011 37.7536 14.411C37.7514 14.4126 37.7315 14.428 37.7436 14.4187C37.7558 14.4094 37.7359 14.4247 37.7337 14.4263C37.6808 14.4663 37.6279 14.5064 37.575 14.5458C37.5452 14.5677 37.5221 14.5907 37.5116 14.6275C37.5028 14.6603 37.5066 14.7042 37.5254 14.7332C37.5623 14.7896 37.6522 14.828 37.7139 14.7825H37.7144Z"
      fill="black"
    />
<path
      d="M37.0158 15.5942C37.3036 15.546 37.5908 15.4972 37.8785 15.449L37.723 15.386C37.7953 15.5377 37.7953 15.7131 37.7831 15.8835C37.7776 15.958 37.7782 16.0309 37.7423 16.0819C37.755 16.0638 37.7153 16.1038 37.7264 16.0961C37.7126 16.1054 37.706 16.1076 37.685 16.1137C37.6745 16.1164 37.6641 16.1191 37.6536 16.1208C37.6365 16.1241 37.6332 16.1246 37.6437 16.1224C37.6255 16.1241 37.6073 16.1246 37.5897 16.1241C37.5296 16.123 37.4557 16.1016 37.3984 16.0709C37.3256 16.032 37.2749 15.9876 37.2209 15.9213C37.1785 15.8687 37.1322 15.7876 37.1013 15.7164C37.0919 15.695 37.0743 15.6462 37.0638 15.6134C37.0605 15.603 37.0572 15.5925 37.0544 15.5816C37.0517 15.564 37.0506 15.5597 37.0506 15.569C37.0456 15.5525 37.0489 15.5493 37.0577 15.5268C37.0853 15.4583 37.0274 15.3761 36.9613 15.358C36.8825 15.3366 36.8196 15.3849 36.7915 15.4539C36.754 15.5465 36.7832 15.6495 36.8163 15.7389C36.8461 15.8205 36.8814 15.901 36.926 15.9756C37.0147 16.1235 37.1421 16.2556 37.3014 16.3279C37.4711 16.4052 37.6806 16.4315 37.8515 16.3405C38.0224 16.2496 38.0488 16.0441 38.0598 15.866C38.0736 15.6534 38.0532 15.4419 37.9612 15.2473C37.9336 15.1887 37.8625 15.175 37.8057 15.1843C37.518 15.2325 37.2308 15.2813 36.9431 15.3295C36.8698 15.3421 36.8284 15.432 36.8466 15.4983C36.8681 15.5756 36.9425 15.6062 37.0164 15.5942H37.0158Z"
      fill="black"
    />
<path
      d="M37.7655 8.34554C37.6751 8.49404 37.5847 8.64199 37.4943 8.79049C37.4568 8.85186 37.4789 8.94392 37.5439 8.97789C37.609 9.01187 37.6928 8.99433 37.7325 8.92857C37.8228 8.78008 37.9132 8.63213 38.0036 8.48363C38.0411 8.42225 38.0191 8.3302 37.954 8.29622C37.889 8.26225 37.8052 8.27978 37.7655 8.34554Z"
      fill="black"
    />
<path
      d="M39.2202 8.27016C39.3122 8.27399 39.4043 8.28112 39.4958 8.29262C39.4997 8.29262 39.536 8.29755 39.5151 8.29481C39.4941 8.29207 39.536 8.29755 39.5399 8.29865C39.5614 8.30194 39.5829 8.30523 39.6044 8.30851C39.6507 8.31619 39.697 8.32495 39.7427 8.33482C39.8133 8.34961 39.8949 8.31454 39.9125 8.23892C39.9285 8.17043 39.8916 8.08604 39.8161 8.07015C39.6204 8.0296 39.4203 8.00439 39.2202 7.99617C39.148 7.99343 39.0791 8.06138 39.0824 8.13317C39.0857 8.20988 39.143 8.26687 39.2202 8.27016Z"
      fill="black"
    />
<path
      d="M38.9838 9.17804C38.9678 9.2164 38.9899 9.16818 38.9949 9.15886C39.002 9.14571 39.0097 9.13366 39.018 9.12106C39.0191 9.11996 39.0296 9.10242 39.0307 9.10297C39.0191 9.11777 39.0164 9.12106 39.023 9.11338C39.0257 9.1101 39.0285 9.10681 39.0312 9.10297C39.0406 9.09201 39.0511 9.08105 39.0616 9.07064C39.072 9.06023 39.083 9.05037 39.0946 9.04105C39.0979 9.03831 39.1012 9.03557 39.1051 9.03283C39.1134 9.02626 39.1095 9.029 39.0946 9.0405C39.0946 9.03886 39.1112 9.02845 39.1128 9.0279C39.1387 9.01037 39.1657 8.99502 39.1944 8.98187L39.2027 8.97804C39.21 8.97475 39.21 8.97475 39.2027 8.97804C39.1916 8.98242 39.1916 8.98297 39.2027 8.97804L39.2109 8.97475C39.2247 8.96982 39.239 8.96543 39.2534 8.96105C39.2694 8.95667 39.2853 8.95283 39.3013 8.95009C39.3068 8.94899 39.3184 8.95009 39.3234 8.94625C39.303 8.94899 39.298 8.94954 39.309 8.94845C39.3118 8.94845 39.3151 8.9479 39.3179 8.94735C39.3487 8.94461 39.3802 8.94461 39.411 8.94735C39.4248 8.94845 39.4408 8.95721 39.4099 8.9468C39.4154 8.94845 39.422 8.94899 39.4276 8.95009C39.4452 8.95338 39.4623 8.95831 39.4794 8.96324C39.5483 8.98406 39.6326 8.93803 39.6491 8.86735C39.6657 8.79666 39.6265 8.72104 39.5527 8.69857C39.3868 8.64816 39.2109 8.67227 39.056 8.7446C38.9011 8.81693 38.7843 8.94845 38.7187 9.10462C38.6906 9.17092 38.7485 9.25805 38.8152 9.27339C38.8956 9.29147 38.9546 9.24873 38.9849 9.1775L38.9838 9.17804Z"
      fill="black"
    />
<path
      d="M33.835 3.92437C34.0125 3.92437 34.0125 3.65039 33.835 3.65039C33.6575 3.65039 33.6575 3.92437 33.835 3.92437Z"
      fill="black"
    />
<path
      d="M35.3133 3.89312C35.4908 3.89312 35.4908 3.61914 35.3133 3.61914C35.1358 3.61914 35.1358 3.89312 35.3133 3.89312Z"
      fill="black"
    />
<path
      d="M34.5041 4.35765C34.5713 4.35546 34.6386 4.35546 34.7064 4.3582C34.7389 4.3593 34.7714 4.36149 34.8039 4.36368C34.8194 4.36478 34.8342 4.36587 34.8497 4.36752C34.8563 4.36806 34.8629 4.36861 34.869 4.36916C34.9087 4.37245 34.853 4.36423 34.8712 4.36916C34.8877 4.37409 34.8585 4.36149 34.8552 4.3593C34.8519 4.35656 34.8309 4.33135 34.8398 4.34505C34.8475 4.3571 34.8348 4.33519 34.8353 4.33354C34.8348 4.33519 34.8403 4.34834 34.8409 4.35163C34.8502 4.38286 34.8568 4.41464 34.8613 4.44642C34.8574 4.41903 34.8613 4.45519 34.8624 4.46451C34.8635 4.47875 34.864 4.493 34.864 4.5067C34.864 4.53903 34.8624 4.57136 34.8585 4.60369C34.8624 4.573 34.8546 4.62122 34.8535 4.62725C34.8508 4.64095 34.8475 4.6541 34.8442 4.66725C34.8414 4.67821 34.8381 4.68917 34.8342 4.69958C34.8331 4.70287 34.8304 4.71438 34.8276 4.71767C34.8364 4.70725 34.8364 4.69849 34.8276 4.71602C34.8227 4.72589 34.8166 4.73575 34.8105 4.74506C34.7962 4.76863 34.8149 4.73958 34.8149 4.74013C34.8149 4.74178 34.8017 4.75383 34.8017 4.75383C34.7995 4.75657 34.7885 4.76863 34.8017 4.75548C34.815 4.74232 34.8017 4.75548 34.7962 4.75822C34.7946 4.75931 34.7841 4.7637 34.7835 4.76534C34.8001 4.75876 34.8034 4.75712 34.794 4.76041C34.7896 4.76205 34.7846 4.76315 34.7802 4.76424C34.7764 4.76534 34.7604 4.76972 34.7797 4.76424C34.799 4.75876 34.7802 4.76315 34.7736 4.76315C34.7709 4.76315 34.7609 4.76096 34.7593 4.7626C34.7709 4.75602 34.7846 4.76863 34.767 4.7626C34.7609 4.76096 34.7538 4.75931 34.7477 4.75767C34.729 4.75274 34.7499 4.75219 34.7527 4.76096C34.751 4.75602 34.7223 4.74452 34.7179 4.74178C34.6992 4.73137 34.7246 4.74178 34.7218 4.74561C34.7218 4.74561 34.7113 4.7363 34.7108 4.7352C34.7058 4.73027 34.7009 4.72534 34.6959 4.71986C34.6926 4.71657 34.6788 4.69904 34.6898 4.71328C34.7003 4.72698 34.6898 4.71273 34.6882 4.70999C34.6843 4.70397 34.6805 4.69849 34.6771 4.69246C34.67 4.6804 34.6634 4.6678 34.6573 4.6552C34.6446 4.62944 34.6573 4.65794 34.659 4.65849C34.6557 4.65684 34.6512 4.63766 34.6501 4.63328C34.6452 4.61794 34.6408 4.60259 34.6364 4.58725C34.6319 4.57191 34.6292 4.55766 34.6259 4.54232C34.6242 4.5341 34.6226 4.52588 34.6215 4.51821C34.6209 4.51492 34.616 4.48149 34.6182 4.49958C34.6204 4.51547 34.6182 4.49519 34.6176 4.493C34.6165 4.48259 34.6154 4.47273 34.6149 4.46231C34.6132 4.44368 34.6127 4.42505 34.6121 4.40642C34.6116 4.36916 34.6132 4.3319 34.6165 4.29518C34.6231 4.2234 34.5487 4.15491 34.4787 4.15819C34.3982 4.16203 34.3481 4.21847 34.3409 4.29518C34.326 4.45903 34.3475 4.63218 34.4153 4.78342C34.4831 4.93466 34.6237 5.04316 34.789 5.03603C34.9726 5.02781 35.0817 4.87603 35.1192 4.71109C35.138 4.62835 35.1462 4.54177 35.1396 4.45738C35.133 4.373 35.1209 4.28039 35.0801 4.20587C35.0194 4.09627 34.8971 4.09408 34.7868 4.08641C34.6937 4.07983 34.6 4.07874 34.5068 4.08148C34.4346 4.08367 34.3657 4.14285 34.369 4.21847C34.3723 4.29409 34.4297 4.35765 34.5068 4.35546L34.5041 4.35765Z"
      fill="black"
    />
<path
      d="M5.59192 5.45626C5.82784 5.51654 6.06321 5.57627 6.29913 5.63655C6.36913 5.65408 6.45181 5.61408 6.4689 5.54065C6.48599 5.46722 6.4474 5.39106 6.37244 5.37188C6.13652 5.3116 5.90115 5.25187 5.66523 5.1916C5.59523 5.17406 5.51255 5.21406 5.49546 5.28749C5.47837 5.36092 5.51696 5.43709 5.59192 5.45626Z"
      fill="black"
    />
<path
      d="M4.42672 5.83451C4.51271 5.86848 4.59649 5.90794 4.67807 5.95177C4.71997 5.97424 4.76131 5.99835 4.8021 6.02301C4.82249 6.03561 4.84288 6.04822 4.86273 6.06137C4.87265 6.06794 4.88257 6.07452 4.89249 6.08109C4.89745 6.08438 4.90242 6.08767 4.90738 6.09096C4.93494 6.11123 4.92391 6.09096 4.87486 6.03123L4.8936 5.96219C4.85391 6.05424 4.81312 6.10301 4.74532 6.16712C4.72878 6.18302 4.7117 6.19781 4.69406 6.21206L4.68359 6.22083C4.69185 6.2148 4.69185 6.21425 4.68414 6.21973C4.67477 6.2263 4.6654 6.23288 4.65602 6.23946C4.61799 6.26466 4.5783 6.28713 4.53696 6.30631C4.52869 6.31014 4.52043 6.31398 4.51216 6.31782C4.53421 6.3085 4.49452 6.32439 4.49397 6.32439C4.47247 6.33206 4.45097 6.33919 4.42893 6.34521C4.40688 6.35124 4.38483 6.35672 4.36223 6.3611C4.35341 6.36275 4.34404 6.36439 4.33522 6.36604C4.29278 6.37426 4.349 6.36494 4.32475 6.36768C4.27955 6.37261 4.2338 6.37426 4.1886 6.37206C4.17702 6.37152 4.166 6.37042 4.15442 6.36987C4.12907 6.36823 4.15883 6.37097 4.1434 6.36878C4.11859 6.36494 4.09434 6.36001 4.06954 6.35398C3.99733 6.33645 3.92016 6.377 3.89976 6.44988C3.87937 6.52275 3.92347 6.60057 3.99623 6.61865C4.25254 6.68166 4.52759 6.63618 4.75359 6.50193C4.87045 6.43234 4.97021 6.34138 5.05124 6.23288C5.09369 6.17644 5.14495 6.10411 5.14936 6.03233C5.15542 5.92657 5.07329 5.87232 4.99336 5.82081C4.83737 5.72053 4.67146 5.63943 4.49893 5.57149C4.42948 5.54409 4.34735 5.60108 4.32916 5.66738C4.30766 5.74519 4.35617 5.80876 4.42562 5.83615L4.42672 5.83451Z"
      fill="black"
    />
<path
      d="M2.30522 10.6603C2.34049 10.8324 2.37522 11.0039 2.4105 11.1759C2.42483 11.2461 2.51247 11.2932 2.58027 11.2718C2.65524 11.2477 2.69217 11.1787 2.67673 11.103C2.64146 10.931 2.60673 10.7595 2.57145 10.5874C2.55712 10.5173 2.46948 10.4701 2.40168 10.4915C2.32671 10.5156 2.28978 10.5847 2.30522 10.6603Z"
      fill="black"
    />
<path
      d="M3.61423 10.2273C3.67707 10.418 3.73109 10.6109 3.77518 10.8071C3.79117 10.8772 3.87605 10.9249 3.94496 10.9029C4.01882 10.8794 4.05795 10.8092 4.04142 10.7342C3.99732 10.5385 3.94385 10.3451 3.88046 10.1544C3.85786 10.0865 3.784 10.035 3.71069 10.0585C3.64234 10.0805 3.59053 10.1544 3.61423 10.2273Z"
      fill="black"
    />
<path
      d="M3.3397 11.8636C3.43726 11.8477 3.53483 11.8318 3.63239 11.8159C3.66436 11.8104 3.69909 11.7798 3.71452 11.7529C3.73161 11.7233 3.73933 11.68 3.7283 11.6472C3.71728 11.6143 3.69688 11.5819 3.66491 11.5655L3.63184 11.5518C3.60759 11.5452 3.58278 11.5452 3.55853 11.5518C3.46097 11.5677 3.3634 11.5836 3.26584 11.5995C3.23387 11.605 3.19914 11.6356 3.18371 11.6625C3.16662 11.6921 3.1589 11.7354 3.16993 11.7683C3.18095 11.8011 3.20135 11.8335 3.23332 11.8499L3.26639 11.8636C3.29064 11.8702 3.31545 11.8702 3.3397 11.8636Z"
      fill="black"
    />
<path
      d="M0.994446 16.2649C1.21438 16.9849 1.60464 17.7126 2.35704 17.985C2.42704 18.0102 2.50807 17.9565 2.52681 17.8891C2.54776 17.8129 2.5009 17.7461 2.43035 17.7203C1.77772 17.4841 1.44919 16.809 1.26013 16.1915C1.20887 16.0233 0.942632 16.0951 0.994446 16.2644V16.2649Z"
      fill="black"
    />
<path
      d="M3.11814 18.2081C3.33146 18.2317 3.54643 18.2388 3.7614 18.2295C3.83306 18.2262 3.90251 18.1687 3.89921 18.0925C3.8959 18.0207 3.83857 17.9522 3.7614 17.9555C3.54698 17.9648 3.33201 17.9577 3.11814 17.9341C3.04648 17.9265 2.97703 18.0026 2.98034 18.0711C2.9842 18.1522 3.04097 18.1993 3.11814 18.2081Z"
      fill="black"
    />
</g>
<defs>
<clipPath id="clip0_1373_10739">
<rect width="42" height="40" fill="white" />
</clipPath>
</defs>
</svg>
