<svg width="19" height="40" viewBox="0 0 19 40" fill="none" xmlns="http://www.w3.org/2000/svg">
<g clip-path="url(#clip0_1373_10666)">
<path d="M14.9399 21.4814H5.33105V43.1799H14.9399V21.4814Z" fill="#5FC0F7" stroke="black" stroke-miterlimit="10" />
<path d="M7.88062 43.1796V30.9053" stroke="black" stroke-miterlimit="10" />
<path d="M18.7093 0.283203H0.291016V27.7563H18.7093V0.283203Z" fill="#FFA194" stroke="black" stroke-miterlimit="10" />
<path
      d="M3.82393 9.24181C4.57319 9.24181 5.18058 8.65011 5.18058 7.92022C5.18058 7.19033 4.57319 6.59863 3.82393 6.59863C3.07468 6.59863 2.46729 7.19033 2.46729 7.92022C2.46729 8.65011 3.07468 9.24181 3.82393 9.24181Z"
      fill="black"
    />
<path
      d="M11.4609 9.24181C12.2102 9.24181 12.8175 8.65011 12.8175 7.92022C12.8175 7.19033 12.2102 6.59863 11.4609 6.59863C10.7116 6.59863 10.1042 7.19033 10.1042 7.92022C10.1042 8.65011 10.7116 9.24181 11.4609 9.24181Z"
      fill="black"
    />
<path
      d="M8.16295 10.6914C8.10623 10.3497 7.81222 10.0965 7.49042 9.98828C7.16862 9.88003 6.80399 9.94261 6.53312 10.1377C5.93294 10.5696 5.75352 11.4785 6.21364 12.0727C6.48451 12.4217 6.93769 12.6078 7.38161 12.5018C7.62006 12.4448 7.6681 12.1015 7.45048 11.9865C7.09569 11.7993 6.66509 11.9199 6.411 12.2114C6.17718 12.4798 6.03827 12.8344 6.0429 13.1879C6.04695 13.5172 6.18412 13.8516 6.44052 14.0714C6.71081 14.3026 7.05749 14.3928 7.40997 14.3167C7.76244 14.2406 8.08829 13.9812 8.29318 13.6818C8.3771 13.5589 8.32212 13.3644 8.18958 13.2962C8.0443 13.2212 7.88341 13.2663 7.7937 13.3971C7.77749 13.4208 7.76186 13.4456 7.74334 13.467C7.78501 13.4197 7.73177 13.4783 7.71788 13.493C7.67794 13.5358 7.63569 13.5764 7.58997 13.6136C7.57897 13.6226 7.56739 13.6328 7.55524 13.6413C7.56334 13.6356 7.60386 13.608 7.56045 13.6362C7.53556 13.652 7.51183 13.6683 7.48637 13.683C7.46437 13.6959 7.4418 13.7078 7.41923 13.7191C7.4065 13.7253 7.3926 13.7309 7.37987 13.7377C7.34862 13.7535 7.4308 13.7202 7.37929 13.7377C7.35209 13.7467 7.32547 13.7557 7.29769 13.763C7.28553 13.7664 7.22013 13.7721 7.21434 13.7811C7.21492 13.78 7.27222 13.776 7.23865 13.7783C7.22476 13.7794 7.21029 13.7811 7.1964 13.7816C7.16457 13.7833 7.13274 13.7816 7.1009 13.7811C7.07833 13.7811 7.06039 13.7907 7.11421 13.7839C7.1038 13.785 7.08007 13.7777 7.07138 13.776C7.04708 13.7709 7.02335 13.7647 7.0002 13.7568C6.9319 13.7348 7.03782 13.7777 6.97299 13.7473C6.94521 13.7337 6.91801 13.7191 6.89139 13.7027C6.88676 13.6999 6.85724 13.6796 6.85724 13.6796C6.85955 13.6779 6.91049 13.7241 6.8665 13.6864C6.84798 13.6706 6.83004 13.6548 6.81267 13.6384C6.79299 13.6193 6.77505 13.5978 6.75595 13.5781C6.72875 13.5499 6.78431 13.6193 6.76232 13.5866C6.75248 13.5725 6.74206 13.5589 6.7328 13.5443C6.71775 13.5212 6.70328 13.4975 6.69055 13.4732C6.68476 13.4625 6.65698 13.3949 6.66972 13.4326C6.68245 13.4704 6.65582 13.3887 6.65293 13.3796C6.64251 13.3458 6.63557 13.312 6.62804 13.2776C6.62457 13.2607 6.6101 13.2319 6.62804 13.2827C6.62399 13.2708 6.62457 13.2466 6.62399 13.2359C6.62226 13.2082 6.62168 13.1806 6.62226 13.153C6.62283 13.1214 6.62631 13.0898 6.62804 13.0583C6.62978 13.0267 6.62631 13.0707 6.62573 13.0746C6.63036 13.0515 6.63383 13.0278 6.63904 13.0047C6.65177 12.9466 6.66972 12.8891 6.69113 12.8333C6.69402 12.8254 6.71428 12.7792 6.69923 12.8119C6.68534 12.8423 6.70271 12.8062 6.70444 12.8023C6.72238 12.7679 6.73975 12.7329 6.76 12.6997C6.77563 12.6737 6.79242 12.6495 6.80978 12.6247C6.83872 12.5818 6.81267 12.6202 6.80573 12.6281C6.8202 12.6112 6.83525 12.5937 6.85087 12.5779C6.87171 12.5565 6.89544 12.5379 6.91685 12.517C6.87981 12.5537 6.89717 12.53 6.91222 12.5209C6.92843 12.5108 6.94405 12.5007 6.96026 12.4916C6.96836 12.4871 7.01061 12.4629 6.97704 12.4809C6.94348 12.499 6.99788 12.4742 7.00714 12.4713C7.02161 12.4668 7.03724 12.4646 7.05171 12.4601C7.1038 12.4448 7.02161 12.4578 7.05402 12.4595C7.06907 12.4601 7.0847 12.4584 7.09974 12.4589C7.11132 12.4589 7.12232 12.4595 7.13389 12.4606L7.10148 12.4572C7.10727 12.455 7.14257 12.4674 7.14489 12.468C7.20219 12.482 7.10206 12.4448 7.15878 12.4747L7.22765 11.9594C7.21029 11.9633 7.19235 11.9662 7.17556 11.9707C7.13563 11.9802 7.22997 11.9678 7.18888 11.969C7.15704 11.9695 7.12521 11.9724 7.09338 11.9712C7.08991 11.9712 7.05634 11.9718 7.05113 11.9684C7.07254 11.9831 7.10032 11.9774 7.06444 11.9695C7.02566 11.9611 6.98804 11.9532 6.95042 11.9408C6.93711 11.9363 6.9238 11.9312 6.90991 11.9267C6.86939 11.9132 6.9701 11.9588 6.90991 11.9256C6.88502 11.9115 6.85897 11.8996 6.83467 11.885C6.82251 11.8776 6.81094 11.8692 6.79878 11.8618C6.73975 11.8269 6.82888 11.8895 6.79705 11.8618C6.77042 11.8382 6.74322 11.8156 6.71833 11.7902C6.70618 11.7773 6.6946 11.7643 6.68245 11.7508C6.68939 11.7581 6.71544 11.797 6.68534 11.7542C6.66798 11.7294 6.6512 11.7045 6.63615 11.6786C6.62862 11.6662 6.57248 11.5619 6.60547 11.625C6.58869 11.5923 6.57827 11.554 6.56785 11.519C6.55917 11.4903 6.55222 11.461 6.54586 11.4317C6.54354 11.4209 6.53718 11.3995 6.53776 11.3871C6.53428 11.4486 6.54007 11.4035 6.53776 11.3837C6.53139 11.3121 6.53312 11.2411 6.53776 11.1689C6.54181 11.1069 6.53891 11.1757 6.53544 11.1768C6.53602 11.1768 6.54123 11.1419 6.54239 11.1368C6.54875 11.1035 6.55628 11.0708 6.56554 11.0381C6.57306 11.0122 6.58116 10.9862 6.59042 10.9603C6.59274 10.9541 6.59911 10.9287 6.60489 10.922C6.58869 10.958 6.58695 10.9614 6.60026 10.9332L6.60894 10.9146C6.63557 10.8594 6.66682 10.8064 6.70271 10.7568C6.70849 10.7483 6.71833 10.7314 6.72701 10.7241C6.68361 10.7618 6.70791 10.7472 6.72007 10.7336C6.74554 10.7066 6.76984 10.679 6.79705 10.653C6.81788 10.6339 6.84161 10.6085 6.8665 10.5944C6.86013 10.5978 6.81383 10.6299 6.85724 10.6028C6.86881 10.5955 6.87981 10.5882 6.89139 10.5809C6.91743 10.5651 6.94405 10.551 6.97126 10.5374L6.98052 10.5329C7.00946 10.52 7.0054 10.5217 6.96778 10.538C6.97531 10.529 7.0054 10.525 7.0164 10.5217C7.04418 10.5132 7.07254 10.5076 7.1009 10.5008C7.15299 10.489 7.08238 10.5064 7.07949 10.503C7.08065 10.5042 7.11132 10.5008 7.11711 10.5002C7.14836 10.4985 7.17962 10.5008 7.21087 10.5014C7.24907 10.5019 7.21087 10.5155 7.19003 10.4974C7.19872 10.5053 7.2346 10.5053 7.2456 10.5076C7.27627 10.5143 7.30637 10.5228 7.33646 10.5324C7.34109 10.5341 7.37177 10.5448 7.37177 10.5453C7.33473 10.5295 7.32605 10.5262 7.34572 10.5352C7.35441 10.5391 7.36251 10.5431 7.37119 10.547C7.39897 10.5606 7.42559 10.5763 7.45164 10.5927C7.44932 10.591 7.48231 10.613 7.48174 10.6136C7.44759 10.5876 7.44296 10.5842 7.46669 10.6034L7.48058 10.6152C7.50315 10.6355 7.52341 10.6575 7.54424 10.6795C7.58534 10.7229 7.51993 10.6384 7.5373 10.6716C7.54424 10.6846 7.55408 10.6964 7.56161 10.7088C7.56913 10.7212 7.57434 10.7365 7.58302 10.7477C7.59691 10.7652 7.56392 10.6869 7.58129 10.7461C7.59112 10.7782 7.59981 10.8092 7.60501 10.8419C7.62932 10.9879 7.82321 11.0821 7.96096 11.0387C8.1236 10.9874 8.189 10.8481 8.16295 10.6919V10.6914Z"
      fill="black"
    />
<path d="M0.833984 12.8061L3.0067 11.0791" stroke="#FF2626" stroke-linecap="round" stroke-linejoin="round" />
<path d="M1.92041 12.8061L4.09371 11.0791" stroke="#FF2626" stroke-linecap="round" stroke-linejoin="round" />
<path d="M3.00659 12.8061L5.17989 11.0791" stroke="#FF2626" stroke-linecap="round" stroke-linejoin="round" />
<path d="M10.1047 12.8061L12.278 11.0791" stroke="#FF2626" stroke-linecap="round" stroke-linejoin="round" />
<path d="M11.1912 12.8061L13.3645 11.0791" stroke="#FF2626" stroke-linecap="round" stroke-linejoin="round" />
<path d="M12.2781 12.8061L14.4514 11.0791" stroke="#FF2626" stroke-linecap="round" stroke-linejoin="round" />
</g>
<defs>
<clipPath id="clip0_1373_10666">
<rect width="19" height="48" fill="white" />
</clipPath>
</defs>
</svg>
