<svg width="32" height="42" viewBox="0 0 32 42" fill="none" xmlns="http://www.w3.org/2000/svg">
<g clip-path="url(#clip0_1373_10714)">
<path
      d="M17.3087 23.2676C20.2413 23.2676 22.6223 25.6791 22.6223 28.6492V41.7472H11.9951V28.6492C11.9951 25.6791 14.3762 23.2676 17.3087 23.2676Z"
      fill="#FF7426"
      stroke="black"
      stroke-miterlimit="10"
    />
<path
      d="M15.1475 27.4654C22.8072 27.4654 29.0167 22.8251 29.0167 17.1009C29.0167 11.3767 22.8072 6.73633 15.1475 6.73633C7.48776 6.73633 1.27832 11.3767 1.27832 17.1009C1.27832 22.8251 7.48776 27.4654 15.1475 27.4654Z"
      fill="white"
      stroke="black"
      stroke-miterlimit="10"
    />
<path
      d="M9.48994 17.5839C9.88026 17.5839 10.1967 17.2634 10.1967 16.8681C10.1967 16.4728 9.88026 16.1523 9.48994 16.1523C9.09962 16.1523 8.7832 16.4728 8.7832 16.8681C8.7832 17.2634 9.09962 17.5839 9.48994 17.5839Z"
      fill="black"
    />
<path
      d="M16.561 17.205C16.9513 17.205 17.2677 16.8845 17.2677 16.4892C17.2677 16.0939 16.9513 15.7734 16.561 15.7734C16.1707 15.7734 15.8542 16.0939 15.8542 16.4892C15.8542 16.8845 16.1707 17.205 16.561 17.205Z"
      fill="black"
    />
<path
      d="M10.4751 18.5659L13.5159 17.957L12.6268 21.9973L10.4751 18.5659Z"
      fill="#FF2626"
      fill-opacity="0.33"
      stroke="black"
      stroke-miterlimit="10"
    />
<path
      d="M18.42 9.9512C18.4696 9.78697 18.525 9.62491 18.5869 9.465C18.6008 9.42935 18.6152 9.39369 18.6296 9.35804C18.6339 9.34724 18.6595 9.28133 18.6349 9.34508C18.6424 9.32563 18.6515 9.30672 18.6595 9.28727C18.6941 9.20732 18.7299 9.12791 18.7677 9.04904C18.9133 8.74382 19.0808 8.44886 19.267 8.16687C19.3091 8.10312 19.3529 8.03938 19.3966 7.97671C19.4206 7.94268 19.4451 7.90865 19.4697 7.87461C19.4819 7.85787 19.4942 7.84112 19.507 7.82383C19.5145 7.81411 19.5694 7.73956 19.5283 7.7952C19.6276 7.66069 19.7364 7.53212 19.8468 7.40625C20.0676 7.15343 20.3039 6.91519 20.5541 6.69263C20.6794 6.58134 20.8079 6.47384 20.9397 6.37012C20.8885 6.41009 20.9701 6.34689 20.985 6.33554C21.0181 6.31015 21.0517 6.2853 21.0853 6.26045C21.1584 6.20697 21.232 6.15403 21.3067 6.10325C21.6022 5.90013 21.9115 5.71754 22.23 5.5544C22.3969 5.46904 22.5665 5.38855 22.7383 5.314C22.7447 5.3113 22.8167 5.28105 22.7607 5.30428C22.782 5.29509 22.8039 5.28591 22.8258 5.27727C22.862 5.26214 22.8978 5.24755 22.934 5.23297C23.0284 5.19515 23.1234 5.1595 23.2189 5.12493C23.572 4.99743 23.932 4.89047 24.2974 4.80458C24.5033 4.75596 24.7102 4.71382 24.9182 4.67763C25.0185 4.66034 25.1193 4.64467 25.2201 4.63009C25.2287 4.62901 25.3065 4.6182 25.2425 4.62685C25.2735 4.62253 25.3044 4.61874 25.3359 4.61496C25.3903 4.60794 25.4447 4.60146 25.4991 4.59552C25.9194 4.54906 26.3419 4.52799 26.7648 4.52853C26.9046 4.52853 27.0379 4.40428 27.0315 4.25842C27.0251 4.11256 26.9142 3.98886 26.7648 3.98832C25.1935 3.98453 23.6178 4.29516 22.1926 4.97367C20.9002 5.58897 19.7673 6.52678 18.9363 7.70391C18.485 8.34298 18.1335 9.05552 17.9058 9.80696C17.8647 9.94201 17.9543 10.1073 18.0919 10.1392C18.2365 10.1727 18.3762 10.0954 18.42 9.95066V9.9512Z"
      fill="black"
    />
<path
      d="M28.2892 0.283203C28.2892 0.283203 26.7941 0.42582 27.1925 2.11237C27.591 3.79891 28.2892 4.16086 28.2892 4.16086C28.2892 4.16086 28.9868 3.79837 29.3858 2.11237C29.7843 0.42582 28.2892 0.283203 28.2892 0.283203Z"
      fill="#FFF50D"
      stroke="black"
      stroke-miterlimit="10"
    />
<path
      d="M24.973 2.22146C24.973 2.22146 24.3474 3.60387 25.9886 4.09762C27.6299 4.59138 28.2886 4.16029 28.2886 4.16029C28.2886 4.16029 28.3275 3.36726 27.0853 2.17446C25.8425 0.981671 24.973 2.22146 24.973 2.22146Z"
      fill="#FFF50D"
      stroke="black"
      stroke-miterlimit="10"
    />
<path
      d="M24.973 6.09945C24.973 6.09945 25.8425 7.33978 27.0853 6.14645C28.3281 4.95366 28.2886 4.16062 28.2886 4.16062C28.2886 4.16062 27.6299 3.72953 25.9886 4.22329C24.3474 4.71704 24.973 6.09945 24.973 6.09945Z"
      fill="#FFF50D"
      stroke="black"
      stroke-miterlimit="10"
    />
<path
      d="M28.2892 8.03781C28.2892 8.03781 29.7843 7.89519 29.3858 6.20865C28.9874 4.5221 28.2892 4.16016 28.2892 4.16016C28.2892 4.16016 27.5915 4.52264 27.1925 6.20865C26.7941 7.89519 28.2892 8.03781 28.2892 8.03781Z"
      fill="#FFF50D"
      stroke="black"
      stroke-miterlimit="10"
    />
<path
      d="M31.6047 6.09945C31.6047 6.09945 32.2304 4.71704 30.5892 4.22329C28.9479 3.72953 28.2892 4.16062 28.2892 4.16062C28.2892 4.16062 28.2503 4.95366 29.4925 6.14645C30.7353 7.33924 31.6047 6.09945 31.6047 6.09945Z"
      fill="#FFF50D"
      stroke="black"
      stroke-miterlimit="10"
    />
<path
      d="M31.6047 2.2217C31.6047 2.2217 30.7353 0.981371 29.4925 2.1747C28.2497 3.3675 28.2892 4.16053 28.2892 4.16053C28.2892 4.16053 28.9479 4.59162 30.5892 4.09786C32.2304 3.60411 31.6047 2.2217 31.6047 2.2217Z"
      fill="#FFF50D"
      stroke="black"
      stroke-miterlimit="10"
    />
<path
      d="M28.2891 5.17574C28.843 5.17574 29.2919 4.72103 29.2919 4.16013C29.2919 3.59923 28.843 3.14453 28.2891 3.14453C27.7353 3.14453 27.2864 3.59923 27.2864 4.16013C27.2864 4.72103 27.7353 5.17574 28.2891 5.17574Z"
      fill="#00CA20"
      stroke="black"
      stroke-miterlimit="10"
    />
<path
      d="M19.4297 28.8457C19.4297 28.8457 18.8781 28.8981 19.0248 29.5204C19.172 30.1428 19.4297 30.2767 19.4297 30.2767C19.4297 30.2767 19.6873 30.1433 19.8345 29.5204C19.9817 28.8981 19.4297 28.8457 19.4297 28.8457Z"
      fill="#FFF50D"
      stroke="black"
      stroke-miterlimit="10"
    />
<path
      d="M18.2061 29.5601C18.2061 29.5601 17.9751 30.0706 18.581 30.2527C19.187 30.4347 19.4297 30.2759 19.4297 30.2759C19.4297 30.2759 19.4441 29.9831 18.9853 29.5429C18.5266 29.1026 18.2061 29.5601 18.2061 29.5601Z"
      fill="#FFF50D"
      stroke="black"
      stroke-miterlimit="10"
    />
<path
      d="M18.2061 30.9929C18.2061 30.9929 18.5272 31.4504 18.9853 31.0101C19.4441 30.5699 19.4297 30.2771 19.4297 30.2771C19.4297 30.2771 19.1864 30.1182 18.581 30.3003C17.9751 30.4823 18.2061 30.9929 18.2061 30.9929Z"
      fill="#FFF50D"
      stroke="black"
      stroke-miterlimit="10"
    />
<path
      d="M19.4296 31.7084C19.4296 31.7084 19.9811 31.656 19.8344 31.0336C19.6872 30.4113 19.4296 30.2773 19.4296 30.2773C19.4296 30.2773 19.1719 30.4108 19.0247 31.0336C18.8775 31.656 19.4296 31.7084 19.4296 31.7084Z"
      fill="#FFF50D"
      stroke="black"
      stroke-miterlimit="10"
    />
<path
      d="M20.6533 30.9929C20.6533 30.9929 20.8843 30.4823 20.2784 30.3003C19.6724 30.1182 19.4297 30.2771 19.4297 30.2771C19.4297 30.2771 19.4153 30.5699 19.8741 31.0101C20.3328 31.4504 20.6533 30.9929 20.6533 30.9929Z"
      fill="#FFF50D"
      stroke="black"
      stroke-miterlimit="10"
    />
<path
      d="M20.6533 29.5601C20.6533 29.5601 20.3322 29.1026 19.8741 29.5429C19.4153 29.9831 19.4297 30.2759 19.4297 30.2759C19.4297 30.2759 19.673 30.4347 20.2784 30.2527C20.8843 30.0706 20.6533 29.5601 20.6533 29.5601Z"
      fill="#FFF50D"
      stroke="black"
      stroke-miterlimit="10"
    />
<path
      d="M19.4297 30.6522C19.6342 30.6522 19.7999 30.4843 19.7999 30.2772C19.7999 30.0702 19.6342 29.9023 19.4297 29.9023C19.2253 29.9023 19.0596 30.0702 19.0596 30.2772C19.0596 30.4843 19.2253 30.6522 19.4297 30.6522Z"
      fill="#00CA20"
      stroke="black"
      stroke-miterlimit="10"
    />
</g>
<defs>
<clipPath id="clip0_1373_10714">
<rect width="32" height="42" fill="white" />
</clipPath>
</defs>
</svg>
