<svg width="25" height="45" viewBox="0 0 25 45" fill="none" xmlns="http://www.w3.org/2000/svg">
<g clip-path="url(#clip0_1373_10594)">
<path d="M19.8 28.2158H6.28613V48.758H19.8V28.2158Z" fill="#F7D35F" stroke="black" stroke-miterlimit="10" />
<path d="M9.87183 48.7581V37.1377" stroke="black" stroke-miterlimit="10" />
<path
      d="M22.5855 13.1546C22.5855 7.82733 18.3136 3.50879 13.0428 3.50879C7.77201 3.50879 3.50098 7.82733 3.50098 13.1546C3.50098 15.1574 4.10467 17.0173 5.13806 18.5586C4.10467 20.0998 3.50098 21.9597 3.50098 23.9626C3.50098 29.2898 7.77297 33.6083 13.0428 33.6083C18.3126 33.6083 22.5846 29.2898 22.5846 23.9626C22.5846 21.9597 21.9809 20.0998 20.9475 18.5586C21.9809 17.0173 22.5846 15.1574 22.5846 13.1546H22.5855Z"
      fill="#FF7E66"
      stroke="black"
      stroke-miterlimit="10"
    />
<path
      d="M7.86613 15.9921C9.16791 15.9921 10.2232 14.9253 10.2232 13.6093C10.2232 12.2934 9.16791 11.2266 7.86613 11.2266C6.56434 11.2266 5.50903 12.2934 5.50903 13.6093C5.50903 14.9253 6.56434 15.9921 7.86613 15.9921Z"
      fill="black"
    />
<path
      d="M7.86635 15.2939C8.78694 15.2939 9.53323 14.5395 9.53323 13.6089C9.53323 12.6782 8.78694 11.9238 7.86635 11.9238C6.94575 11.9238 6.19946 12.6782 6.19946 13.6089C6.19946 14.5395 6.94575 15.2939 7.86635 15.2939Z"
      fill="white"
    />
<path
      d="M15.4013 15.9921C16.7031 15.9921 17.7584 14.9253 17.7584 13.6093C17.7584 12.2934 16.7031 11.2266 15.4013 11.2266C14.0995 11.2266 13.0442 12.2934 13.0442 13.6093C13.0442 14.9253 14.0995 15.9921 15.4013 15.9921Z"
      fill="black"
    />
<path
      d="M15.4015 15.2939C16.3221 15.2939 17.0684 14.5395 17.0684 13.6089C17.0684 12.6782 16.3221 11.9238 15.4015 11.9238C14.4809 11.9238 13.7346 12.6782 13.7346 13.6089C13.7346 14.5395 14.4809 15.2939 15.4015 15.2939Z"
      fill="white"
    />
<path d="M12.6817 16.7095C12.6817 16.7095 10.9446 15.6668 9.53345 16.7095" stroke="black" stroke-miterlimit="10" />
</g>
<defs>
<clipPath id="clip0_1373_10594">
<rect width="25" height="49" fill="white" />
</clipPath>
</defs>
</svg>
