<svg width="39" height="39" viewBox="0 0 39 39" fill="none" xmlns="http://www.w3.org/2000/svg">
<g clip-path="url(#clip0_1373_10683)">
<path
      d="M9.1383 8.6022C10.6759 5.54723 10.1316 2.13899 7.92259 0.989674C5.71359 -0.159637 2.67638 1.3852 1.13879 4.44017C-0.398802 7.49514 0.145488 10.9034 2.35449 12.0527C4.5635 13.202 7.60071 11.6572 9.1383 8.6022Z"
      fill="#FFFEF0"
      stroke="black"
      stroke-miterlimit="10"
    />
<g clip-path="url(#clip1_1373_10683)">
<path
        d="M3.88759 5.28881C3.7216 5.29952 3.46602 5.37185 3.29937 5.38257C3.17092 5.39061 3.03786 5.39998 2.92259 5.45892C2.88175 5.48035 2.84157 5.50781 2.79546 5.51049C2.72498 5.51383 2.66767 5.45825 2.613 5.41338C2.47533 5.30153 2.29814 5.24193 2.12226 5.24728C2.04124 5.24996 1.9589 5.26604 1.87986 5.24862C1.81794 5.23523 1.76261 5.20241 1.70794 5.1696C1.4932 5.04168 1.27846 4.91443 1.06372 4.78651C1.06372 4.78651 1.31008 3.51069 1.83177 3.30308C2.10843 3.19324 2.14663 3.80604 2.30011 4.06522C2.33107 4.11813 2.36796 4.17037 2.42066 4.20118C2.47269 4.23131 2.53395 4.23734 2.59324 4.24404C2.74737 4.26011 2.90085 4.28221 3.05301 4.309C3.1123 4.31972 3.17421 4.33244 3.22032 4.37196C3.33362 4.46907 3.29344 4.67132 3.39817 4.77848C3.45285 4.83407 3.53387 4.85014 3.60435 4.88162C3.76178 4.95194 3.87442 5.11535 3.88693 5.28948"
        fill="#FFF648"
      />
<path
        d="M3.88756 5.14191C3.67084 5.15866 3.46137 5.22295 3.244 5.23902C3.10699 5.24907 2.97525 5.26983 2.85075 5.33212C2.79345 5.36024 2.79871 5.37431 2.75195 5.34015C2.70518 5.306 2.66105 5.26447 2.61032 5.233C2.5023 5.16602 2.37978 5.1245 2.25462 5.10843C2.19007 5.10039 2.12749 5.09972 2.06228 5.10441C2.00102 5.10843 1.9391 5.1178 1.87982 5.0957C1.7573 5.05016 1.64137 4.95975 1.52939 4.89278L1.13746 4.65971L1.20333 4.82447C1.23495 4.66105 1.27974 4.49898 1.33046 4.34026C1.41477 4.07572 1.52544 3.78104 1.70395 3.57945C1.75137 3.52587 1.78233 3.4964 1.83239 3.4656C1.84425 3.45823 1.85677 3.45153 1.86862 3.44484C1.89168 3.43278 1.86006 3.44684 1.88509 3.43814C1.91012 3.42943 1.87192 3.43479 1.89695 3.43479C1.86665 3.43479 1.90617 3.44082 1.89695 3.43479C1.89761 3.43479 1.88772 3.42876 1.89892 3.43881C1.90419 3.4435 1.92264 3.46828 1.91012 3.45019C1.92922 3.47698 1.94437 3.50779 1.95821 3.53726C1.9806 3.58749 2.00695 3.66986 2.02671 3.73416C2.07677 3.89556 2.12156 4.065 2.22301 4.20296C2.38241 4.41995 2.67224 4.39115 2.91069 4.43C3.00555 4.4454 3.12939 4.4367 3.161 4.54452C3.19262 4.65235 3.20645 4.77223 3.2855 4.86398C3.36981 4.96243 3.49497 4.9718 3.59641 5.03945C3.67743 5.09369 3.73671 5.1888 3.74593 5.28724C3.75384 5.3656 3.80653 5.43324 3.88953 5.43324C3.96133 5.43324 4.04038 5.36627 4.03313 5.28724C4.0081 5.03074 3.85791 4.8238 3.62144 4.7287C3.58323 4.71329 3.52922 4.70325 3.50024 4.6711C3.47125 4.63895 3.4673 4.59073 3.45808 4.55189C3.43173 4.44004 3.40143 4.33021 3.30987 4.25453C3.20711 4.17015 3.06681 4.15943 2.941 4.14001C2.80794 4.11925 2.66236 4.11992 2.53194 4.08509C2.38439 4.04558 2.34289 3.78372 2.30337 3.6558C2.2566 3.50578 2.20851 3.32696 2.08797 3.21914C1.95491 3.09993 1.78563 3.14011 1.65257 3.23588C1.3792 3.43211 1.23034 3.76764 1.11704 4.07438C1.03668 4.29204 0.970147 4.5184 0.925355 4.74678C0.91284 4.81107 0.933918 4.87737 0.991226 4.91153L1.38316 5.14459C1.50765 5.21826 1.63149 5.306 1.76455 5.36158C1.89761 5.41717 2.03132 5.38636 2.17426 5.39239C2.29415 5.39708 2.4114 5.44262 2.50823 5.51428C2.61362 5.59197 2.70386 5.67903 2.84614 5.64823C2.91069 5.63416 2.96273 5.59532 3.02333 5.57188C3.07998 5.55045 3.14124 5.5404 3.20118 5.53437C3.32041 5.52366 3.437 5.51227 3.55491 5.49017C3.66491 5.46941 3.77492 5.44262 3.88624 5.43391C4.06936 5.41985 4.07068 5.12852 3.88624 5.14191H3.88756Z"
        fill="black"
      />
</g>
<path
      d="M38.7306 31.7092C38.7306 28.816 36.4238 26.4713 33.5789 26.4713C32.1482 26.4713 30.8538 27.0646 29.9198 28.0223C23.0646 23.6484 17.1158 25.7714 13.0622 28.6974C12.4245 28.4101 11.7191 28.2501 10.9767 28.2501C8.13108 28.2501 5.82495 30.5954 5.82495 33.488C5.82495 36.3805 8.13174 38.7259 10.9767 38.7259H36.7505C37.9553 37.7668 38.7299 33.3855 38.7299 31.7092H38.7306Z"
      fill="#FFB9EB"
      stroke="black"
      stroke-miterlimit="10"
    />
<path
      d="M18.2276 26.9691C25.1408 26.9691 30.745 21.2712 30.745 14.2424C30.745 7.21359 25.1408 1.51562 18.2276 1.51562C11.3144 1.51562 5.71021 7.21359 5.71021 14.2424C5.71021 21.2712 11.3144 26.9691 18.2276 26.9691Z"
      fill="#FFB9EB"
      stroke="black"
      stroke-miterlimit="10"
    />
<path
      d="M34.4968 10.2654C36.2941 8.52584 35.8645 5.1007 33.5373 2.61513C31.2101 0.129556 27.8665 -0.475217 26.0692 1.26433C24.2719 3.00388 24.7015 6.42902 27.0288 8.91459C29.356 11.4002 32.6996 12.0049 34.4968 10.2654Z"
      fill="#FFFEF0"
      stroke="black"
      stroke-miterlimit="10"
    />
<g clip-path="url(#clip2_1373_10683)">
<path
        d="M29.5869 5.64216C29.8273 5.51291 30.0776 5.18407 30.3181 5.05482C30.3576 5.03339 30.3991 5.01062 30.4208 4.97043C30.4452 4.92489 30.4373 4.86997 30.4281 4.81907C30.3754 4.53444 30.2917 4.25584 30.1804 3.98929C30.5862 3.75421 31.0091 3.54928 31.4438 3.37716C31.3173 3.02489 31.1902 2.67261 31.0637 2.32034C31.3905 2.31029 31.7165 2.29958 32.0432 2.28953L32.0538 1.4209C32.5965 1.81537 33.0807 2.29221 33.4858 2.83134C33.2783 2.85277 33.0708 2.87487 32.8633 2.8963C32.8225 2.90032 32.7777 2.90701 32.7494 2.93782C32.723 2.96662 32.7191 3.00948 32.7164 3.049C32.7052 3.22312 32.694 3.39658 32.6828 3.57071C32.6776 3.65309 32.6697 3.74216 32.6143 3.80243C32.5748 3.8453 32.5182 3.86606 32.4635 3.88481C32.2316 3.96585 31.9998 4.04688 31.7679 4.12725C31.7758 4.31209 31.7844 4.49627 31.7923 4.68111C31.509 4.70991 31.2251 4.73871 30.9419 4.76818C30.9056 4.77152 30.8655 4.77755 30.8437 4.80769C30.8233 4.83515 30.8266 4.87265 30.8312 4.90681C30.845 5.02133 30.8595 5.13585 30.8734 5.25038C30.4445 5.38164 30.0164 5.51224 29.5876 5.6435"
        fill="#FFF648"
      />
<path
        d="M29.6599 5.7676C29.8147 5.68121 29.9445 5.55396 30.0742 5.43341C30.1368 5.37514 30.1994 5.31487 30.2672 5.26263C30.3298 5.21441 30.4016 5.18226 30.4635 5.13471C30.6447 4.99541 30.567 4.75766 30.5208 4.56879C30.4701 4.35783 30.4016 4.15156 30.318 3.95131L30.2521 4.11606C30.648 3.88769 31.0577 3.68744 31.4812 3.51867C31.5484 3.49188 31.6103 3.41955 31.5814 3.33918C31.4549 2.98691 31.3278 2.63463 31.2013 2.28236L31.063 2.4672C31.3897 2.45716 31.7157 2.44644 32.0425 2.4364C32.1208 2.43372 32.1847 2.37143 32.1861 2.2904C32.1893 2.00108 32.1933 1.71109 32.1966 1.42177L31.9805 1.54767C32.5016 1.92808 32.9699 2.38818 33.3605 2.90587L33.4844 2.6862C33.3645 2.69893 33.2439 2.71098 33.1241 2.72371C33.0127 2.73509 32.8961 2.73844 32.7868 2.76121C32.5358 2.81479 32.5688 3.10813 32.5556 3.30972C32.549 3.41419 32.5503 3.52269 32.5345 3.62582C32.5207 3.7149 32.4733 3.72695 32.3942 3.75441C32.1722 3.8321 31.9509 3.90912 31.7289 3.98681C31.6709 4.0069 31.6209 4.06114 31.6235 4.12745C31.6314 4.31229 31.64 4.49646 31.6479 4.68131L31.7915 4.53531C31.5082 4.56411 31.2237 4.58889 30.9411 4.62237C30.8061 4.63845 30.6915 4.7014 30.6835 4.85477C30.677 4.98201 30.7125 5.12333 30.7283 5.2499L30.8337 5.10926C30.4049 5.24053 29.9768 5.37112 29.5479 5.50239C29.3714 5.55597 29.4465 5.83792 29.6243 5.78367C30.0532 5.65241 30.4813 5.52181 30.9101 5.39055C30.9642 5.3738 31.0234 5.31353 31.0155 5.2499C31.003 5.1461 30.9892 5.04162 30.9773 4.93781L30.9734 4.90634C30.9767 4.87486 30.9701 4.87151 30.953 4.89763C30.9325 4.91236 30.9273 4.91772 30.9378 4.91437C30.949 4.91102 30.9609 4.90968 30.9734 4.91035C31.0281 4.90433 31.0827 4.89897 31.1367 4.89361L31.7908 4.82664C31.8653 4.81927 31.9377 4.76569 31.9344 4.68064C31.9265 4.4958 31.918 4.31162 31.9101 4.12678L31.8047 4.26742C32.0161 4.19375 32.2282 4.11941 32.4397 4.04574C32.5325 4.01359 32.6333 3.9848 32.7051 3.91314C32.7769 3.84148 32.8066 3.74504 32.8184 3.64458C32.8303 3.54412 32.8336 3.44232 32.8395 3.34119C32.8434 3.28159 32.8474 3.22198 32.8507 3.16171C32.8533 3.12286 32.8487 3.07129 32.8579 3.03379C32.8579 3.0358 32.8434 3.03714 32.8612 3.04116C32.8843 3.04651 32.9357 3.03312 32.9594 3.03111L33.1234 3.0137C33.2433 3.00097 33.3638 2.98892 33.4837 2.97619C33.5772 2.96615 33.6813 2.8543 33.6075 2.75652C33.1866 2.1973 32.6906 1.7064 32.1261 1.29452C32.0346 1.22755 31.9114 1.31796 31.9101 1.42043C31.9068 1.70975 31.9028 1.99974 31.8995 2.28906L32.0431 2.14306C31.7164 2.1531 31.3903 2.16382 31.0636 2.17386C30.9773 2.17654 30.8917 2.26562 30.9253 2.35871C31.0518 2.71098 31.1789 3.06326 31.3054 3.41553L31.4055 3.23605C30.9589 3.41419 30.5248 3.62248 30.1078 3.86291C30.0584 3.89103 30.0183 3.97006 30.042 4.02766C30.1131 4.19911 30.1737 4.37524 30.2218 4.55473C30.2455 4.64447 30.2666 4.73556 30.2844 4.82664C30.2877 4.84338 30.2936 4.86548 30.2936 4.88289C30.2936 4.89629 30.289 4.90634 30.2929 4.90165C30.2798 4.91973 30.2363 4.93379 30.2185 4.94451C29.9583 5.09989 29.7805 5.36777 29.5157 5.51511C29.3536 5.60553 29.4985 5.85734 29.6606 5.76693L29.6599 5.7676Z"
        fill="black"
      />
</g>
<path
      d="M10.9767 14.9908C12.1677 14.9908 13.1333 14.0091 13.1333 12.7981C13.1333 11.5872 12.1677 10.6055 10.9767 10.6055C9.78561 10.6055 8.82007 11.5872 8.82007 12.7981C8.82007 14.0091 9.78561 14.9908 10.9767 14.9908Z"
      fill="black"
    />
<path
      d="M10.3996 13.2438C10.8398 13.2438 11.1966 12.881 11.1966 12.4334C11.1966 11.9859 10.8398 11.623 10.3996 11.623C9.95938 11.623 9.60254 11.9859 9.60254 12.4334C9.60254 12.881 9.95938 13.2438 10.3996 13.2438Z"
      fill="white"
    />
<path
      d="M11.0801 14.6428C11.3897 14.6428 11.6406 14.3876 11.6406 14.0729C11.6406 13.7581 11.3897 13.5029 11.0801 13.5029C10.7705 13.5029 10.5195 13.7581 10.5195 14.0729C10.5195 14.3876 10.7705 14.6428 11.0801 14.6428Z"
      fill="white"
    />
<path
      d="M19.1256 14.9908C20.3167 14.9908 21.2822 14.0091 21.2822 12.7981C21.2822 11.5872 20.3167 10.6055 19.1256 10.6055C17.9345 10.6055 16.969 11.5872 16.969 12.7981C16.969 14.0091 17.9345 14.9908 19.1256 14.9908Z"
      fill="black"
    />
<path
      d="M18.5485 13.2438C18.9887 13.2438 19.3455 12.881 19.3455 12.4334C19.3455 11.9859 18.9887 11.623 18.5485 11.623C18.1083 11.623 17.7515 11.9859 17.7515 12.4334C17.7515 12.881 18.1083 13.2438 18.5485 13.2438Z"
      fill="white"
    />
<path
      d="M19.229 14.6428C19.5386 14.6428 19.7896 14.3876 19.7896 14.0729C19.7896 13.7581 19.5386 13.5029 19.229 13.5029C18.9194 13.5029 18.6685 13.7581 18.6685 14.0729C18.6685 14.3876 18.9194 14.6428 19.229 14.6428Z"
      fill="white"
    />
<path
      d="M13.929 13.2441H15.8373C16.0079 13.2441 16.1324 13.4089 16.0883 13.5763L15.1338 17.2163C15.0653 17.4775 14.7004 17.4775 14.6319 17.2163L13.6774 13.5763C13.6333 13.4089 13.7578 13.2441 13.9284 13.2441H13.929Z"
      fill="black"
    />
<path
      d="M16.8564 11.2032C17.357 10.8871 17.857 10.5709 18.3576 10.2548C18.4847 10.1745 18.546 9.99029 18.4603 9.85568C18.3747 9.72106 18.2041 9.66481 18.0678 9.7512C17.5671 10.0673 17.0672 10.3834 16.5666 10.6995C16.4394 10.7799 16.3782 10.9641 16.4638 11.0987C16.5494 11.2333 16.72 11.2896 16.8564 11.2032Z"
      fill="black"
    />
<path
      d="M13.5971 11.0931C13.2861 10.5841 12.9752 10.0757 12.6643 9.56675C12.5853 9.4375 12.4041 9.37521 12.2717 9.46228C12.1393 9.54934 12.084 9.7228 12.169 9.86143C12.4799 10.3704 12.7908 10.8787 13.1017 11.3877C13.1808 11.517 13.3619 11.5793 13.4943 11.4922C13.6267 11.4051 13.682 11.2317 13.5971 11.0931Z"
      fill="black"
    />
<path
      d="M21.9205 29.5584C22.0713 29.3542 22.2485 29.1305 22.4923 29.0401C22.6385 28.9858 22.7953 28.9805 22.9487 28.9718C23.1128 28.9624 23.2768 28.953 23.4415 28.9436C24.1199 28.9048 24.7984 28.8659 25.4769 28.8264C25.6606 28.8157 25.662 28.5244 25.4769 28.5344C24.9137 28.5666 24.3498 28.5994 23.7866 28.6315C23.5073 28.6476 23.2287 28.6637 22.9494 28.6798C22.6991 28.6938 22.4514 28.7139 22.2308 28.8459C22.0101 28.9778 21.8309 29.1968 21.6735 29.4111C21.6267 29.4741 21.6636 29.5738 21.7249 29.6107C21.798 29.6542 21.8744 29.6214 21.9212 29.5584H21.9205Z"
      fill="black"
    />
<path
      d="M19.3067 29.6622C19.3733 29.4533 19.2613 29.2396 19.0907 29.1224C18.9201 29.0052 18.675 28.9731 18.4682 28.9356C17.9893 28.8485 17.5038 28.7949 17.0177 28.7755C16.8333 28.7682 16.8333 29.0602 17.0177 29.0675C17.4255 29.0836 17.8319 29.1231 18.2344 29.1901C18.4221 29.2209 18.6157 29.2484 18.7982 29.3053C18.9161 29.3421 19.0768 29.4359 19.0294 29.5859C18.9721 29.7647 19.2494 29.8417 19.3061 29.6636L19.3067 29.6622Z"
      fill="black"
    />
</g>
<defs>
<clipPath id="clip0_1373_10683">
<rect width="39" height="39" fill="white" />
</clipPath>
<clipPath id="clip1_1373_10683">
<rect width="3.10909" height="2.50744" fill="white" transform="translate(0.922119 3.14746)" />
</clipPath>
<clipPath id="clip2_1373_10683">
<rect width="4.19003" height="4.51728" fill="white" transform="translate(29.4441 1.27246)" />
</clipPath>
</defs>
</svg>
