<svg width="40" height="100" viewBox="0 0 27 45" fill="none" xmlns="http://www.w3.org/2000/svg">
<g clip-path="url(#clip0_1373_10443)">
<path
      d="M17.4234 19.2705H19.3915C23.4413 19.2705 26.7293 22.5938 26.7293 26.6871V41.7268H10.0856V26.6871C10.0856 22.5938 13.3736 19.2705 17.4234 19.2705Z"
      fill="black"
      fill-opacity="0.8"
      stroke="black"
      stroke-miterlimit="10"
    />
<path
      d="M11.9994 18.1222C11.9994 18.1222 14.6646 19.2405 15.8103 21.9588C16.6425 23.9335 19.4873 23.755 20.0159 21.6765C20.0257 21.6374 20.0356 21.5978 20.0448 21.5575C20.114 21.2536 20.1158 20.938 20.0563 20.6323C19.8266 19.4557 18.8616 16.4819 14.9082 15.2568"
      fill="#DCDCDC"
    />
<path
      d="M11.9994 18.1222C11.9994 18.1222 14.6646 19.2405 15.8103 21.9588C16.6425 23.9335 19.4873 23.755 20.0159 21.6765C20.0257 21.6374 20.0356 21.5978 20.0448 21.5575C20.114 21.2536 20.1158 20.938 20.0563 20.6323C19.8266 19.4557 18.8616 16.4819 14.9082 15.2568"
      stroke="black"
      stroke-miterlimit="10"
    />
<path
      d="M24.0543 0.273438L12.2419 25.2434L0.429443 0.273438H24.0543Z"
      fill="#DCDCDC"
      stroke="black"
      stroke-miterlimit="10"
    />
<path
      d="M7.43012 5.64754C8.0442 5.64754 8.54228 5.14411 8.54228 4.52344H6.31738C6.31738 5.14411 6.81546 5.64754 7.42954 5.64754H7.43012Z"
      fill="black"
    />
<path
      d="M14.8281 5.64754C15.4422 5.64754 15.9402 5.14411 15.9402 4.52344H13.7153C13.7153 5.14411 14.2134 5.64754 14.8275 5.64754H14.8281Z"
      fill="black"
    />
<path
      d="M14.278 10.7794L12.5569 9.52342C11.4961 8.74933 10.0602 8.76625 9.01729 9.56426L7.42957 10.7794"
      stroke="black"
      stroke-miterlimit="10"
    />
<path
      d="M10.399 10.3235C10.4683 10.278 10.5399 10.2313 10.6201 10.2109C10.6726 10.1975 10.7269 10.1957 10.7811 10.1946C11.012 10.1916 11.259 10.2161 11.4402 10.362"
      fill="white"
    />
<path
      d="M10.4717 10.4497C10.5439 10.4024 10.6091 10.3564 10.6934 10.3447C10.7626 10.3348 10.8607 10.3394 10.9392 10.3447C11.0927 10.354 11.2388 10.3884 11.3669 10.4888C11.4286 10.5372 11.5285 10.4981 11.5643 10.4363C11.6081 10.361 11.5747 10.2852 11.5123 10.2368C11.3496 10.1096 11.1401 10.0653 10.9386 10.053C10.8342 10.0466 10.7286 10.046 10.6252 10.0624C10.515 10.0799 10.4181 10.1382 10.3257 10.1983C10.2605 10.2409 10.2334 10.3278 10.2738 10.3978C10.3119 10.4637 10.4054 10.4929 10.4711 10.4503L10.4717 10.4497Z"
      fill="black"
    />
<path d="M10.0723 12.0977C10.1098 12.2067 10.0659 12.3392 9.9707 12.4027L10.0723 12.0977Z" fill="white" />
<path
      d="M9.93321 12.1361C9.9384 12.1507 9.94186 12.1658 9.94417 12.1816L9.93898 12.1431C9.94244 12.167 9.94186 12.1909 9.93898 12.2154L9.94417 12.1769C9.94071 12.2008 9.93436 12.2242 9.9257 12.2469L9.94013 12.2119C9.9309 12.2341 9.91878 12.2551 9.90435 12.2743L9.92686 12.2446C9.91358 12.2615 9.89915 12.2767 9.88242 12.2895L9.91185 12.2668C9.90724 12.2703 9.90262 12.2738 9.898 12.2767C9.86683 12.2983 9.84202 12.3263 9.83163 12.3636C9.82239 12.3986 9.82643 12.4453 9.84606 12.4762C9.86568 12.5071 9.89569 12.5345 9.93205 12.5433C9.96841 12.552 10.0111 12.5503 10.0434 12.5287C10.0896 12.4972 10.1219 12.4639 10.1548 12.4196C10.1796 12.3863 10.1964 12.3473 10.2097 12.3082C10.2362 12.2306 10.2374 12.1367 10.2114 12.0591C10.1993 12.0229 10.1785 11.9914 10.145 11.9722C10.1139 11.9541 10.0683 11.9459 10.0336 11.9576C9.999 11.9692 9.96495 11.9908 9.94764 12.0247C9.93032 12.0585 9.92051 12.0999 9.93321 12.1372V12.1361Z"
      fill="black"
    />
<path d="M10.5046 12.1494C10.5081 12.2328 10.5497 12.3139 10.6143 12.3658L10.5046 12.1494Z" fill="white" />
<path
      d="M10.3604 12.1497C10.3638 12.2185 10.3806 12.2803 10.4111 12.3416C10.4256 12.3707 10.4458 12.3964 10.466 12.4221C10.4798 12.4396 10.4948 12.4547 10.5121 12.4687C10.5254 12.4827 10.5404 12.4933 10.5583 12.4991C10.5756 12.5084 10.5941 12.5125 10.6137 12.5119C10.6489 12.5119 10.6916 12.4962 10.7159 12.4693C10.7401 12.4425 10.7597 12.4052 10.758 12.3661L10.7528 12.3276C10.7459 12.3031 10.7338 12.2815 10.7159 12.2634C10.6974 12.2488 10.6813 12.2319 10.6668 12.2127L10.6893 12.2424C10.6737 12.2214 10.661 12.1992 10.6507 12.1753L10.6651 12.2103C10.6553 12.1864 10.6484 12.1613 10.6449 12.1357L10.6501 12.1742C10.6489 12.1666 10.6484 12.1584 10.6478 12.1508C10.646 12.1123 10.6328 12.0756 10.6056 12.0476C10.5808 12.0225 10.5393 12.0032 10.5035 12.005C10.4677 12.0067 10.4273 12.019 10.4013 12.0476C10.3754 12.0762 10.3569 12.1117 10.3592 12.1508L10.3604 12.1497Z"
      fill="black"
    />
<path d="M10.3534 12.7031C10.425 12.7679 10.4809 12.8501 10.5161 12.9405L10.3534 12.7031Z" fill="white" />
<path
      d="M10.2512 12.8063C10.2795 12.832 10.3049 12.86 10.328 12.8903L10.3055 12.8606C10.3378 12.9037 10.3649 12.9504 10.3857 13L10.3713 12.965C10.373 12.9696 10.3753 12.9749 10.377 12.9796C10.3817 12.9988 10.3903 13.0151 10.403 13.0291C10.4134 13.0449 10.4267 13.0577 10.4434 13.0665C10.4746 13.0846 10.5202 13.0927 10.5548 13.0811C10.5894 13.0694 10.6235 13.0478 10.6408 13.014C10.6581 12.9801 10.6691 12.9376 10.6552 12.9014C10.6327 12.8442 10.6079 12.7888 10.5733 12.7381C10.5386 12.6873 10.5005 12.6401 10.4555 12.5992C10.4273 12.5736 10.3926 12.5566 10.3534 12.5566C10.3182 12.5566 10.2755 12.5724 10.2512 12.5992C10.227 12.6261 10.2074 12.6634 10.2091 12.7025C10.2108 12.7416 10.2229 12.7795 10.2512 12.8057V12.8063Z"
      fill="black"
    />
<path d="M11.0714 12.5713C11.1909 12.6506 11.1765 12.8326 11.2492 12.9569L11.0714 12.5713Z" fill="white" />
<path
      d="M10.9986 12.6973C11.0027 12.7002 11.0067 12.7031 11.0108 12.706L10.9813 12.6833C10.994 12.6932 11.005 12.7049 11.0154 12.7177L10.9929 12.6879C11.0085 12.7089 11.0206 12.7317 11.031 12.7556L11.0165 12.7206C11.0581 12.8227 11.0691 12.9335 11.1245 13.0304C11.162 13.0963 11.2566 13.1255 11.3218 13.0829C11.3871 13.0403 11.4142 12.9539 11.3738 12.8834C11.3663 12.8699 11.3594 12.8559 11.3536 12.8419L11.368 12.8769C11.3415 12.8128 11.3299 12.7445 11.308 12.6786C11.2947 12.6378 11.2791 12.5964 11.2561 12.5602C11.226 12.5129 11.1903 12.4768 11.1441 12.4453C11.1141 12.4249 11.0668 12.4214 11.0327 12.4307C10.9986 12.44 10.9629 12.4663 10.9467 12.4978C10.908 12.5719 10.9317 12.6512 10.9986 12.6973Z"
      fill="black"
    />
<path d="M11.4407 12.0371C11.499 12.1059 11.5688 12.1649 11.6461 12.2104L11.4407 12.0371Z" fill="white" />
<path
      d="M11.3385 12.1403C11.368 12.1754 11.4009 12.2074 11.4355 12.2366C11.4788 12.2734 11.5244 12.3072 11.5734 12.3364C11.6058 12.3556 11.6485 12.3609 11.6848 12.3509C11.7183 12.3416 11.7547 12.3154 11.7708 12.2839C11.7887 12.25 11.7974 12.2092 11.7852 12.1713C11.7731 12.1333 11.7518 12.1036 11.7189 12.0843C11.6894 12.0668 11.6612 12.0476 11.634 12.0266L11.6635 12.0493C11.6196 12.0149 11.5792 11.9764 11.5428 11.9338C11.5296 11.9198 11.5146 11.9093 11.4967 11.9035C11.4794 11.8942 11.4609 11.8901 11.4413 11.8907C11.4061 11.8907 11.3634 11.9064 11.3391 11.9333C11.3149 11.9601 11.2952 11.9974 11.297 12.0365L11.3022 12.075C11.3091 12.0995 11.3212 12.1211 11.3391 12.1392L11.3385 12.1403Z"
      fill="black"
    />
<path d="M11.9567 12.4639C11.8153 12.5152 11.7409 12.7019 11.8072 12.8384L11.9567 12.4639Z" fill="white" />
<path
      d="M11.9181 12.3229C11.8592 12.3451 11.8073 12.3748 11.7628 12.4203C11.7184 12.4658 11.689 12.5183 11.6653 12.5778C11.6468 12.6245 11.6382 12.6776 11.6382 12.7277C11.6382 12.7931 11.6549 12.8526 11.6826 12.9115C11.6976 12.943 11.7369 12.9698 11.7686 12.9786C11.8032 12.9879 11.8494 12.9838 11.88 12.964C11.9106 12.9441 11.9377 12.9138 11.9464 12.8771C11.9556 12.8368 11.9493 12.8018 11.932 12.7645C11.9296 12.7604 11.9279 12.7557 11.9262 12.7516L11.9406 12.7866C11.9325 12.7662 11.9268 12.7446 11.9239 12.7231L11.9291 12.7616C11.9262 12.7376 11.9268 12.7143 11.9291 12.691L11.9239 12.7295C11.9279 12.7026 11.9348 12.6764 11.9452 12.6513L11.9308 12.6863C11.9412 12.663 11.9539 12.6408 11.9689 12.621L11.9464 12.6507C11.9602 12.6332 11.9752 12.6181 11.9926 12.6041L11.9631 12.6268C11.9793 12.6146 11.9966 12.6041 12.0156 12.5953L11.981 12.6099C11.9856 12.6081 11.9897 12.6064 11.9943 12.6046C12.0301 12.5912 12.0607 12.572 12.0803 12.5376C12.0982 12.5061 12.1062 12.46 12.0947 12.425C12.0832 12.39 12.0618 12.3556 12.0283 12.3381C11.9949 12.3206 11.9533 12.3101 11.9169 12.3235L11.9181 12.3229Z"
      fill="black"
    />
<path d="M10.1133 13.1074C10.2022 13.1803 10.2662 13.2836 10.2934 13.3962L10.1133 13.1074Z" fill="white" />
<path
      d="M10.0111 13.2106C10.0417 13.2363 10.0694 13.2649 10.0943 13.2964L10.0717 13.2666C10.1006 13.3045 10.1248 13.3459 10.1433 13.3903L10.1289 13.3553C10.1393 13.3809 10.1479 13.4072 10.1543 13.4346C10.1629 13.4696 10.1901 13.504 10.2206 13.5215C10.2512 13.539 10.2974 13.5478 10.332 13.5361C10.4082 13.511 10.4521 13.4364 10.433 13.3564C10.4001 13.2217 10.3222 13.0916 10.216 13.0035C10.1854 12.9784 10.1549 12.9609 10.1139 12.9609C10.0787 12.9609 10.036 12.9767 10.0117 13.0035C9.98748 13.0304 9.96786 13.0677 9.96959 13.1068C9.97132 13.1429 9.98286 13.1855 10.0117 13.21L10.0111 13.2106Z"
      fill="black"
    />
<path d="M11.0794 13.6162C10.9865 13.6331 10.9091 13.716 10.8976 13.8105L11.0794 13.6162Z" fill="white" />
<path
      d="M11.0407 13.476C11.0055 13.483 10.9709 13.4975 10.9397 13.515C10.9086 13.5325 10.8791 13.5559 10.8549 13.5821C10.8307 13.6084 10.8076 13.6381 10.792 13.6708C10.7822 13.6918 10.7724 13.714 10.7654 13.7367C10.7579 13.7606 10.7562 13.7857 10.7527 13.8108C10.7522 13.8306 10.7562 13.8499 10.7654 13.8668C10.7712 13.8849 10.781 13.9006 10.7954 13.9135C10.8087 13.9275 10.8237 13.938 10.8416 13.9438C10.8589 13.9531 10.8774 13.9572 10.897 13.9566C10.9345 13.9549 10.9732 13.9426 10.9992 13.914L11.0217 13.8843C11.035 13.8615 11.0413 13.837 11.0413 13.8108V13.8079C11.0402 13.8207 11.0384 13.8335 11.0367 13.8464C11.0396 13.8283 11.0442 13.8102 11.0511 13.7933L11.0367 13.8283C11.0448 13.8096 11.0546 13.7921 11.0673 13.7758L11.0448 13.8055C11.0575 13.7892 11.0713 13.7752 11.0875 13.7624L11.058 13.7851C11.0731 13.7735 11.0898 13.7635 11.1077 13.756L11.0731 13.7705C11.0875 13.7647 11.1025 13.76 11.1175 13.7571C11.1365 13.7525 11.1527 13.7437 11.1666 13.7309C11.1821 13.7204 11.1948 13.707 11.2035 13.69C11.2139 13.6731 11.2196 13.655 11.2208 13.6358C11.2248 13.6165 11.2243 13.5973 11.2185 13.5775C11.207 13.5425 11.1856 13.508 11.1521 13.4905L11.1175 13.476C11.0921 13.469 11.0661 13.469 11.0407 13.476Z"
      fill="black"
    />
<path d="M11.7374 13.7402L11.7738 13.8482L11.7374 13.7402Z" fill="white" />
<path
      d="M11.5983 13.7794C11.6105 13.8155 11.6226 13.8517 11.6347 13.8873C11.6393 13.9065 11.648 13.9229 11.6607 13.9369C11.6711 13.9526 11.6843 13.9654 11.7011 13.9742C11.7178 13.9847 11.7357 13.9905 11.7547 13.9917C11.7738 13.9958 11.7928 13.9952 11.8125 13.9894L11.8471 13.9748C11.869 13.9619 11.8858 13.9444 11.899 13.9223L11.9135 13.8873C11.9204 13.8616 11.9204 13.8354 11.9135 13.8097C11.9013 13.7735 11.8892 13.7374 11.8771 13.7018C11.8725 13.6825 11.8638 13.6662 11.8511 13.6522C11.8407 13.6364 11.8275 13.6236 11.8107 13.6149C11.794 13.6044 11.7761 13.5985 11.757 13.5974C11.738 13.5933 11.719 13.5939 11.6993 13.5997L11.6647 13.6143C11.6428 13.6271 11.626 13.6446 11.6128 13.6668L11.5983 13.7018C11.5914 13.7274 11.5914 13.7537 11.5983 13.7794Z"
      fill="black"
    />
</g>
<defs>
<clipPath id="clip0_1373_10443">
<rect width="27" height="42" fill="white" />
</clipPath>
</defs>
</svg>
