<svg width="21" height="43" viewBox="0 0 21 43" fill="none" xmlns="http://www.w3.org/2000/svg">
<path
    d="M12.3265 26.3018C16.1474 26.3018 19.2493 29.0593 19.2493 32.4561V47.4362H5.40308V32.4561C5.40308 29.0593 8.50492 26.3018 12.3259 26.3018H12.3265Z"
    fill="#EBECF0"
    stroke="black"
    stroke-miterlimit="10"
  />
<path
    d="M11.6111 33.047C12.8036 33.047 13.7703 32.0536 13.7703 30.8282C13.7703 29.6028 12.8036 28.6094 11.6111 28.6094C10.4186 28.6094 9.4519 29.6028 9.4519 30.8282C9.4519 32.0536 10.4186 33.047 11.6111 33.047Z"
    fill="#E7FF55"
    stroke="black"
    stroke-miterlimit="10"
  />
<path
    d="M19.7087 10.7627C19.7087 5.53622 15.5855 1.2998 10.5001 1.2998C5.41466 1.2998 1.2915 5.53622 1.2915 10.7627C1.2915 12.7273 1.87432 14.552 2.87136 16.0642C1.87432 17.5763 1.2915 19.401 1.2915 21.3656C1.2915 26.5921 5.41408 30.8285 10.5001 30.8285C15.5861 30.8285 19.7087 26.5921 19.7087 21.3656C19.7087 19.401 19.1259 17.5769 18.1288 16.0642C19.1259 14.552 19.7087 12.7273 19.7087 10.7627Z"
    fill="#E7FF55"
    stroke="black"
    stroke-miterlimit="10"
  />
<path
    d="M5.9817 11.9683C6.26998 11.9683 6.50369 11.7282 6.50369 11.4319C6.50369 11.1357 6.26998 10.8955 5.9817 10.8955C5.69342 10.8955 5.45972 11.1357 5.45972 11.4319C5.45972 11.7282 5.69342 11.9683 5.9817 11.9683Z"
    fill="black"
  />
<path
    d="M11.8145 11.9683C12.1027 11.9683 12.3364 11.7282 12.3364 11.4319C12.3364 11.1357 12.1027 10.8955 11.8145 10.8955C11.5262 10.8955 11.2925 11.1357 11.2925 11.4319C11.2925 11.7282 11.5262 11.9683 11.8145 11.9683Z"
    fill="black"
  />
<path
    d="M5.6046 15.1915C5.62082 15.0647 5.65674 14.8837 5.74422 14.789C5.76392 14.7676 5.78188 14.7521 5.80621 14.7414C5.84097 14.7265 5.8485 14.7295 5.88153 14.7289C5.88848 14.7289 5.89543 14.7289 5.90238 14.7301C5.89949 14.7301 5.88095 14.7265 5.89775 14.7301C5.91107 14.7331 5.9244 14.7372 5.93714 14.7414C5.95279 14.7468 5.93714 14.7408 5.93483 14.7396C5.94352 14.7432 5.95221 14.748 5.95974 14.7521C5.97422 14.7605 5.9887 14.7688 6.00261 14.7783C6.05011 14.8099 6.08719 14.8456 6.13759 14.8956C6.188 14.9456 6.2355 14.9968 6.28648 15.045C6.39134 15.1456 6.51301 15.2415 6.65842 15.2659C6.85424 15.2986 7.02688 15.2034 7.15607 15.0569C7.27136 14.9266 7.35884 14.736 7.52221 14.6604C7.68559 14.5848 7.73657 14.7807 7.79392 14.8992C7.8843 15.0855 8.02914 15.2135 8.23654 15.232C8.44394 15.2504 8.605 15.1218 8.71797 14.9587C8.80024 14.8396 8.85817 14.6616 8.9891 14.5902C9.05399 14.5545 9.13625 14.5527 9.20404 14.5836C9.27935 14.6182 9.32222 14.6968 9.35814 14.7688C9.45083 14.9539 9.53078 15.1564 9.73239 15.2409C9.9508 15.3326 10.153 15.2004 10.2799 15.0212C10.3355 14.9426 10.3726 14.8527 10.4172 14.7676C10.4548 14.6956 10.5006 14.611 10.5782 14.5777C10.6379 14.5521 10.7086 14.5545 10.7677 14.5801C10.8395 14.611 10.8743 14.6759 10.9067 14.745C10.9872 14.9146 11.0788 15.054 11.2526 15.1314C11.4102 15.2022 11.5955 15.2171 11.7601 15.1605C11.9472 15.0962 12.0555 14.9647 12.1546 14.7956C12.1928 14.7301 12.2317 14.6664 12.3041 14.639C12.3661 14.6152 12.4379 14.6188 12.5005 14.645C12.5584 14.6694 12.5995 14.7158 12.6378 14.7646C12.6528 14.7837 12.636 14.7605 12.6499 14.7819C12.6592 14.7956 12.6679 14.8087 12.6766 14.823C12.6986 14.8593 12.7195 14.8968 12.7357 14.9361C12.7693 15.0165 12.7896 15.1046 12.7971 15.1909C12.804 15.2707 12.8585 15.3397 12.9419 15.3397C13.0149 15.3397 13.0943 15.2713 13.0868 15.1909C13.0549 14.8384 12.866 14.3943 12.4825 14.3348C12.2635 14.3009 12.0718 14.3919 11.946 14.5771C11.8927 14.6551 11.8574 14.7485 11.7873 14.8128C11.7421 14.8539 11.6836 14.8783 11.6164 14.892C11.4965 14.917 11.3493 14.8789 11.259 14.7819C11.2022 14.7206 11.1726 14.6223 11.1292 14.5426C11.0788 14.4503 11.0064 14.3705 10.9131 14.3235C10.7196 14.2258 10.4907 14.2497 10.3268 14.3955C10.1715 14.5336 10.1397 14.7545 10.0018 14.9027C9.95718 14.951 9.89808 14.9944 9.83262 14.9641C9.75383 14.9277 9.70806 14.8331 9.67156 14.7581C9.57423 14.5551 9.4769 14.355 9.24864 14.2872C9.04182 14.2252 8.82109 14.3015 8.68495 14.4699C8.62412 14.5449 8.57661 14.6283 8.52737 14.711C8.48971 14.7753 8.44974 14.845 8.39296 14.8914C8.33966 14.9343 8.27072 14.948 8.20526 14.9277C8.12936 14.9045 8.09113 14.8456 8.05637 14.7765C7.97004 14.6069 7.90052 14.4199 7.70239 14.3616C7.48108 14.2961 7.26035 14.4503 7.12653 14.6188C7.03325 14.7355 6.92897 14.9504 6.76792 14.9772C6.71056 14.9867 6.67464 14.9718 6.62945 14.9462C6.56688 14.9105 6.53908 14.8843 6.48462 14.8313C6.37512 14.7259 6.2749 14.608 6.14802 14.5235C6.00551 14.4289 5.83228 14.405 5.67644 14.4789C5.50727 14.5586 5.41516 14.7414 5.36534 14.9164C5.33984 15.0069 5.32594 15.1004 5.31435 15.1939C5.30393 15.2736 5.38851 15.3427 5.45919 15.3427C5.54609 15.3427 5.5936 15.2742 5.60402 15.1939L5.6046 15.1915Z"
    fill="black"
  />
</svg>
