<svg width="325" height="734" viewBox="0 0 325 734" fill="none" xmlns="http://www.w3.org/2000/svg">
<g clip-path="url(#clip0_986_7438)">
<path
      d="M134.7 430.22H205.35C268.17 430.22 319.17 481.22 319.17 544.04V728.51H20.8799V544.04C20.8799 481.22 71.8799 430.22 134.7 430.22Z"
      fill="#4277FF"
      stroke="black"
      stroke-width="8"
      stroke-miterlimit="10"
    />
<g clip-path="url(#clip1_986_7438)">
<path
        d="M189 523.49C189.53 537.42 189.58 551.35 189.18 565.28C189.09 568.5 194.09 568.5 194.18 565.28C194.59 551.35 194.53 537.41 194 523.49C193.88 520.28 188.88 520.27 189 523.49Z"
        fill="black"
      />
<path
        d="M205.77 523.49C206.3 537.42 206.35 551.35 205.95 565.28C205.86 568.5 210.86 568.5 210.95 565.28C211.36 551.35 211.3 537.41 210.77 523.49C210.65 520.28 205.65 520.27 205.77 523.49Z"
        fill="black"
      />
<path
        d="M192.3 546.71C197.7 546.81 203.09 546.9 208.49 547C209.8 547.02 211.05 545.83 210.99 544.5C210.93 543.17 209.89 542.02 208.49 542C203.09 541.9 197.7 541.81 192.3 541.71C190.99 541.69 189.74 542.88 189.8 544.21C189.86 545.54 190.9 546.69 192.3 546.71Z"
        fill="black"
      />
<path
        d="M227.34 521.97C223.88 522.63 222.04 525.93 220.93 528.96C219.59 532.61 218.84 536.43 218.39 540.28C217.93 544.16 217.87 548.08 218.02 551.98C218.17 555.77 218.2 559.82 219.9 563.29C221.39 566.35 224.31 568.73 227.72 569.19C231.39 569.68 234.83 567.98 236.61 564.73C240.24 558.1 241.22 549.76 241.28 542.32C241.34 534.74 241.03 523.7 232.09 521.16C228.99 520.28 227.67 525.1 230.76 525.98C236.25 527.53 236.15 535.31 236.26 539.81C236.41 546.08 235.84 552.38 233.85 558.36C233.15 560.45 232.37 563.67 229.86 564.2C227.71 564.66 225.76 563.38 224.67 561.59C223.15 559.11 223.21 555.94 223.08 553.13C222.92 549.91 222.9 546.69 223.11 543.47C223.34 539.96 223.88 536.49 224.84 533.11C225.42 531.08 226.19 527.26 228.67 526.78C230 526.53 230.75 524.93 230.42 523.7C230.04 522.31 228.68 521.7 227.34 521.95V521.97Z"
        fill="black"
      />
<path
        d="M245.23 526.21C252.57 526.34 259.91 526.27 267.25 526C270.46 525.88 270.47 520.88 267.25 521C259.91 521.27 252.57 521.34 245.23 521.21C242.01 521.15 242.01 526.15 245.23 526.21Z"
        fill="black"
      />
<path
        d="M254.48 524.38C253.58 528.09 254.19 531.77 254.38 535.52C254.57 539.27 254.37 543.05 254.05 546.81C253.42 554.33 252.34 561.83 252.78 569.39C252.97 572.59 257.97 572.61 257.78 569.39C257.34 561.99 258.37 554.65 259.01 547.29C259.33 543.62 259.54 539.93 259.41 536.24C259.28 532.77 258.47 529.14 259.3 525.71C260.06 522.58 255.24 521.25 254.48 524.38Z"
        fill="black"
      />
</g>
<path
      d="M139.63 80.7002H139.62C65.288 80.7002 5.03003 140.958 5.03003 215.29V358.29C5.03003 432.622 65.288 492.88 139.62 492.88H139.63C213.962 492.88 274.22 432.622 274.22 358.29V215.29C274.22 140.958 213.962 80.7002 139.63 80.7002Z"
      fill="#5C9442"
      stroke="black"
      stroke-width="8"
      stroke-miterlimit="10"
    />
<g clip-path="url(#clip2_986_7438)">
<path
        d="M274 260.005C274 251.163 268.771 244 262.327 244C255.882 244 250.654 251.163 250.654 260.005C250.654 265.643 252.782 270.596 256.004 273.444L249.28 292.511C248.38 295.064 249.778 297.853 252.405 298.728C255.031 299.603 257.901 298.244 258.801 295.69L266.048 275.17C270.668 273.043 274.012 267.061 274.012 260.005H274Z"
        fill="white"
      />
</g>
<path
      d="M84.2201 227.41C84.2201 219.568 77.8625 213.21 70.0201 213.21C62.1776 213.21 55.8201 219.568 55.8201 227.41V252.66C55.8201 260.502 62.1776 266.86 70.0201 266.86C77.8625 266.86 84.2201 260.502 84.2201 252.66V227.41Z"
      fill="black"
    />
<path
      d="M162.15 227.41C162.15 219.568 155.792 213.21 147.95 213.21C140.108 213.21 133.75 219.568 133.75 227.41V252.66C133.75 260.502 140.108 266.86 147.95 266.86C155.792 266.86 162.15 260.502 162.15 252.66V227.41Z"
      fill="black"
    />
<path
      d="M134.85 226.89C141.27 225.69 147.72 224.66 154.19 223.78L151.53 224.14C157.68 223.32 163.84 222.64 170.02 222.11C172.72 221.88 175.12 221.15 177.09 219.18C178.82 217.45 180.13 214.6 180.02 212.11C179.91 209.62 179.05 206.84 177.09 205.04C175.23 203.33 172.63 201.89 170.02 202.11C156.45 203.28 142.92 205.11 129.53 207.61C127.19 208.05 124.72 210.21 123.55 212.21C122.3 214.35 121.76 217.51 122.54 219.92C123.32 222.33 124.82 224.67 127.14 225.9C129.63 227.22 132.07 227.43 134.85 226.91V226.89Z"
      fill="black"
    />
<path
      d="M47.5 218.31C59.91 221.18 72.16 224.67 84.22 228.75C86.59 229.55 89.81 228.98 91.93 227.74C94.05 226.5 95.98 224.15 96.53 221.76C97.79 216.22 94.86 211.26 89.55 209.46C77.49 205.38 65.23 201.89 52.83 199.02C50.24 198.42 47.45 198.66 45.12 200.03C43.05 201.24 41.07 203.62 40.52 206.01C39.94 208.57 40.06 211.44 41.53 213.72C42.91 215.86 44.96 217.72 47.51 218.32L47.5 218.31Z"
      fill="black"
    />
<path
      d="M107.81 318.61C125.38 318.61 139.62 304.37 139.62 286.8H76C76 304.37 90.24 318.61 107.81 318.61Z"
      fill="black"
    />
<path
      d="M85.8999 146.48C64.1199 132.6 43.0299 115.25 33.2999 91.33C22.2999 64.28 27.5999 33.69 33.0599 5C39.0199 26.43 49.8899 46.48 64.5999 63.16C62.7999 45.63 65.7199 27.63 72.9699 11.56C77.1499 31.35 86.7199 49.97 100.37 64.9C102.05 59.01 103.73 53.12 105.41 47.23C112.57 58.77 121.77 69.03 132.47 77.38C132.78 74.12 133.1 70.86 133.41 67.6C147.74 77.24 157.41 93.9 157.57 111.17C157.73 128.44 147.89 145.71 132.44 153.44C116.99 161.17 96.6299 158.36 84.5599 146"
      fill="#FF2626"
    />
<path
      d="M88.4199 142.17C84.1499 139.44 79.9399 136.62 75.8499 133.64C74.8799 132.93 73.9099 132.21 72.9499 131.49C72.7399 131.33 72.5199 131.17 72.3099 131C72.3099 131 71.2599 130.19 71.8599 130.66C72.4599 131.13 71.4199 130.32 71.4099 130.31C71.0899 130.06 70.7799 129.81 70.4599 129.56C68.5199 128.02 66.6199 126.45 64.7599 124.82C61.0099 121.55 57.4199 118.1 54.0699 114.42C52.3899 112.57 50.7599 110.67 49.2099 108.71C49.0499 108.5 48.8899 108.3 48.7199 108.09C49.3899 108.95 48.8299 108.23 48.6599 108.01C48.2999 107.54 47.9499 107.07 47.6099 106.59C46.8399 105.53 46.0899 104.46 45.3699 103.37C42.6699 99.3199 40.3899 95.0599 38.3799 90.6199C37.8499 89.4499 38.6399 91.2799 38.3399 90.5399C38.2099 90.2199 38.0799 89.8999 37.9499 89.5699C37.6999 88.9499 37.4599 88.3299 37.2299 87.6999C36.7399 86.3799 36.2899 85.0599 35.8699 83.7199C35.0399 81.0599 34.3499 78.3499 33.7799 75.6199C33.5099 74.3299 33.2699 73.0299 33.0599 71.7299C32.9499 71.0799 32.8599 70.4299 32.7599 69.7699C32.6199 68.9099 32.8999 70.9799 32.7299 69.5699C32.6799 69.1299 32.6199 68.6999 32.5699 68.2599C32.2599 65.5499 32.0599 62.8399 31.9599 60.1199C31.7399 54.5399 31.8999 48.9499 32.3199 43.3899C32.5599 40.2399 32.8799 37.0999 33.2599 33.9599C33.3599 33.1399 33.4699 32.3099 33.5699 31.4899C33.6799 30.6099 33.3999 32.6899 33.5999 31.2499C33.6599 30.7999 33.7299 30.3499 33.7899 29.8999C33.9999 28.3999 34.2299 26.9099 34.4699 25.4199C35.4799 19.0299 36.6599 12.6699 37.8699 6.31994H28.2299C33.0299 23.4699 40.8199 39.8499 51.2099 54.3099C54.2899 58.5899 57.5699 62.7299 61.0499 66.6899C62.3599 68.1799 64.7799 68.4499 66.5099 67.7199C68.2399 66.9899 69.7799 65.0999 69.5799 63.1499C69.1399 58.7999 68.9799 54.4299 69.1099 50.0599C69.1699 47.9499 69.2999 45.8499 69.4899 43.7499C69.5899 42.6999 69.7099 41.6499 69.8299 40.5999C69.9099 40.0099 69.9099 39.9999 69.8299 40.5799C69.8699 40.2799 69.9099 39.9799 69.9599 39.6899C70.0399 39.1699 70.1199 38.6499 70.1999 38.1299C70.8899 33.8899 71.8399 29.6999 73.0599 25.5799C73.6599 23.5599 74.3199 21.5499 75.0499 19.5699C75.4099 18.5799 75.7899 17.5999 76.1799 16.6199C76.2499 16.4499 76.9699 14.7399 76.5399 15.7299C76.7799 15.1799 77.0199 14.6299 77.2699 14.0799C74.2199 13.6799 71.1799 13.2799 68.1299 12.8899C71.5099 28.7599 78.2499 44.0299 87.7299 57.1999C90.5499 61.1099 93.5699 64.8699 96.8199 68.4399C99.4099 71.2799 104.18 69.7099 105.18 66.2299C106.86 60.34 108.54 54.4499 110.22 48.5599C107.17 48.9599 104.13 49.3599 101.08 49.7499C108.48 61.6399 117.9 72.2699 128.92 80.9199C130.56 82.1999 132.34 82.8099 134.38 81.9499C136.42 81.0899 137.26 79.4199 137.45 77.3799C137.76 74.1199 138.08 70.8599 138.39 67.5999L130.87 71.9199C131.4 72.2799 131.93 72.6399 132.44 73.0199C132.7 73.2099 132.95 73.3999 133.21 73.5899C133.85 74.0499 132.29 72.8399 133.26 73.6299C134.23 74.4199 135.24 75.2599 136.18 76.1199C138.07 77.8499 139.84 79.7099 141.48 81.6799C141.64 81.8799 141.81 82.0799 141.97 82.2699C141.99 82.2999 142.78 83.2899 142.29 82.6699C141.8 82.0499 142.58 83.0599 142.6 83.0799C142.75 83.2899 142.9 83.4899 143.05 83.6999C143.84 84.7899 144.58 85.9099 145.29 87.0499C146.6 89.1699 147.77 91.38 148.78 93.66C148.88 93.88 149.47 94.9899 148.88 93.8699C148.99 94.0799 149.08 94.3599 149.17 94.5799C149.4 95.1699 149.63 95.7699 149.84 96.3699C150.26 97.5699 150.64 98.7899 150.98 100.02C151.32 101.25 151.57 102.37 151.81 103.55C151.92 104.11 152.02 104.68 152.11 105.24C152.11 105.3 152.32 106.54 152.19 105.71C152.06 104.92 152.27 106.42 152.29 106.56C152.55 109 152.62 111.47 152.49 113.92C152.43 115.07 152.4 116.29 152.17 117.42C152.45 116.01 152.07 117.95 152.01 118.29C151.9 118.9 151.78 119.5 151.65 120.11C151.13 122.52 150.42 124.9 149.53 127.2C149.44 127.43 149.35 127.66 149.26 127.89C149.16 128.15 148.85 129.29 149.19 128.06C149.04 128.58 148.73 129.09 148.5 129.58C147.94 130.75 147.34 131.9 146.69 133.02C146.14 133.98 145.55 134.92 144.93 135.84C144.59 136.35 144.23 136.86 143.87 137.35C143.72 137.55 143.58 137.74 143.43 137.94C142.83 138.75 144.01 137.23 143.19 138.24C141.68 140.1 140.04 141.84 138.26 143.45C137.81 143.86 137.34 144.26 136.87 144.65C136.68 144.81 136.49 144.96 136.3 145.11C135.33 145.91 137.17 144.49 136.15 145.23C135.13 145.97 134.15 146.65 133.11 147.3C132.17 147.88 131.2 148.43 130.22 148.93C129.68 149.21 129.13 149.47 128.58 149.72C128.52 149.75 127.42 150.22 128.18 149.9C128.94 149.58 127.56 150.14 127.43 150.19C125.29 151 123.07 151.63 120.83 152.08C120.24 152.2 119.64 152.3 119.05 152.39C117.86 152.59 119.9 152.3 119.12 152.39C118.82 152.42 118.52 152.46 118.22 152.49C117.02 152.61 115.81 152.69 114.6 152.71C113.27 152.74 111.94 152.71 110.62 152.61C109.9 152.56 109.18 152.48 108.46 152.4C108.08 152.36 107.7 152.5 108.71 152.43C108.37 152.45 107.97 152.32 107.64 152.26C105.03 151.81 102.46 151.13 99.9799 150.21C99.6399 150.08 99.3099 149.95 98.9699 149.82C98.0099 149.45 99.8599 150.23 98.8399 149.76C98.2899 149.51 97.7499 149.26 97.2099 149C95.9799 148.39 94.7799 147.71 93.6199 146.97C93.0599 146.62 92.5199 146.25 91.9799 145.87C91.7799 145.73 91.5899 145.59 91.3999 145.45C90.5799 144.86 92.1399 146.06 91.1299 145.24C90.0499 144.37 89.0399 143.43 88.0699 142.44C86.2299 140.57 82.8199 140.46 80.9999 142.44C79.1799 144.42 79.0399 147.52 80.9999 149.51C96.5599 165.3 123.49 167.08 141.2 153.86C150.3 147.07 156.93 137.55 160.26 126.7C163.59 115.85 163.19 104.26 159.47 93.6999C155.09 81.2799 146.79 70.6399 135.9 63.2499C134.45 62.2699 132.32 62.3899 130.85 63.2499C129.22 64.2099 128.55 65.7599 128.37 67.5699C128.06 70.8299 127.74 74.0899 127.43 77.3499C130.28 76.1699 133.12 74.9899 135.97 73.8099C130.68 69.6599 125.75 65.0799 121.25 60.0899C120.15 58.8699 119.08 57.6199 118.03 56.3599C117.53 55.7499 117.03 55.1399 116.55 54.5299C116.35 54.2799 115.74 53.4999 116.28 54.1899C116.02 53.8499 115.76 53.5099 115.5 53.1699C113.44 50.4299 111.51 47.5899 109.69 44.6799C107.43 41.0399 101.75 41.6699 100.55 45.8699C98.8699 51.7599 97.1899 57.6499 95.5099 63.5399C98.2999 62.7999 101.08 62.0699 103.87 61.3299C102.55 59.8899 101.27 58.4099 100.03 56.9099C99.4499 56.2099 98.8999 55.4999 98.3299 54.7899C97.8599 54.2099 98.7999 55.4099 98.3399 54.8099C98.2099 54.6399 98.0899 54.4799 97.9599 54.3099C97.6199 53.8699 97.2899 53.4199 96.9599 52.9699C94.6899 49.8799 92.5799 46.6699 90.6299 43.3699C88.6799 40.0699 86.8299 36.5399 85.1999 32.9899C84.8199 32.1699 84.4599 31.3399 84.0899 30.5099C83.7199 29.6799 84.0299 30.3799 84.0999 30.5499C84.0199 30.3599 83.9399 30.1599 83.8599 29.9699C83.6499 29.4499 83.4399 28.9399 83.2299 28.4199C82.5099 26.5999 81.8399 24.7699 81.2199 22.9199C79.8199 18.7599 78.6599 14.5099 77.7499 10.2099C77.3399 8.28994 75.4399 6.87994 73.5899 6.62994C71.7399 6.37994 69.4099 7.21994 68.6099 9.01994C61.0199 25.9499 57.6999 44.6399 59.5499 63.1399C62.3999 61.9599 65.2399 60.7799 68.0899 59.5999C66.6799 57.9899 65.2999 56.3599 63.9499 54.6999C63.6399 54.3099 63.3299 53.9199 63.0199 53.5299C62.8299 53.2899 62.0499 52.2799 62.6199 53.0199C61.9299 52.1099 61.2399 51.1999 60.5699 50.2799C58.0399 46.8299 55.6699 43.2699 53.4499 39.6099C51.2299 35.9499 49.1699 32.1999 47.2699 28.3699C46.3199 26.4499 45.4099 24.5199 44.5499 22.5599C44.3499 22.0999 44.1499 21.6499 43.9499 21.1899C43.8899 21.0599 43.5399 20.2199 43.7799 20.7999C44.0099 21.3399 43.7299 20.6799 43.6999 20.6099C43.2699 19.5599 42.8399 18.4999 42.4199 17.4299C40.6699 12.9099 39.1399 8.29994 37.8399 3.63994C37.3099 1.63994 35.2399 -0.0900563 33.0599 -5.62496e-05C30.8799 0.0899438 28.6599 1.46994 28.2399 3.66994C23.8199 26.9099 19.5599 50.7699 23.4199 74.3999C25.2099 85.3599 29.0699 95.9599 34.8499 105.45C40.2699 114.35 47.2099 122.32 54.8699 129.36C63.6399 137.41 73.3599 144.4 83.3799 150.8C85.5899 152.21 88.9899 151.33 90.2199 149.01C91.5299 146.53 90.7799 143.67 88.4299 142.17H88.4199Z"
      fill="black"
    />
</g>
<defs>
<clipPath id="clip0_986_7438">
<rect width="324.2" height="733.54" fill="white" />
</clipPath>
<clipPath id="clip1_986_7438">
<rect width="80.66" height="50.79" fill="white" transform="translate(189 521)" />
</clipPath>
<clipPath id="clip2_986_7438">
<rect width="25" height="55" fill="white" transform="translate(249 244)" />
</clipPath>
</defs>
</svg>
